<?xml version="1.0" encoding="UTF-8"?>
<svg id="_图层_2" data-name="图层 2" xmlns="http://www.w3.org/2000/svg" xmlns:xlink="http://www.w3.org/1999/xlink" viewBox="0 0 105 105">
  <defs>
    <style>
      .cls-1 {
        fill: #ec6600;
        stroke-width: 0px;
      }

      .cls-2 {
        filter: url(#outer-glow-1);
        stroke: #ec6600;
        stroke-miterlimit: 10;
      }
    </style>
    <filter id="outer-glow-1" filterUnits="userSpaceOnUse">
      <feOffset dx="0" dy="0"/>
      <feGaussianBlur result="blur" stdDeviation="5"/>
      <feFlood flood-color="#e87400" flood-opacity=".75"/>
      <feComposite in2="blur" operator="in"/>
      <feComposite in="SourceGraphic"/>
    </filter>
  </defs>
  <g id="_图层_1-2" data-name="图层 1">
    <circle class="cls-2" cx="52.38" cy="52.45" r="36.27"/>
    <g>
      <path class="cls-1" d="m61.57,40.95h-21.12c-.88-.04-1.58-.76-1.58-1.64s.7-1.61,1.58-1.64h21.12c.88.04,1.58.76,1.58,1.64s-.7,1.61-1.58,1.64h0Zm0,5.7h-21.12c-.88-.04-1.58-.76-1.58-1.64s.7-1.61,1.58-1.64h21.12c.88.04,1.58.76,1.58,1.64s-.7,1.61-1.58,1.64h0Zm-6.48,5.79h-14.41c-.88-.04-1.58-.76-1.58-1.64s.7-1.61,1.58-1.64h14.42c.88.04,1.58.76,1.58,1.64s-.7,1.61-1.58,1.64h0Zm13.89,22.3c-.16,0-.31-.04-.45-.12l-4.5-2.5-4.51,2.5c-.45.25-1.02.09-1.27-.37-.1-.18-.14-.4-.1-.6l.86-5.33-3.65-3.77c-.24-.25-.33-.62-.21-.95.11-.33.4-.57.75-.63l5.04-.77,2.26-4.81c.15-.33.48-.54.85-.54s.69.21.85.54l2.26,4.81,5.04.77c.35.05.64.29.75.63.11.33.03.7-.22.95l-3.66,3.77.87,5.33c.08.51-.26.99-.77,1.07-.05,0-.11,0-.16,0v.02Zm-4.95-4.76c.16,0,.31.04.45.12l3.27,1.81-.62-3.89c-.04-.29.06-.59.27-.8l2.73-2.81-3.74-.57c-.31-.05-.57-.25-.7-.53l-1.64-3.46-1.63,3.48c-.13.28-.4.48-.71.53l-3.74.57,2.73,2.81c.21.21.3.51.25.8l-.63,3.88,3.26-1.8c.14-.08.3-.13.46-.14h-.01Zm12.24-1.48c-.08-.23-.28-.4-.52-.44l-2.35-.36-.75-1.6-.9,1.15.62,1.31c.09.2.28.33.49.37l1.44.23-1.07,1.09c-.14.15-.21.35-.17.56l.24,1.5-1.24-.68c-.2-.11-.43-.11-.63,0l-.68.37.23,1.37.76-.44,2.09,1.16c.31.17.71.06.88-.25.07-.13.1-.29.07-.43l-.41-2.5,1.72-1.76c.17-.17.23-.41.16-.64h0Z"/>
      <path class="cls-1" d="m51.38,75.44h-12.21c-3.13-.05-5.62-2.62-5.58-5.75v-34.48c-.04-3.13,2.46-5.69,5.58-5.75h25.16c3.13.05,5.62,2.62,5.58,5.75v20.03l-2.8-.03v-20.01c.02-1.56-1.23-2.85-2.79-2.88h-25.16c-1.57.02-2.82,1.31-2.8,2.88v34.48c-.02,1.57,1.23,2.85,2.8,2.88h12.21v2.87Z"/>
      <path class="cls-1" d="m50.96,68.86l-1.72-1.71c1.52-1.99,1.22-4.81-.67-6.44-1.89-1.63-4.73-1.5-6.47.29-1.74,1.79-1.78,4.63-.09,6.48,1.69,1.84,4.52,2.05,6.46.48l1.69,1.69c.1.1.24.16.39.16s.29-.06.39-.16c.21-.22.21-.56,0-.78h.03Zm-7.51-2.56c-1-.99-1.16-2.54-.38-3.71.78-1.17,2.27-1.63,3.57-1.1,1.3.53,2.04,1.91,1.77,3.29-.27,1.38-1.48,2.37-2.88,2.37-.78,0-1.53-.31-2.08-.86h.01Z"/>
    </g>
  </g>
</svg>