<?xml version="1.0" encoding="UTF-8"?>
<svg id="_图层_2" data-name="图层 2" xmlns="http://www.w3.org/2000/svg" xmlns:xlink="http://www.w3.org/1999/xlink" viewBox="0 0 116 116">
  <defs>
    <style>
      .cls-1 {
        fill: #ec6600;
        stroke-width: 0px;
      }

      .cls-2 {
        filter: url(#outer-glow-1);
        stroke: #ec6600;
        stroke-miterlimit: 10;
      }
    </style>
    <filter id="outer-glow-1" filterUnits="userSpaceOnUse">
      <feOffset dx="0" dy="0"/>
      <feGaussianBlur result="blur" stdDeviation="7"/>
      <feFlood flood-color="#ff6700" flood-opacity=".75"/>
      <feComposite in2="blur" operator="in"/>
      <feComposite in="SourceGraphic"/>
    </filter>
  </defs>
  <g id="_图层_1-2" data-name="图层 1">
    <g>
      <circle class="cls-2" cx="57.9" cy="58.06" r="36"/>
      <g>
        <rect class="cls-1" x="52.68" y="38.47" width=".93" height="15.86" transform="translate(-14.72 27.11) rotate(-25.26)"/>
        <rect class="cls-1" x="50.06" y="38.25" width=".92" height="19.9" transform="translate(-15.86 26.53) rotate(-25.58)"/>
        <rect class="cls-1" x="52.23" y="47.5" width="19.34" height=".92" transform="translate(-7.97 83.32) rotate(-64.61)"/>
        <rect class="cls-1" x="55.32" y="47.77" width="19.94" height=".92" transform="translate(-6.28 86.53) rotate(-64.61)"/>
        <path class="cls-1" d="m57.81,75.24c-4.33,0-7.86-3.53-7.86-7.86s3.53-7.86,7.86-7.86,7.86,3.53,7.86,7.86-3.53,7.86-7.86,7.86Zm0-14.79c-3.82,0-6.93,3.11-6.93,6.93s3.11,6.93,6.93,6.93,6.93-3.11,6.93-6.93-3.11-6.93-6.93-6.93Z"/>
        <polygon class="cls-1" points="64.56 58.41 62.89 57.61 71 40.57 63.34 40.57 55.45 57.15 53.78 56.36 62.17 38.72 73.92 38.72 64.56 58.41"/>
        <polygon class="cls-1" points="51.19 58.32 41.87 38.72 53.63 38.72 58.73 49.46 57.06 50.25 52.46 40.57 44.8 40.57 52.86 57.53 51.19 58.32"/>
        <path class="cls-1" d="m57.81,79.4c-6.63,0-12.02-5.39-12.02-12.02s5.39-12.02,12.02-12.02,12.02,5.39,12.02,12.02-5.39,12.02-12.02,12.02Zm0-22.19c-5.61,0-10.17,4.56-10.17,10.17s4.56,10.17,10.17,10.17,10.17-4.56,10.17-10.17-4.56-10.17-10.17-10.17Z"/>
      </g>
    </g>
  </g>
</svg>