<?xml version="1.0" encoding="UTF-8"?>
<svg id="_图层_2" data-name="图层 2" xmlns="http://www.w3.org/2000/svg" xmlns:xlink="http://www.w3.org/1999/xlink" viewBox="0 0 116 116">
  <defs>
    <style>
      .cls-1 {
        fill: #ec6600;
      }

      .cls-1, .cls-2 {
        stroke-width: 0px;
      }

      .cls-2 {
        fill: none;
      }

      .cls-3 {
        filter: url(#outer-glow-1);
        stroke: #ec6600;
        stroke-miterlimit: 10;
      }

      .cls-4 {
        clip-path: url(#clippath);
      }
    </style>
    <filter id="outer-glow-1" filterUnits="userSpaceOnUse">
      <feOffset dx="0" dy="0"/>
      <feGaussianBlur result="blur" stdDeviation="7"/>
      <feFlood flood-color="#ff6700" flood-opacity=".75"/>
      <feComposite in2="blur" operator="in"/>
      <feComposite in="SourceGraphic"/>
    </filter>
    <clipPath id="clippath">
      <rect class="cls-2" x="39.57" y="39.01" width="36.67" height="38.45"/>
    </clipPath>
  </defs>
  <g id="_图层_1-2" data-name="图层 1">
    <g>
      <circle class="cls-3" cx="57.9" cy="57.96" r="36"/>
      <g class="cls-4">
        <path class="cls-1" d="m57.77,46.65c-3.18,0-6.16,1.24-8.41,3.48-2.25,2.25-3.48,5.23-3.48,8.41s1.24,6.16,3.48,8.41c2.25,2.25,5.23,3.48,8.41,3.48s6.16-1.24,8.41-3.48c2.25-2.25,3.48-5.23,3.48-8.41s-1.24-6.16-3.48-8.41c-2.25-2.25-5.23-3.48-8.41-3.48h0Zm0,20.84c-4.93,0-8.95-4.01-8.95-8.95s4.01-8.95,8.95-8.95,8.95,4.01,8.95,8.95-4.01,8.95-8.95,8.95h0Zm5.38,3.52h-10.77c-.81,0-1.47.66-1.47,1.47s.66,1.47,1.47,1.47h10.77c.81,0,1.47-.66,1.47-1.47s-.66-1.47-1.47-1.47h0Zm-2.15,3.52h-6.46c-.81,0-1.47.66-1.47,1.47s.66,1.47,1.47,1.47h6.46c.81,0,1.47-.66,1.47-1.47s-.66-1.47-1.47-1.47h0Zm-3.23-28.41c.81,0,1.47-.66,1.47-1.47v-4.17c0-.81-.66-1.47-1.47-1.47s-1.47.66-1.47,1.47v4.17c0,.81.66,1.47,1.47,1.47h0Zm8.12,2.13c.25.18.55.27.84.27.46,0,.92-.22,1.21-.63l2.39-3.41c.47-.67.3-1.58-.36-2.05-.67-.47-1.58-.3-2.05.36l-2.39,3.41c-.47.67-.31,1.58.36,2.05h0Zm10.23,3.49c-.29-.76-1.13-1.14-1.89-.86l-3.91,1.46c-.76.29-1.14,1.13-.86,1.89.22.59.78.95,1.38.95.17,0,.35-.03.51-.09l3.91-1.46c.76-.29,1.15-1.13.86-1.89h0Zm-28.28-4.54c.29.41.74.63,1.21.63.29,0,.58-.09.84-.27.67-.47.83-1.38.36-2.05l-2.39-3.41c-.47-.67-1.38-.83-2.05-.36-.67.47-.83,1.38-.36,2.05l2.39,3.41Zm-1.53,6.33c.29-.76-.1-1.61-.86-1.89l-3.91-1.46c-.76-.29-1.61.1-1.89.86-.29.76.1,1.61.86,1.89l3.91,1.46c.17.06.34.09.51.09.6,0,1.16-.36,1.38-.95h0Z"/>
      </g>
    </g>
  </g>
</svg>