<?xml version="1.0" encoding="UTF-8"?>
<svg id="_图层_2" data-name="图层 2" xmlns="http://www.w3.org/2000/svg" xmlns:xlink="http://www.w3.org/1999/xlink" viewBox="0 0 105 105">
  <defs>
    <style>
      .cls-1 {
        fill: #ec6600;
        stroke-width: 0px;
      }

      .cls-2 {
        filter: url(#outer-glow-1);
        stroke: #ec6600;
        stroke-miterlimit: 10;
      }
    </style>
    <filter id="outer-glow-1" filterUnits="userSpaceOnUse">
      <feOffset dx="0" dy="0"/>
      <feGaussianBlur result="blur" stdDeviation="5"/>
      <feFlood flood-color="#e87400" flood-opacity=".75"/>
      <feComposite in2="blur" operator="in"/>
      <feComposite in="SourceGraphic"/>
    </filter>
  </defs>
  <g id="_图层_1-2" data-name="图层 1">
    <circle class="cls-2" cx="52.38" cy="52.34" r="36.27"/>
    <g>
      <path class="cls-1" d="m28.77,58.83c-.9,2.08-.26,4.51,1.56,5.87,2.48,2.01,15.29,9.94,19.14,10.57.65.08,1.31.12,1.97.12,6.1,0,15.94-2.86,24.1-5.47.51-.17.86-.64.86-1.18v-11.06c0-.33-.13-.65-.37-.88-.23-.23-.55-.37-.88-.37h-29.92c-1.77-.04-3.39.98-4.14,2.58l-7.11-1.92c-1.54-.35-4.3-.36-5.22,1.74h0Zm3.13,3.92c-.93-.66-1.28-1.88-.84-2.93.22-.5,1.64-.47,2.34-.31l7.57,2.04c.15.64.49,1.22.96,1.67,1.08.9,2.44,1.39,3.84,1.39l10.63.55h.07c.68.02,1.25-.52,1.27-1.21.02-.68-.52-1.25-1.21-1.27l-10.71-.55c-.78.02-1.55-.22-2.18-.68-.23-.24-.35-.56-.33-.89,0-1.55,1.6-1.64,1.92-1.64h28.67v8.91c-8.09,2.56-18.96,5.69-24.08,4.99-3.12-.45-15.43-8-17.94-10.06h0Zm37.93-15.46c.69,0,1.24-.56,1.24-1.25v-15.51c0-.33-.13-.64-.36-.88-.23-.23-.55-.36-.88-.36h-29.07c-.69,0-1.24.55-1.25,1.24v15.51c0,.69.56,1.24,1.25,1.25h29.07Zm-1.21-2.49h-26.62v-13.02h26.62v13.02Z"/>
      <path class="cls-1" d="m65.25,51.85c0-.67-.54-1.22-1.21-1.24h-27.86v-14.27c0-.44-.24-.85-.62-1.07-.38-.22-.86-.22-1.24,0-.38.22-.62.63-.62,1.07v15.51c0,.33.13.65.36.88.23.23.55.37.88.37h29.06c.69,0,1.25-.56,1.25-1.25h0Zm-9.96-18.2c-1.23,0-2.41.48-3.28,1.35-.87.87-1.36,2.05-1.36,3.28,0,2.56,2.07,4.63,4.63,4.63s4.63-2.07,4.63-4.62c0-2.56-2.06-4.63-4.62-4.64h0Zm0,6.78c-.57,0-1.12-.23-1.52-.63-.4-.4-.63-.95-.63-1.52,0-1.19.96-2.15,2.15-2.15s2.15.96,2.15,2.15-.96,2.15-2.15,2.15h0Z"/>
    </g>
  </g>
</svg>