<?xml version="1.0" encoding="UTF-8"?>
<svg id="_图层_2" data-name="图层 2" xmlns="http://www.w3.org/2000/svg" xmlns:xlink="http://www.w3.org/1999/xlink" viewBox="0 0 105 105">
  <defs>
    <style>
      .cls-1 {
        fill: #ec6600;
        stroke-width: 0px;
      }

      .cls-2 {
        filter: url(#outer-glow-1);
        stroke: #ec6600;
        stroke-miterlimit: 10;
      }
    </style>
    <filter id="outer-glow-1" filterUnits="userSpaceOnUse">
      <feOffset dx="0" dy="0"/>
      <feGaussianBlur result="blur" stdDeviation="5"/>
      <feFlood flood-color="#e87400" flood-opacity=".75"/>
      <feComposite in2="blur" operator="in"/>
      <feComposite in="SourceGraphic"/>
    </filter>
  </defs>
  <g id="_图层_1-2" data-name="图层 1">
    <circle class="cls-2" cx="52.38" cy="52.56" r="36.27"/>
    <path class="cls-1" d="m42.48,40.59v9.61c0,.22.08.41.23.57.15.16.34.24.58.24h3.52c.22,0,.41-.08.57-.24.16-.16.24-.35.24-.57v-9.61c0-.22-.08-.41-.24-.57-.16-.16-.35-.24-.57-.24h-3.52c-.24,0-.43.08-.58.24-.15.16-.23.35-.23.57m3.55.81v8.03h-1.96v-8.03h1.96m3.77.96v6.09c0,.47.11.9.34,1.3.23.39.54.7.93.93.39.23.82.34,1.28.34s.89-.11,1.28-.34c.39-.23.71-.54.94-.93.24-.39.35-.83.35-1.3v-6.09c0-.45-.12-.88-.35-1.27-.24-.39-.55-.71-.94-.94-.39-.24-.82-.35-1.28-.35s-.89.12-1.28.35c-.39.24-.7.55-.93.94-.23.39-.34.82-.34,1.27m3.52,0v6.09c0,.27-.09.5-.28.69-.18.19-.41.29-.68.29s-.5-.1-.69-.29c-.19-.19-.29-.42-.29-.69v-6.09c0-.27.1-.49.29-.68.19-.18.42-.28.69-.28s.49.09.68.28.28.41.28.68m3.82-1.74v9.64c0,.22.08.41.23.57.15.16.34.24.55.24h3.55c.22,0,.41-.08.57-.24.16-.16.24-.35.24-.57v-9.64c0-.22-.08-.4-.24-.55-.16-.15-.35-.23-.57-.23h-3.55c-.22,0-.4.08-.55.23-.15.15-.23.34-.23.55m3.52.81v8.03h-1.94v-8.03h1.94m-15.93,11.27c.4.77.98,1.39,1.72,1.86.75.47,1.57.7,2.48.7,1.06,0,2.01-.33,2.87-.98l.6.91c.03.05.08.07.14.06.06,0,.09-.04.09-.09l.58-2.57s0-.07-.02-.1c-.02-.03-.04-.05-.08-.05l-2.57-.58c-.05-.02-.09,0-.13.05-.03.05-.04.1-.02.15l.58.88c-.05.02-.1.04-.15.08-.55.44-1.18.65-1.89.65-.59,0-1.13-.15-1.62-.45-.49-.3-.88-.72-1.14-1.26-.1-.18-.26-.31-.47-.38-.21-.07-.41-.05-.62.04-.2.09-.34.24-.4.45-.07.21-.05.42.05.62m14.82-16.93l-.65.81-.08-.05c-.4-.32-.84-.57-1.32-.74-.48-.18-.98-.26-1.5-.26-.8,0-1.55.21-2.24.62-.69.41-1.23.95-1.64,1.62l-.18.35c-.08.2-.09.4-.01.6.08.2.21.35.4.44.19.09.39.1.6.02.21-.08.36-.21.47-.39l.1-.23c.27-.45.62-.81,1.07-1.06.44-.25.92-.38,1.42-.38.69,0,1.29.21,1.81.63l.08.05-.7.83c-.03.05-.04.1-.01.15.03.05.07.08.14.08l2.62-.25s.06-.04.09-.06c.02-.03.03-.05.01-.09l-.25-2.62c0-.05-.03-.08-.09-.1-.06-.02-.1,0-.14.02h0Z"/>
    <g>
      <path class="cls-1" d="m73.26,70.01H31.5c-1.82,0-3.3-1.48-3.3-3.3v-32.97c0-1.82,1.48-3.3,3.3-3.3h41.76c1.82,0,3.3,1.48,3.3,3.3v32.97c0,1.82-1.48,3.3-3.3,3.3ZM31.5,32.64c-.61,0-1.1.49-1.1,1.1v32.97c0,.61.49,1.1,1.1,1.1h41.76c.61,0,1.1-.49,1.1-1.1v-32.97c0-.61-.49-1.1-1.1-1.1H31.5Z"/>
      <rect class="cls-1" x="29.3" y="59.02" width="46.16" height="2.2"/>
      <rect class="cls-1" x="33.7" y="63.41" width="37.37" height="2.2"/>
    </g>
  </g>
</svg>