<svg width="177" height="240" viewBox="0 0 177 240" fill="none" xmlns="http://www.w3.org/2000/svg">
<path d="M88.8674 161.16C133.37 161.16 169.447 125.083 169.447 80.5798C169.447 36.0768 133.37 0 88.8674 0C44.3644 0 8.2876 36.0768 8.2876 80.5798C8.2876 125.083 44.3644 161.16 88.8674 161.16Z" fill="white"/>
<path d="M66.873 54.008V75.3582C66.873 75.847 67.0508 76.2691 67.384 76.6246C67.7173 76.98 68.1394 77.1577 68.6726 77.1577H76.4929C76.9816 77.1577 77.4037 76.98 77.7592 76.6246C78.1147 76.2691 78.2924 75.847 78.2924 75.3582V54.008C78.2924 53.5192 78.1147 53.0971 77.7592 52.7416C77.4037 52.3862 76.9816 52.2084 76.4929 52.2084H68.6726C68.1394 52.2084 67.7173 52.3862 67.384 52.7416C67.0508 53.0971 66.873 53.5192 66.873 54.008ZM74.76 55.8075V73.6475H70.4055V55.8075H74.76ZM83.1356 57.9181V71.4481C83.1356 72.4923 83.38 73.4476 83.891 74.3362C84.402 75.2027 85.0907 75.8914 85.9572 76.4024C86.8236 76.9134 87.7789 77.1577 88.8009 77.1577C89.8229 77.1577 90.7782 76.9134 91.6446 76.4024C92.5111 75.8914 93.222 75.2027 93.733 74.3362C94.2662 73.4698 94.5106 72.4923 94.5106 71.4481V57.9181C94.5106 56.9184 94.244 55.9631 93.733 55.0966C93.1998 54.2302 92.5111 53.5192 91.6446 53.0082C90.7782 52.475 89.8229 52.2306 88.8009 52.2306C87.7789 52.2306 86.8236 52.4972 85.9572 53.0082C85.0907 53.5414 84.402 54.2302 83.891 55.0966C83.38 55.9631 83.1356 56.9184 83.1356 57.9181ZM90.9781 57.9181V71.4481C90.9781 72.0479 90.7782 72.5589 90.3561 72.981C89.9562 73.4031 89.4452 73.6253 88.8453 73.6253C88.2455 73.6253 87.7345 73.4031 87.3124 72.981C86.8903 72.5589 86.6681 72.0479 86.6681 71.4481V57.9181C86.6681 57.3183 86.8903 56.8295 87.3124 56.4074C87.7345 56.0075 88.2455 55.7853 88.8453 55.7853C89.4452 55.7853 89.9339 55.9853 90.3561 56.4074C90.7782 56.8295 90.9781 57.3183 90.9781 57.9181ZM99.4649 54.0746V75.4915C99.4649 75.9803 99.6426 76.4024 99.9759 76.7579C100.309 77.1133 100.731 77.291 101.198 77.291H109.085C109.573 77.291 109.996 77.1133 110.351 76.7579C110.707 76.4024 110.884 75.9803 110.884 75.4915V54.0746C110.884 53.5859 110.707 53.1859 110.351 52.8527C109.996 52.5194 109.573 52.3417 109.085 52.3417H101.198C100.709 52.3417 100.309 52.5194 99.9759 52.8527C99.6426 53.1859 99.4649 53.6081 99.4649 54.0746ZM107.285 55.852V73.6919H102.975V55.852H107.285ZM71.9162 80.8902C72.8049 82.6008 74.0935 83.9783 75.7375 85.0225C77.4038 86.0666 79.2255 86.5776 81.2472 86.5776C83.6022 86.5776 85.7128 85.8445 87.6234 84.4004L88.9564 86.4221C89.0231 86.5332 89.1341 86.5776 89.2675 86.5554C89.4007 86.5554 89.4674 86.4665 89.4674 86.3554L90.756 80.6458C90.756 80.6458 90.756 80.4902 90.7115 80.4236C90.6671 80.3569 90.6227 80.3125 90.5338 80.3125L84.8241 79.024C84.713 78.9795 84.6242 79.0239 84.5353 79.135C84.4686 79.2461 84.4464 79.3572 84.4909 79.4683L85.7794 81.4233C85.6684 81.4678 85.5573 81.5122 85.4462 81.6011C84.2243 82.5786 82.8246 83.0452 81.2472 83.0452C79.9364 83.0452 78.7368 82.7119 77.6481 82.0454C76.5595 81.3789 75.6931 80.4458 75.1154 79.2461C74.8933 78.8462 74.5378 78.5574 74.0713 78.4019C73.6047 78.2463 73.1604 78.2908 72.6938 78.4907C72.2495 78.6907 71.9384 79.0239 71.8051 79.4905C71.6496 79.957 71.6941 80.4236 71.9162 80.8679M104.841 43.2773L103.397 45.0769L103.22 44.9658C102.331 44.2549 101.353 43.6994 100.287 43.3218C99.2205 42.9219 98.1097 42.7441 96.9544 42.7441C95.1771 42.7441 93.5108 43.2107 91.9779 44.1216C90.4449 45.0324 89.2452 46.2321 88.3343 47.7207L87.9344 48.4982C87.7567 48.9426 87.7345 49.3869 87.9122 49.8313C88.09 50.2756 88.3788 50.6088 88.8009 50.8088C89.223 51.0087 89.6673 51.0309 90.1339 50.8532C90.6004 50.6755 90.9337 50.3867 91.1781 49.9868L91.4002 49.4758C92.0001 48.476 92.7777 47.6762 93.7774 47.1208C94.755 46.5654 95.8214 46.2766 96.9322 46.2766C98.4652 46.2766 99.7981 46.7431 100.953 47.6762L101.131 47.7873L99.576 49.6313C99.5093 49.7424 99.4871 49.8535 99.5538 49.9646C99.6204 50.0756 99.7093 50.1423 99.8648 50.1423L105.686 49.5869C105.686 49.5869 105.819 49.498 105.886 49.4535C105.93 49.3869 105.952 49.3425 105.908 49.2536L105.352 43.4329C105.352 43.3218 105.286 43.2551 105.152 43.2107C105.019 43.1662 104.93 43.2107 104.841 43.2551V43.2773Z" fill="#EC6600"/>
<path d="M135.256 119.348H42.479C38.4355 119.348 35.1475 116.06 35.1475 112.016V38.768C35.1475 34.7246 38.4355 31.4365 42.479 31.4365H135.256C139.299 31.4365 142.587 34.7246 142.587 38.768V112.016C142.587 116.06 139.299 119.348 135.256 119.348ZM42.479 36.3464C41.1237 36.3464 40.0351 37.4351 40.0351 38.7903V112.039C40.0351 113.394 41.1237 114.482 42.479 114.482H135.256C136.611 114.482 137.7 113.394 137.7 112.039V38.7903C137.7 37.4351 136.611 36.3464 135.256 36.3464H42.479Z" fill="#EC6600"/>
<path d="M140.143 94.9316H37.5913V99.8193H140.143V94.9316Z" fill="#EC6600"/>
<path d="M130.39 104.707H47.3667V109.595H130.39V104.707Z" fill="#EC6600"/>
<path d="M4.81514 207.744H9.09014C9.13514 207.384 9.13514 207.069 9.13514 206.754V204.819H6.88514C6.25514 205.899 5.53514 206.889 4.81514 207.744ZM21.2401 216.249L17.4601 219.669C16.2001 218.544 13.6801 216.699 11.6551 215.304C10.0351 217.599 7.42514 219.894 3.37514 221.784C2.65514 220.704 1.17014 219.039 0.000136711 218.184C4.59014 216.384 6.88514 214.179 8.01014 211.929H0.540137V207.744H3.55514C2.47514 207.069 1.03514 206.259 0.135137 205.809C2.43014 203.649 4.18514 200.364 5.08514 197.034L9.81014 198.024C9.54014 198.879 9.27014 199.779 8.91014 200.679H20.0701V204.819H14.2201V206.844C14.2201 207.159 14.2201 207.429 14.1751 207.744H21.1051V211.929H13.6801C15.5701 212.919 20.0701 215.484 21.2401 216.249ZM30.3751 224.529H11.7901V227.049H30.3751V224.529ZM11.7901 233.574H30.3751V230.919H11.7901V233.574ZM6.52514 239.334V220.344H35.8651V239.289H30.3751V237.849H11.7901V239.334H6.52514ZM34.4251 212.919V205.314H27.5851V212.919H34.4251ZM22.6351 200.589H39.7351V217.644H22.6351V200.589ZM52.6051 226.824H59.3101V224.214H52.6051V226.824ZM59.3101 217.869H52.6051V220.254H59.3101V217.869ZM64.6201 213.459V233.889C64.6201 236.229 64.1701 237.534 62.6401 238.299C61.1551 239.154 59.0401 239.199 56.3851 239.199C56.1151 237.804 55.3051 235.734 54.6301 234.474C56.2501 234.564 58.0051 234.519 58.5901 234.474C59.1301 234.474 59.3101 234.339 59.3101 233.799V230.784H52.6051V239.289H47.6551V213.459H64.6201ZM57.2401 201.714L61.7851 200.049C63.8551 203.109 66.1501 207.114 66.8701 209.949L62.0101 211.884C61.8751 211.209 61.6051 210.444 61.2901 209.634C50.4451 210.534 48.6901 210.849 47.5201 211.299C47.2501 210.264 46.3501 207.744 45.7201 206.304C46.4401 206.124 47.1601 205.539 47.9251 204.549C48.6001 203.649 50.7151 200.499 51.9751 197.169L57.6451 198.654C56.3851 201.219 54.5851 203.874 52.8751 206.034L59.4451 205.629C58.7701 204.279 57.9601 202.929 57.2401 201.714ZM80.7751 217.419H74.6101C69.3901 217.419 68.0851 215.889 68.0851 210.984V197.439H73.3951V203.919C76.4551 202.704 79.4701 201.354 81.5401 200.139L84.9601 204.009C81.5401 205.674 77.3101 207.069 73.3951 208.239V210.894C73.3951 212.514 73.6651 212.694 75.3751 212.694H80.2351C81.7201 212.694 81.9901 212.019 82.2151 208.104C83.2951 208.914 85.4101 209.724 86.8951 210.039C86.3101 215.799 84.8701 217.419 80.7751 217.419ZM75.5101 234.339H80.5501C82.1251 234.339 82.3951 233.484 82.6201 228.984C83.7451 229.749 85.8601 230.559 87.3001 230.919C86.7601 237.219 85.3201 239.019 81.0451 239.019H74.7451C69.4801 239.019 68.1301 237.444 68.1301 232.539V218.409H73.4401V224.484C76.6351 223.224 79.7401 221.739 81.9001 220.299L85.4101 224.214C81.9451 226.059 77.5351 227.679 73.4401 228.984V232.539C73.4401 234.114 73.7551 234.339 75.5101 234.339ZM112.725 212.559L122.58 212.019C121.815 211.074 121.05 210.129 120.33 209.319L123.39 207.474H116.73C115.47 209.184 114.03 210.984 112.725 212.559ZM131.805 216.384L127.53 219.129C127.08 218.319 126.45 217.329 125.685 216.249C108.765 217.464 106.425 217.644 104.715 218.319C104.535 217.014 103.905 214.449 103.5 213.324C104.49 213.144 106.11 212.784 107.055 211.884C107.73 211.254 109.305 209.364 110.79 207.474H103.14V202.704H114.84C114.39 201.264 113.805 199.689 113.22 198.384L118.17 197.214C119.025 198.924 119.925 201.039 120.42 202.704H131.04V207.474H124.875C127.395 210.264 130.365 213.954 131.805 216.384ZM103.05 202.704L99.9001 207.024C98.2351 205.359 94.6801 203.109 91.8901 201.714L94.8601 197.799C97.6051 199.014 101.25 201.039 103.05 202.704ZM101.34 214.539L98.3701 218.994C96.6151 217.464 92.9251 215.349 90.0451 214.134L92.8351 210.084C95.6701 211.119 99.4951 213.054 101.34 214.539ZM99.3601 221.019L103.275 224.619C100.89 229.299 98.0551 234.429 95.3551 238.794L90.8101 235.194C93.2401 231.819 96.6601 226.239 99.3601 221.019ZM106.335 223.494V219.399H111.15V223.674C111.15 228.534 110.385 234.744 104.31 239.064C103.59 237.984 101.79 236.364 100.575 235.599C105.75 232.044 106.335 227.319 106.335 223.494ZM113.895 237.354V219.354H118.575V237.354H113.895ZM126.945 234.294H127.665C127.89 234.294 128.115 234.249 128.25 234.159C128.385 233.979 128.475 233.664 128.565 232.989C128.655 232.269 128.7 230.694 128.745 228.669C129.555 229.434 131.13 230.244 132.345 230.649C132.255 232.629 132.075 235.014 131.76 235.914C131.445 236.814 130.995 237.489 130.32 237.894C129.69 238.299 128.655 238.524 127.845 238.524H125.505C124.425 238.524 123.255 238.164 122.535 237.399C121.725 236.634 121.41 235.689 121.41 232.674V219.399H126.36V232.809C126.36 233.484 126.36 233.934 126.495 234.069C126.585 234.204 126.765 234.294 126.945 234.294ZM169.335 208.464V203.064H158.085V208.464H169.335ZM174.555 198.564V212.964H153.09V198.564H174.555ZM152.19 222.909L149.085 227.364C148.5 226.014 147.51 223.989 146.475 222.054V239.379H141.525V223.809C140.22 227.094 138.78 230.199 137.205 232.359C136.665 230.784 135.45 228.444 134.64 227.049C136.935 224.124 139.23 219.309 140.67 214.989H135.81V209.994H141.525V204.504C140.04 204.774 138.645 204.999 137.25 205.224C137.025 204.054 136.35 202.254 135.765 201.084C140.085 200.319 144.855 198.969 148.05 197.439L151.155 201.804C149.76 202.389 148.14 202.884 146.475 203.334V209.994H151.155V214.989H146.475V215.754C147.87 217.284 151.38 221.784 152.19 222.909ZM166.905 233.304H176.895V238.164H150.885V233.304H161.55V229.209H153.72V224.484H161.55V220.479H152.64V215.709H175.95V220.479H166.905V224.484H174.825V229.209H166.905V233.304Z" fill="white"/>
</svg>
