<?xml version="1.0" encoding="UTF-8"?>
<svg id="_图层_2" data-name="图层 2" xmlns="http://www.w3.org/2000/svg" xmlns:xlink="http://www.w3.org/1999/xlink" viewBox="0 0 109 108">
  <defs>
    <style>
      .cls-1 {
        fill: #ec6600;
        stroke-width: 0px;
      }

      .cls-2 {
        filter: url(#outer-glow-1);
        stroke: #ec6600;
        stroke-miterlimit: 10;
      }
    </style>
    <filter id="outer-glow-1" filterUnits="userSpaceOnUse">
      <feOffset dx="0" dy="0"/>
      <feGaussianBlur result="blur" stdDeviation="5.67"/>
      <feFlood flood-color="#e87400" flood-opacity=".75"/>
      <feComposite in2="blur" operator="in"/>
      <feComposite in="SourceGraphic"/>
    </filter>
  </defs>
  <g id="_图层_1-2" data-name="图层 1">
    <circle class="cls-2" cx="54.39" cy="53.78" r="36.27"/>
    <g>
      <rect class="cls-1" x="28.77" y="47.45" width="50.44" height="3.78"/>
      <path class="cls-1" d="m70.22,32.79l2.34,2.97-18.17,14.32-18.17-14.32,2.34-2.97,15.83,12.47,15.83-12.47Z"/>
      <path class="cls-1" d="m54.39,75.46l23.62-26.57-8.24-13.08h-30.77l-8.24,13.08,23.62,26.57Zm28.33-26.18l-28.33,31.86-28.33-31.86,10.86-17.25h34.94l10.86,17.25Z"/>
      <path class="cls-1" d="m56.15,76.53l-3.59,1.19-9.08-27.4,3.59-1.19,9.08,27.4Z"/>
      <path class="cls-1" d="m52.93,76.53l3.59,1.19,9.08-27.4-3.59-1.19-9.08,27.4Z"/>
    </g>
  </g>
</svg>