<svg width="178" height="235" viewBox="0 0 178 235" fill="none" xmlns="http://www.w3.org/2000/svg">
<path d="M86.5098 160.487C130.969 160.487 167.01 124.561 167.01 80.2434C167.01 35.9262 130.969 0 86.5098 0C42.0508 0 6.00977 35.9262 6.00977 80.2434C6.00977 124.561 42.0508 160.487 86.5098 160.487Z" fill="white"/>
<path d="M141.597 66.2393H29.647V74.6021H141.597V66.2393Z" fill="#EC6600"/>
<path d="M121.644 33.7832L126.837 40.354L86.5098 72.0354L46.1821 40.354L51.3757 33.7832L86.5098 61.3717L121.644 33.7832Z" fill="#EC6600"/>
<path d="M86.5098 128.208L138.934 69.4249L120.645 40.4869H52.3522L34.0638 69.4249L86.4876 128.208H86.5098ZM149.409 70.2877L86.532 140.774L23.6323 70.2877L47.7357 32.124H125.284L149.387 70.2877H149.409Z" fill="#EC6600"/>
<path d="M90.416 130.576L82.4481 133.208L62.2954 72.5888L70.2633 69.9561L90.416 130.576Z" fill="#EC6600"/>
<path d="M83.2695 130.576L91.2374 133.208L111.39 72.5888L103.422 69.9561L83.2695 130.576Z" fill="#EC6600"/>
<path d="M34.0198 204.62L39.1048 206.33C34.8748 213.62 27.7648 220.145 19.2598 223.97C18.5848 222.8 17.2348 220.865 16.2898 219.875C20.4298 218.21 24.2548 215.78 27.3598 212.99C20.6098 213.485 19.1248 213.755 18.1798 214.16C17.9998 212.9 17.2798 210.425 16.8748 209.3C17.9548 209.075 19.5748 208.715 20.4298 207.815C21.1498 207.005 22.8598 204.305 24.2548 202.055H16.7848V197.195H27.3148C26.9548 195.8 26.3698 194.27 25.7398 192.965L30.7798 191.435C31.7698 193.235 32.7148 195.485 33.1198 197.195H42.2548V202.055H29.8798C28.5298 204.215 27.0448 206.645 25.6498 208.715L31.6348 208.445C32.5348 207.185 33.3898 205.88 34.0198 204.62ZM16.8298 214.655L13.7248 218.255C13.2748 216.995 12.4648 215.24 11.6098 213.485V233.87H6.47977V217.31C5.30977 220.64 4.00477 223.7 2.56477 225.815C2.06977 224.285 0.899766 221.855 -0.000234297 220.415C2.74477 216.905 5.12977 210.605 6.43477 205.205H1.03477V200.255H6.47977V191.84H11.6098V200.21H16.1098V205.205H11.6098V206.645C12.8698 208.31 16.0648 213.395 16.8298 214.655ZM36.6748 213.215L42.2098 215.195C40.4098 218.21 38.1148 221 35.4598 223.565C38.1598 225.68 41.1748 228.245 42.8848 230.045L38.7448 233.51C37.2598 231.665 34.3798 228.965 31.6348 226.715C27.4498 229.775 22.6348 232.295 17.1448 233.96C16.4698 232.7 14.9848 230.585 13.9948 229.415C24.5698 226.535 33.0298 220.325 36.6748 213.215ZM58.8598 196.25L62.5048 192.605C66.5548 195.17 72.2698 199.13 74.9698 201.92L71.0098 206.105C68.5798 203.36 63.0448 199.085 58.8598 196.25ZM77.1298 207.95L82.1248 205.925C84.6448 211.28 86.9848 218.03 87.9298 222.665L82.4848 224.915C81.8098 220.325 79.4698 213.215 77.1298 207.95ZM49.2298 207.365L54.4498 208.355C53.8198 214.16 52.6948 221.945 51.1648 227.03L45.7648 224.87C47.3398 220.1 48.6448 213.35 49.2298 207.365ZM57.3298 204.71H62.9098V225.59C62.9098 227.705 63.2698 228.065 65.4298 228.065H71.8648C74.1148 228.065 74.5198 226.625 74.8348 219.605C76.0948 220.55 78.3898 221.495 79.8748 221.855C79.2448 230.405 77.8048 233.06 72.2698 233.06H64.7998C58.9498 233.06 57.3298 231.26 57.3298 225.59V204.71ZM100.08 192.02L105.12 193.595C103.905 196.88 102.375 200.255 100.62 203.495V233.915H95.5348V211.415C94.7248 212.495 93.8698 213.53 93.0598 214.43C92.5648 213.125 91.0798 210.155 90.1798 208.895C94.0948 204.755 97.8748 198.455 100.08 192.02ZM131.94 207.185H116.415C115.56 218.345 112.95 227.885 104.625 234.005C103.77 232.565 102.105 230.72 100.71 229.775C108.18 224.645 110.385 216.68 111.105 207.185H102.375V202.145H111.375C111.465 199.04 111.465 195.8 111.465 192.47H116.82C116.82 195.755 116.775 199.04 116.685 202.145H125.91C124.74 200.255 122.355 197.465 120.375 195.44L124.11 192.785C126.09 194.72 128.745 197.51 129.96 199.355L126.225 202.145H131.94V207.185ZM123.57 227.975H126.45C127.53 227.975 127.71 226.985 127.89 221.045C128.97 221.945 131.22 222.845 132.57 223.205C132.12 230.675 130.86 232.88 126.945 232.88H122.715C118.26 232.88 117.135 231.215 117.135 226.175V209.885H122.355V226.175C122.355 227.75 122.535 227.975 123.57 227.975ZM167.4 195.845H172.26C171.9 204.665 171.855 210.02 172.98 210.02C173.52 210.02 173.745 208.85 173.88 206.285C174.87 207.14 176.49 207.86 177.66 208.175C177.21 213.17 175.86 214.565 172.755 214.565C167.85 214.565 167.31 208.94 167.355 200.3H163.53C163.305 202.28 162.945 204.08 162.405 205.7C164.34 206.915 166.095 208.085 167.31 209.03L164.52 213.17C163.485 212.315 161.955 211.19 160.335 210.02C159.165 211.685 157.59 213.08 155.61 214.295H157.41C157.32 215.195 157.185 216.095 157.095 216.95H173.295C173.295 216.95 173.25 218.39 173.115 219.065C172.395 226.895 171.585 230.45 170.1 231.89C168.885 233.105 167.535 233.465 165.645 233.6C164.07 233.78 161.37 233.735 158.49 233.645C158.4 232.115 157.68 230.135 156.78 228.785C159.525 229.01 162.36 229.055 163.575 229.055C164.475 229.055 165.06 229.01 165.555 228.605C166.32 227.93 166.95 225.86 167.445 221.675H155.88C153.81 227.345 149.4 231.575 138.555 234.05C138.06 232.61 136.8 230.54 135.765 229.415C144.18 227.75 148.005 225.14 149.94 221.675H137.79V216.95H151.515C151.695 216.095 151.785 215.195 151.92 214.295H153.945C153.27 213.17 152.235 211.865 151.38 211.145C153.495 210.11 155.07 208.895 156.15 207.365C154.98 206.6 153.81 205.925 152.82 205.34L152.865 206.69C151.065 206.96 149.265 207.23 147.465 207.5V210.2C147.465 212.54 147.06 213.71 145.485 214.43C144 215.15 141.885 215.195 138.915 215.195C138.735 213.845 138.105 212 137.52 210.74C139.32 210.785 141.21 210.785 141.795 210.785C142.38 210.785 142.56 210.605 142.56 210.11V208.22L136.755 209.03L135.9 204.215C137.79 204.035 140.085 203.765 142.56 203.45V200.48H136.62V195.8H142.56V191.93H147.465V195.8H152.46V200.48H147.465V202.82C149.22 202.595 150.93 202.325 152.685 202.145L152.775 205.205L155.385 201.65C156.24 202.055 157.14 202.55 158.04 203.135C158.265 202.235 158.445 201.335 158.58 200.3H153.495V195.89H158.94C159.03 194.63 159.03 193.325 159.075 191.885H164.025C163.98 193.28 163.98 194.585 163.89 195.89H167.4V195.845Z" fill="white"/>
</svg>
