<svg width="178" height="250" viewBox="0 0 178 250" fill="none" xmlns="http://www.w3.org/2000/svg">
<path d="M34.0198 205.62L39.1048 207.33C34.8748 214.62 27.7648 221.145 19.2598 224.97C18.5848 223.8 17.2348 221.865 16.2898 220.875C20.4298 219.21 24.2548 216.78 27.3598 213.99C20.6098 214.485 19.1248 214.755 18.1798 215.16C17.9998 213.9 17.2798 211.425 16.8748 210.3C17.9548 210.075 19.5748 209.715 20.4298 208.815C21.1498 208.005 22.8598 205.305 24.2548 203.055H16.7848V198.195H27.3148C26.9548 196.8 26.3698 195.27 25.7398 193.965L30.7798 192.435C31.7698 194.235 32.7148 196.485 33.1198 198.195H42.2548V203.055H29.8798C28.5298 205.215 27.0448 207.645 25.6498 209.715L31.6348 209.445C32.5348 208.185 33.3898 206.88 34.0198 205.62ZM16.8298 215.655L13.7248 219.255C13.2748 217.995 12.4648 216.24 11.6098 214.485V234.87H6.47977V218.31C5.30977 221.64 4.00477 224.7 2.56477 226.815C2.06977 225.285 0.899766 222.855 -0.000234297 221.415C2.74477 217.905 5.12977 211.605 6.43477 206.205H1.03477V201.255H6.47977V192.84H11.6098V201.21H16.1098V206.205H11.6098V207.645C12.8698 209.31 16.0648 214.395 16.8298 215.655ZM36.6748 214.215L42.2098 216.195C40.4098 219.21 38.1148 222 35.4598 224.565C38.1598 226.68 41.1748 229.245 42.8848 231.045L38.7448 234.51C37.2598 232.665 34.3798 229.965 31.6348 227.715C27.4498 230.775 22.6348 233.295 17.1448 234.96C16.4698 233.7 14.9848 231.585 13.9948 230.415C24.5698 227.535 33.0298 221.325 36.6748 214.215ZM58.8598 197.25L62.5048 193.605C66.5548 196.17 72.2698 200.13 74.9698 202.92L71.0098 207.105C68.5798 204.36 63.0448 200.085 58.8598 197.25ZM77.1298 208.95L82.1248 206.925C84.6448 212.28 86.9848 219.03 87.9298 223.665L82.4848 225.915C81.8098 221.325 79.4698 214.215 77.1298 208.95ZM49.2298 208.365L54.4498 209.355C53.8198 215.16 52.6948 222.945 51.1648 228.03L45.7648 225.87C47.3398 221.1 48.6448 214.35 49.2298 208.365ZM57.3298 205.71H62.9098V226.59C62.9098 228.705 63.2698 229.065 65.4298 229.065H71.8648C74.1148 229.065 74.5198 227.625 74.8348 220.605C76.0948 221.55 78.3898 222.495 79.8748 222.855C79.2448 231.405 77.8048 234.06 72.2698 234.06H64.7998C58.9498 234.06 57.3298 232.26 57.3298 226.59V205.71ZM100.08 193.02L105.12 194.595C103.905 197.88 102.375 201.255 100.62 204.495V234.915H95.5348V212.415C94.7248 213.495 93.8698 214.53 93.0598 215.43C92.5648 214.125 91.0798 211.155 90.1798 209.895C94.0948 205.755 97.8748 199.455 100.08 193.02ZM131.94 208.185H116.415C115.56 219.345 112.95 228.885 104.625 235.005C103.77 233.565 102.105 231.72 100.71 230.775C108.18 225.645 110.385 217.68 111.105 208.185H102.375V203.145H111.375C111.465 200.04 111.465 196.8 111.465 193.47H116.82C116.82 196.755 116.775 200.04 116.685 203.145H125.91C124.74 201.255 122.355 198.465 120.375 196.44L124.11 193.785C126.09 195.72 128.745 198.51 129.96 200.355L126.225 203.145H131.94V208.185ZM123.57 228.975H126.45C127.53 228.975 127.71 227.985 127.89 222.045C128.97 222.945 131.22 223.845 132.57 224.205C132.12 231.675 130.86 233.88 126.945 233.88H122.715C118.26 233.88 117.135 232.215 117.135 227.175V210.885H122.355V227.175C122.355 228.75 122.535 228.975 123.57 228.975ZM167.4 196.845H172.26C171.9 205.665 171.855 211.02 172.98 211.02C173.52 211.02 173.745 209.85 173.88 207.285C174.87 208.14 176.49 208.86 177.66 209.175C177.21 214.17 175.86 215.565 172.755 215.565C167.85 215.565 167.31 209.94 167.355 201.3H163.53C163.305 203.28 162.945 205.08 162.405 206.7C164.34 207.915 166.095 209.085 167.31 210.03L164.52 214.17C163.485 213.315 161.955 212.19 160.335 211.02C159.165 212.685 157.59 214.08 155.61 215.295H157.41C157.32 216.195 157.185 217.095 157.095 217.95H173.295C173.295 217.95 173.25 219.39 173.115 220.065C172.395 227.895 171.585 231.45 170.1 232.89C168.885 234.105 167.535 234.465 165.645 234.6C164.07 234.78 161.37 234.735 158.49 234.645C158.4 233.115 157.68 231.135 156.78 229.785C159.525 230.01 162.36 230.055 163.575 230.055C164.475 230.055 165.06 230.01 165.555 229.605C166.32 228.93 166.95 226.86 167.445 222.675H155.88C153.81 228.345 149.4 232.575 138.555 235.05C138.06 233.61 136.8 231.54 135.765 230.415C144.18 228.75 148.005 226.14 149.94 222.675H137.79V217.95H151.515C151.695 217.095 151.785 216.195 151.92 215.295H153.945C153.27 214.17 152.235 212.865 151.38 212.145C153.495 211.11 155.07 209.895 156.15 208.365C154.98 207.6 153.81 206.925 152.82 206.34L152.865 207.69C151.065 207.96 149.265 208.23 147.465 208.5V211.2C147.465 213.54 147.06 214.71 145.485 215.43C144 216.15 141.885 216.195 138.915 216.195C138.735 214.845 138.105 213 137.52 211.74C139.32 211.785 141.21 211.785 141.795 211.785C142.38 211.785 142.56 211.605 142.56 211.11V209.22L136.755 210.03L135.9 205.215C137.79 205.035 140.085 204.765 142.56 204.45V201.48H136.62V196.8H142.56V192.93H147.465V196.8H152.46V201.48H147.465V203.82C149.22 203.595 150.93 203.325 152.685 203.145L152.775 206.205L155.385 202.65C156.24 203.055 157.14 203.55 158.04 204.135C158.265 203.235 158.445 202.335 158.58 201.3H153.495V196.89H158.94C159.03 195.63 159.03 194.325 159.075 192.885H164.025C163.98 194.28 163.98 195.585 163.89 196.89H167.4V196.845Z" fill="white"/>
<g clip-path="url(#clip0_0_1)">
<path d="M96.3486 160.487C140.808 160.487 176.849 124.561 176.849 80.2434C176.849 35.9262 140.808 0 96.3486 0C51.8897 0 15.8486 35.9262 15.8486 80.2434C15.8486 124.561 51.8897 160.487 96.3486 160.487Z" fill="white"/>
<path d="M151.436 66.2393H39.4858V74.6021H151.436V66.2393Z" fill="#EC6600"/>
<path d="M131.483 33.7832L136.676 40.354L96.3487 72.0354L56.021 40.354L61.2145 33.7832L96.3487 61.3717L131.483 33.7832Z" fill="#EC6600"/>
<path d="M96.3486 128.208L148.772 69.4249L130.484 40.4869H62.1911L43.9027 69.4249L96.3264 128.208H96.3486ZM159.248 70.2877L96.3708 140.774L33.4712 70.2877L57.5746 32.124H135.123L159.226 70.2877H159.248Z" fill="#EC6600"/>
<path d="M100.255 130.576L92.287 133.208L72.1343 72.5888L80.1022 69.9561L100.255 130.576Z" fill="#EC6600"/>
<path d="M93.1084 130.576L101.076 133.208L121.229 72.5888L113.261 69.9561L93.1084 130.576Z" fill="#EC6600"/>
</g>
<defs>
<clipPath id="clip0_0_1">
<rect width="161" height="250" fill="white" transform="translate(15.8486)"/>
</clipPath>
</defs>
</svg>
