<svg width="222" height="246" viewBox="0 0 222 246" fill="none" xmlns="http://www.w3.org/2000/svg">
<path d="M112.823 161.16C157.326 161.16 193.402 125.083 193.402 80.5798C193.402 36.0768 157.326 0 112.823 0C68.3195 0 32.2427 36.0768 32.2427 80.5798C32.2427 125.083 68.3195 161.16 112.823 161.16Z" fill="white"/>
<path d="M133.24 55.0527H86.3183C84.3633 54.9638 82.8081 53.3643 82.8081 51.4092C82.8081 49.4541 84.3633 47.8323 86.3183 47.7656H133.24C135.195 47.8545 136.75 49.4541 136.75 51.4092C136.75 53.3643 135.195 54.986 133.24 55.0527ZM133.24 67.7162H86.3183C84.3633 67.6273 82.8081 66.0277 82.8081 64.0727C82.8081 62.1176 84.3633 60.4958 86.3183 60.4292H133.24C135.195 60.518 136.75 62.1176 136.75 64.0727C136.75 66.0277 135.195 67.6496 133.24 67.7162ZM118.821 80.5796H86.8071C84.852 80.4908 83.2969 78.8912 83.2969 76.9361C83.2969 74.9811 84.852 73.3592 86.8071 73.2926H118.844C120.799 73.3814 122.354 74.9811 122.354 76.9361C122.354 78.8912 120.799 80.513 118.844 80.5796H118.821ZM149.68 130.123C149.325 130.123 148.992 130.034 148.681 129.856L138.683 124.302L128.663 129.856C127.664 130.412 126.397 130.056 125.842 129.034C125.62 128.634 125.531 128.146 125.62 127.701L127.53 115.86L119.421 107.484C118.888 106.929 118.688 106.107 118.955 105.373C119.199 104.64 119.843 104.107 120.621 103.974L131.818 102.263L136.839 91.5769C137.172 90.8437 137.905 90.3772 138.727 90.3772C139.549 90.3772 140.26 90.8437 140.616 91.5769L145.637 102.263L156.834 103.974C157.612 104.085 158.256 104.618 158.5 105.373C158.745 106.107 158.567 106.929 158.012 107.484L149.88 115.86L151.813 127.701C151.991 128.834 151.235 129.901 150.102 130.078C149.991 130.078 149.858 130.078 149.747 130.078V130.123H149.68ZM138.705 119.57C139.061 119.57 139.394 119.659 139.705 119.837L146.97 123.858L145.592 115.215C145.504 114.571 145.726 113.905 146.192 113.438L152.257 107.195L143.948 105.929C143.26 105.818 142.682 105.373 142.393 104.751L138.75 97.0644L135.128 104.796C134.84 105.418 134.24 105.862 133.551 105.973L125.242 107.24L131.307 113.482C131.774 113.949 131.974 114.616 131.863 115.26L130.463 123.88L137.705 119.881C138.017 119.703 138.372 119.592 138.727 119.57H138.705ZM165.876 116.26C165.698 115.749 165.254 115.371 164.721 115.282L159.5 114.482L157.834 110.928L155.834 113.482L157.212 116.393C157.412 116.837 157.834 117.126 158.3 117.215L161.5 117.726L159.122 120.147C158.811 120.481 158.656 120.925 158.745 121.392L159.278 124.724L156.523 123.213C156.079 122.969 155.568 122.969 155.123 123.213L153.613 124.035L154.124 127.079L155.812 126.102L160.455 128.679C161.144 129.056 162.033 128.812 162.41 128.123C162.566 127.835 162.633 127.479 162.566 127.168L161.655 121.614L165.476 117.704C165.854 117.326 165.987 116.793 165.832 116.282L165.876 116.26Z" fill="#EC6600"/>
<path d="M110.624 131.656H83.4971C76.5433 131.545 71.0113 125.835 71.1002 118.882V42.2785C71.0113 35.3247 76.5655 29.6372 83.4971 29.5039H139.394C146.348 29.615 151.88 35.3247 151.791 42.2785V86.7785L145.57 86.7118V42.2563C145.615 38.7905 142.838 35.9246 139.372 35.8579H83.4749C79.9868 35.9023 77.2098 38.7682 77.2542 42.2563V118.859C77.2098 122.347 79.9868 125.191 83.4749 125.258H110.601V131.634L110.624 131.656Z" fill="#EC6600"/>
<path d="M109.668 117.06L105.847 113.261C109.224 108.84 108.558 102.575 104.359 98.9534C100.16 95.3321 93.8502 95.6209 89.9845 99.5977C86.1188 103.574 86.0299 109.884 89.7845 113.994C93.5392 118.082 99.8265 118.549 104.137 115.061L107.891 118.815C108.113 119.037 108.424 119.171 108.758 119.171C109.091 119.171 109.402 119.037 109.624 118.815C110.091 118.326 110.091 117.571 109.624 117.082H109.691L109.668 117.06ZM93.006 111.373C90.7843 109.173 90.4288 105.73 92.1617 103.13C93.8946 100.531 97.2049 99.5088 100.093 100.686C102.981 101.864 104.625 104.93 104.025 107.996C103.426 111.062 100.737 113.261 97.627 113.261C95.8941 113.261 94.2279 112.572 93.006 111.35H93.0282L93.006 111.373Z" fill="#EC6600"/>
<path d="M9.63022 224.113V230.098H13.7702V224.113H9.63022ZM13.7702 213.583H9.63022V219.163H13.7702V213.583ZM23.0402 213.583H18.7652V219.163H23.0402V213.583ZM32.4452 213.583H28.1252V219.163H32.4452V213.583ZM23.0402 230.098V224.113H18.7652V230.098H23.0402ZM28.1252 224.113V230.098H32.4452V224.113H28.1252ZM41.8952 230.098V235.138H28.9352C33.3902 237.298 38.2052 239.908 41.0402 241.753L36.0902 245.353C33.3452 243.328 28.4402 240.313 23.9852 238.108L27.2252 235.138H13.9052L18.1352 237.928C14.6252 240.718 8.91022 243.778 4.27522 245.488C3.24022 244.363 1.39522 242.608 0.0452149 241.618C4.50021 240.133 9.76522 237.388 12.6902 235.138H0.000214927V230.098H4.45521V208.633H13.7702V203.323H18.7652V208.633H23.0402V203.323H28.1252V208.633H37.8452V230.098H41.8952ZM84.2402 203.953V223.168C84.2402 225.643 83.7902 226.903 82.0802 227.668C80.4602 228.388 78.1652 228.523 75.0152 228.523C74.7902 227.128 74.0702 225.103 73.4402 223.798C75.4652 223.888 77.6252 223.888 78.3002 223.843C78.9302 223.798 79.1552 223.663 79.1552 223.078V203.953H84.2402ZM75.8702 206.023V221.233H70.9652V206.023H75.8702ZM56.0702 214.438H59.8502V209.713H56.0702V214.438ZM68.7152 239.098H86.1752V244.048H45.6302V239.098H63.2252V235.498H50.1752V230.638H63.1802V227.803H59.8502V219.163H55.7102C54.9902 222.853 53.1002 226.543 48.6452 229.018C47.9702 228.028 46.0802 226.003 45.1352 225.283C48.4652 223.573 49.9502 221.413 50.6252 219.163H46.0802V214.438H51.1652V209.713H47.6102V205.033H68.0402V209.713H64.8452V214.438H69.0752V219.163H64.8452V227.038H68.7152V230.638H81.7202V235.498H68.7152V239.098ZM125.28 235.993V227.803H118.89C118.845 228.433 118.71 229.018 118.62 229.648C120.87 231.538 123.795 234.238 125.28 235.993ZM108.45 227.803V236.083C112.41 234.058 113.58 230.773 113.94 227.803H108.45ZM103.365 220.108V215.563H131.355V220.108H119.025V223.258H130.41V240.178C130.41 242.473 129.96 243.778 128.385 244.588C126.855 245.353 124.74 245.443 121.905 245.443C121.68 244.003 120.915 242.023 120.195 240.763C122.04 240.853 123.93 240.853 124.515 240.808C125.1 240.808 125.28 240.628 125.28 240.133V236.083L121.995 238.963C120.96 237.613 119.025 235.633 117.09 233.833C115.965 236.038 114.12 238.153 111.33 239.728C110.7 238.783 109.44 237.298 108.45 236.443V245.443H103.68V223.258H114.075V220.108H103.365ZM118.755 208.273H131.805V213.088H102.195V221.683C102.195 228.838 101.16 239.143 94.9052 245.308C94.2302 244.318 92.1152 242.383 91.0802 241.753C94.0502 238.738 95.5352 235.048 96.3002 231.268C94.6802 232.258 92.9702 233.293 91.3502 234.193L89.8202 229.153C91.6652 228.343 94.2752 227.128 97.0202 225.733C97.0652 224.338 97.1102 222.943 97.1102 221.638V220.333L93.2402 222.403C92.8352 220.153 91.5302 216.598 90.2252 213.853L94.0952 211.918C95.2652 214.168 96.4802 216.958 97.1102 219.118V208.273H112.41C112.095 206.923 111.69 205.528 111.33 204.313L117.09 203.233C117.675 204.763 118.305 206.653 118.755 208.273ZM141.615 203.503L146.385 204.898C145.62 207.598 144.72 210.343 143.64 213.043V245.398H138.69V222.943C138.06 223.888 137.43 224.833 136.8 225.643C136.44 224.338 135.27 221.233 134.46 219.838C137.475 215.788 140.085 209.623 141.615 203.503ZM146.835 210.523V205.528H162.135V210.523H155.115C154.8 212.233 154.485 213.853 154.08 215.473H157.95L158.85 215.338L161.91 216.058C160.65 230.278 156.645 239.953 149.49 245.398C148.77 244.138 147.33 242.293 146.205 241.303C148.995 239.458 151.245 236.533 153.045 232.843C151.875 231.718 150.435 230.458 149.355 229.513L152.19 225.868C153 226.453 153.945 227.263 154.89 228.028C155.655 225.688 156.24 223.033 156.69 220.333H152.73C151.425 224.338 149.76 227.893 147.825 230.593C147.015 229.738 145.035 227.983 143.955 227.173C146.97 223.213 148.95 217.093 150.075 210.523H146.835ZM168.12 208.183V234.013H163.395V208.183H168.12ZM170.595 203.863H175.5V238.963C175.5 241.933 174.96 243.283 173.25 244.093C171.585 244.993 168.885 245.128 165.15 245.128C164.97 243.688 164.16 241.393 163.485 239.908C166.095 240.043 168.705 239.998 169.56 239.998C170.325 239.953 170.595 239.728 170.595 238.963V203.863ZM221.535 207.688V212.683H199.98L204.84 214.213C204.525 214.978 204.165 215.743 203.805 216.553H220.005V221.323H201.42C200.385 223.213 199.305 224.923 198.27 226.543H204.3V222.808H209.61V226.543H218.475L218.43 231.313H209.61V234.913H221.445V239.818H209.61V245.488H204.3V239.818H189.45V234.913H204.3V231.313H197.595C195.48 231.313 193.545 231.583 193.095 231.988C192.825 230.908 191.925 228.343 191.295 226.858C192.24 226.633 193.05 225.733 193.95 224.293C194.31 223.798 194.895 222.718 195.615 221.323H190.575V216.553H197.82C198.315 215.293 198.765 213.988 199.17 212.683H188.91V220.288C188.91 227.623 188.235 238.738 184.095 245.668C183.15 244.768 180.81 243.148 179.55 242.608C183.285 236.263 183.555 226.903 183.555 220.288V207.688H200.565C200.205 206.563 199.71 205.438 199.215 204.448L204.615 203.278C205.38 204.583 206.145 206.248 206.595 207.688H221.535Z" fill="white"/>
</svg>
