<?xml version="1.0" encoding="UTF-8"?>
<svg id="_图层_2" data-name="图层 2" xmlns="http://www.w3.org/2000/svg" xmlns:xlink="http://www.w3.org/1999/xlink" viewBox="0 0 550.24 83.25">
  <defs>
    <style>
      .cls-1 {
        fill: #009ea7;
      }

      .cls-1, .cls-2 {
        stroke-width: 0px;
      }

      .cls-2 {
        fill: #fff;
      }

      .cls-3 {
        fill: url(#_未命名的渐变_4);
        opacity: .29;
        stroke: url(#_未命名的渐变_820);
        stroke-miterlimit: 10;
        stroke-width: .6px;
      }
    </style>
    <linearGradient id="_未命名的渐变_4" data-name="未命名的渐变 4" x1="5.27" y1="41.52" x2="546.23" y2="41.52" gradientUnits="userSpaceOnUse">
      <stop offset="0" stop-color="#79cfd8"/>
      <stop offset="0" stop-color="#79cfd8" stop-opacity=".92"/>
      <stop offset=".03" stop-color="#79cfd8" stop-opacity=".73"/>
      <stop offset=".06" stop-color="#7acfd8" stop-opacity=".55"/>
      <stop offset=".09" stop-color="#7acfd8" stop-opacity=".4"/>
      <stop offset=".12" stop-color="#7bcfd8" stop-opacity=".28"/>
      <stop offset=".16" stop-color="#7bcfd8" stop-opacity=".17"/>
      <stop offset=".2" stop-color="#7bcfd8" stop-opacity=".09"/>
      <stop offset=".25" stop-color="#7bcfd8" stop-opacity=".04"/>
      <stop offset=".33" stop-color="#7bcfd8" stop-opacity="0"/>
      <stop offset=".53" stop-color="#7cd0d9" stop-opacity="0"/>
      <stop offset=".72" stop-color="#7bcfd8" stop-opacity="0"/>
      <stop offset=".78" stop-color="#79cfd8" stop-opacity=".04"/>
      <stop offset=".83" stop-color="#75cdd7" stop-opacity=".1"/>
      <stop offset=".87" stop-color="#70ccd5" stop-opacity=".19"/>
      <stop offset=".9" stop-color="#6ac9d3" stop-opacity=".3"/>
      <stop offset=".93" stop-color="#62c6d1" stop-opacity=".43"/>
      <stop offset=".95" stop-color="#58c3ce" stop-opacity=".6"/>
      <stop offset=".98" stop-color="#4ebfcb" stop-opacity=".78"/>
      <stop offset="1" stop-color="#42bbc8" stop-opacity=".98"/>
      <stop offset="1" stop-color="#41bbc8"/>
    </linearGradient>
    <linearGradient id="_未命名的渐变_820" data-name="未命名的渐变 820" x1="4.97" y1="41.52" x2="546.53" y2="41.52" gradientUnits="userSpaceOnUse">
      <stop offset="0" stop-color="#fff"/>
      <stop offset="1" stop-color="#41bbc8"/>
    </linearGradient>
  </defs>
  <g id="_图层_1-2" data-name="图层 1">
    <g>
      <g>
        <g>
          <g>
            <polygon class="cls-1" points="516.74 1.89 515.15 .3 545.65 .3 547.24 1.89 516.74 1.89"/>
            <path class="cls-1" d="m547.96,2.19h-31.34l-2.19-2.19h31.34l2.19,2.19Zm-31.09-.6h29.65l-.99-.99h-29.65l.99.99Z"/>
          </g>
          <path class="cls-1" d="m545.77,83.25H4.47l-4.47-4.47v-6.37h0V10.84h0v-6.37L4.47,0h508.27l3.39,3.39h33.04l1.08,1.08v6.37h0v61.57h0v6.37l-4.47,4.47Zm-541.06-.6h540.81l4.11-4.11v-5.52h0V10.24h0v-5.52l-.72-.72h-33.04l-3.39-3.39H4.71L.6,4.71v5.52h0v62.77h0v5.52l4.11,4.11Z"/>
        </g>
        <polygon class="cls-3" points="541.82 79.99 9.4 79.99 5.27 75.75 5.27 7.16 9.47 3.05 511.34 3.05 514.33 6.01 546.23 6.01 546.23 75.31 541.82 79.99"/>
      </g>
      <g>
        <path class="cls-2" d="m123.89,46.53h-3.38c-.05,1.44-.18,2.94-.38,4.48-.2,1.44-.5,2.8-.89,4.07s-.78,2.09-1.16,2.47c-.41.4-.91.61-1.52.61s-1.1-.17-1.54-.51c-.44-.34-.67-.74-.67-1.2s.2-1.18.61-2.17c1.06-2.69,1.6-7.25,1.6-13.68v-12.12c0-2.63,1.2-3.95,3.61-3.95h1.67v-.04h2.36c2.53,0,3.8,1.37,3.8,4.1v25.42c0,1.6-.35,2.69-1.06,3.27-.68.53-1.57.8-2.66.8-2.71,0-4.07-.86-4.07-2.58,0-.58.14-1.06.42-1.44.28-.38.65-.57,1.1-.57.15,0,.42.03.8.08.25.03.47.04.65.04.3,0,.5-.08.59-.25.09-.16.13-.55.13-1.16v-5.66Zm0-8.74h-3.23v3.04l-.04,1.41h3.27v-4.45Zm0-4.29v-3.27c0-.73-.29-1.1-.87-1.1h-1.48c-.58,0-.87.3-.87.91v3.46h3.23Zm12.92,5.74h-1.41c-.71,0-1.16.08-1.35.25-.19.17-.29.55-.29,1.16v11.82c0,.71-.2,1.27-.59,1.69-.39.42-.92.63-1.58.63s-1.18-.21-1.56-.63c-.38-.42-.57-.98-.57-1.69v-13.45c0-1.57.35-2.67,1.06-3.31.66-.56,1.65-.84,2.96-.84h3.31v-2.93h-6.57c-.66,0-1.17-.21-1.52-.63-.36-.42-.53-.99-.53-1.73,0-1.52.68-2.28,2.05-2.28h6.57v-2.28c0-.68.19-1.22.57-1.6.38-.38.9-.57,1.56-.57s1.18.2,1.58.59c.39.39.59.92.59,1.58v2.28h6.99c.63,0,1.13.21,1.5.63.37.42.55.99.55,1.73,0,.68-.19,1.23-.57,1.65s-.87.63-1.48.63h-6.99v2.93h3.42c1.52,0,2.6.29,3.25.87.65.58.97,1.57.97,2.96v11.02c0,1.8-.38,3.04-1.14,3.72-.68.58-1.8.87-3.34.87-1.85,0-2.9-.41-3.15-1.22v2.93c0,.66-.2,1.18-.59,1.58-.39.39-.92.59-1.58.59s-1.18-.2-1.56-.59c-.38-.39-.57-.92-.57-1.58v-16.8Zm4.29,0v11.7c.23-.73.7-1.1,1.41-1.1.15,0,.35.03.61.08.33.05.57.08.72.08.4,0,.61-.37.61-1.1v-8.36c0-.56-.08-.91-.25-1.06-.17-.15-.55-.23-1.16-.23h-1.94Z"/>
        <path class="cls-2" d="m156.72,46.15c-.96.81-1.74,1.22-2.32,1.22-.48,0-.95-.3-1.41-.91s-.68-1.24-.68-1.9c0-.46.21-.89.63-1.29.42-.4,1.32-1.08,2.72-2.01.48-.33,1.08-.75,1.79-1.25.03-.28.05-1.2.08-2.77-.53.71-1.23,1.06-2.09,1.06-.41,0-.73-.13-.97-.38-.24-.25-.45-.68-.63-1.29-.46-1.47-.89-2.74-1.29-3.8-.25-.71-.38-1.3-.38-1.79s.23-.9.68-1.25c.46-.35.99-.53,1.6-.53.53,0,.96.22,1.29.65.33.43.72,1.29,1.18,2.58.25.73.46,1.38.61,1.94v-4.33c0-1.75.39-3,1.18-3.76.71-.66,1.76-.99,3.15-.99h8.44c-.13-.28-.19-.54-.19-.8,0-.53.19-.9.57-1.1.79-.46,1.7-.68,2.74-.68.53,0,.99.2,1.37.59.38.39.76,1.06,1.14,2h10.41c.43,0,.82.21,1.16.63s.51.88.51,1.39-.17.94-.49,1.31-.72.55-1.18.55h-23.37c-.63,0-.95.24-.95.72v8.13c0,5.9-.65,10.64-1.94,14.21-1.37,3.75-2.88,5.62-4.52,5.62-.68,0-1.28-.22-1.79-.65-.51-.43-.76-.94-.76-1.52,0-.51.43-1.46,1.29-2.85,1.06-1.72,1.88-3.96,2.43-6.73Zm9.5-6.65h4.45c.74,0,1.3.07,1.69.21.39.14.75.39,1.08.74.3.33.5.65.59.95.09.3.13.79.13,1.44v1.56c0,.68-.06,1.21-.19,1.58-.13.37-.37.7-.72,1.01-.33.3-.67.51-1.03.61-.36.1-.87.15-1.56.15h-4.45c-.74,0-1.31-.07-1.71-.21-.41-.14-.76-.39-1.06-.74-.3-.33-.5-.65-.59-.95s-.13-.79-.13-1.44v-1.56c0-.68.06-1.21.19-1.58.13-.37.37-.7.72-1.01.33-.3.67-.51,1.03-.61.35-.1.87-.15,1.56-.15Zm6.27,13.72v-3.61c0-.71.21-1.27.63-1.67.42-.4.99-.61,1.73-.61s1.35.2,1.77.61c.42.41.63.96.63,1.67v3.61h3.99c.61,0,.91-.24.91-.72v-2.05c0-1.34.8-2.01,2.39-2.01s2.36.67,2.36,2.01v3.12c0,1.29-.3,2.2-.89,2.74-.59.53-1.63.8-3.1.8h-16c-1.5,0-2.53-.25-3.12-.76s-.87-1.43-.87-2.77v-3.12c0-.58.23-1.06.68-1.43.46-.37,1.03-.55,1.71-.55s1.25.18,1.69.55c.44.37.67.84.67,1.43v1.98c0,.3.06.51.19.63.13.11.37.17.72.17h3.91Zm9.04-14.86h-13.53c-1.12,0-1.93-.27-2.45-.8-.52-.53-.78-1.38-.78-2.55v-1.22c0-1.17.26-2.01.78-2.55.52-.53,1.35-.8,2.49-.8h13.45c1.14,0,1.97.27,2.49.8.52.53.78,1.38.78,2.55v1.22c0,1.17-.26,2.01-.78,2.55-.52.53-1.34.8-2.45.8Zm-14.82,4.75v.91c0,.33.06.55.17.65.11.1.36.15.74.15h1.63c.38,0,.63-.05.74-.15.11-.1.17-.32.17-.65v-.91c0-.46-.25-.68-.76-.68h-1.94c-.51,0-.76.23-.76.68Zm13.38-8.47v-.38c0-.51-.3-.76-.91-.76h-8.82c-.61,0-.91.25-.91.76v.38c0,.46.29.68.87.68h8.89c.58,0,.87-.23.87-.68Zm3.57,13.11h-4.86c-.74,0-1.29-.06-1.67-.19-.38-.13-.74-.38-1.06-.76-.3-.3-.5-.61-.59-.93-.09-.32-.13-.8-.13-1.46v-1.56c0-.68.06-1.21.19-1.58.13-.37.37-.72.72-1.04.33-.28.66-.47.99-.57.33-.1.85-.15,1.56-.15h4.86c.76,0,1.33.06,1.71.19.38.13.72.38,1.03.76.3.3.5.61.59.93.09.32.13.8.13,1.46v1.56c0,.68-.06,1.21-.19,1.58-.13.37-.37.72-.72,1.05-.33.28-.66.47-1.01.57-.34.1-.85.15-1.54.15Zm-.53-3.61v-1.03c0-.46-.29-.68-.87-.68h-2.05c-.58,0-.87.23-.87.68v1.03c0,.46.29.68.87.68h2.13c.53,0,.8-.23.8-.68Z"/>
        <path class="cls-2" d="m199.47,46.45h-3.04c-.05,1.01-.22,2.55-.49,4.6-.2,1.5-.5,2.88-.89,4.14-.39,1.27-.78,2.09-1.16,2.47s-.85.57-1.41.57-1.05-.17-1.48-.51-.65-.74-.65-1.2c0-.51.19-1.27.57-2.28,1.09-2.91,1.63-7.45,1.63-13.6v-12.31c0-2.61,1.18-3.91,3.53-3.91h3.65c2.51,0,3.76,1.36,3.76,4.07v.34c.18-1.29.86-1.94,2.05-1.94h6.42c-.03-.13-.06-.27-.11-.42l-.04-.04c-.28-.81-.42-1.47-.42-1.98,0-.46.26-.84.78-1.16.52-.32,1.16-.47,1.92-.47.91,0,1.57.29,1.98.87.35.51.76,1.57,1.22,3.19h7.07c.53,0,.98.22,1.35.67.37.44.55,1.01.55,1.69,0,.63-.18,1.17-.55,1.61-.37.44-.82.67-1.35.67h-5.36c.91.41,1.37.93,1.37,1.56s-.33,1.89-.99,3.78c-.66,1.89-1.38,3.63-2.17,5.22.43.84.73,1.43.91,1.79.46.91.76,1.51.91,1.79.74,1.34,1.1,2.39,1.1,3.15,0,.48-.22.92-.67,1.31-.44.39-.93.59-1.46.59s-1.04-.27-1.54-.82c-.49-.54-1.04-1.46-1.65-2.75,0-.02-.03-.09-.08-.19-.05-.08-.09-.15-.11-.23-.28.46-.47.75-.57.87l-.08.08c-.3.46-.47.72-.49.8-1.24,1.88-2.24,2.81-3,2.81-.53,0-1.06-.25-1.6-.76v.99c0,.61.28.91.84.91h9.96c.56,0,.84-.34.84-1.03v-15.09c0-.66.2-1.18.59-1.58.39-.39.93-.59,1.62-.59s1.18.19,1.58.57c.39.38.59.89.59,1.52v16.61c0,2.81-1.36,4.22-4.07,4.22h-12.08c-1.57,0-2.69-.39-3.34-1.18-.58-.66-.87-1.7-.87-3.12v-16.49c0-.63.2-1.14.61-1.52.4-.38.94-.57,1.6-.57.58,0,1.09.17,1.52.49-.03-.1-.04-.2-.04-.3,0-.48.24-.91.72-1.27.48-.37,1.03-.55,1.63-.55.53,0,1.03.27,1.5.8.47.53,1.22,1.7,2.26,3.5l.3.57c.51-1.19,1.05-2.7,1.63-4.52.2-.71.48-1.17.84-1.37h-11.55c-.56,0-1.02-.18-1.39-.53-.37-.35-.59-.84-.67-1.44v24.36c0,1.44-.3,2.48-.91,3.12-.61.63-1.58.95-2.93.95-2.58,0-3.88-.85-3.88-2.55,0-.61.14-1.1.42-1.48.28-.38.65-.57,1.1-.57.15,0,.42.03.8.08.23.03.44.04.65.04.3,0,.5-.08.59-.25.09-.16.13-.55.13-1.16v-5.62Zm0-13.03v-3.57c0-.73-.29-1.1-.87-1.1h-1.18c-.58.13-.87.42-.87.87v3.8h2.93Zm0,4.29h-2.93v4.45h2.93v-4.45Zm9.42-1.63v11.13c1.57-2.08,2.72-3.74,3.46-4.98-.15-.3-1.09-1.98-2.81-5.02l-.49-.84c-.03-.08-.08-.18-.15-.3Z"/>
        <path class="cls-2" d="m240.97,38.58h1.63c.48,0,.9.23,1.25.68.35.46.53,1,.53,1.63s-.18,1.15-.53,1.61c-.36.47-.77.7-1.25.7h-1.63v2.7l.11-.04c.28-.05.46-.09.53-.11.79-.18,1.37-.27,1.75-.27.58,0,1.06.24,1.44.72.38.48.57,1.08.57,1.79,0,.53-.17.96-.49,1.27-.33.32-.86.59-1.6.82-.38.1-1.15.32-2.32.65v5.74c0,.56-.22,1.03-.65,1.42-.43.39-.96.59-1.6.59s-1.13-.2-1.58-.59c-.44-.39-.67-.87-.67-1.42v-4.79c-.63.13-1.25.23-1.86.3-1.42.23-2.19.34-2.32.34-.63.13-1.17.19-1.6.19-.56,0-1.01-.25-1.37-.76-.36-.51-.53-1.17-.53-1.98,0-.73.25-1.25.74-1.56.49-.3,1.5-.56,3.02-.76,1.04-.15,2.34-.37,3.91-.65v-3.61h-5.02c-.81,0-1.41-.32-1.79-.95-.43-.76-.65-1.46-.65-2.09,0-.4.25-1.09.76-2.05.84-1.57,1.66-3.85,2.47-6.84h-2.24c-.43,0-.81-.23-1.14-.7-.33-.47-.49-1.02-.49-1.65s.16-1.14.49-1.6c.33-.46.71-.68,1.14-.68h3.31c.08-.3.13-.51.15-.61.05-.25.09-.44.11-.57.23-1.11.48-1.84.76-2.19.28-.34.77-.51,1.48-.51.76,0,1.37.17,1.82.49s.68.76.68,1.29c0,.38-.09,1.08-.27,2.09h4.6c.48,0,.89.22,1.23.67.34.44.51.99.51,1.65s-.17,1.24-.49,1.67c-.33.43-.75.65-1.25.65h-5.62c-.61,2.23-1.41,4.66-2.39,7.3h1.82v-4.26c0-.58.22-1.08.67-1.48.44-.4.97-.61,1.58-.61s1.13.2,1.58.61c.44.41.67.9.67,1.48v4.26Zm10.07-11.67c.18-.68.28-1.14.3-1.37.2-1.04.47-1.75.8-2.15.33-.39.82-.59,1.48-.59s1.28.17,1.79.49c.51.33.76.72.76,1.18,0,.38-.11,1.15-.34,2.32v.11h4.86c.51,0,.94.22,1.31.67s.55.96.55,1.54-.18,1.12-.55,1.54-.8.63-1.31.63h-5.93l-.15.65c-.08.2-.3.91-.68,2.13h8.32c.51,0,.94.22,1.31.65s.55.95.55,1.56-.18,1.12-.55,1.54-.8.63-1.31.63h-9.84c-.35.96-.71,1.86-1.06,2.7-.03.08-.04.14-.04.19,0,.13.08.19.23.19h8.28c1.09,0,1.94.25,2.55.76.51.43.76,1,.76,1.71,0,2.36-1.84,5.18-5.51,8.47,1.9,1.29,2.85,2.36,2.85,3.19,0,.71-.3,1.37-.91,1.98-.53.51-1.08.76-1.63.76s-1.27-.35-2.2-1.06c-1.44-1.09-3.37-2.45-5.78-4.07-1.29-.89-2.15-1.53-2.57-1.94s-.63-.82-.63-1.25c0-.63.32-1.29.95-1.98.38-.41.81-.61,1.29-.61.43,0,.92.14,1.48.42.56.28,1.53.87,2.93,1.79,2.3-2,3.46-3.22,3.46-3.65,0-.15-.1-.23-.3-.23h-8.47c-.94,0-1.54-.28-1.82-.84-.38-.76-.57-1.47-.57-2.13,0-.28.04-.52.11-.72.08-.2.33-.71.76-1.52.3-.56.65-1.28,1.03-2.17h-2.74c-.46,0-.85-.22-1.18-.67-.33-.44-.49-.96-.49-1.54s.16-1.12.49-1.54.72-.63,1.18-.63h4.29c.33-1.06.59-1.99.8-2.77h-3.72c-.41,0-.77-.23-1.1-.68-.33-.46-.49-.98-.49-1.56s.16-1.08.48-1.5c.32-.42.69-.63,1.12-.63h4.83Z"/>
        <path class="cls-2" d="m280.49,32.85c-.23-.43-.34-.81-.34-1.14,0-.4.14-.76.42-1.06.28-.3.9-.78,1.86-1.44,1.62-1.11,3.38-2.99,5.28-5.62.33-.46.61-.77.84-.93.23-.16.51-.25.84-.25.68,0,1.34.23,1.98.68.53.38.8.76.8,1.14,0,.25-.11.61-.34,1.06h5.89c1.01,0,1.75.22,2.22.65.47.43.7,1.13.7,2.09,0,1.49-.93,3.26-2.77,5.28-1.12,1.22-2.48,2.38-4.1,3.5,1.01.46,1.52,1.09,1.52,1.9,0,.25-.06.52-.19.8h4.37c.89,0,1.58.22,2.07.65.49.43.74,1.04.74,1.82,0,1.8-.9,3.81-2.7,6.04-1.57,1.95-3.51,3.67-5.81,5.17-2.3,1.49-4.67,2.71-7.11,3.65-2.1.81-3.79,1.22-5.05,1.22-.51,0-.96-.25-1.35-.76-.39-.51-.59-1.1-.59-1.79,0-.63.3-1.13.91-1.48.53-.3,1.67-.71,3.42-1.22,1.75-.53,3.38-1.19,4.9-1.98l-.53-.61s-.34-.33-1.03-.91c-.53-.51-.8-.92-.8-1.25,0-.35.17-.73.49-1.14-2.28,1.39-3.76,2.09-4.45,2.09-.51,0-.96-.23-1.35-.7-.39-.47-.59-.99-.59-1.58,0-.4.1-.79.3-1.14-.53.46-1.05.68-1.56.68-.3,0-.56-.11-.78-.34-.22-.23-.54-.72-.97-1.48-.36-.58-.68-1.1-.99-1.56v13.22c0,.61-.22,1.11-.67,1.5-.44.39-.99.59-1.65.59s-1.15-.19-1.56-.57c-.41-.38-.61-.89-.61-1.52v-10.53c-.84,2.03-1.5,3.38-1.99,4.07-.49.68-1.05,1.03-1.65,1.03s-1.15-.21-1.62-.63c-.47-.42-.7-.91-.7-1.46,0-.3.07-.61.21-.91.14-.3.58-1.05,1.31-2.24,1.27-2.1,2.48-4.9,3.65-8.4h-2.55c-.56,0-1.04-.23-1.44-.68-.41-.46-.61-1-.61-1.63s.2-1.17.59-1.6c.39-.43.88-.65,1.46-.65h3.34v-3.46l-.76.08c-.51.05-1.01.08-1.52.08-1.6,0-2.39-.75-2.39-2.24,0-.63.2-1.18.61-1.63.3-.35,1.01-.54,2.13-.57,1.01-.05,2.26-.19,3.74-.42,1.48-.23,2.65-.48,3.51-.76.61-.18,1.04-.27,1.29-.27.56,0,1.02.23,1.39.68s.55,1.03.55,1.71c0,.76-.28,1.33-.84,1.71-.56.38-1.63.71-3.23.99v4.1h2.66c.41,0,.8.13,1.18.38Zm.65.8c.15.33.23.68.23,1.06,0,.63-.2,1.18-.61,1.63-.41.46-.89.68-1.44.68h-2.66v.84c.18-.02.32-.04.42-.04.53,0,1.27.65,2.2,1.94,1.65,2.2,2.47,3.7,2.47,4.48,0,.23-.13.52-.38.87.38-.3,1.13-.73,2.24-1.29,1.19-.61,2.18-1.22,2.96-1.82s1.85-1.58,3.19-2.93c-3.62,1.77-6.03,2.66-7.22,2.66-.61,0-1.11-.23-1.5-.68s-.59-1.04-.59-1.75c0-.43.17-.78.49-1.04s.95-.54,1.86-.82c1.19-.38,2.63-.96,4.33-1.75l-1.44-1.25c-.48-.46-.72-.86-.72-1.22,0-.2.08-.43.23-.68-.89.66-1.52,1.08-1.9,1.27s-.77.28-1.18.28c-.3,0-.63-.15-.99-.46Zm5.81-2.55c.2-.05.37-.08.49-.08.63,0,1.48.52,2.55,1.56l.95.95c.91-.66,1.77-1.42,2.57-2.3.8-.87,1.2-1.48,1.2-1.81,0-.15-.13-.23-.38-.23h-5.43c-.61.68-1.25,1.32-1.94,1.9Zm4.6,12.31c-1.12.96-2.07,1.75-2.85,2.36.18-.05.29-.08.34-.08.71,0,1.67.62,2.89,1.86l.76.8c.84-.66,1.73-1.53,2.68-2.62.95-1.09,1.42-1.79,1.42-2.09,0-.15-.27-.23-.8-.23h-4.45Z"/>
        <path class="cls-2" d="m324.79,40.41c-.53.61-1.1.91-1.71.91-.51,0-1.08-.2-1.71-.61l-.19,4.48c-.15,5.27-.67,8.7-1.56,10.3-.51.86-1.2,1.44-2.09,1.75-.61.23-1.38.34-2.32.34-2.69,0-4.03-.93-4.03-2.77,0-.63.15-1.18.44-1.65.29-.47.65-.7,1.08-.7.1,0,.47.06,1.1.19.28.05.53.08.76.08.41,0,.72-.18.93-.53.21-.35.4-.99.55-1.9.1-.61.22-1.91.36-3.9.14-1.99.21-3.45.21-4.39,0-.84-.28-1.25-.84-1.25h-2.89c-.35,4.41-1.05,8.26-2.09,11.55-1.19,3.75-2.47,5.62-3.84,5.62-.76,0-1.44-.25-2.05-.76-.53-.43-.8-.89-.8-1.37,0-.51.25-1.22.76-2.13,2.33-4.31,3.5-11.13,3.5-20.48v-.34h-1.75c-.53,0-1-.23-1.39-.7-.39-.47-.59-1.03-.59-1.69s.2-1.18.59-1.65c.39-.47.86-.7,1.39-.7h4.64c-.03-.08-.1-.34-.23-.8-.1-.28-.24-.66-.42-1.14-.25-.56-.38-1.01-.38-1.37,0-.53.3-.98.89-1.35.59-.37,1.31-.55,2.15-.55,1.22,0,2.15,1.01,2.81,3.04.43,1.22.68,1.94.76,2.17h3.99c.56,0,1.02.22,1.39.67.37.44.55,1.01.55,1.69s-.19,1.22-.57,1.69c-.38.47-.84.7-1.37.7h-7.68v1.56c0,.68-.01,1.22-.04,1.6h4.67c.71,0,1.34.13,1.88.38.54.25.93.6,1.16,1.03.05-.13.13-.28.23-.46,1.06-1.95,1.89-3.74,2.47-5.38s1.06-3.55,1.44-5.76c.23-1.14.52-1.93.87-2.38.35-.44.89-.67,1.6-.67.79,0,1.45.21,2,.63s.82.94.82,1.58c0,.79-.23,2.03-.68,3.72h8.74c.53,0,.99.24,1.39.72.39.48.59,1.05.59,1.71s-.2,1.23-.59,1.71c-.39.48-.86.72-1.39.72h-.84c-.3,3.17-.74,5.81-1.29,7.92-.56,2.12-1.34,4.17-2.36,6.18,1.34,1.67,3.05,3.37,5.13,5.09.99.84,1.48,1.58,1.48,2.24,0,.76-.29,1.44-.87,2.05-.53.51-1.09.76-1.67.76-1.09,0-2.61-1.1-4.56-3.31l-2.28-2.58c-1.44,1.75-3.01,3.24-4.71,4.48-1.47,1.06-2.58,1.6-3.34,1.6-.63,0-1.24-.34-1.82-1.03-.48-.58-.72-1.18-.72-1.79,0-.46.16-.87.49-1.24.33-.37,1.01-.89,2.05-1.58,2.03-1.32,3.71-2.86,5.05-4.64-1.22-2.13-2.31-4.57-3.27-7.33Zm3-6.23c.68,3.12,1.68,5.99,3,8.63.48-1.22.87-2.49,1.16-3.82s.56-3.14.82-5.42h-4.79l-.19.61Z"/>
        <path class="cls-2" d="m351.01,46.68h-6.61c-.61,0-1.09-.18-1.44-.55s-.53-.87-.53-1.5.18-1.13.53-1.48c.35-.35.84-.53,1.44-.53h.53v-12.84c0-1.19.38-2.14,1.14-2.85.66-.58,1.51-.87,2.55-.87h.72c.2-.56.34-.99.42-1.29.23-.79.52-1.32.87-1.6.35-.28.91-.42,1.67-.42s1.38.15,1.86.44c.48.29.72.67.72,1.12,0,.33-.1.91-.3,1.75h1.56c2.84,0,4.26,1.28,4.26,3.84v1.18c.13-.53.35-.96.68-1.29.33-.33.7-.49,1.1-.49h7.98v-4.41c0-.61.22-1.12.65-1.54s.97-.63,1.63-.63,1.19.22,1.67.65c.48.43.72.94.72,1.52v4.41h1.71c.48,0,.91.24,1.27.72.37.48.55,1.05.55,1.71s-.18,1.23-.55,1.71c-.37.48-.79.72-1.27.72h-1.71v18.7c0,1.9-.47,3.22-1.41,3.95-.84.66-2.19.99-4.07.99-2.81,0-4.56-.41-5.24-1.22-.43-.48-.65-1.08-.65-1.79,0-.84.24-1.52.72-2.05.18-.2.51-.3.99-.3.63,0,1.46.06,2.47.19.81.1,1.3.15,1.48.15.68,0,1.03-.43,1.03-1.29v-17.33h-7.98c-.41,0-.77-.16-1.1-.49-.33-.33-.56-.75-.68-1.25v21.13c0,1.75-.46,2.98-1.37,3.69-.79.63-2.03.95-3.72.95-2.94,0-4.41-.93-4.41-2.77,0-.61.14-1.11.42-1.5.28-.39.65-.59,1.1-.59.2,0,.43.03.68.08.48.1.84.15,1.06.15.91,0,1.37-.68,1.37-2.05v-3.31c-2.23,2.18-4.51,4.03-6.84,5.55-2,1.32-3.42,1.98-4.26,1.98-.53,0-1.02-.27-1.46-.8-.44-.53-.67-1.11-.67-1.75,0-.46.21-.89.65-1.29.43-.4,1.18-.87,2.24-1.41.84-.41,1.84-.98,3-1.73,1.17-.75,2.1-1.43,2.81-2.03Zm4.52-14.59v-1.25c0-.18-.09-.35-.27-.51-.18-.16-.38-.25-.61-.25h-3.95c-.25,0-.47.11-.65.34-.18.23-.27.48-.27.76v.91h5.74Zm0,5.24v-1.9h-5.74v1.9h5.74Zm0,5.28v-1.94h-5.7v1.94h5.7Zm8.59-6.12c.53,0,.99.2,1.37.61.38.41.86,1.23,1.44,2.47,1.11,2.33,1.81,3.87,2.09,4.62.28.75.42,1.4.42,1.96,0,.46-.25.87-.76,1.25s-1.06.57-1.67.57-1.09-.29-1.52-.87c-.43-.58-1.04-1.77-1.82-3.57-.53-1.24-.86-2-.99-2.28-.66-1.34-.99-2.38-.99-3.12,0-.41.25-.78.76-1.12.51-.34,1.06-.51,1.67-.51Z"/>
        <path class="cls-2" d="m393.46,40.6c.58-1.32,1.08-2.69,1.48-4.1.41-1.42.61-2.47.61-3.15,0-.35-.22-.53-.65-.53h-4.45c-.56,1.29-1.17,2.5-1.82,3.61-2.38,4.13-4.22,6.19-5.51,6.19-.71,0-1.36-.3-1.94-.91-.53-.51-.8-1.03-.8-1.56,0-.46.3-1.1.91-1.94,1.09-1.42,1.88-2.53,2.38-3.32.49-.8,1.03-1.81,1.61-3.02,1.06-2.18,1.8-4,2.2-5.47.38-1.39.75-2.35,1.12-2.87.37-.52.84-.78,1.42-.78.84,0,1.57.23,2.2.68.56.41.84.85.84,1.33,0,.76-.23,1.75-.68,2.96-.03.03-.05.08-.08.15-.03.1-.05.2-.08.3h3.99c1.57,0,2.68.3,3.34.91.58.53.87,1.34.87,2.43,0,1.9-.3,4.06-.91,6.48-.61,2.42-1.41,4.64-2.39,6.67-2.03,4.18-4.61,7.64-7.75,10.37-1.27,1.14-2.27,1.93-3.02,2.36s-1.45.65-2.11.65-1.22-.27-1.75-.8c-.53-.53-.8-1.13-.8-1.79,0-.48.24-1,.72-1.56.15-.18,1.06-.91,2.74-2.2,2.08-1.6,4.03-3.8,5.85-6.61l-1.48-.95c-1.85-1.17-2.77-2.27-2.77-3.31,0-.66.21-1.25.63-1.79.42-.53.88-.8,1.39-.8.91,0,2.47.79,4.67,2.36Zm14.44-6.84c1.14.86,2.42,1.88,3.84,3.04,1.95,1.62,3.23,2.79,3.84,3.52.61.72.91,1.41.91,2.07,0,.76-.32,1.48-.95,2.17-.53.56-1.09.84-1.67.84-.43,0-.89-.18-1.37-.53-.48-.35-1.19-1.04-2.13-2.05-.79-.84-1.61-1.63-2.47-2.39v15.58c0,.61-.26,1.14-.78,1.6-.52.46-1.13.68-1.84.68s-1.29-.23-1.8-.68c-.52-.46-.78-.99-.78-1.6v-30.78c0-.66.25-1.22.76-1.67s1.12-.68,1.82-.68,1.32.23,1.84.7c.52.47.78,1.02.78,1.65v8.55Z"/>
        <path class="cls-2" d="m424.81,32.54v-3.38c-1.24.1-2.17.15-2.77.15-1.65,0-2.47-.8-2.47-2.39,0-.76.23-1.3.68-1.62.46-.32,1.28-.51,2.47-.59,3.06-.2,5.67-.58,7.83-1.14.63-.18,1.17-.27,1.6-.27.53,0,.97.23,1.33.7.35.47.53,1.04.53,1.73,0,.86-.49,1.52-1.48,1.98-.46.23-1.47.48-3.04.76v4.07h3c.56,0,1.03.22,1.42.65s.59.96.59,1.6-.2,1.18-.59,1.63c-.39.46-.87.68-1.42.68h-3v.91c.23-.1.42-.15.57-.15.4,0,.87.27,1.39.82.52.54,1.3,1.58,2.34,3.1,1.14,1.65,1.71,2.79,1.71,3.42,0,.35-.16.73-.47,1.12-.32.39-.69.7-1.12.93-.13.08-.42.19-.87.34h-.23c-.66,0-1.29-.58-1.9-1.75-.41-.76-.87-1.54-1.41-2.36v12.73c0,.61-.23,1.11-.7,1.52-.47.4-1.04.61-1.73.61s-1.2-.2-1.62-.59c-.42-.39-.63-.91-.63-1.54v-10.49c-.91,1.98-1.65,3.35-2.22,4.12-.57.77-1.13,1.16-1.69,1.16-.66,0-1.26-.24-1.8-.72-.54-.48-.82-1.01-.82-1.6,0-.53.54-1.58,1.63-3.15,1.34-1.95,2.71-4.76,4.1-8.44h-2.96c-.56,0-1.03-.23-1.43-.68-.39-.46-.59-1-.59-1.63s.2-1.17.59-1.6.87-.65,1.43-.65h3.76Zm25.57,10.83l1.98-.34c.1-.02.19-.04.27-.04.58,0,1.07.24,1.46.72.39.48.59,1.06.59,1.75,0,.51-.12.97-.36,1.39-.24.42-.54.65-.89.7l-3.04.57v8.09c0,.61-.24,1.11-.72,1.52-.48.4-1.09.61-1.82.61-.68,0-1.25-.2-1.71-.61-.46-.41-.68-.91-.68-1.52v-7.14l-8.28,1.56c-.1.03-.21.04-.34.04-.58,0-1.06-.25-1.42-.74s-.55-1.11-.55-1.84c0-1.24.51-1.95,1.52-2.13l9.08-1.67v-19.42c0-.58.23-1.06.7-1.42s1.06-.55,1.77-.55,1.33.18,1.79.55.68.84.68,1.42v18.51Zm-12.92-9.42c.76,0,1.76.66,3,1.98,2.15,2.28,3.23,3.84,3.23,4.67,0,.58-.3,1.17-.91,1.75-.53.51-1.05.76-1.56.76s-.95-.18-1.41-.53c-.46-.35-1.14-1.06-2.05-2.13-1.14-1.39-1.8-2.2-1.98-2.43-.48-.76-.72-1.37-.72-1.82,0-.53.26-1.04.78-1.52.52-.48,1.06-.72,1.62-.72Zm7.26-2.66c0,.61-.36,1.2-1.06,1.79-.58.48-1.17.72-1.75.72s-1.41-.65-2.47-1.94c-.43-.53-.96-1.09-1.6-1.67-.94-.89-1.57-1.54-1.9-1.98s-.49-.81-.49-1.14c0-.63.3-1.24.91-1.82.53-.48,1.06-.72,1.6-.72.43,0,.86.13,1.29.4s1.01.74,1.75,1.42c2.48,2.33,3.72,3.98,3.72,4.94Z"/>
      </g>
    </g>
  </g>
</svg>