<?xml version="1.0" encoding="UTF-8"?>
<svg id="_图层_2" data-name="图层 2" xmlns="http://www.w3.org/2000/svg" xmlns:xlink="http://www.w3.org/1999/xlink" viewBox="0 0 116 116">
  <defs>
    <style>
      .cls-1 {
        fill: #ec6600;
        stroke-width: 0px;
      }

      .cls-2 {
        filter: url(#outer-glow-1);
        stroke: #ec6600;
        stroke-miterlimit: 10;
      }
    </style>
    <filter id="outer-glow-1" filterUnits="userSpaceOnUse">
      <feOffset dx="0" dy="0"/>
      <feGaussianBlur result="blur" stdDeviation="7"/>
      <feFlood flood-color="#ff6700" flood-opacity=".75"/>
      <feComposite in2="blur" operator="in"/>
      <feComposite in="SourceGraphic"/>
    </filter>
  </defs>
  <g id="_图层_1-2" data-name="图层 1">
    <g>
      <circle class="cls-2" cx="57.52" cy="57.96" r="36"/>
      <g>
        <path class="cls-1" d="m48.52,68.21c-.26,0-.53-.05-.79-.15l-2.82-1.13c-.85-.34-1.38-1.18-1.32-2.09l.1-1.67c-.45-.38-.88-.8-1.28-1.26l-1.67.14c-.9.07-1.76-.44-2.11-1.28l-1.19-2.79c-.36-.84-.14-1.81.54-2.41l1.26-1.12c-.05-.6-.06-1.21-.03-1.8l-1.28-1.08c-.69-.59-.93-1.55-.6-2.4l1.13-2.82c.34-.85,1.16-1.38,2.09-1.32l1.67.1c.38-.45.81-.88,1.26-1.28l-.14-1.67c-.07-.91.44-1.76,1.27-2.11l2.79-1.19c.84-.36,1.8-.14,2.41.54l1.12,1.26c.6-.05,1.21-.06,1.8-.03l1.08-1.28c.59-.69,1.55-.93,2.4-.6l2.82,1.13c.85.34,1.38,1.18,1.32,2.09l-.1,1.67c.45.38.88.81,1.28,1.26l1.67-.14c.91-.07,1.76.44,2.11,1.27l1.19,2.79c.36.84.14,1.8-.54,2.41l-1.26,1.12c.05.61.06,1.21.02,1.8l1.28,1.08c.7.59.93,1.55.59,2.4l-1.13,2.82c-.34.85-1.18,1.39-2.09,1.32l-1.67-.1c-.38.45-.81.88-1.26,1.28l.14,1.67c.07.91-.44,1.76-1.27,2.11l-2.79,1.19c-.84.36-1.81.14-2.41-.54l-1.11-1.26c-.61.05-1.21.06-1.8.02l-1.08,1.28c-.41.48-1,.75-1.61.75Zm-5.31-8.22l.31.37c.52.63,1.09,1.19,1.69,1.66l.38.3-.16,2.63c0,.11.06.22.17.26l2.82,1.13c.1.04.22.01.3-.07l1.7-2.01.48.05c.77.08,1.57.07,2.37-.03l.48-.06,1.75,1.97c.08.09.2.11.3.07l2.79-1.19c.1-.04.17-.15.16-.26l-.22-2.63.37-.31c.63-.51,1.18-1.08,1.66-1.69l.3-.38,2.63.16c.12,0,.22-.06.26-.16l1.13-2.82c.04-.11.01-.22-.07-.3l-2.01-1.7.05-.48c.08-.77.07-1.57-.03-2.37l-.06-.48,1.97-1.75c.08-.07.11-.2.07-.3l-1.19-2.79c-.04-.1-.15-.16-.26-.16l-2.63.22-.31-.37c-.52-.63-1.09-1.19-1.69-1.66l-.38-.3.16-2.63c0-.11-.06-.22-.16-.26l-2.82-1.13c-.11-.04-.23-.01-.3.07l-1.7,2.01-.48-.05c-.77-.08-1.57-.07-2.37.03l-.48.06-1.75-1.97c-.07-.08-.2-.11-.3-.07l-2.79,1.19c-.1.04-.17.15-.16.26l.22,2.63-.38.31c-.62.51-1.18,1.08-1.66,1.69l-.3.38-2.63-.16c-.12,0-.22.06-.26.17l-1.13,2.82c-.04.1-.01.22.07.3l2.01,1.7-.05.48c-.08.77-.07,1.57.03,2.37l.06.48-1.97,1.75c-.08.07-.11.2-.07.3l1.19,2.79c.04.11.15.17.26.16l2.63-.22Z"/>
        <path class="cls-1" d="m69.5,79.31h-1.77c-.7,0-1.31-.45-1.53-1.11l-.25-.75c-.23-.08-.45-.17-.66-.27l-.71.35c-.62.31-1.37.19-1.87-.3l-1.25-1.25c-.49-.49-.61-1.24-.3-1.87l.35-.71c-.1-.21-.19-.44-.27-.66l-.75-.25c-.66-.22-1.11-.84-1.11-1.53v-1.77c0-.7.45-1.32,1.11-1.53l.75-.25c.08-.23.17-.45.27-.66l-.35-.71c-.31-.62-.19-1.38.3-1.87l1.26-1.26c.49-.49,1.24-.61,1.87-.3l.71.35c.21-.1.44-.19.66-.27l.25-.75c.22-.66.84-1.11,1.53-1.11h1.77c.7,0,1.31.44,1.53,1.11l.25.75c.23.08.45.17.66.27l.71-.35c.63-.31,1.38-.19,1.87.3l1.25,1.26c.49.49.62,1.24.3,1.87l-.35.71c.1.22.19.44.27.66l.75.25c.66.22,1.11.84,1.11,1.53v1.77c0,.7-.44,1.31-1.1,1.53l-.75.25c-.08.23-.17.45-.27.66l.35.71c.31.62.19,1.38-.3,1.87l-1.25,1.25c-.49.49-1.24.62-1.87.3l-.71-.35c-.22.1-.44.19-.66.27l-.25.75c-.22.66-.84,1.11-1.54,1.11Zm-1.61-1.85h1.44l.5-1.5.47-.13c.42-.12.83-.29,1.2-.5l.42-.23,1.41.7,1.02-1.02-.7-1.41.23-.42c.21-.38.37-.78.5-1.2l.14-.47,1.5-.5v-1.44l-1.5-.5-.14-.47c-.12-.43-.29-.83-.5-1.21l-.23-.42.7-1.41-1.02-1.02-1.41.7-.43-.23c-.37-.2-.78-.37-1.21-.5l-.46-.14-.5-1.5h-1.44l-.5,1.49-.46.14c-.43.13-.84.29-1.21.5l-.43.23-1.41-.7-1.02,1.02.7,1.41-.23.43c-.2.37-.37.78-.5,1.21l-.14.46-1.49.5v1.44l1.49.5.14.46c.13.43.29.83.5,1.21l.23.43-.7,1.41,1.02,1.02,1.41-.7.42.23c.37.2.78.37,1.21.5l.47.14.5,1.5Zm8.27-8.06s0,0,0,0h0Zm-1.7-3.93h0s0,0,0,0Z"/>
        <path class="cls-1" d="m51.97,60.81c-4.08,0-7.4-3.32-7.4-7.4s3.32-7.4,7.4-7.4,7.4,3.32,7.4,7.4-3.32,7.4-7.4,7.4Zm0-12.94c-3.06,0-5.55,2.49-5.55,5.55s2.49,5.55,5.55,5.55,5.55-2.49,5.55-5.55-2.49-5.55-5.55-5.55Z"/>
        <path class="cls-1" d="m68.61,73.76c-2.04,0-3.7-1.66-3.7-3.7s1.66-3.7,3.7-3.7,3.7,1.66,3.7,3.7-1.66,3.7-3.7,3.7Zm0-5.55c-1.02,0-1.85.83-1.85,1.85s.83,1.85,1.85,1.85,1.85-.83,1.85-1.85-.83-1.85-1.85-1.85Z"/>
      </g>
    </g>
  </g>
</svg>