<svg width="268" height="250" viewBox="0 0 268 250" fill="none" xmlns="http://www.w3.org/2000/svg">
<path d="M133.867 161.16C178.37 161.16 214.447 125.083 214.447 80.5798C214.447 36.0768 178.37 0 133.867 0C89.3644 0 53.2876 36.0768 53.2876 80.5798C53.2876 125.083 89.3644 161.16 133.867 161.16Z" fill="white"/>
<path d="M81.4145 94.9984C79.415 99.6195 80.8369 105.018 84.8803 108.04C90.3901 112.505 118.85 130.123 127.403 131.523C128.847 131.7 130.313 131.789 131.78 131.789C145.332 131.789 167.193 125.435 185.322 119.637C186.455 119.259 187.233 118.215 187.233 117.015V92.4435C187.233 91.7103 186.944 90.9994 186.411 90.4884C185.9 89.9774 185.189 89.6664 184.455 89.6664H117.983C114.051 89.5775 110.452 91.8436 108.785 95.3983L92.9894 91.1327C89.5681 90.3551 83.4363 90.3329 81.3923 94.9984H81.4145ZM88.3684 103.707C86.3022 102.241 85.5246 99.5306 86.5022 97.1979C86.9909 96.0871 90.1457 96.1536 91.7009 96.5091L108.519 101.041C108.852 102.463 109.607 103.752 110.652 104.752C113.051 106.751 116.073 107.84 119.183 107.84L142.799 109.062H142.955C144.465 109.106 145.732 107.906 145.776 106.373C145.821 104.863 144.621 103.596 143.088 103.552L119.294 102.33C117.561 102.374 115.85 101.841 114.451 100.819C113.94 100.286 113.673 99.5751 113.718 98.8419C113.718 95.3983 117.272 95.1983 117.983 95.1983H181.678V114.993C163.705 120.681 139.556 127.635 128.181 126.079C121.249 125.08 93.9003 108.306 88.3239 103.73L88.3684 103.707ZM172.636 69.3826C174.169 69.3826 175.391 68.1384 175.391 66.6055V32.1475C175.391 31.4143 175.102 30.7256 174.591 30.1924C174.08 29.6814 173.369 29.3926 172.636 29.3926H108.052C106.519 29.3926 105.297 30.6145 105.275 32.1475V66.6055C105.275 68.1384 106.519 69.3604 108.052 69.3826H172.636ZM169.948 63.8506H110.807V34.9246H169.948V63.8506Z" fill="#EC6600"/>
<path d="M162.483 79.5134C162.483 78.0249 161.283 76.803 159.795 76.7585H97.8989V45.0554C97.8989 44.0779 97.3657 43.167 96.5215 42.6782C95.6772 42.1894 94.6108 42.1894 93.7666 42.6782C92.9224 43.167 92.3892 44.0779 92.3892 45.0554V79.5134C92.3892 80.2465 92.678 80.9575 93.189 81.4685C93.6999 81.9795 94.4109 82.2905 95.144 82.2905H159.706C161.239 82.2905 162.483 81.0463 162.483 79.5134ZM140.333 39.0791C137.6 39.0791 134.979 40.1454 133.046 42.0783C131.113 44.0111 130.024 46.6328 130.024 49.3654C130.024 55.0529 134.623 59.6517 140.311 59.6517C145.998 59.6517 150.597 55.0528 150.597 49.3876C150.597 43.7001 146.02 39.1013 140.333 39.0791ZM140.333 54.1642C139.066 54.1642 137.844 53.6532 136.956 52.7646C136.067 51.8759 135.556 50.6539 135.556 49.3876C135.556 46.7438 137.689 44.611 140.333 44.611C142.977 44.611 145.109 46.7438 145.109 49.3876C145.109 52.0314 142.977 54.1642 140.333 54.1642Z" fill="#EC6600"/>
<path d="M4.81514 217.843H9.09014C9.13514 217.483 9.13514 217.168 9.13514 216.853V214.918H6.88514C6.25514 215.998 5.53514 216.988 4.81514 217.843ZM21.2401 226.348L17.4601 229.768C16.2001 228.643 13.6801 226.798 11.6551 225.403C10.0351 227.698 7.42514 229.993 3.37514 231.883C2.65514 230.803 1.17014 229.138 0.000136711 228.283C4.59014 226.483 6.88514 224.278 8.01014 222.028H0.540137V217.843H3.55514C2.47514 217.168 1.03514 216.358 0.135137 215.908C2.43014 213.748 4.18514 210.463 5.08514 207.133L9.81014 208.123C9.54014 208.978 9.27014 209.878 8.91014 210.778H20.0701V214.918H14.2201V216.943C14.2201 217.258 14.2201 217.528 14.1751 217.843H21.1051V222.028H13.6801C15.5701 223.018 20.0701 225.583 21.2401 226.348ZM30.3751 234.628H11.7901V237.148H30.3751V234.628ZM11.7901 243.673H30.3751V241.018H11.7901V243.673ZM6.52514 249.433V230.443H35.8651V249.388H30.3751V247.948H11.7901V249.433H6.52514ZM34.4251 223.018V215.413H27.5851V223.018H34.4251ZM22.6351 210.688H39.7351V227.743H22.6351V210.688ZM72.7201 223.288V221.533H66.0601V218.383H72.7201V216.898H67.3201V213.793H72.7201V212.398H66.4201V209.293H72.7201V207.403H77.7151V209.293H84.5551V212.398H77.7151V213.793H83.8351V216.898H77.7151V218.383H85.4101V221.533H77.7151V223.288H72.7201ZM82.0351 223.918V236.968H67.5001C69.0751 238.003 70.7401 239.308 71.5951 240.343L68.2201 243.358C67.2301 242.008 64.8901 240.118 62.9551 238.948L65.2051 236.968H49.5001V233.593H76.7701V231.928H51.3001V228.823H76.7701V227.248H49.7701V223.918H82.0351ZM53.5051 223.288V221.533H46.3051V218.383H53.5051V216.898H47.9701V213.793H53.5051V212.398H46.8901V209.293H53.5051V207.403H58.4101V209.293H64.3501V212.398H58.4101V213.793H63.8551V216.898H58.4101V218.383H64.8001V221.533H58.4101V223.288H53.5051ZM50.5801 248.443L45.9001 245.833C47.5201 243.898 48.9601 240.973 49.7251 238.363L54.3601 240.343C53.4151 242.998 52.2001 246.283 50.5801 248.443ZM63.9451 244.393H71.4601C73.3951 244.393 73.7551 243.898 73.9801 240.568C75.1051 241.333 77.1751 241.963 78.6151 242.233C77.9851 247.408 76.5451 248.758 71.9101 248.758H63.4051C57.2401 248.758 55.6651 247.408 55.6651 243.088V238.273H60.9751V242.998C60.9751 244.213 61.4251 244.393 63.9451 244.393ZM77.9851 239.263L82.9351 237.958C84.6901 240.703 86.5351 244.348 87.2101 246.823L81.9001 248.308C81.3151 245.923 79.6501 242.098 77.9851 239.263ZM125.1 208.168L130.14 210.238C127.08 214.558 122.58 218.473 118.305 221.128C117.45 220.003 115.875 218.383 114.525 217.393C118.305 215.368 122.76 211.723 125.1 208.168ZM126.225 220.318L131.13 222.388C127.8 226.933 122.94 231.118 118.35 233.908C117.495 232.693 116.01 231.163 114.66 230.173C118.755 227.923 123.705 224.143 126.225 220.318ZM97.7401 216.943V218.653H108.945V216.943H97.7401ZM97.7401 212.218V213.883H108.945V212.218H97.7401ZM115.83 223.963V228.013H90.6301V223.963H100.755C100.53 223.468 100.35 223.018 100.125 222.613L103.635 221.893H92.6551V208.978H114.255V221.893H105.435C105.795 222.523 106.2 223.243 106.47 223.963H115.83ZM94.6801 238.993L99.1351 240.343C97.9201 243.043 95.9401 246.148 94.2751 248.083C93.4651 247.318 91.6201 245.923 90.5851 245.293C92.2051 243.628 93.7351 241.198 94.6801 238.993ZM98.3251 233.008V235.348H108.405V233.008H98.3251ZM113.625 238.813H105.84V244.708C105.84 246.913 105.525 247.993 103.995 248.668C102.6 249.298 100.71 249.343 98.3251 249.343C98.1001 247.993 97.4701 246.283 96.8401 245.068C98.1901 245.113 99.5851 245.113 100.035 245.113C100.485 245.113 100.62 244.978 100.62 244.573V238.813H93.3751V229.543H113.625V238.813ZM127.035 232.918L131.985 234.763C128.61 240.793 123.3 245.788 117.405 249.073C116.595 247.768 115.155 246.103 113.85 244.978C113.985 245.338 114.12 245.653 114.255 245.968L110.295 247.858C109.62 245.968 108.045 242.863 106.605 240.523L110.385 238.948C111.51 240.703 112.905 243.088 113.76 244.843C119.07 242.323 124.29 238.003 127.035 232.918ZM154.305 220.723V223.513H158.895C159.525 222.523 159.885 221.578 160.11 220.723H154.305ZM162.495 214.513H155.835C155.205 215.323 154.53 216.133 153.855 216.898H160.605C161.28 216.178 161.91 215.368 162.495 214.513ZM169.47 223.513V220.723H164.43C164.295 221.578 164.115 222.523 163.755 223.513H169.47ZM171.945 228.373L175.455 231.658C174.105 232.468 172.62 233.233 171.18 233.953C172.44 237.688 174.645 241.108 177.57 242.863C176.535 243.808 175.005 245.608 174.285 246.868C171 244.483 168.705 240.388 167.355 235.708C166.815 235.933 166.32 236.158 165.825 236.338C167.04 240.973 166.365 245.563 164.61 247.453C163.395 248.938 162 249.388 160.155 249.433C159.39 249.478 158.4 249.478 157.5 249.388C157.41 248.128 157.095 246.193 156.285 244.843C157.41 244.978 158.355 245.023 159.075 245.023C159.885 245.023 160.425 244.888 160.92 244.078C161.415 243.493 161.73 242.233 161.73 240.613C158.04 243.538 153.405 246.103 149.175 247.543C148.5 246.463 147.15 244.753 146.16 243.853C151.47 242.368 157.59 239.308 161.01 236.203C160.83 235.663 160.65 235.168 160.425 234.673C157.365 237.103 153.09 239.443 149.58 240.748C148.95 239.758 147.69 238.228 146.79 237.463C150.84 236.338 155.88 233.998 158.625 231.793C158.31 231.388 157.995 231.028 157.68 230.713C155.565 232.153 152.73 233.503 149.13 234.538C148.5 233.728 147.24 232.243 146.25 231.388C150.21 230.218 153.045 228.823 155.16 227.338H149.625V220.993C149.22 221.353 148.77 221.668 148.365 222.028C147.6 220.903 146.07 219.238 144.99 218.563L144.945 218.698V249.343H139.815V226.843C138.96 227.968 138.105 229.048 137.25 229.948C136.755 228.643 135.27 225.718 134.37 224.413C138.24 220.318 141.975 213.928 144.09 207.583L149.13 209.158C148.05 212.308 146.61 215.458 145.035 218.518C149.625 215.278 152.91 211.048 154.755 207.448L159.75 208.393C159.345 209.113 158.94 209.878 158.49 210.598H165.42L166.41 210.328L169.425 212.578C168.48 214.018 167.4 215.503 166.185 216.898H174.42V227.338H161.46C161.235 227.608 161.01 227.878 160.74 228.148C162.36 229.543 163.62 231.163 164.475 232.918C167.085 231.523 170.01 229.768 171.945 228.373ZM209.52 210.328V214.738H198.27V210.328H209.52ZM184.905 214.468V237.103H181.305V209.653H195.525V236.878H191.745V214.468H184.905ZM207.765 240.973L211.545 240.253L211.995 244.438C206.505 245.698 200.79 246.958 196.38 247.858L195.885 245.698L192.33 247.813C191.655 246.013 190.17 243.178 188.82 240.793C187.74 243.943 185.895 246.913 182.88 249.163C182.25 248.263 180.945 246.868 179.955 246.103C185.715 242.098 186.3 234.313 186.3 229.183V216.988H190.485V229.228C190.485 232.288 190.305 235.798 189.36 239.128L191.745 237.868C193.14 240.073 194.805 243.043 195.75 245.023L195.39 243.268L197.64 242.908V225.988H201.6V242.188L203.67 241.783V223.558H207.765V229.678H210.825V234.133H207.765V240.973ZM221.94 222.253H215.505C215.955 234.628 217.125 244.798 218.52 244.798C218.925 244.798 219.195 242.188 219.195 237.328C220.14 238.453 221.49 239.443 222.66 240.073C222.12 247.453 220.95 249.433 217.665 249.433C212.94 249.433 211.59 236.608 211.095 222.253H196.47V217.798H210.96C210.87 214.333 210.825 210.823 210.78 207.493H215.37L215.325 210.148L218.88 208.708C220.23 210.553 221.58 213.118 222.12 214.873L218.295 216.538C217.8 214.873 216.585 212.218 215.325 210.283C215.325 212.803 215.37 215.323 215.415 217.798H221.94V222.253ZM232.605 236.923H239.31V234.313H232.605V236.923ZM239.31 227.968H232.605V230.353H239.31V227.968ZM244.62 223.558V243.988C244.62 246.328 244.17 247.633 242.64 248.398C241.155 249.253 239.04 249.298 236.385 249.298C236.115 247.903 235.305 245.833 234.63 244.573C236.25 244.663 238.005 244.618 238.59 244.573C239.13 244.573 239.31 244.438 239.31 243.898V240.883H232.605V249.388H227.655V223.558H244.62ZM237.24 211.813L241.785 210.148C243.855 213.208 246.15 217.213 246.87 220.048L242.01 221.983C241.875 221.308 241.605 220.543 241.29 219.733C230.445 220.633 228.69 220.948 227.52 221.398C227.25 220.363 226.35 217.843 225.72 216.403C226.44 216.223 227.16 215.638 227.925 214.648C228.6 213.748 230.715 210.598 231.975 207.268L237.645 208.753C236.385 211.318 234.585 213.973 232.875 216.133L239.445 215.728C238.77 214.378 237.96 213.028 237.24 211.813ZM260.775 227.518H254.61C249.39 227.518 248.085 225.988 248.085 221.083V207.538H253.395V214.018C256.455 212.803 259.47 211.453 261.54 210.238L264.96 214.108C261.54 215.773 257.31 217.168 253.395 218.338V220.993C253.395 222.613 253.665 222.793 255.375 222.793H260.235C261.72 222.793 261.99 222.118 262.215 218.203C263.295 219.013 265.41 219.823 266.895 220.138C266.31 225.898 264.87 227.518 260.775 227.518ZM255.51 244.438H260.55C262.125 244.438 262.395 243.583 262.62 239.083C263.745 239.848 265.86 240.658 267.3 241.018C266.76 247.318 265.32 249.118 261.045 249.118H254.745C249.48 249.118 248.13 247.543 248.13 242.638V228.508H253.44V234.583C256.635 233.323 259.74 231.838 261.9 230.398L265.41 234.313C261.945 236.158 257.535 237.778 253.44 239.083V242.638C253.44 244.213 253.755 244.438 255.51 244.438Z" fill="white"/>
</svg>
