<svg width="179" height="231" viewBox="0 0 179 231" fill="none" xmlns="http://www.w3.org/2000/svg">
<path d="M88.719 161.16C133.222 161.16 169.299 125.083 169.299 80.5798C169.299 36.0768 133.222 0 88.719 0C44.216 0 8.13916 36.0768 8.13916 80.5798C8.13916 125.083 44.216 161.16 88.719 161.16Z" fill="white"/>
<path d="M143.883 52.6308L114.469 67.9159V51.1867C114.469 47.1433 111.158 43.833 107.115 43.833H40.9314C36.8879 43.833 33.5776 47.1433 33.5776 51.1867V110.016C33.5776 114.06 36.8879 117.37 40.9314 117.37H107.115C111.158 117.37 114.469 114.06 114.469 110.016V93.2873L143.883 108.572V52.653V52.6308ZM107.115 109.994H40.9314V51.1867H107.115V109.994ZM136.53 96.4199L114.469 84.9561V76.2027L136.53 64.7389V96.4199Z" fill="#EC6600"/>
<path d="M51.9727 69.0939C51.9727 73.1596 55.2607 76.4477 59.3264 76.4477C63.392 76.4477 66.6801 73.1596 66.6801 69.0939C66.6801 65.0283 63.392 61.7402 59.3264 61.7402C55.2607 61.7402 51.9727 65.0283 51.9727 69.0939Z" fill="#EC6600"/>
<path d="M14.445 216.097V223.207C16.875 224.017 19.935 224.242 23.625 224.242C27.045 224.287 39.06 224.287 43.11 224.062C42.345 225.322 41.445 227.752 41.085 229.372H23.625C15.255 229.372 9.90002 228.247 6.34502 223.207C5.85002 225.997 5.17502 228.427 4.27502 230.497C3.37502 229.867 1.12502 228.607 1.95876e-05 228.157C2.25002 223.702 2.61002 216.457 2.65502 208.807L7.33502 209.122C7.33502 211.192 7.24502 213.262 7.15502 215.242C7.83002 217.267 8.64002 218.842 9.67502 220.012V206.557H1.21502V201.832H8.82002V197.692H2.25002V193.057H8.82002V188.512H13.77V193.057H20.16V197.692H13.77V201.832H20.925V202.957C23.895 201.067 25.515 198.322 26.28 194.587H21.465V190.132H41.31C41.31 190.132 41.31 191.347 41.265 191.977C40.95 199.447 40.545 202.732 39.465 203.992C38.655 204.982 37.665 205.342 36.45 205.522C35.325 205.657 33.48 205.702 31.455 205.612C31.41 204.262 30.87 202.327 30.15 201.112C31.725 201.292 33.12 201.292 33.795 201.292C34.335 201.292 34.74 201.202 35.1 200.842C35.505 200.257 35.82 198.592 36.045 194.587H31.275C30.24 200.257 27.81 204.172 23.715 206.782C23.13 206.197 21.96 205.252 20.925 204.487V206.557H14.445V211.462H20.385V216.097H14.445ZM27.63 211.642V217.222H34.92V211.642H27.63ZM22.635 221.497V207.322H40.23V221.497H22.635ZM57.96 193.957L54.585 198.097C53.1 196.612 49.905 194.452 47.52 193.102L50.67 189.367C53.055 190.582 56.295 192.562 57.96 193.957ZM56.25 205.567L53.01 209.797C51.435 208.222 48.015 206.017 45.36 204.577L48.42 200.797C50.985 202.057 54.45 204.127 56.25 205.567ZM51.75 229.552L46.845 226.447C48.78 222.982 51.39 217.402 53.46 212.227L57.78 215.422C56.025 220.147 53.775 225.187 51.75 229.552ZM65.25 220.057H78.705V217.852H65.25V220.057ZM78.705 212.137H65.25V214.207H78.705V212.137ZM83.745 208.222V225.367C83.745 227.707 83.295 228.967 81.675 229.687C80.1 230.452 77.85 230.452 74.745 230.452C74.565 229.147 73.935 227.212 73.305 225.907C75.15 226.042 77.265 225.997 77.85 225.997C78.48 225.997 78.705 225.817 78.705 225.277V223.837H65.25V230.542H60.3V208.222H83.745ZM74.52 202.687H87.255V206.512H57.015V202.687H69.21V200.752H59.895V197.152H69.21V195.352H58.635V191.527H69.21V188.467H74.52V191.527H85.41V195.352H74.52V197.152H84.195V200.752H74.52V202.687ZM125.73 189.232L130.77 191.302C127.71 195.622 123.21 199.537 118.935 202.192C118.08 201.067 116.505 199.447 115.155 198.457C118.935 196.432 123.39 192.787 125.73 189.232ZM126.855 201.382L131.76 203.452C128.43 207.997 123.57 212.182 118.98 214.972C118.125 213.757 116.64 212.227 115.29 211.237C119.385 208.987 124.335 205.207 126.855 201.382ZM98.37 198.007V199.717H109.575V198.007H98.37ZM98.37 193.282V194.947H109.575V193.282H98.37ZM116.46 205.027V209.077H91.26V205.027H101.385C101.16 204.532 100.98 204.082 100.755 203.677L104.265 202.957H93.285V190.042H114.885V202.957H106.065C106.425 203.587 106.83 204.307 107.1 205.027H116.46ZM95.31 220.057L99.765 221.407C98.55 224.107 96.57 227.212 94.905 229.147C94.095 228.382 92.25 226.987 91.215 226.357C92.835 224.692 94.365 222.262 95.31 220.057ZM98.955 214.072V216.412H109.035V214.072H98.955ZM114.255 219.877H106.47V225.772C106.47 227.977 106.155 229.057 104.625 229.732C103.23 230.362 101.34 230.407 98.955 230.407C98.73 229.057 98.1 227.347 97.47 226.132C98.82 226.177 100.215 226.177 100.665 226.177C101.115 226.177 101.25 226.042 101.25 225.637V219.877H94.005V210.607H114.255V219.877ZM127.665 213.982L132.615 215.827C129.24 221.857 123.93 226.852 118.035 230.137C117.225 228.832 115.785 227.167 114.48 226.042C114.615 226.402 114.75 226.717 114.885 227.032L110.925 228.922C110.25 227.032 108.675 223.927 107.235 221.587L111.015 220.012C112.14 221.767 113.535 224.152 114.39 225.907C119.7 223.387 124.92 219.067 127.665 213.982ZM154.935 201.787V204.577H159.525C160.155 203.587 160.515 202.642 160.74 201.787H154.935ZM163.125 195.577H156.465C155.835 196.387 155.16 197.197 154.485 197.962H161.235C161.91 197.242 162.54 196.432 163.125 195.577ZM170.1 204.577V201.787H165.06C164.925 202.642 164.745 203.587 164.385 204.577H170.1ZM172.575 209.437L176.085 212.722C174.735 213.532 173.25 214.297 171.81 215.017C173.07 218.752 175.275 222.172 178.2 223.927C177.165 224.872 175.635 226.672 174.915 227.932C171.63 225.547 169.335 221.452 167.985 216.772C167.445 216.997 166.95 217.222 166.455 217.402C167.67 222.037 166.995 226.627 165.24 228.517C164.025 230.002 162.63 230.452 160.785 230.497C160.02 230.542 159.03 230.542 158.13 230.452C158.04 229.192 157.725 227.257 156.915 225.907C158.04 226.042 158.985 226.087 159.705 226.087C160.515 226.087 161.055 225.952 161.55 225.142C162.045 224.557 162.36 223.297 162.36 221.677C158.67 224.602 154.035 227.167 149.805 228.607C149.13 227.527 147.78 225.817 146.79 224.917C152.1 223.432 158.22 220.372 161.64 217.267C161.46 216.727 161.28 216.232 161.055 215.737C157.995 218.167 153.72 220.507 150.21 221.812C149.58 220.822 148.32 219.292 147.42 218.527C151.47 217.402 156.51 215.062 159.255 212.857C158.94 212.452 158.625 212.092 158.31 211.777C156.195 213.217 153.36 214.567 149.76 215.602C149.13 214.792 147.87 213.307 146.88 212.452C150.84 211.282 153.675 209.887 155.79 208.402H150.255V202.057C149.85 202.417 149.4 202.732 148.995 203.092C148.23 201.967 146.7 200.302 145.62 199.627L145.575 199.762V230.407H140.445V207.907C139.59 209.032 138.735 210.112 137.88 211.012C137.385 209.707 135.9 206.782 135 205.477C138.87 201.382 142.605 194.992 144.72 188.647L149.76 190.222C148.68 193.372 147.24 196.522 145.665 199.582C150.255 196.342 153.54 192.112 155.385 188.512L160.38 189.457C159.975 190.177 159.57 190.942 159.12 191.662H166.05L167.04 191.392L170.055 193.642C169.11 195.082 168.03 196.567 166.815 197.962H175.05V208.402H162.09C161.865 208.672 161.64 208.942 161.37 209.212C162.99 210.607 164.25 212.227 165.105 213.982C167.715 212.587 170.64 210.832 172.575 209.437Z" fill="white"/>
</svg>
