<?xml version="1.0" encoding="UTF-8"?>
<svg id="_图层_2" data-name="图层 2" xmlns="http://www.w3.org/2000/svg" xmlns:xlink="http://www.w3.org/1999/xlink" viewBox="0 0 105 105">
  <defs>
    <style>
      .cls-1 {
        fill: #ec6600;
        stroke-width: 0px;
      }

      .cls-2 {
        filter: url(#outer-glow-1);
        stroke: #ec6600;
        stroke-miterlimit: 10;
      }
    </style>
    <filter id="outer-glow-1" filterUnits="userSpaceOnUse">
      <feOffset dx="0" dy="0"/>
      <feGaussianBlur result="blur" stdDeviation="5"/>
      <feFlood flood-color="#e87400" flood-opacity=".75"/>
      <feComposite in2="blur" operator="in"/>
      <feComposite in="SourceGraphic"/>
    </filter>
  </defs>
  <g id="_图层_1-2" data-name="图层 1">
    <circle class="cls-2" cx="52.38" cy="52.67" r="36.27"/>
    <g>
      <path class="cls-1" d="m77.2,40.08l-13.24,6.88v-7.53c0-1.82-1.49-3.31-3.31-3.31h-29.79c-1.82,0-3.31,1.49-3.31,3.31v26.48c0,1.82,1.49,3.31,3.31,3.31h29.79c1.82,0,3.31-1.49,3.31-3.31v-7.53l13.24,6.88v-25.17Zm-16.55,25.82h-29.79v-26.47h29.79v26.47Zm13.24-6.11l-9.93-5.16v-3.94l9.93-5.16v14.26Z"/>
      <path class="cls-1" d="m35.84,47.49c0,1.83,1.48,3.31,3.31,3.31s3.31-1.48,3.31-3.31-1.48-3.31-3.31-3.31-3.31,1.48-3.31,3.31h0Z"/>
    </g>
  </g>
</svg>