<svg width="1531" height="1264" viewBox="0 0 1531 1264" fill="none" xmlns="http://www.w3.org/2000/svg">
<g clip-path="url(#clip0_108_88)">
<path d="M192.433 459.6L191.828 459.802C186.722 462.624 182.736 464.035 179.914 464.035C177.361 464.035 174.898 462.355 172.546 458.995C170.195 455.635 169.008 452.073 169.008 448.287C169.008 446.137 169.478 444.613 170.419 443.74C171.359 442.866 174.248 441.208 179.108 438.789C188.133 434.219 195.523 428.283 201.324 421.025H176.084C174.203 421.025 172.389 419.95 170.642 417.799C168.896 415.649 168.022 413.296 168.022 410.72C168.022 408.144 168.828 405.882 170.441 403.865C172.053 401.849 173.935 400.841 176.084 400.841H210.192C210.864 397.078 211.401 392.911 211.805 388.319H201.1C198.144 393.023 195.613 396.294 193.53 398.108C191.447 399.923 189.186 400.841 186.767 400.841C183.408 400.841 180.228 399.632 177.271 397.212C174.315 394.793 172.837 392.172 172.837 389.349C172.837 388.005 173.352 386.28 174.36 384.197C175.368 382.114 178.638 376.155 184.147 366.321C187.103 360.944 189.387 357.539 191 356.128C192.612 354.717 194.896 354 197.852 354C201.48 354 204.504 355.008 206.945 357.024C209.364 359.04 210.573 361.594 210.573 364.686C210.573 365.761 210.439 366.903 210.17 368.113H254.982C256.729 368.113 258.386 369.188 259.932 371.339C261.477 373.489 262.261 375.909 262.261 378.619C262.261 381.442 261.522 383.771 260.044 385.586C258.565 387.4 256.684 388.319 254.4 388.319H235.834C235.431 393.561 234.961 397.75 234.424 400.841H259.058C261.074 400.841 262.865 401.849 264.411 403.865C265.956 405.882 266.74 408.301 266.74 411.146C266.74 413.7 265.956 415.985 264.411 418.001C262.865 420.017 261.074 421.025 259.058 421.025H239.283C240.761 421.831 242.441 422.705 244.322 423.646L246.539 424.855C248.152 425.662 249.092 426.132 249.361 426.267C255.542 429.358 259.954 432.091 262.574 434.443C265.194 436.795 266.516 439.192 266.516 441.612C266.516 445.778 264.836 449.497 261.477 452.723H310.724C315.695 452.723 319.48 453.126 322.033 453.932C324.586 454.739 326.87 456.352 328.886 458.771C330.633 460.653 331.82 462.535 332.424 464.416C333.029 466.298 333.343 469.12 333.343 472.906V515.917C333.343 520.352 332.962 523.668 332.223 525.818C331.484 527.969 329.961 530.052 327.677 532.068C325.527 533.95 323.332 535.204 321.115 535.809C318.898 536.414 315.427 536.728 310.724 536.728H208.983C201.996 536.728 196.666 534.779 193.038 530.881C191.291 528.865 190.149 526.916 189.611 525.034C189.074 523.152 188.805 520.128 188.805 515.939V472.929C188.805 469.434 189.029 466.768 189.522 464.954C189.992 463.139 190.977 461.347 192.455 459.6H192.433ZM202.511 453.35C204.123 452.947 207.079 452.745 211.401 452.745H248.958C248.152 452.207 245.397 450.259 240.672 446.898C233.819 442.194 227.616 438.139 222.106 434.779C216.597 442.194 210.058 448.377 202.533 453.35H202.511ZM215.634 485.451H306.469V482.83C306.469 479.201 306.133 476.737 305.461 475.46C304.789 474.183 303.512 473.534 301.631 473.534H220.494C217.269 473.534 215.657 475.415 215.657 479.179V485.429L215.634 485.451ZM306.469 503.619H215.634V511.28C215.634 512.624 216.104 513.744 217.045 514.618C217.986 515.491 219.128 515.939 220.471 515.939H301.609C304.834 515.939 306.446 512.915 306.446 506.844V503.619H306.469ZM286.895 366.119H326.669C330.566 366.119 333.455 366.455 335.358 367.127C337.239 367.799 338.986 369.076 340.599 370.958C342.211 372.84 343.286 374.766 343.823 376.715C344.361 378.664 344.63 381.666 344.63 385.698V427.297C344.63 431.598 344.249 434.869 343.51 437.087C342.771 439.304 341.45 441.298 339.568 443.045C337.822 444.658 336.142 445.711 334.529 446.182C332.917 446.652 330.297 446.898 326.646 446.898H286.873C283.11 446.898 280.289 446.562 278.385 445.89C276.504 445.218 274.69 443.941 272.943 442.06C271.331 440.178 270.256 438.251 269.718 436.303C269.181 434.354 268.912 431.352 268.912 427.32V385.698C268.912 381.397 269.27 378.126 270.032 375.909C270.771 373.691 272.092 371.697 273.973 369.95C275.72 368.337 277.4 367.284 279.012 366.814C280.625 366.343 283.245 366.097 286.895 366.097V366.119ZM292.539 395.599V420.039C292.539 421.249 293.255 422.257 294.666 423.063C296.077 423.87 297.936 424.273 300.22 424.273H314.15C316.434 424.273 318.293 423.87 319.704 423.063C321.115 422.257 321.831 421.249 321.831 420.039V395.599C321.831 393.046 321.294 391.321 320.219 390.447C319.144 389.573 317.129 389.125 314.172 389.125H300.243C297.287 389.125 295.271 389.573 294.196 390.447C293.121 391.321 292.584 393.046 292.584 395.599H292.539Z" fill="#EC6602"/>
<path d="M527.306 487.064C531.741 488.274 537.474 493.717 544.461 503.417C550.373 511.638 553.352 517.754 553.352 521.786C553.352 524.609 551.695 527.431 548.402 530.276C545.11 533.099 541.706 534.51 538.213 534.51C535.257 534.51 532.077 531.889 528.717 526.625C528.314 525.818 527.441 524.407 526.097 522.391C525.425 521.45 524.081 519.434 522.066 516.343C520.857 514.326 518.908 511.571 516.221 508.054C515.818 507.516 515.482 507.046 515.213 506.643C515.616 507.987 515.818 509.331 515.818 510.675C515.818 515.648 514.81 520.263 512.794 524.497C510.779 528.731 508.159 531.732 504.911 533.48C501.552 535.227 496.827 536.437 490.78 537.109C484.733 537.781 475.171 538.117 462.114 538.117C444.489 538.117 432.575 536.571 426.394 533.48C420.056 530.254 416.899 523.377 416.899 512.893V499.362C416.899 496.54 418.108 494.12 420.527 492.104C422.945 490.088 425.834 489.08 429.216 489.08C432.844 489.08 435.845 490.133 438.196 492.216C440.548 494.3 441.735 496.965 441.735 500.191V509.085C441.735 511.235 442.071 512.781 442.743 513.722C443.414 514.662 444.691 515.402 446.572 515.939C449.26 516.611 455.866 516.947 466.347 516.947H471.587C473.872 516.813 475.619 516.746 476.828 516.746C484.218 516.746 488.675 515.603 490.153 513.318C490.69 512.378 491.228 510.025 491.765 506.262C492.572 501.02 495.864 498.377 501.664 498.377C505.964 498.377 509.39 499.385 511.966 501.401C511.428 500.326 511.159 499.385 511.159 498.578C511.159 496.159 512.391 493.807 514.899 491.5C517.385 489.215 520.319 487.736 523.678 487.064H472.618C478.53 494.21 481.508 499.519 481.508 503.014C481.508 505.568 480.053 508.099 477.164 510.585C474.275 513.072 471.408 514.326 468.587 514.326C466.974 514.326 465.586 513.789 464.443 512.714C463.301 511.638 461.308 509.017 458.486 504.851C458.083 504.179 457.546 503.439 456.874 502.633C452.574 496.719 450.424 492.463 450.424 489.909C450.424 488.968 450.693 488.027 451.23 487.086H386.24C384.359 487.086 382.769 486.347 381.492 484.869C380.216 483.39 379.566 481.643 379.566 479.627C379.566 477.611 380.238 475.819 381.582 474.273C382.925 472.727 384.471 471.943 386.217 471.943H511.563C513.578 471.943 514.922 471.54 515.594 470.733C516.266 469.927 516.602 468.516 516.602 466.5V465.693H391.458C389.711 465.693 388.3 465.088 387.225 463.879C386.15 462.669 385.613 461.191 385.613 459.443C385.613 457.83 386.217 456.352 387.427 455.008C388.636 453.664 389.98 452.992 391.458 452.992H516.602V452.185C516.602 450.303 516.221 448.982 515.482 448.243C514.743 447.503 513.421 447.122 511.54 447.122H387.606C385.725 447.122 384.135 446.383 382.858 444.905C381.582 443.426 380.932 441.679 380.932 439.663C380.932 437.647 381.604 435.855 382.948 434.309C384.292 432.763 385.837 431.979 387.584 431.979H407.56C405.948 430.366 405.141 428.552 405.141 426.536V423.713H378.491C376.341 423.713 374.617 422.951 373.34 421.383C372.064 419.838 371.414 417.911 371.414 415.626C371.414 413.207 372.041 411.258 373.34 409.779C374.617 408.301 376.341 407.562 378.491 407.562H405.141V401.312H383.754C382.007 401.312 380.529 400.64 379.32 399.296C378.11 397.952 377.506 396.339 377.506 394.457C377.506 392.441 378.133 390.716 379.432 389.305C380.708 387.893 382.164 387.177 383.776 387.177H405.164V380.927H381.537C379.521 380.927 377.864 380.165 376.588 378.597C375.311 377.051 374.662 375.125 374.662 372.84C374.662 370.42 375.289 368.471 376.588 366.993C377.864 365.514 379.521 364.775 381.537 364.775H405.164V362.759C405.164 360.34 406.239 358.346 408.389 356.8C410.539 355.255 413.293 354.471 416.675 354.471C420.056 354.471 423.125 355.277 425.566 356.89C427.984 358.503 429.194 360.452 429.194 362.737V364.753H452.216C457.322 364.753 459.897 367.307 459.897 372.414C459.897 375.102 459.181 377.186 457.77 378.664C456.359 380.143 454.5 380.882 452.216 380.882H429.194V387.132H451.186C455.62 387.132 457.837 389.349 457.837 393.785C457.837 396.07 457.232 397.884 456.023 399.228C454.814 400.573 453.201 401.245 451.186 401.245H429.194V407.495H452.014C457.12 407.495 459.696 410.048 459.696 415.178C459.696 417.866 459.024 419.95 457.68 421.428C456.336 422.907 454.455 423.646 452.037 423.646H429.216V426.468C429.216 428.35 428.208 430.165 426.193 431.912H499.268C497.521 430.299 496.648 428.485 496.648 426.468V423.646H471.207C469.057 423.646 467.332 422.884 466.056 421.316C464.779 419.77 464.13 417.844 464.13 415.559C464.13 413.14 464.757 411.191 466.056 409.712C467.332 408.234 469.057 407.495 471.207 407.495H496.648V401.245H474.028C472.282 401.245 470.804 400.573 469.594 399.228C468.385 397.884 467.78 396.271 467.78 394.39C467.78 392.374 468.407 390.649 469.706 389.237C470.983 387.826 472.438 387.109 474.051 387.109H496.67V380.859H472.438C470.423 380.859 468.743 380.098 467.4 378.53C466.056 376.984 465.384 375.057 465.384 372.772C465.384 370.353 466.011 368.404 467.31 366.926C468.586 365.447 470.311 364.708 472.461 364.708H496.692V362.692C496.692 360.273 497.812 358.279 500.029 356.733C502.246 355.187 505.046 354.403 508.405 354.403C511.764 354.403 514.698 355.21 517.184 356.823C519.67 358.436 520.924 360.385 520.924 362.669V364.686H545.76C550.732 364.686 553.217 367.307 553.217 372.571C553.217 375.125 552.546 377.141 551.202 378.619C549.858 380.098 548.044 380.837 545.76 380.837H520.924V387.087H542.513C546.947 387.087 549.164 389.305 549.164 393.74C549.164 396.025 548.559 397.84 547.35 399.184C546.141 400.528 544.528 401.2 542.513 401.2H520.924V407.45H547.372C552.344 407.45 554.83 410.003 554.83 415.133C554.83 417.822 554.158 419.905 552.814 421.383C551.471 422.862 549.657 423.601 547.372 423.601H520.924V426.424C520.924 428.305 519.916 430.12 517.9 431.867H524.149C528.18 431.867 531.181 432.203 533.129 432.875C535.077 433.547 536.936 434.824 538.683 436.706C541.102 439.394 542.311 443.314 542.311 448.422V469.613C542.311 473.377 541.997 476.177 541.393 477.992C540.788 479.806 539.534 481.531 537.653 483.144C534.831 485.698 531.405 486.974 527.351 486.974L527.306 487.064ZM412.241 500.393C412.241 502.678 409.217 509.689 403.148 521.383C398.714 530.276 393.989 534.712 389.017 534.712C385.12 534.712 381.47 533.368 378.11 530.679C375.154 528.395 373.676 526.042 373.676 523.601C373.676 521.316 375.154 517.888 378.11 513.296C382.142 507.382 385.299 502.118 387.606 497.548C389.218 494.188 390.741 491.858 392.152 490.581C393.563 489.304 395.22 488.655 397.101 488.655C401.267 488.655 404.985 489.999 408.209 492.687C410.897 494.972 412.241 497.525 412.241 500.348V500.393Z" fill="#EC6602"/>
<path d="M641.969 420.823C643.044 422.839 643.985 425.528 644.791 428.91H681.922C687.431 428.91 690.208 431.934 690.208 438.005C690.208 440.828 689.469 443.113 687.991 444.86C686.513 446.607 684.497 447.481 681.944 447.481H578.591C576.172 447.481 574.157 446.607 572.544 444.86C570.932 443.113 570.126 440.962 570.126 438.408C570.126 435.855 570.954 433.637 572.656 431.755C574.336 429.873 576.329 428.933 578.613 428.933H618.185C618.185 428.798 618.118 428.664 617.984 428.529V428.328C617.312 426.177 616.976 424.43 616.976 423.086C616.976 422.683 617.178 421.943 617.581 420.868H598.814C594.514 420.868 591.267 420.51 589.117 419.748C586.967 419.009 584.951 417.62 583.07 415.604C581.458 413.722 580.383 411.84 579.845 409.959C579.308 408.077 579.039 405.12 579.039 401.065V382.091C579.039 377.79 579.397 374.565 580.159 372.392C580.898 370.241 582.286 368.225 584.302 366.343C586.183 364.73 588.064 363.655 589.945 363.118C591.826 362.58 594.783 362.311 598.836 362.311H665.237C671.015 362.311 675.539 364.058 678.764 367.553C680.377 369.435 681.451 371.316 681.989 373.198C682.526 375.08 682.795 378.037 682.795 382.091V401.065C682.795 405.366 682.414 408.615 681.675 410.765C680.936 412.916 679.548 414.932 677.532 416.813C675.651 418.426 673.77 419.502 671.889 420.039C670.008 420.577 667.051 420.846 662.998 420.846H642.014L641.969 420.823ZM644.791 493.516V517.955C644.791 533.569 636.505 541.387 619.955 541.387C612.699 541.387 607.57 539.909 604.614 536.952C602.867 535.339 601.994 532.449 601.994 528.26C601.994 520.599 604.547 516.746 609.675 516.746C610.75 516.746 612.363 517.015 614.513 517.552C615.185 517.687 615.722 517.754 616.125 517.754C619.216 517.754 620.761 516.007 620.761 512.512V493.538H600.986C603.942 494.613 606.361 496.204 608.242 498.287C610.123 500.37 611.064 502.566 611.064 504.851C611.064 509.017 606.697 515.895 597.94 525.438C591.491 532.561 586.295 536.145 582.398 536.145C579.442 536.145 576.71 534.891 574.224 532.404C571.738 529.918 570.484 527.118 570.484 524.026C570.484 521.472 572.365 518.314 576.128 514.528C580.696 509.958 584.279 505.926 586.832 502.409C590.46 497.436 593.417 494.479 595.723 493.516C590.08 493.247 586.004 491.858 583.518 489.371C581.032 486.885 579.778 482.942 579.778 477.566V469.703C579.778 464.192 581.122 460.138 583.809 457.584C586.496 455.03 590.796 453.753 596.731 453.753H663.334C669.246 453.753 673.568 455.03 676.256 457.584C678.943 460.138 680.287 464.17 680.287 469.703V477.566C680.287 483.077 678.943 487.131 676.256 489.685C673.568 492.239 669.246 493.516 663.334 493.516H644.768H644.791ZM603.606 384.892H658.116V383.077C658.116 379.314 656.503 377.432 653.279 377.432H608.466C605.241 377.432 603.629 379.314 603.629 383.077V384.892H603.606ZM658.116 398.019H603.606V400.035C603.606 403.798 605.219 405.68 608.444 405.68H653.256C656.481 405.68 658.093 403.798 658.093 400.035V398.019H658.116ZM651.666 468.292H608.668C607.458 468.292 606.383 468.829 605.443 469.905C604.502 470.98 604.032 472.122 604.032 473.332C604.032 474.945 604.502 476.289 605.443 477.364C606.383 478.44 607.458 478.977 608.668 478.977H651.666C652.875 478.977 653.95 478.44 654.891 477.364C655.832 476.289 656.302 475.012 656.302 473.534C656.302 472.324 655.832 471.137 654.891 469.994C653.95 468.852 652.875 468.269 651.666 468.269V468.292ZM682.146 514.73C683.221 514.058 684.497 513.318 685.975 512.512C693.903 508.211 698.987 505.344 701.226 503.932C703.443 502.521 706.713 500.057 711.013 496.562C716.657 491.858 721.18 487.758 724.54 484.241C727.899 480.747 732.333 475.639 737.865 468.897C740.955 465.133 743.911 463.251 746.755 463.251C750.652 463.251 754.235 464.932 757.46 468.292C760.282 471.114 761.693 474.071 761.693 477.185C761.693 482.024 756.184 490.379 745.143 502.23C735.312 512.736 724.293 521.876 712.043 529.694C701.405 536.414 693.478 539.797 688.215 539.797C685.662 539.797 683.377 538.721 681.362 536.571C679.346 534.42 678.07 531.732 677.532 528.484C675.382 529.963 673.165 530.702 670.881 530.702C669.134 530.702 667.589 530.119 666.245 528.977C664.902 527.834 661.878 524.497 657.153 518.986L655.339 516.768L654.331 515.357C650.837 511.459 649.091 508.502 649.091 506.464C649.091 503.641 650.434 500.908 653.122 498.287C655.809 495.666 658.497 494.344 661.206 494.344C665.641 494.344 671.239 498.847 677.958 507.875C680.108 510.832 681.519 513.117 682.191 514.73H682.146ZM694.844 424.072C691.753 424.072 688.887 422.481 686.266 419.322C683.646 416.164 682.325 412.759 682.325 409.13C682.325 405.501 685.079 401.737 690.611 397.817C702.592 389.327 714.305 378.44 725.726 365.111C729.623 360.541 733.117 358.256 736.23 358.256C740.127 358.256 743.687 359.869 746.935 363.095C749.622 365.783 750.966 368.673 750.966 371.787C750.966 377.701 742.68 388.14 726.13 403.081C710.655 417.082 700.219 424.072 694.844 424.072ZM756.229 423.87C756.229 426.289 754.415 429.918 750.787 434.779C747.159 439.618 742.299 444.748 736.252 450.124C714.731 469.905 700.465 479.806 693.455 479.806C690.633 479.806 688.17 478.484 686.087 475.863C684.005 473.242 682.952 470.173 682.952 466.679C682.952 463.856 683.489 461.459 684.564 459.51C685.639 457.561 687.588 455.702 690.41 453.955C706.825 442.911 720.62 430.814 731.796 417.62C735.827 413.05 739.253 410.743 742.097 410.743C745.591 410.743 748.95 412.356 752.197 415.581C754.885 418.27 756.229 421.025 756.229 423.87Z" fill="#EC6602"/>
<path d="M857.947 443.65H848.854C844.823 443.65 841.71 443.269 839.56 442.53C837.411 441.791 835.395 440.469 833.514 438.587C832.036 436.974 831.05 435.362 830.58 433.749C830.11 432.136 829.863 429.515 829.863 425.863V418.404C828.654 418.807 827.512 419.009 826.437 419.009C823.884 419.009 821.6 417.866 819.584 415.581C817.569 413.296 816.359 410.407 815.956 406.89C815.553 407.83 815.083 408.838 814.545 409.914V531.867C814.545 534.958 813.336 537.579 810.917 539.729C808.499 541.88 805.61 542.955 802.228 542.955C798.846 542.955 795.801 541.88 793.449 539.729C791.098 537.579 789.911 534.958 789.911 531.867V447.458C788.164 448.802 786.148 449.474 783.864 449.474C780.236 449.474 777.033 448.198 774.279 445.644C771.524 443.09 770.136 440.133 770.136 436.75C770.136 434.062 772.017 430.164 775.779 425.035C781.02 418.045 786.238 409.331 791.434 398.892C796.607 388.453 800.548 378.731 803.236 369.726C804.983 364.215 806.841 360.295 808.79 358.01C810.738 355.725 813.269 354.582 816.359 354.582C819.987 354.582 823.257 355.658 826.146 357.808C829.035 359.959 830.49 362.445 830.49 365.268C830.49 369.569 828.878 375.505 825.653 383.032C825.25 383.973 824.377 386.191 823.033 389.685C822.495 391.164 821.622 393.314 820.413 396.137C821.219 395.465 823.033 394.121 825.855 392.105C839.986 382.002 850.892 371.316 858.552 360.004C860.164 357.719 861.508 356.195 862.583 355.456C863.658 354.717 865.136 354.336 867.017 354.336C871.182 354.336 874.743 355.322 877.722 357.271C880.678 359.219 882.156 361.616 882.156 364.439V365.245H917.876C922.041 365.245 925.401 366.321 927.976 368.471C930.529 370.622 931.806 373.444 931.806 376.961C931.806 381.666 928.648 388.207 922.31 396.54H933.62C937.651 396.54 940.786 396.921 943.003 397.66C945.22 398.399 947.214 399.721 948.96 401.603C950.438 403.216 951.424 404.829 951.894 406.441C952.364 408.054 952.611 410.675 952.611 414.327V426.849C952.611 430.344 952.297 432.942 951.693 434.622C951.088 436.302 949.834 437.96 947.953 439.573C946.206 441.186 944.347 442.261 942.399 442.799C940.45 443.336 937.516 443.605 933.62 443.605H887.195C894.048 451.692 899.243 459.219 902.737 466.231C909.455 461.795 914.114 458.749 916.667 457.136C920.026 454.716 923.788 452.23 927.976 449.676C931.739 447.526 934.09 446.249 935.031 445.845C935.971 445.442 937.248 445.241 938.86 445.241C941.682 445.241 944.213 446.383 946.43 448.668C948.647 450.953 949.767 453.507 949.767 456.329C949.767 460.496 943.72 466.163 931.604 473.287C938.457 484.6 947.751 495.912 959.464 507.203C961.882 509.622 963.092 511.907 963.092 514.057C963.092 517.418 961.614 520.554 958.657 523.444C955.701 526.333 952.409 527.789 948.759 527.789C944.459 527.789 938.995 523.69 932.41 515.469C925.804 507.27 919.421 496.629 913.24 483.569C912.837 483.704 911.695 484.241 909.814 485.182L909.612 485.384C909.478 485.384 909.411 485.451 909.411 485.585C910.889 493.269 911.628 500.796 911.628 508.211C911.628 521.539 908.806 530.679 903.14 535.675C898.303 539.976 890.084 542.126 878.506 542.126C870.958 542.126 865.494 541.185 862.045 539.304C858.619 537.422 856.894 534.465 856.894 530.41C856.894 527.722 857.633 525.572 859.111 523.959C860.589 522.346 862.605 521.539 865.158 521.539C866.233 521.539 867.442 521.607 868.786 521.741C872.548 522.144 875.505 522.346 877.677 522.346C880.633 522.346 882.693 521.091 883.836 518.605C884.978 516.118 885.56 511.773 885.56 505.59V502.969C874.519 511.324 862.672 518.583 850.041 524.765C839.269 530.007 831.543 532.651 826.818 532.651C824.533 532.651 822.54 531.508 820.861 529.223C819.181 526.938 818.33 524.25 818.33 521.136C818.33 518.314 819.271 516.118 821.152 514.573C823.033 513.027 826.93 511.302 832.864 509.42C839.045 507.404 846.996 503.932 856.693 499.026C866.39 494.12 874.989 489.17 882.537 484.196C881.865 482.18 881.126 480.097 880.319 477.947C870.488 484.286 860.03 489.954 848.922 495.016C837.814 500.057 830.177 502.588 826.011 502.588C823.862 502.588 822.048 501.602 820.57 499.653C819.091 497.704 818.352 495.308 818.352 492.485C818.352 490.066 819.024 488.206 820.368 486.929C821.712 485.653 824.197 484.533 827.825 483.592C834.141 481.71 841.643 478.887 850.332 475.102C859.022 471.338 866.659 467.552 873.243 463.789C872.033 461.638 870.622 459.488 869.01 457.337C862.426 461.504 856.29 464.819 850.646 467.239C839.337 472.212 831.274 474.698 826.415 474.698C824.265 474.698 822.383 473.668 820.771 471.562C819.159 469.479 818.352 466.947 818.352 463.99C818.352 460.765 819.159 458.547 820.771 457.337C821.846 456.531 826.146 455.12 833.693 453.103C843.39 450.415 851.452 447.257 857.924 443.605L857.947 443.65ZM875.527 426.894C877.005 424.071 878.685 419.569 880.566 413.363H859.38C856.29 413.363 854.744 415.716 854.744 420.442C854.744 422.324 855.17 423.87 856.066 425.079C856.939 426.289 858.059 426.894 859.403 426.894H875.549H875.527ZM896.108 396.607C897.452 394.86 898.392 393.583 898.93 392.777C900.945 390.357 901.953 388.61 901.953 387.535C901.953 385.787 900.072 384.914 896.31 384.914H869.458C864.889 390.29 861.44 394.21 859.156 396.63H896.086L896.108 396.607ZM898.124 426.894H923.161C926.252 426.894 927.797 424.676 927.797 420.241C927.797 415.805 926.252 413.363 923.161 413.363H901.774C900.565 419.143 899.355 423.668 898.146 426.894H898.124Z" fill="#EC6602"/>
<path d="M1115.53 461.616C1115.53 464.976 1114.62 467.866 1112.8 470.308C1110.99 472.727 1108.79 473.937 1106.24 473.937H1100.6V496.763C1105.17 495.151 1108.68 494.344 1111.1 494.344C1113.65 494.344 1115.85 495.554 1117.66 497.973C1119.48 500.393 1120.39 503.349 1120.39 506.866C1120.39 511.302 1118.04 514.685 1113.34 516.969C1110.25 518.582 1104.25 520.531 1095.38 522.816C1092.29 523.623 1088.03 524.765 1082.66 526.244C1070.01 529.604 1060.98 531.284 1055.61 531.284C1052.92 531.284 1050.77 530.545 1049.16 529.066C1045.93 533.367 1041.94 535.518 1037.24 535.518C1033.75 535.518 1030.19 531.351 1026.54 522.995C1025.46 520.576 1022.77 515.446 1018.45 507.651C1017.24 505.634 1016.64 503.618 1016.64 501.602C1014.76 506.71 1012.54 511.571 1009.99 516.141C1005.96 523.533 1001.03 529.805 995.251 534.913C990.279 539.214 986.024 541.365 982.53 541.365C979.977 541.365 977.514 540.043 975.163 537.422C972.811 534.801 971.624 532.001 971.624 529.044C971.624 526.087 974.177 522.458 979.306 517.731C988.868 508.838 995.318 500.37 998.677 492.283C1003.38 481.105 1005.73 466.096 1005.73 447.257V403.44C1005.73 400.886 1006.61 398.69 1008.35 396.876C1010.1 395.061 1012.11 394.143 1014.4 394.143C1016.82 394.143 1018.9 395.061 1020.65 396.876C1022.39 398.69 1023.27 400.886 1023.27 403.44V448.466C1023.27 469.053 1021.52 485.361 1018.03 497.324C1019.24 495.442 1020.89 493.896 1022.98 492.686C1025.06 491.477 1027.05 490.872 1028.93 490.872C1031.62 490.872 1034.11 492.149 1036.41 494.703C1038.7 497.256 1041.18 501.557 1043.87 507.628C1044 507.897 1044.27 508.435 1044.68 509.241C1045.21 510.585 1045.68 511.66 1046.09 512.467C1047.03 511.526 1047.97 510.809 1048.91 510.339C1049.85 509.868 1051.87 509.219 1054.96 508.412H1055.56V447.839C1055.56 445.285 1056.5 443.09 1058.38 441.275C1060.26 439.461 1062.48 438.542 1065.03 438.542C1067.59 438.542 1069.78 439.461 1071.6 441.275C1073.41 443.09 1074.33 445.285 1074.33 447.839V503.775L1081.79 502.162V434.309C1081.79 431.889 1082.73 429.828 1084.61 428.148C1086.49 426.468 1088.71 425.617 1091.26 425.617C1093.81 425.617 1096.01 426.468 1097.82 428.148C1099.63 429.828 1100.55 431.889 1100.55 434.309V450.662H1106.2C1108.61 450.662 1110.7 451.58 1112.44 453.395C1114.19 455.209 1115.2 457.606 1115.47 460.563C1115.06 454.783 1114.8 450.393 1114.66 447.436C1114.12 439.08 1113.79 431.284 1113.65 424.004H1060.35C1056.46 424.004 1053.7 422.996 1052.07 420.98C1050.19 418.56 1049.25 415.738 1049.25 412.49C1049.25 405.097 1052.94 401.379 1060.35 401.379H1113.45V363.901C1113.45 361.347 1114.48 359.197 1116.59 357.45C1118.67 355.702 1121.27 354.829 1124.36 354.829C1127.45 354.829 1130.18 355.702 1132.13 357.45C1134.08 359.197 1135.06 361.482 1135.06 364.304V364.708C1137.48 362.288 1140.17 361.079 1143.15 361.079C1144.63 361.079 1145.77 361.347 1146.57 361.885C1149.53 364.036 1152.73 368.18 1156.16 374.295C1159.59 380.433 1161.31 385.093 1161.31 388.319C1161.31 390.2 1160.24 391.948 1158.09 393.561C1155.94 395.173 1153.52 395.98 1150.83 395.98C1148.95 395.98 1147.4 395.442 1146.19 394.367C1144.98 393.292 1143.57 391.208 1141.96 388.117C1141.29 386.504 1140.08 384.286 1138.33 381.464L1137.93 380.859C1136.59 378.574 1135.65 376.894 1135.11 375.819V378.843C1135.11 381.531 1135.04 386.527 1134.91 393.785V401.468H1152.26C1159.79 401.468 1163.57 405.164 1163.57 412.579C1163.57 416.208 1162.36 419.322 1159.94 421.876C1158.6 423.354 1156.05 424.094 1152.26 424.094H1135.31C1135.71 444.68 1137.12 463.408 1139.54 480.231C1141.56 494.635 1143.57 501.826 1145.59 501.826C1145.99 501.826 1146.87 501.356 1148.21 500.415C1149.15 499.743 1149.82 497.727 1150.22 494.367C1150.63 489.931 1153.05 487.713 1157.48 487.713C1163.39 487.713 1166.37 490.267 1166.37 495.375C1166.37 500.885 1165.63 507.382 1164.15 514.864C1162.68 522.323 1161 528.081 1159.12 532.135C1158.04 534.151 1156.45 535.831 1154.37 537.175C1152.28 538.52 1150.02 539.192 1147.6 539.192C1142.36 539.192 1137.55 536.638 1133.18 531.508C1128.81 526.4 1125.21 519.187 1122.39 509.913C1120.37 503.058 1118.89 496.226 1117.95 489.416C1117.01 482.628 1116.21 473.354 1115.53 461.661V461.616ZM1025.1 386.303H1003.72C1001.84 386.303 1000.51 386.639 999.775 387.311C999.036 387.983 998.655 389.26 998.655 391.141V480.59C998.655 483.009 997.781 485.137 996.035 486.952C994.288 488.766 992.205 489.685 989.787 489.685C987.368 489.685 985.218 488.744 983.337 486.862C981.456 484.98 980.515 482.83 980.515 480.411V384.891C980.515 380.321 980.918 376.849 981.724 374.497C982.53 372.145 984.009 370.017 986.158 368.135C988.174 366.253 990.167 365.044 992.116 364.506C994.064 363.968 997.132 363.7 1001.3 363.7H1027.54C1031.98 363.7 1035.34 364.08 1037.64 364.82C1039.93 365.559 1042.01 367.082 1043.89 369.367C1045.77 371.383 1046.98 373.399 1047.52 375.416C1048.06 377.432 1048.33 380.59 1048.33 384.914V481.419C1048.33 483.704 1047.39 485.72 1045.51 487.467C1043.62 489.214 1041.47 490.088 1039.06 490.088C1036.64 490.088 1034.55 489.237 1032.81 487.557C1031.06 485.876 1030.19 483.883 1030.19 481.598V391.141C1030.19 389.394 1029.81 388.139 1029.07 387.4C1028.33 386.661 1027.01 386.28 1025.13 386.28L1025.1 386.303ZM1066.27 368.74H1096.34C1104.14 368.74 1108.05 372.302 1108.05 379.448C1108.05 386.594 1104.16 390.559 1096.34 390.559H1066.27C1058.58 390.559 1054.75 386.863 1054.75 379.448C1054.75 372.033 1058.58 368.74 1066.27 368.74Z" fill="#EC6602"/>
<path d="M1252.59 410.944C1238.33 412.423 1223.05 413.633 1206.77 414.573C1200.73 414.977 1196.2 415.313 1193.25 415.582C1192.04 415.716 1191.03 415.783 1190.22 415.783C1187 415.783 1184.58 414.372 1182.97 411.549C1181.22 408.324 1180.35 405.299 1180.35 402.454C1180.35 400.841 1180.7 399.453 1181.47 398.31C1182.2 397.168 1184 395.308 1186.82 392.755C1192.33 387.647 1198.8 378.351 1206.19 364.887C1209.82 358.436 1213.51 355.188 1217.3 355.188C1220.79 355.188 1224.02 356.308 1226.99 358.525C1229.95 360.743 1231.43 363.14 1231.43 365.694C1231.43 370.532 1225.79 380.232 1214.48 394.771C1223.48 394.099 1233.18 393.225 1243.54 392.15L1243.14 391.545C1242.87 390.873 1242.54 390.268 1242.13 389.73C1240.12 386.236 1239.11 383.48 1239.11 381.442C1239.11 377.947 1240.3 374.946 1242.65 372.459C1245 369.972 1247.87 368.718 1251.23 368.718C1253.78 368.718 1255.93 369.726 1257.68 371.742C1259.42 373.758 1262.45 378.597 1266.77 386.281C1269.32 391.119 1271.52 395.846 1273.33 400.416C1275.14 404.986 1276.06 408.301 1276.06 410.317C1276.06 412.737 1274.58 414.999 1271.63 417.082C1268.67 419.166 1265.49 420.219 1262.13 420.219C1258.77 420.219 1255.88 417.329 1253.04 411.527C1252.91 411.258 1252.77 411.056 1252.64 410.922L1252.59 410.944ZM1244.1 498.578H1210.8V527.857C1210.8 531.486 1209.68 534.488 1207.47 536.84C1205.25 539.192 1202.38 540.379 1198.89 540.379C1195.4 540.379 1192.39 539.371 1190.31 537.355C1188.23 535.339 1187.18 532.516 1187.18 528.865V441.029C1187.18 427.566 1193.69 420.846 1206.75 420.846H1247.53C1254.38 420.846 1259.58 422.728 1263.07 426.491C1266.16 429.717 1267.71 434.242 1267.71 440.021V516.948C1267.71 524.631 1265.63 530.478 1261.46 534.51C1257.7 538.005 1250.89 539.752 1241.08 539.752C1233.94 539.752 1228.83 538.811 1225.74 536.93C1222.65 535.048 1221.1 531.889 1221.1 527.431C1221.1 524.34 1221.73 521.786 1223.03 519.77C1224.31 517.754 1225.96 516.746 1227.98 516.746C1228.25 516.746 1230.4 517.015 1234.43 517.552C1236.18 517.687 1237.99 517.754 1239.87 517.754C1241.48 517.754 1242.6 517.216 1243.21 516.141C1243.81 515.066 1244.13 512.983 1244.13 509.891V498.578H1244.1ZM1244.1 452.947V448.31C1244.1 445.891 1243.77 444.166 1243.1 443.158C1242.43 442.15 1241.28 441.634 1239.67 441.634H1215.04C1212.21 441.634 1210.8 443.449 1210.8 447.078V452.925H1244.1V452.947ZM1244.1 481.419V470.106H1210.8V481.419H1244.1ZM1302.24 472.123C1309.23 469.972 1314.58 468.045 1318.3 466.365C1321.99 464.685 1328.09 461.616 1336.57 457.181C1341.55 454.493 1345.13 453.149 1347.28 453.149C1349.7 453.149 1352.09 454.694 1354.45 457.786C1356.8 460.877 1357.98 463.968 1357.98 467.082C1357.98 469.77 1356.44 472.302 1353.35 474.654C1350.26 477.006 1344.12 480.142 1334.98 484.04C1325.42 488.341 1314.54 492.328 1302.29 495.958V505.254C1302.29 509.286 1303.21 511.907 1305.02 513.139C1306.83 514.371 1310.71 514.954 1316.62 514.954C1326.18 514.954 1332.34 514.215 1335.1 512.736C1337.85 511.258 1339.31 507.965 1339.44 502.835C1339.44 497.324 1340.25 493.538 1341.86 491.522C1343.47 489.506 1346.49 488.498 1350.95 488.498C1355.41 488.498 1358.68 489.573 1360.45 491.724C1362.19 493.874 1363.07 497.862 1363.07 503.641C1363.07 509.017 1362.42 514.17 1361.14 519.098C1359.86 524.004 1358.27 527.476 1356.39 529.492C1353.57 532.449 1350.17 534.465 1346.2 535.541C1342.24 536.616 1336.35 537.154 1328.53 537.154H1312.19C1305.33 537.154 1300.2 536.862 1296.85 536.235C1293.49 535.63 1290.24 534.376 1287.15 532.494C1283.65 530.478 1281.19 527.947 1279.78 524.922C1278.37 521.898 1277.65 517.62 1277.65 512.109V457.584C1277.65 454.896 1278.84 452.633 1281.19 450.819C1283.54 449.004 1286.41 448.086 1289.77 448.086C1293.13 448.086 1296.06 449.027 1298.55 450.908C1301.03 452.79 1302.29 455.008 1302.29 457.562V472.1L1302.24 472.123ZM1303.65 382.472C1315.63 378.709 1326.47 373.982 1336.15 368.337C1340.45 365.918 1343.94 364.708 1346.65 364.708C1348.94 364.708 1351.22 366.299 1353.5 369.457C1355.79 372.616 1356.93 375.752 1356.93 378.843C1356.93 381.397 1355.52 383.816 1352.7 386.124C1349.88 388.409 1345.15 390.895 1338.57 393.583C1329.94 397.212 1324.06 399.609 1320.9 400.752C1317.74 401.894 1312.59 403.552 1305.44 405.703C1305.31 405.703 1304.91 405.837 1304.24 406.106L1303.63 406.307V411.751C1303.63 415.649 1304.5 418.203 1306.25 419.412C1308 420.622 1311.63 421.227 1317.16 421.227C1326.59 421.227 1332.3 420.622 1334.31 419.412C1336.19 418.203 1337.47 415.313 1338.14 410.72C1338.68 407.091 1339.8 404.538 1341.48 403.059C1343.16 401.581 1345.76 400.841 1349.25 400.841C1356.77 400.841 1360.56 405.008 1360.56 413.364C1360.56 426.289 1356.73 434.914 1349.05 439.215C1344.48 441.903 1334.11 443.247 1317.96 443.247H1314.94C1307.12 443.247 1301.59 442.978 1298.28 442.441C1294.99 441.903 1291.72 440.693 1288.49 438.812C1285 436.796 1282.53 434.242 1281.12 431.15C1279.71 428.059 1279 423.803 1279 418.427V364.708C1279 362.154 1280.18 359.959 1282.53 358.145C1284.89 356.33 1287.75 355.412 1291.11 355.412C1294.47 355.412 1297.4 356.33 1299.89 358.145C1302.38 359.959 1303.63 362.154 1303.63 364.708V382.472H1303.65Z" fill="#EC6602"/>
</g>
<g clip-path="url(#clip1_108_88)">
<path d="M1437.82 686.264L1433.38 681.829H1518.23L1522.66 686.264H1437.82Z" fill="#009EA7"/>
<path d="M1524.68 687.093H1437.46L1431.36 681H1518.58L1524.68 687.093ZM1438.15 685.413H1520.65L1517.89 682.658H1435.4L1438.15 685.413Z" fill="#009EA7"/>
<path d="M1518.58 912.525H12.4153L5.52512e-05 900.115V882.397V711.15V693.432L12.4153 681H1426.64L1436.07 690.43H1528L1531 693.432V711.15V882.397V900.115L1518.58 912.525ZM13.11 910.867H1517.89L1529.34 899.421V884.054V709.47V694.104L1527.32 692.088H1435.4L1425.96 682.658H13.11L1.65841 694.104V709.47V884.054V899.421L13.11 910.867Z" fill="#009EA7"/>
<path opacity="0.29" d="M1507.58 903.475H26.1752L14.6563 891.67V700.913L26.3544 689.467H1422.78L1431.1 697.71H1519.86V890.438L1507.58 903.475Z" fill="url(#paint0_linear_108_88)" stroke="url(#paint1_linear_108_88)" stroke-width="0.75" stroke-miterlimit="10"/>
<path d="M50.9161 822.679L56.8324 814.615C61.3592 819.14 67.0514 823.105 75.3432 823.105C84.2625 823.105 91.0528 816.766 91.0528 806.215C91.0528 795.665 85.0245 789.662 75.9931 789.662C70.9284 789.662 67.9254 791.163 63.3089 794.187L57.2806 790.199L59.6561 752.68H99.7928V763.118H70.413L68.5753 783.435C71.9145 781.71 75.1415 780.635 79.4443 780.635C92.6663 780.635 103.535 788.475 103.535 805.79C103.535 823.105 90.7391 833.207 76.8447 833.207C64.3622 833.207 56.5186 828.145 50.9161 822.657V822.679Z" fill="white"/>
<path d="M117.071 824.605C117.071 819.543 120.724 815.779 125.363 815.779C130.002 815.779 133.655 819.543 133.655 824.605C133.655 829.667 130.002 833.206 125.363 833.206C120.724 833.206 117.071 829.667 117.071 824.605Z" fill="white"/>
<path d="M150.642 821.604H167.965V766.545H153.757V758.705C161.174 757.317 166.441 755.48 170.968 752.68H180.335V821.604H195.821V831.818H150.642V821.604Z" fill="white"/>
<path d="M237.347 752.68H251.645L266.166 792.686C268.004 797.95 269.618 803.326 271.433 808.702H271.971C273.808 803.326 275.31 797.95 277.125 792.686L291.423 752.68H305.833V831.818H294.224V792.686C294.224 785.585 295.188 775.371 295.838 768.158H295.412L289.07 786.436L275.31 824.18H267.556L253.684 786.436L247.454 768.158H247.028C247.566 775.371 248.53 785.585 248.53 792.686V831.818H237.347V752.68Z" fill="white"/>
<path d="M369.858 831.818L351.885 799.876H339.089V831.818H326.607V752.68H352.535C368.895 752.68 381.153 758.481 381.153 775.572C381.153 787.825 374.587 795.15 364.592 798.263L383.955 831.818H369.858ZM339.089 789.886H351.034C362.553 789.886 368.783 785.159 368.783 775.595C368.783 766.03 362.553 762.692 351.034 762.692H339.089V789.886Z" fill="white"/>
<path d="M387.944 796.874H416.337V806.013H387.944V796.874Z" fill="white"/>
<path d="M468.284 809.239H440.742L433.974 831.818H421.29L447.532 752.68H461.942L488.185 831.818H474.963L468.284 809.239ZM465.281 799.451L462.166 788.811C459.477 780.209 457.102 771.384 454.637 762.468H454.211C451.947 771.496 449.482 780.209 446.905 788.811L443.678 799.451H465.304H465.281Z" fill="white"/>
<path d="M541.88 831.818L523.906 799.876H511.11V831.818H498.628V752.68H524.556C540.916 752.68 553.174 758.481 553.174 775.572C553.174 787.825 546.608 795.15 536.613 798.263L555.976 831.818H541.88ZM511.11 789.886H523.055C534.574 789.886 540.804 785.159 540.804 775.595C540.804 766.03 534.574 762.692 523.055 762.692H511.11V789.886Z" fill="white"/>
<path d="M583.383 763.118H560.144V752.68H619.195V763.118H595.843V831.818H583.361V763.118H583.383Z" fill="white"/>
<path d="M721.296 753.105V776.446H710.965V762.894H641.359V776.446H631.453V753.105H671.254C669.954 749.991 668.34 746.542 666.839 743.742L677.058 740.74C679.209 744.615 681.675 749.23 683.198 753.105H721.273H721.296ZM639.319 805.789H714.08V840.083H704.085V836.544H648.888V840.195H639.319V805.789ZM706.886 771.182V797.636H645.773V771.182H706.886ZM648.888 814.503V827.831H704.085V814.503H648.888ZM697.205 779.246H655.029V789.572H697.205V779.246Z" fill="white"/>
<path d="M775.394 787.511C771.853 784.174 765.287 779.56 759.147 775.796C753.23 781.172 746.776 785.585 740.322 789.124C738.821 786.974 735.795 783.524 733.756 781.799C745.163 776.424 756.771 766.747 763.763 755.995H737.947V746.968H769.254L771.091 746.542L777.77 749.992C774.767 757.204 770.553 763.544 765.511 769.345C771.54 772.795 778.195 777.208 781.871 780.209L775.417 787.511H775.394ZM780.571 826.442C765.825 830.205 749.914 833.969 738.283 836.657L735.907 827.294C740.86 826.33 747.09 825.143 754.082 823.642V802.251H738.171V793.425H778.509V802.251H763.763V821.604C769.03 820.529 774.408 819.342 779.674 818.154L780.526 826.442H780.571ZM811.542 800.638C811.542 814.078 807.239 830.429 782.924 840.733C781.736 838.583 778.845 835.469 776.784 833.633C800.135 825.255 802.062 811.166 802.062 800.503V779.739H811.519V800.593L811.542 800.638ZM798.432 765.044C799.508 762.043 800.583 758.593 801.547 755.368H780.683V746.229H832.742V755.368H812.304C810.802 758.705 809.39 762.155 808.113 765.044H829.515V814.929H819.834V773.96H793.591V815.242H784.336V765.022H798.432V765.044ZM814.343 816.228C821.111 821.38 829.829 828.705 833.93 833.543L827.475 840.532C823.598 835.581 815.105 827.742 808.427 822.366L814.343 816.228Z" fill="white"/>
<path d="M940.625 751.604V760.094H866.514V785.674C866.514 802.34 864.363 825.792 851.029 840.509C849.639 838.672 845.964 835.133 844.149 833.834C851.679 825.344 855.018 814.48 856.407 803.84C852.216 806.416 848.115 808.791 844.149 811.143L841.034 802.116C845.224 800.167 851.029 797.165 857.169 793.94C857.393 791.14 857.393 788.25 857.393 785.652V751.559H896.23C894.93 748.871 893.317 745.87 891.614 743.495L900.533 740.695C902.998 743.809 905.486 748.11 906.987 751.559H940.647L940.625 751.604ZM848.541 785.159C847.891 779.559 845.314 770.644 842.311 763.969L849.617 760.967C852.844 767.642 855.645 776.244 856.385 781.62L848.541 785.159ZM870.481 788.81H900.6V809.888H870.481V788.81ZM926.977 814.839H936.344V840.106H926.977V836.567H871.153V814.839H880.521V828.503H898.807V811.524H908.489V828.503H926.999V814.839H926.977ZM878.011 803.213H892.757V795.463H878.011V803.213ZM927.291 784.397H880.924V764.282H927.291V784.397ZM918.461 770.958H889.193V777.722H918.461V770.958ZM906.628 788.81H938.137V809.888H906.628V788.81ZM914.27 803.213H930.294V795.463H914.27V803.213Z" fill="white"/>
<path d="M1040.66 770.532C1037.97 787.085 1033.9 800.637 1027.64 811.926C1033.25 820.416 1040.44 827.203 1049.47 831.392C1047.32 833.318 1044.09 837.193 1042.7 839.993C1033.99 835.469 1027.22 829.017 1021.73 821.066C1015.39 829.017 1007.43 835.469 997.412 840.643C996.449 838.381 993.647 833.856 991.72 831.929C1002.25 827.091 1010.32 820.416 1016.26 811.814C1012.27 804.064 1009.27 795.149 1006.8 785.472C1004.76 789.661 1002.39 793.424 999.922 796.762C998.533 794.925 995.395 791.61 993.042 789.549C992.392 820.416 991.653 831.705 989.053 835.245C987.216 837.709 985.4 838.694 982.375 839.12C979.798 839.545 975.271 839.545 970.856 839.344C970.542 836.656 969.556 832.781 968.279 830.205C972.156 830.63 975.697 830.63 977.422 830.63C978.924 830.63 979.888 830.317 980.537 829.129C982.263 826.867 983.003 816.966 983.54 789.459H971.282C971.282 806.998 969.131 825.165 955.371 840.105C953.645 837.955 950.418 835.267 947.953 833.542C960.323 819.99 961.937 803.75 961.937 789.235V767.732H950.216V758.368H997.345V767.732H971.304V780.32H993.244C993.244 780.32 993.244 783.344 993.132 784.621L993.02 787.847C1001.4 776.871 1006.89 759.578 1009.92 741.613L1020.14 743.226C1018.95 749.364 1017.56 755.479 1016.06 761.28H1048.44V770.532H1040.69H1040.66ZM972.134 758.279C971.17 754.404 968.906 748.177 966.979 743.652L975.809 741.277C977.96 745.802 980.336 751.716 981.299 755.568L972.156 758.256L972.134 758.279ZM1012.81 771.271C1014.96 782.448 1017.87 792.663 1021.95 801.69C1026.14 792.775 1028.83 782.56 1030.67 770.509H1013.14L1012.83 771.271H1012.81Z" fill="white"/>
<path d="M1155.23 754.516V763.768H1083.58V785.697C1083.58 802.362 1081.11 825.815 1066.37 840.33C1064.87 838.292 1060.88 834.641 1058.84 833.341C1067.67 824.516 1071.21 813.226 1072.71 802.273C1068.18 805.073 1063.68 807.962 1059.38 810.449L1056.04 801.086C1060.65 798.823 1067.02 795.598 1073.56 791.947C1073.67 789.796 1073.67 787.534 1073.67 785.607V781.195L1066.37 785.271C1064.44 780.209 1060.45 771.943 1057 765.806L1064.64 762.155C1067.65 767.419 1071.41 774.407 1073.67 779.134V754.516H1111.01C1109.93 750.865 1108.54 746.564 1107.36 743.227L1117.26 741.189C1118.99 745.377 1120.8 750.328 1121.99 754.516H1155.23ZM1152.11 779.134C1144.89 786.011 1135.01 793.335 1125.42 798.599V829.556C1125.42 834.932 1124.12 837.508 1119.82 838.807C1115.74 840.196 1109.28 840.196 1100.23 840.196C1099.8 837.62 1098.19 833.633 1096.78 831.169C1103.35 831.393 1110.76 831.393 1112.6 831.281C1114.53 831.281 1115.18 830.855 1115.18 829.242V794.948C1121.21 792.036 1127.86 787.534 1133.24 783.121H1089.25V774.407H1143.03L1145.19 773.758L1152.07 779.134H1152.11Z" fill="white"/>
<path d="M1182.23 808.814C1179.65 816.116 1175.46 823.754 1171.25 828.705C1169.75 827.316 1166.52 825.053 1164.57 823.866C1168.65 819.453 1172.21 813.114 1174.14 806.663L1182.21 808.814H1182.23ZM1195.56 803.214V828.705C1195.56 833.005 1194.8 835.38 1192.11 836.656C1189.2 838.045 1185.43 838.269 1179.97 838.269C1179.65 835.895 1178.46 832.244 1177.28 829.892C1180.73 830.004 1183.96 830.004 1185.12 830.004C1186.29 830.004 1186.51 829.69 1186.51 828.615V803.236H1165.96V794.746H1186.51V784.958H1165.31V776.58H1177.14C1176.6 772.817 1175.22 767.329 1173.27 763.14L1181.33 761.102C1183.37 765.291 1185.1 771.204 1185.64 774.967L1179.61 776.58H1194.44C1196.37 772.055 1198.52 765.515 1199.71 760.99L1208.96 762.939C1207.13 767.665 1205.2 772.615 1203.47 776.603H1216.07V784.98H1195.52V794.769H1214.57V803.258H1195.52L1195.56 803.214ZM1214.39 760.856H1167.06V752.568H1186.73C1185.55 749.566 1184.16 746.116 1182.86 743.428L1191.69 741.166C1193.52 744.616 1195.68 749.118 1196.95 752.568H1214.39V760.856ZM1205.47 806.126C1209.01 811.188 1212.69 817.841 1214.39 822.253L1207.4 826.442C1205.67 821.917 1202.02 814.839 1198.79 809.665L1205.47 806.126ZM1263.22 786.548H1252.35V839.882H1242.56V786.548H1228.8V788.81C1228.8 804.199 1227.41 825.591 1217.82 839.143C1216.32 837.306 1212.21 834.305 1210.18 833.229C1218.67 820.641 1219.43 802.698 1219.43 788.81V751.94C1231.38 749.902 1244.71 746.564 1252.35 743.227L1260.31 750.529C1251.39 753.979 1239.76 756.555 1228.78 758.481V777.297H1263.2V786.548H1263.22Z" fill="white"/>
<path d="M1293.56 806.976C1289.26 803.975 1280.34 799.136 1273.89 796L1279.38 789.213C1285.61 792.125 1294.55 796.538 1299.28 799.316L1293.59 806.954L1293.56 806.976ZM1297.22 759.556H1274.2V750.305H1297.22V741.703H1307.55V750.305H1335.52V741.703H1345.85V750.305H1369.29V759.556H1345.85V769.009H1335.52V759.556H1307.55V769.009H1297.22V759.556ZM1276.02 831.818C1283.12 825.68 1293.54 814.928 1302.06 805.05L1307.66 812.688C1300.02 821.827 1290.99 831.818 1283.03 840.106L1276.04 831.818H1276.02ZM1286.03 769.658C1292.06 772.772 1300.87 777.61 1305.51 780.634L1299.7 788.048C1295.29 785.047 1286.57 779.671 1280.34 775.997L1286.03 769.658ZM1353.8 829.13C1359.72 829.13 1360.79 826.755 1361.65 815.152C1364.11 816.877 1368.32 818.49 1371.1 819.229C1369.71 834.058 1366.49 838.47 1354.32 838.47H1329.58C1315.91 838.47 1311.83 835.357 1311.83 823.082V773.399H1361.74V800.077C1361.74 805.139 1360.66 808.029 1356.58 809.44C1352.5 811.053 1346.47 811.165 1337.87 811.165C1337.33 808.275 1335.61 804.176 1333.99 801.712C1340.87 801.936 1347.44 801.936 1349.28 801.824C1351.2 801.712 1351.74 801.399 1351.74 799.988V782.896H1322.16V823.015C1322.16 828.166 1323.35 829.152 1330.34 829.152H1353.78L1353.8 829.13Z" fill="white"/>
<path d="M1446.74 770.532C1449.11 804.4 1456.64 829.981 1465.99 829.981C1468.57 829.981 1469.86 824.179 1470.51 810.202C1472.78 812.576 1476.54 814.928 1479.34 815.892C1477.62 835.245 1474.08 840.509 1465.14 840.509C1447.39 840.509 1438.89 809.216 1436.2 770.509H1381.66V760.721H1435.55C1435.33 754.583 1435.13 748.356 1435.13 742.129H1445.89C1445.77 748.378 1445.89 754.718 1446.11 760.721H1476.99V770.509H1446.76L1446.74 770.532ZM1413.39 821.29C1420.5 819.991 1427.8 818.49 1435.02 816.989L1435.78 826.016C1417.92 830.093 1398.67 834.304 1384.89 837.306L1381.97 827.203C1387.78 826.24 1395.19 824.851 1403.37 823.328V794.5H1385.51V784.823H1432.19V794.5H1413.37V821.267L1413.39 821.29ZM1458.26 742.129C1463.52 745.578 1470.09 750.842 1473.2 754.494L1466.21 760.721C1463.21 756.958 1456.96 751.358 1451.69 747.594L1458.26 742.107V742.129Z" fill="white"/>
<path d="M1437.82 1037.72L1433.38 1033.28H1518.23L1522.66 1037.72H1437.82Z" fill="#009EA7"/>
<path d="M1524.68 1038.55H1437.46L1431.36 1032.45H1518.58L1524.68 1038.55ZM1438.15 1036.89H1520.65L1517.89 1034.13H1435.4L1438.15 1036.89Z" fill="#009EA7"/>
<path d="M1518.58 1264H12.4153L5.52512e-05 1251.59V1233.87V1062.63V1044.91L12.4153 1032.5H1426.64L1436.07 1041.93H1528L1531 1044.93V1062.65V1233.89V1251.61L1518.58 1264.02V1264ZM13.11 1262.32H1517.89L1529.34 1250.87V1235.51V1060.92V1045.56L1527.32 1043.54H1435.4L1425.96 1034.11H13.11L1.65841 1045.56V1060.92V1235.51V1250.87L13.11 1262.32Z" fill="#009EA7"/>
<path opacity="0.29" d="M1507.58 1254.93H26.1752L14.6563 1243.12V1052.37L26.3544 1040.94H1422.78L1431.1 1049.16H1519.86V1241.91L1507.58 1254.93Z" fill="url(#paint2_linear_108_88)" stroke="url(#paint3_linear_108_88)" stroke-width="0.75" stroke-miterlimit="10"/>
<path d="M87.3328 1174.13L93.2491 1166.07C97.776 1170.59 103.468 1174.56 111.76 1174.56C120.679 1174.56 127.47 1168.22 127.47 1157.67C127.47 1147.12 121.441 1141.11 112.41 1141.11C107.345 1141.11 104.342 1142.61 99.7257 1145.64L93.6973 1141.65L96.0728 1104.13H136.21V1114.57H106.83L104.992 1134.89C108.331 1133.16 111.558 1132.09 115.861 1132.09C129.083 1132.09 139.952 1139.93 139.952 1157.24C139.952 1174.56 127.156 1184.66 113.284 1184.66C100.801 1184.66 92.9578 1179.6 87.3552 1174.13H87.3328Z" fill="white"/>
<path d="M153.488 1176.06C153.488 1171 157.141 1167.23 161.78 1167.23C166.419 1167.23 170.071 1171 170.071 1176.06C170.071 1181.12 166.419 1184.66 161.78 1184.66C157.141 1184.66 153.488 1181.12 153.488 1176.06Z" fill="white"/>
<path d="M182.532 1176.06C205.883 1155.41 217.917 1140.04 217.917 1127.03C217.917 1118.42 213.301 1112.51 204.471 1112.51C198.241 1112.51 193.064 1116.5 188.874 1121.34L181.882 1114.46C188.65 1107.13 195.642 1102.63 205.973 1102.63C220.494 1102.63 229.862 1112.08 229.862 1126.4C229.862 1141.67 217.716 1157.47 200.93 1173.5C205.009 1173.08 209.962 1172.74 213.839 1172.74H233.627V1183.29H182.532V1176.08V1176.06Z" fill="white"/>
<path d="M355.404 1107.36V1191.45H344.871V1186.07H290.437V1191.87H280.442V1107.36H307.558C309.06 1102.74 310.36 1097.14 311.099 1092.96L323.044 1094.34C321.318 1098.87 319.593 1103.48 317.777 1107.36H355.426H355.404ZM290.437 1116.92V1130.68H344.871V1116.92H290.437ZM290.437 1139.95V1153.7H344.871V1139.95H290.437ZM344.871 1176.82V1162.95H290.437V1176.82H344.871Z" fill="white"/>
<path d="M398.633 1170.37C401.009 1171.44 403.698 1173.59 408.001 1175.63C414.993 1179.51 424.45 1180.16 435.969 1180.16C447.488 1180.16 463.825 1179.4 474.156 1178.12C473.192 1180.7 471.691 1185.22 471.579 1187.91C464.049 1188.45 445.964 1189.09 435.745 1189.09C422.948 1189.09 413.805 1187.91 406.051 1183.83C401.323 1181.34 397.984 1178.34 395.518 1178.34C391.641 1178.34 386.375 1184.14 381.109 1190.6L374.968 1182.11C379.697 1177.38 384.649 1173.5 389.064 1171.35V1140.38H375.304V1131.12H398.656V1170.37H398.633ZM392.941 1119.83C389.938 1114.77 383.036 1107.25 377.232 1102.21L384.649 1096.72C390.454 1101.56 397.446 1108.55 400.785 1113.5L392.941 1119.83ZM434.243 1127.36H404.55V1118.54H434.243V1107.25C426.4 1108.01 418.646 1108.55 411.43 1108.97C411.116 1106.71 410.04 1103.17 409.054 1101.02C427.117 1099.74 449.079 1097.37 462.099 1093.6L466.94 1101.98C460.598 1103.59 452.732 1104.98 444.238 1106.17V1118.54H473.282V1127.36H444.238V1139.41H466.178V1170.91H412.595V1139.41H434.221V1127.36H434.243ZM456.205 1147.48H422.097V1162.95H456.205V1147.48Z" fill="white"/>
<path d="M501.474 1115.65V1135.11C501.474 1151.66 500.085 1176.39 491.255 1192.63C489.417 1190.8 484.913 1187.91 482.537 1186.94C490.605 1171.89 491.367 1150.28 491.367 1135.11V1106.19H533.117C531.728 1102.43 530.002 1098.13 528.277 1094.59L538.182 1092.13C540.557 1096.65 543.023 1102.12 544.412 1106.22H579.798V1115.67H501.474V1115.65ZM581.075 1177.58V1187.03H501.564V1177.58H542.776C553.107 1161.34 561.063 1139.73 565.142 1121.56L575.674 1125.21C570.61 1142.64 562.766 1161.45 553.197 1177.58H581.053H581.075ZM518.371 1167.46C516.332 1157.47 511.155 1142.3 506.852 1130.68L515.57 1127.34C520.299 1138.85 525.363 1153.57 527.716 1163.47L518.349 1167.46H518.371ZM537.846 1161.12C536.456 1151.22 532.579 1136.05 529.128 1124.45L538.272 1122.07C541.925 1133.68 545.914 1148.42 547.527 1158.32L537.846 1161.12Z" fill="white"/>
<path d="M681.563 1121.98C678.873 1138.54 674.795 1152.09 668.542 1163.38C674.145 1171.87 681.338 1178.66 690.37 1182.84C688.218 1184.79 684.991 1188.65 683.602 1191.45C674.884 1186.92 668.116 1180.47 662.626 1172.52C656.284 1180.47 648.328 1186.92 638.311 1192.1C637.347 1189.83 634.546 1185.33 632.619 1183.38C643.151 1178.54 651.219 1171.87 657.135 1163.27C653.146 1155.52 650.143 1146.6 647.678 1136.93C645.639 1141.11 643.264 1144.88 640.798 1148.21C639.409 1146.38 636.271 1143.06 633.918 1141.02C633.269 1171.89 632.529 1183.18 629.929 1186.72C628.092 1189.21 626.277 1190.17 623.251 1190.6C620.674 1191.02 616.147 1191.02 611.732 1190.82C611.419 1188.13 610.433 1184.26 609.155 1181.68C613.032 1182.11 616.573 1182.11 618.298 1182.11C619.8 1182.11 620.764 1181.79 621.414 1180.61C623.139 1178.34 623.879 1168.46 624.416 1140.93H612.158C612.158 1158.45 610.007 1176.64 596.247 1191.58C594.521 1189.43 591.294 1186.74 588.829 1185.02C601.199 1171.47 602.813 1155.23 602.813 1140.71V1119.21H591.092V1109.84H638.221V1119.21H612.181V1131.8H634.12C634.12 1131.8 634.12 1134.8 634.008 1136.1L633.896 1139.32C642.277 1128.35 647.768 1111.05 650.793 1093.09L661.012 1094.7C659.825 1100.84 658.435 1106.95 656.934 1112.78H689.317V1122.03H681.563V1121.98ZM613.032 1109.73C612.068 1105.86 609.805 1099.63 607.878 1095.1L616.707 1092.73C618.859 1097.26 621.234 1103.17 622.198 1107.02L613.054 1109.71L613.032 1109.73ZM653.684 1122.72C655.836 1133.9 658.749 1144.12 662.828 1153.17C667.018 1144.25 669.708 1134.04 671.545 1121.98H654.02L653.707 1122.75L653.684 1122.72Z" fill="white"/>
<path d="M743.729 1181.34C743.729 1186.18 742.653 1188.76 739.65 1190.17C736.423 1191.67 731.47 1191.9 724.165 1191.9C723.627 1189.52 722.237 1185.44 720.938 1183.29C726.002 1183.52 731.044 1183.52 732.456 1183.41C733.958 1183.29 734.496 1182.87 734.496 1181.26V1158.68C726.54 1170.73 715.133 1180.72 703.502 1187.28C702.203 1185.44 698.886 1181.68 696.936 1180.07C707.267 1175.01 716.948 1167.39 723.94 1158.34H699.2V1149.51H706.841V1105.01H717.912C719.302 1101.24 720.713 1096.52 721.453 1092.96L731.672 1094.25C730.17 1098.02 728.557 1101.89 727.145 1105.01H743.706V1181.34H743.729ZM715.649 1112.73V1120.04H734.473V1112.73H715.649ZM734.473 1127.47H715.649V1134.66H734.473V1127.47ZM715.649 1149.51H734.473V1141.99H715.649V1149.51ZM796.55 1126.51H785.367V1179.84C785.367 1185.65 783.977 1188.45 780.526 1189.83C776.985 1191.45 771.159 1191.76 762.24 1191.67C761.814 1189.1 760.402 1184.79 758.9 1182.22C765.355 1182.53 771.495 1182.44 773.31 1182.44C775.148 1182.33 775.887 1181.79 775.887 1179.87V1126.53H747.606V1116.97H775.887V1093.63H785.344V1116.97H796.527V1126.53L796.55 1126.51ZM762.217 1163.49C760.29 1156.62 755.225 1146.07 750.071 1138.23L757.825 1134.89C763.315 1142.64 768.358 1152.85 770.621 1159.73L762.24 1163.49H762.217Z" fill="white"/>
<path d="M851.612 1108.66L858.716 1110.81C853.225 1153.08 836.888 1178.54 813.536 1190.71C811.923 1188.22 807.844 1184.14 805.155 1182.42C817.526 1176.51 827.521 1167.48 834.849 1154.58C830.434 1150.5 824.092 1145.66 819.027 1141.99L825.055 1135.2C829.358 1138.11 834.961 1142.08 839.263 1145.64C842.491 1137.69 845.068 1128.75 846.793 1118.45H828.282C824.293 1129.42 819.363 1139.1 813.649 1146.4C811.811 1144.68 807.508 1141.56 805.155 1140.06C814.836 1129.09 821.29 1111.46 825.055 1092.96L835.05 1094.79C833.975 1099.63 832.675 1104.36 831.397 1108.99H849.684L851.612 1108.68V1108.66ZM879.916 1125.21C888.297 1132.4 899.704 1142.64 905.194 1149.4L896.701 1156.28C892.398 1150.48 883.905 1141.99 876.263 1134.89V1191.67H865.73V1093.07H876.263V1127.9L879.916 1125.21Z" fill="white"/>
<path d="M948.76 1158.88C947.258 1155.65 943.606 1149.63 940.378 1144.68V1191.67H930.697V1148.13C926.708 1157.91 921.868 1167.05 916.937 1173.17C915.974 1170.48 913.598 1166.4 912.097 1163.92C918.439 1156.59 925.319 1143.8 929.308 1132.4H913.486V1123.04H930.697V1108.63C926.081 1109.49 921.442 1110.14 917.139 1110.78C916.825 1108.63 915.413 1105.1 914.338 1103.03C926.394 1101.11 940.154 1097.97 948.558 1094.32L954.25 1102.5C950.172 1104.11 945.421 1105.39 940.378 1106.57V1123.02H955.438V1132.38H940.378V1133.88C943.606 1137.22 952.749 1148.17 954.788 1150.97L948.76 1158.83V1158.88ZM999.205 1164.14V1191.67H989.3V1165.87L955.416 1171.56L953.914 1161.99L989.3 1156.08V1093.07H999.205V1154.46L1010.93 1152.52L1012.43 1161.88L999.205 1164.14ZM975.742 1149.63C972.201 1145.01 964.335 1138.11 957.769 1133.61L964.111 1127.81C970.565 1132.11 978.745 1138.56 982.51 1143.09L975.742 1149.65V1149.63ZM978.431 1121.34C975.204 1116.81 967.898 1110.25 961.758 1105.74L968.324 1100.06C974.464 1104.24 981.882 1110.49 985.423 1115L978.431 1121.34Z" fill="white"/>
<path d="M1105.27 1158.77C1099.89 1166.29 1092.14 1172.43 1082.91 1177.16C1093.78 1179.84 1106.46 1181.57 1119.82 1182.22C1117.89 1184.37 1115.51 1188.36 1114.33 1190.93C1098.42 1189.63 1083.56 1186.94 1071.19 1182.22C1056.78 1187.37 1040.19 1190.28 1023.86 1191.89C1023.32 1189.21 1021.59 1185.22 1020.09 1183.07C1033.65 1182.11 1047.32 1180.05 1059.58 1176.82C1054.31 1173.71 1049.58 1170.26 1045.71 1166.07C1041.52 1169.52 1037.33 1172.41 1033.34 1174.78C1031.72 1172.94 1028.38 1169.83 1026.23 1168.33C1035.49 1163.81 1044.63 1156.84 1050.75 1149.4H1038.92V1117.15H1106.37V1149.4H1060.12L1061.3 1149.83C1060 1151.55 1058.61 1153.37 1057 1155.09H1097.45L1098.95 1154.67L1105.3 1158.74L1105.27 1158.77ZM1043.73 1111.12C1039.01 1117.26 1033.4 1122.72 1027.91 1126.82C1026.61 1124.99 1023.5 1120.91 1021.57 1119.18C1030.71 1113.05 1039.54 1103.37 1044.38 1093.16L1053.42 1095.84C1052.23 1098.31 1051.04 1100.57 1049.54 1102.95H1113.88V1111.12H1043.73ZM1048.89 1129.94H1095.91V1124.14H1048.89V1129.94ZM1048.89 1142.53H1095.91V1136.39H1048.89V1142.53ZM1052.34 1162.62C1057.07 1166.92 1063.21 1170.46 1070.51 1173.15C1077.93 1170.46 1084.5 1166.81 1089.56 1162.62H1052.34Z" fill="white"/>
<path d="M1187.88 1097.26C1186.8 1098.87 1185.73 1100.48 1184.43 1102.09C1197.56 1115 1212.19 1123.17 1228.1 1129.51C1225.41 1131.77 1222.5 1135.42 1221.11 1138.65C1215.42 1135.85 1209.93 1133.05 1204.55 1129.82V1136.93H1150.97V1131.55C1145.9 1134.55 1140.75 1137.46 1135.48 1139.73C1133.76 1137.04 1130.96 1133.27 1128.18 1130.81C1148.19 1122.95 1168.09 1109.31 1179.07 1092.75L1187.9 1097.28L1187.88 1097.26ZM1144.85 1148.1H1212.08V1191.11H1201.55V1186.16H1154.96V1191.54H1144.85V1148.1ZM1154.96 1157.04V1176.93H1201.55V1157.04H1154.96ZM1201.21 1127.67C1193.37 1122.61 1185.93 1116.7 1178.29 1109.17C1172.06 1116.05 1164.73 1122.3 1157 1127.67H1201.21Z" fill="white"/>
<path d="M1333.75 1157.78H1290.61V1178.86C1290.61 1185.42 1288.77 1188.22 1284.26 1189.72C1279.85 1191.33 1272.54 1191.56 1261.45 1191.45C1260.8 1188.76 1258.87 1184.23 1257.26 1181.55C1265.86 1181.86 1274.47 1181.86 1276.94 1181.77C1279.31 1181.77 1280.16 1181.01 1280.16 1178.75V1157.78H1236.91V1147.99H1280.16V1132.71H1244.24V1123.15H1280.16V1108.52C1268.64 1109.49 1256.92 1110.25 1246.05 1110.67C1245.94 1108.19 1244.66 1104.11 1243.68 1101.96C1269.07 1100.77 1299.41 1097.97 1316.18 1093.13L1323.59 1101.31C1314.23 1104 1302.84 1105.83 1290.56 1107.34V1123.15H1327.56V1132.71H1290.56V1147.99H1333.7V1157.78H1333.75Z" fill="white"/>
<path d="M1402.7 1129.51C1412.27 1144.99 1428.52 1161.54 1442.73 1170.37C1440.15 1172.52 1436.59 1176.51 1434.66 1179.28C1422.29 1170.14 1408.73 1154.98 1398.51 1139.5V1191.76H1387.53V1143.49C1377.53 1158.77 1364.29 1172.09 1350.42 1180.05C1348.58 1177.58 1345.26 1173.59 1342.78 1171.44C1359.23 1163.07 1375.59 1146.6 1384.84 1129.51H1346.43V1119.72H1387.53V1093.16H1398.51V1119.72H1438.65V1129.51H1402.72H1402.7ZM1422.49 1116.72C1418.61 1112.2 1410.43 1105.43 1404.09 1100.71L1411.51 1094.57C1417.65 1098.98 1426.14 1105.43 1430.22 1109.73L1422.47 1116.72H1422.49Z" fill="white"/>
</g>
<defs>
<linearGradient id="paint0_linear_108_88" x1="14.6563" y1="796.471" x2="1519.86" y2="796.471" gradientUnits="userSpaceOnUse">
<stop stop-color="#79CFD8" stop-opacity="0.92"/>
<stop offset="0.03" stop-color="#79CFD8" stop-opacity="0.73"/>
<stop offset="0.06" stop-color="#7ACFD8" stop-opacity="0.55"/>
<stop offset="0.09" stop-color="#7ACFD8" stop-opacity="0.4"/>
<stop offset="0.12" stop-color="#7BCFD8" stop-opacity="0.28"/>
<stop offset="0.16" stop-color="#7BCFD8" stop-opacity="0.17"/>
<stop offset="0.2" stop-color="#7BCFD8" stop-opacity="0.09"/>
<stop offset="0.25" stop-color="#7BCFD8" stop-opacity="0.04"/>
<stop offset="0.33" stop-color="#7BCFD8" stop-opacity="0"/>
<stop offset="0.53" stop-color="#7CD0D9" stop-opacity="0"/>
<stop offset="0.72" stop-color="#7BCFD8" stop-opacity="0"/>
<stop offset="0.78" stop-color="#79CFD8" stop-opacity="0.04"/>
<stop offset="0.83" stop-color="#75CDD7" stop-opacity="0.1"/>
<stop offset="0.87" stop-color="#70CCD5" stop-opacity="0.19"/>
<stop offset="0.9" stop-color="#6AC9D3" stop-opacity="0.3"/>
<stop offset="0.93" stop-color="#62C6D1" stop-opacity="0.43"/>
<stop offset="0.95" stop-color="#58C3CE" stop-opacity="0.6"/>
<stop offset="0.98" stop-color="#4EBFCB" stop-opacity="0.78"/>
<stop offset="1" stop-color="#41BBC8"/>
</linearGradient>
<linearGradient id="paint1_linear_108_88" x1="13.8271" y1="796.471" x2="1520.69" y2="796.471" gradientUnits="userSpaceOnUse">
<stop stop-color="white"/>
<stop offset="1" stop-color="#41BBC8"/>
</linearGradient>
<linearGradient id="paint2_linear_108_88" x1="1.01979e-05" y1="1147.92" x2="2.24103" y2="1147.92" gradientUnits="userSpaceOnUse">
<stop stop-color="#79CFD8" stop-opacity="0.92"/>
<stop offset="0.03" stop-color="#79CFD8" stop-opacity="0.73"/>
<stop offset="0.06" stop-color="#7ACFD8" stop-opacity="0.55"/>
<stop offset="0.09" stop-color="#7ACFD8" stop-opacity="0.4"/>
<stop offset="0.12" stop-color="#7BCFD8" stop-opacity="0.28"/>
<stop offset="0.16" stop-color="#7BCFD8" stop-opacity="0.17"/>
<stop offset="0.2" stop-color="#7BCFD8" stop-opacity="0.09"/>
<stop offset="0.25" stop-color="#7BCFD8" stop-opacity="0.04"/>
<stop offset="0.33" stop-color="#7BCFD8" stop-opacity="0"/>
<stop offset="0.53" stop-color="#7CD0D9" stop-opacity="0"/>
<stop offset="0.72" stop-color="#7BCFD8" stop-opacity="0"/>
<stop offset="0.78" stop-color="#79CFD8" stop-opacity="0.04"/>
<stop offset="0.83" stop-color="#75CDD7" stop-opacity="0.1"/>
<stop offset="0.87" stop-color="#70CCD5" stop-opacity="0.19"/>
<stop offset="0.9" stop-color="#6AC9D3" stop-opacity="0.3"/>
<stop offset="0.93" stop-color="#62C6D1" stop-opacity="0.43"/>
<stop offset="0.95" stop-color="#58C3CE" stop-opacity="0.6"/>
<stop offset="0.98" stop-color="#4EBFCB" stop-opacity="0.78"/>
<stop offset="1" stop-color="#41BBC8"/>
</linearGradient>
<linearGradient id="paint3_linear_108_88" x1="1.01979e-05" y1="1147.92" x2="2.24103" y2="1147.92" gradientUnits="userSpaceOnUse">
<stop stop-color="white"/>
<stop offset="1" stop-color="#41BBC8"/>
</linearGradient>
<clipPath id="clip0_108_88">
<rect width="1195" height="189" fill="white" transform="translate(168 354)"/>
</clipPath>
<clipPath id="clip1_108_88">
<rect width="1531" height="583" fill="white" transform="translate(5.52512e-05 681)"/>
</clipPath>
</defs>
</svg>
