<?xml version="1.0" encoding="UTF-8"?>
<svg id="_图层_2" data-name="图层 2" xmlns="http://www.w3.org/2000/svg" xmlns:xlink="http://www.w3.org/1999/xlink" viewBox="0 0 550.24 83.25">
  <defs>
    <style>
      .cls-1 {
        fill: #009ea7;
      }

      .cls-1, .cls-2 {
        stroke-width: 0px;
      }

      .cls-2 {
        fill: #fff;
      }

      .cls-3 {
        fill: url(#_未命名的渐变_4);
        opacity: .29;
        stroke: url(#_未命名的渐变_820);
        stroke-miterlimit: 10;
        stroke-width: .6px;
      }
    </style>
    <linearGradient id="_未命名的渐变_4" data-name="未命名的渐变 4" x1="5.27" y1="41.52" x2="546.23" y2="41.52" gradientUnits="userSpaceOnUse">
      <stop offset="0" stop-color="#79cfd8"/>
      <stop offset="0" stop-color="#79cfd8" stop-opacity=".92"/>
      <stop offset=".03" stop-color="#79cfd8" stop-opacity=".73"/>
      <stop offset=".06" stop-color="#7acfd8" stop-opacity=".55"/>
      <stop offset=".09" stop-color="#7acfd8" stop-opacity=".4"/>
      <stop offset=".12" stop-color="#7bcfd8" stop-opacity=".28"/>
      <stop offset=".16" stop-color="#7bcfd8" stop-opacity=".17"/>
      <stop offset=".2" stop-color="#7bcfd8" stop-opacity=".09"/>
      <stop offset=".25" stop-color="#7bcfd8" stop-opacity=".04"/>
      <stop offset=".33" stop-color="#7bcfd8" stop-opacity="0"/>
      <stop offset=".53" stop-color="#7cd0d9" stop-opacity="0"/>
      <stop offset=".72" stop-color="#7bcfd8" stop-opacity="0"/>
      <stop offset=".78" stop-color="#79cfd8" stop-opacity=".04"/>
      <stop offset=".83" stop-color="#75cdd7" stop-opacity=".1"/>
      <stop offset=".87" stop-color="#70ccd5" stop-opacity=".19"/>
      <stop offset=".9" stop-color="#6ac9d3" stop-opacity=".3"/>
      <stop offset=".93" stop-color="#62c6d1" stop-opacity=".43"/>
      <stop offset=".95" stop-color="#58c3ce" stop-opacity=".6"/>
      <stop offset=".98" stop-color="#4ebfcb" stop-opacity=".78"/>
      <stop offset="1" stop-color="#42bbc8" stop-opacity=".98"/>
      <stop offset="1" stop-color="#41bbc8"/>
    </linearGradient>
    <linearGradient id="_未命名的渐变_820" data-name="未命名的渐变 820" x1="4.97" y1="41.52" x2="546.53" y2="41.52" gradientUnits="userSpaceOnUse">
      <stop offset="0" stop-color="#fff"/>
      <stop offset="1" stop-color="#41bbc8"/>
    </linearGradient>
  </defs>
  <g id="_图层_1-2" data-name="图层 1">
    <g>
      <g>
        <g>
          <polygon class="cls-1" points="516.74 1.89 515.15 .3 545.65 .3 547.24 1.89 516.74 1.89"/>
          <path class="cls-1" d="m547.96,2.19h-31.34l-2.19-2.19h31.34l2.19,2.19Zm-31.09-.6h29.65l-.99-.99h-29.65l.99.99Z"/>
        </g>
        <path class="cls-1" d="m545.77,83.25H4.47l-4.47-4.47v-6.37h0V10.84h0v-6.37L4.47,0h508.27l3.39,3.39h33.04l1.08,1.08v6.37h0v61.57h0v6.37l-4.47,4.47Zm-541.06-.6h540.81l4.11-4.11v-5.52h0V10.24h0v-5.52l-.72-.72h-33.04l-3.39-3.39H4.71L.6,4.71v5.52h0v62.77h0v5.52l4.11,4.11Z"/>
      </g>
      <polygon class="cls-3" points="541.82 79.99 9.4 79.99 5.27 75.75 5.27 7.16 9.47 3.05 511.34 3.05 514.33 6.01 546.23 6.01 546.23 75.31 541.82 79.99"/>
    </g>
    <g>
      <path class="cls-2" d="m21.35,43.21l1.67-13.45h13.22v5.21h-8.32l-.46,3.95c5.95.71,8.93,3.33,8.93,7.87,0,2.28-.8,4.14-2.39,5.59-1.62,1.47-3.85,2.2-6.69,2.2s-5.69-.63-8.17-1.9l1.9-4.94c2.18,1.09,4.13,1.63,5.85,1.63,1.95,0,2.93-.87,2.93-2.62,0-2.36-2.82-3.53-8.47-3.53Z"/>
      <path class="cls-2" d="m40.01,51.83c0-.94.3-1.68.91-2.24.56-.51,1.28-.76,2.17-.76,1.01,0,1.81.26,2.38.78.57.52.85,1.25.85,2.19s-.28,1.68-.84,2.22c-.56.54-1.32.82-2.28.82s-1.77-.27-2.34-.8c-.57-.53-.85-1.27-.85-2.2Z"/>
      <path class="cls-2" d="m51.41,49.44h4.14v-12.73l-3.99,2.01-2.36-4.18,7.83-4.79h5.28l-.38,4.67v15.01h3.95v4.79h-14.48v-4.79Z"/>
      <path class="cls-2" d="m90.06,43.32l5.13-14.36h6.73l1.33,25.27h-6.23l-.72-13.34h-.11l-4.07,10.79h-4.56l-4.03-10.41h-.15l-.72,12.96h-6.19l1.44-25.27h6.8l5.21,14.36h.15Z"/>
      <path class="cls-2" d="m113.77,44.77v9.46h-6.54v-25.27h9.04c3.34,0,5.81.59,7.41,1.79,1.57,1.19,2.36,2.99,2.36,5.4,0,1.6-.46,3.01-1.37,4.26-.68.94-1.53,1.66-2.55,2.17.71.36,1.27,1.01,1.67,1.98l4.26,9.69h-6.99l-3.5-8.02c-.43-.96-1.1-1.44-2.01-1.44h-1.79Zm0-5.02h2.47c2.08,0,3.12-1.03,3.12-3.08,0-1.06-.36-1.79-1.06-2.17-.53-.3-1.38-.46-2.55-.46h-1.98v5.7Z"/>
      <path class="cls-2" d="m129.73,45.79v-4.67h9.96v4.67h-9.96Z"/>
      <path class="cls-2" d="m147.63,54.23h-6.27l8.21-25.27h7.33l8.74,25.27h-6.95l-1.71-5.4h-7.64l-1.71,5.4Zm5.43-19.19l-2.62,9.01h5.32l-2.55-9.01h-.15Z"/>
      <path class="cls-2" d="m174.83,44.77v9.46h-6.54v-25.27h9.04c3.34,0,5.81.59,7.41,1.79,1.57,1.19,2.36,2.99,2.36,5.4,0,1.6-.46,3.01-1.37,4.26-.68.94-1.53,1.66-2.55,2.17.71.36,1.27,1.01,1.67,1.98l4.26,9.69h-6.99l-3.5-8.02c-.43-.96-1.1-1.44-2.01-1.44h-1.79Zm0-5.02h2.47c2.08,0,3.12-1.03,3.12-3.08,0-1.06-.35-1.79-1.06-2.17-.53-.3-1.38-.46-2.55-.46h-1.98v5.7Z"/>
      <path class="cls-2" d="m189.12,28.96h20.22v5.7h-6.99v19.57h-6.5v-19.57h-6.73v-5.7Z"/>
      <path class="cls-2" d="m248.78,34.2c-.03-.08-.04-.15-.04-.23,0-.23.1-.73.3-1.52.02-.05.04-.14.04-.27,0-.25-.08-.48-.23-.68s-.33-.3-.53-.3h-21.93c-.25,0-.51.13-.76.38-.18.18-.27.47-.27.87v1.29c0,.48-.22.88-.65,1.2-.43.32-.99.48-1.67.48s-1.26-.17-1.73-.49c-.47-.33-.7-.72-.7-1.18v-3.12c0-2.61,1.42-3.91,4.26-3.91h9.58c-.25-.76-.38-1.38-.38-1.86,0-.51.29-.92.87-1.24.58-.32,1.33-.47,2.24-.47s1.56.23,1.96.68c.39.46.79,1.42,1.2,2.89h10.41c1.22,0,2.13.28,2.74.84.56.48.84,1.14.84,1.98,0,.79-.1,1.71-.3,2.77-.2,1.06-.42,1.82-.65,2.28-.35.68-1.04,1.03-2.05,1.03-.81,0-1.48-.21-2.01-.65.15.3.24.55.27.74.02.19.04.6.04,1.24v2.62c0,.79-.07,1.37-.21,1.77-.14.39-.4.75-.78,1.08-.35.33-.72.55-1.08.65-.37.1-.93.15-1.69.15h-17.37c-.79,0-1.39-.07-1.82-.21-.43-.14-.82-.4-1.18-.78-.3-.35-.51-.7-.61-1.04-.1-.34-.15-.88-.15-1.62v-2.62c0-.79.07-1.37.21-1.77.14-.39.4-.75.78-1.08s.75-.54,1.1-.65c.35-.1.91-.15,1.67-.15h17.37c.78,0,1.37.06,1.77.19.39.13.78.37,1.16.72Zm-1.41,23.29h-20.56c-.94,0-1.65-.08-2.13-.25-.48-.17-.93-.48-1.33-.93-.38-.41-.63-.8-.74-1.2-.11-.39-.17-1.02-.17-1.88v-3.88c0-.91.08-1.6.23-2.05.15-.46.46-.89.91-1.29.41-.35.82-.59,1.25-.72s1.09-.19,1.98-.19h20.56c.94,0,1.65.08,2.15.25.49.17.94.47,1.35.93.35.41.59.8.7,1.2.11.39.17,1.02.17,1.88v3.88c0,.91-.08,1.6-.23,2.05-.15.46-.46.89-.91,1.29-.43.38-.85.63-1.27.74-.42.11-1.07.17-1.96.17Zm-.57-5.13v-2.24c0-.63-.3-.95-.91-.95h-17.59c-.61,0-.91.32-.91.95v2.24c0,.63.3.95.91.95h17.59c.61,0,.91-.32.91-.95Zm-2.13-13.64v-.95c0-.63-.3-.95-.91-.95h-13.19c-.61,0-.91.32-.91.95v.95c0,.63.3.95.91.95h13.19c.61,0,.91-.32.91-.95Z"/>
      <path class="cls-2" d="m270.14,34.32c1.72.89,2.92,1.62,3.59,2.19.67.57,1.01,1.13,1.01,1.69,0,.66-.24,1.26-.72,1.8-.48.55-1.01.82-1.6.82-.46,0-1.14-.28-2.05-.84-1.34-.84-2.72-1.63-4.14-2.39-3.27,2.23-5.61,3.34-7.03,3.34-.56,0-1.04-.27-1.44-.8-.41-.53-.61-1.15-.61-1.86,0-.53.15-.96.44-1.27.29-.32.88-.68,1.77-1.08,2.05-.99,3.95-2.15,5.7-3.5,1.49-1.14,2.24-1.95,2.24-2.43,0-.28-.15-.42-.46-.42h-7.18c-.48,0-.89-.22-1.22-.67-.33-.44-.49-.97-.49-1.58s.17-1.19.51-1.67c.34-.48.75-.72,1.23-.72h10.6c1.06,0,1.9.29,2.51.87.51.51.76,1.17.76,1.98,0,1.95-1.14,4.13-3.42,6.54Zm-1.52,11.89v4.56l.3-.08c2.38-.46,3.66-.68,3.84-.68.51,0,.94.25,1.29.74.35.49.53,1.1.53,1.8,0,.91-.46,1.6-1.37,2.05-.84.41-2.37.82-4.6,1.25-1.57.3-3.33.59-5.26.86-1.94.27-3.27.4-4.01.4-1.42,0-2.13-.81-2.13-2.43,0-.91.25-1.55.74-1.92s1.45-.63,2.87-.78c.68-.08,1.51-.19,2.47-.34.1,0,.23-.01.38-.04v-5.4h-4.1c-.48,0-.89-.23-1.24-.7s-.51-1.02-.51-1.65.17-1.18.51-1.63.75-.68,1.24-.68h12.54c.51,0,.94.22,1.31.67.37.44.55.98.55,1.62s-.18,1.19-.55,1.67c-.37.48-.79.72-1.27.72h-3.53Zm12.46-4.86v-2.09c0-.56.21-1.03.65-1.41s.98-.57,1.63-.57c1.39,0,2.09.82,2.09,2.47v1.94c0,3.27-.24,5.77-.72,7.5-.48,1.74-1.38,3.35-2.7,4.84-1.12,1.27-2.41,2.36-3.88,3.27-1.24.79-2.22,1.18-2.93,1.18-.53,0-1.03-.27-1.48-.82-.46-.55-.68-1.15-.68-1.81s.47-1.25,1.41-1.86c1.92-1.24,3.32-2.34,4.18-3.31.91-1.04,1.54-2.23,1.9-3.57.35-1.34.53-3.27.53-5.78Zm3.69-9.96h2.85c1.32,0,2.28.3,2.89.91.61.61.91,1.54.91,2.81v13.49c0,.48-.2.89-.61,1.22-.41.33-.91.49-1.52.49s-1.13-.16-1.58-.49c-.44-.33-.67-.73-.67-1.22v-11.89c0-.68-.37-1.03-1.1-1.03h-5.51c-.73,0-1.1.34-1.1,1.03v11.89c0,.48-.22.89-.67,1.22-.44.33-.97.49-1.58.49s-1.12-.16-1.52-.49c-.41-.33-.61-.73-.61-1.22v-13.49c0-1.27.3-2.2.91-2.81.61-.61,1.57-.91,2.89-.91h1.1l.8-2.24h-5.28c-.41,0-.75-.22-1.04-.67-.29-.44-.44-.96-.44-1.54s.15-1.06.44-1.5c.29-.44.64-.67,1.04-.67h15.92c.43,0,.81.22,1.14.65.33.43.49.94.49,1.52s-.17,1.1-.49,1.54c-.33.44-.71.67-1.14.67h-5.78l-.76,2.24Zm1.18,18.66c.71,0,1.9.67,3.57,2.01,2.31,1.88,3.46,3.24,3.46,4.1,0,.63-.26,1.2-.78,1.69-.52.49-1.1.74-1.73.74-.68,0-1.44-.39-2.28-1.18-.48-.46-1.33-1.2-2.55-2.24-1.32-1.11-1.98-1.96-1.98-2.55,0-.63.24-1.22.72-1.77.48-.54,1-.82,1.56-.82Z"/>
      <path class="cls-2" d="m299.36,46.55c-.96.81-1.74,1.22-2.32,1.22-.48,0-.95-.3-1.41-.91s-.68-1.24-.68-1.9c0-.46.21-.89.63-1.29.42-.4,1.32-1.08,2.72-2.01.48-.33,1.08-.75,1.79-1.25.02-.28.05-1.2.08-2.77-.53.71-1.23,1.06-2.09,1.06-.41,0-.73-.13-.97-.38s-.45-.68-.63-1.29c-.46-1.47-.89-2.74-1.29-3.8-.25-.71-.38-1.3-.38-1.79s.23-.9.68-1.25.99-.53,1.6-.53c.53,0,.96.22,1.29.65.33.43.72,1.29,1.18,2.58.25.74.46,1.38.61,1.94v-4.33c0-1.75.39-3,1.18-3.76.71-.66,1.76-.99,3.15-.99h8.44c-.13-.28-.19-.54-.19-.8,0-.53.19-.9.57-1.1.79-.46,1.7-.68,2.74-.68.53,0,.99.2,1.37.59.38.39.76,1.06,1.14,2h10.41c.43,0,.82.21,1.16.63.34.42.51.88.51,1.39s-.17.94-.49,1.31-.72.55-1.18.55h-23.37c-.63,0-.95.24-.95.72v8.13c0,5.9-.65,10.64-1.94,14.21-1.37,3.75-2.88,5.62-4.52,5.62-.68,0-1.28-.22-1.79-.65-.51-.43-.76-.94-.76-1.52,0-.51.43-1.46,1.29-2.85,1.06-1.72,1.87-3.96,2.43-6.73Zm9.5-6.65h4.45c.73,0,1.3.07,1.69.21.39.14.75.39,1.08.74.3.33.5.65.59.95.09.3.13.79.13,1.44v1.56c0,.68-.06,1.21-.19,1.58-.13.37-.37.7-.72,1.01-.33.3-.67.51-1.03.61-.35.1-.87.15-1.56.15h-4.45c-.73,0-1.31-.07-1.71-.21-.41-.14-.76-.39-1.06-.74-.3-.33-.5-.65-.59-.95-.09-.3-.13-.78-.13-1.44v-1.56c0-.68.06-1.21.19-1.58s.37-.7.72-1.01c.33-.3.67-.51,1.03-.61.35-.1.87-.15,1.56-.15Zm6.27,13.72v-3.61c0-.71.21-1.27.63-1.67s.99-.61,1.73-.61,1.35.2,1.77.61.63.96.63,1.67v3.61h3.99c.61,0,.91-.24.91-.72v-2.05c0-1.34.8-2.01,2.39-2.01s2.36.67,2.36,2.01v3.12c0,1.29-.3,2.2-.89,2.74-.6.53-1.63.8-3.1.8h-16c-1.5,0-2.53-.25-3.12-.76-.58-.51-.87-1.43-.87-2.77v-3.12c0-.58.23-1.06.68-1.42.46-.37,1.03-.55,1.71-.55s1.25.18,1.69.55.67.84.67,1.42v1.98c0,.3.06.51.19.63.13.11.37.17.72.17h3.91Zm9.04-14.86h-13.53c-1.12,0-1.93-.27-2.45-.8-.52-.53-.78-1.38-.78-2.55v-1.22c0-1.17.26-2.01.78-2.55.52-.53,1.35-.8,2.49-.8h13.45c1.14,0,1.97.27,2.49.8.52.53.78,1.38.78,2.55v1.22c0,1.17-.26,2.01-.78,2.55-.52.53-1.34.8-2.45.8Zm-14.82,4.75v.91c0,.33.06.54.17.65.11.1.36.15.74.15h1.63c.38,0,.63-.05.74-.15.11-.1.17-.32.17-.65v-.91c0-.46-.25-.68-.76-.68h-1.94c-.51,0-.76.23-.76.68Zm13.38-8.47v-.38c0-.51-.3-.76-.91-.76h-8.82c-.61,0-.91.25-.91.76v.38c0,.46.29.68.87.68h8.89c.58,0,.87-.23.87-.68Zm3.57,13.11h-4.86c-.73,0-1.29-.06-1.67-.19-.38-.13-.73-.38-1.06-.76-.3-.3-.5-.61-.59-.93-.09-.32-.13-.8-.13-1.46v-1.56c0-.68.06-1.21.19-1.58.13-.37.37-.72.72-1.04.33-.28.66-.47.99-.57.33-.1.85-.15,1.56-.15h4.86c.76,0,1.33.06,1.71.19s.72.38,1.03.76c.3.3.5.61.59.93.09.32.13.8.13,1.46v1.56c0,.68-.06,1.21-.19,1.58-.13.37-.37.72-.72,1.04-.33.28-.67.47-1.01.57-.34.1-.85.15-1.54.15Zm-.53-3.61v-1.03c0-.46-.29-.68-.87-.68h-2.05c-.58,0-.87.23-.87.68v1.03c0,.46.29.68.87.68h2.13c.53,0,.8-.23.8-.68Z"/>
      <path class="cls-2" d="m353.43,40.81c-.53.61-1.1.91-1.71.91-.51,0-1.08-.2-1.71-.61l-.19,4.48c-.15,5.27-.67,8.7-1.56,10.3-.51.86-1.2,1.44-2.09,1.75-.61.23-1.38.34-2.32.34-2.69,0-4.03-.92-4.03-2.77,0-.63.15-1.18.44-1.65s.65-.7,1.08-.7c.1,0,.47.06,1.1.19.28.05.53.08.76.08.4,0,.72-.18.93-.53s.4-.99.55-1.9c.1-.61.22-1.91.36-3.89.14-1.99.21-3.45.21-4.39,0-.84-.28-1.25-.84-1.25h-2.89c-.36,4.41-1.05,8.26-2.09,11.55-1.19,3.75-2.47,5.62-3.84,5.62-.76,0-1.44-.25-2.05-.76-.53-.43-.8-.89-.8-1.37,0-.51.25-1.22.76-2.13,2.33-4.31,3.5-11.13,3.5-20.48v-.34h-1.75c-.53,0-.99-.23-1.39-.7-.39-.47-.59-1.03-.59-1.69s.2-1.18.59-1.65c.39-.47.85-.7,1.39-.7h4.64c-.03-.08-.1-.34-.23-.8-.1-.28-.24-.66-.42-1.14-.25-.56-.38-1.01-.38-1.37,0-.53.3-.98.89-1.35.6-.37,1.31-.55,2.15-.55,1.22,0,2.15,1.01,2.81,3.04.43,1.22.68,1.94.76,2.17h3.99c.56,0,1.02.22,1.39.67.37.44.55,1.01.55,1.69s-.19,1.22-.57,1.69c-.38.47-.84.7-1.37.7h-7.68v1.56c0,.68-.01,1.22-.04,1.6h4.67c.71,0,1.34.13,1.88.38.54.25.93.6,1.16,1.03.05-.13.13-.28.23-.46,1.06-1.95,1.89-3.74,2.47-5.38s1.06-3.55,1.44-5.76c.23-1.14.52-1.93.87-2.38.35-.44.89-.67,1.6-.67.79,0,1.45.21,2,.63.54.42.82.94.82,1.58,0,.79-.23,2.03-.68,3.72h8.74c.53,0,.99.24,1.39.72.39.48.59,1.05.59,1.71s-.2,1.23-.59,1.71-.85.72-1.39.72h-.84c-.3,3.17-.74,5.81-1.29,7.92-.56,2.12-1.34,4.17-2.36,6.17,1.34,1.67,3.05,3.37,5.13,5.09.99.84,1.48,1.58,1.48,2.24,0,.76-.29,1.44-.87,2.05-.53.51-1.09.76-1.67.76-1.09,0-2.61-1.1-4.56-3.31l-2.28-2.58c-1.44,1.75-3.02,3.24-4.71,4.48-1.47,1.06-2.58,1.6-3.34,1.6-.63,0-1.24-.34-1.82-1.03-.48-.58-.72-1.18-.72-1.79,0-.46.17-.87.49-1.24s1.01-.89,2.05-1.58c2.03-1.32,3.71-2.86,5.05-4.64-1.22-2.13-2.31-4.57-3.27-7.33Zm3-6.23c.68,3.12,1.68,5.99,3,8.63.48-1.22.87-2.49,1.16-3.82s.56-3.13.82-5.42h-4.79l-.19.61Z"/>
      <path class="cls-2" d="m389.23,26.22c-.2-.58-.3-1.06-.3-1.44,0-.46.29-.85.85-1.18s1.26-.49,2.07-.49,1.48.21,1.92.63c.44.42.91,1.25,1.39,2.49h9.54c.53,0,.99.25,1.39.74.39.49.59,1.07.59,1.73s-.19,1.17-.57,1.62c-.38.44-.85.67-1.41.67h-21.81c-.63,0-.95.24-.95.72v7.37c0,5.6-.63,10.17-1.9,13.72-.71,1.98-1.51,3.47-2.39,4.48-.76.89-1.51,1.33-2.24,1.33-.79,0-1.46-.28-2.01-.84-.48-.46-.72-.98-.72-1.56s.44-1.53,1.33-2.93c1.29-2.03,2.17-4.5,2.62-7.41-1.88,1.5-3.13,2.24-3.76,2.24-.51,0-.99-.31-1.44-.93-.46-.62-.68-1.26-.68-1.92,0-.81,1.19-1.91,3.57-3.31.46-.28,1.43-.95,2.93-2.01.03-.61.04-1.38.04-2.32v-6.12c0-1.98.41-3.37,1.22-4.18.71-.73,1.79-1.1,3.23-1.1h7.52Zm-16.04,2.93c.76,0,1.34.39,1.75,1.18.56,1.12,1.02,2.24,1.39,3.36.37,1.13.55,1.97.55,2.53s-.24,1.03-.72,1.42c-.48.39-1.05.59-1.71.59-.38,0-.7-.13-.95-.38-.25-.25-.48-.68-.68-1.29-.46-1.22-.94-2.48-1.44-3.8-.3-.73-.46-1.34-.46-1.82,0-.46.23-.87.7-1.24.47-.37.99-.55,1.58-.55Zm22.99,14.33c1.29,1.62,2.23,3.08,2.81,4.39.58,1.31.87,2.62.87,3.93,0,1.92-.65,3.44-1.94,4.56-1.47,1.27-3.32,1.9-5.55,1.9-1.22,0-2.44-.12-3.67-.36-1.23-.24-2.22-.55-2.98-.93-.79-.41-1.18-1.06-1.18-1.98,0-.61.19-1.13.57-1.56s.85-.65,1.41-.65c.48,0,1.16.11,2.05.34,1.17.3,2.28.46,3.34.46,1.77,0,2.66-.77,2.66-2.32,0-1.39-.74-3.07-2.2-5.02-.71-.94-1.17-1.61-1.39-2.01-.22-.41-.32-.81-.32-1.22,0-.43.15-.8.44-1.1.29-.3.79-.62,1.5-.95,1.17-.56,3-1.61,5.51-3.15h-13.19c-.51,0-.94-.21-1.29-.65s-.53-.96-.53-1.6.18-1.17.53-1.6.79-.65,1.29-.65h17.86c.86,0,1.56.23,2.09.68s.8,1.04.8,1.75c0,2.08-3.17,4.65-9.5,7.71Z"/>
      <path class="cls-2" d="m416.06,48.19c0,.89-.52,2.23-1.56,4.03-.74,1.32-1.31,2.18-1.73,2.58-.42.4-.92.61-1.5.61s-1.13-.19-1.56-.57c-.43-.38-.65-.82-.65-1.33,0-.38.18-.85.53-1.41.94-1.42,1.66-2.65,2.17-3.69.51-.99.86-1.6,1.06-1.82.2-.23.51-.34.91-.34.63,0,1.18.2,1.63.59s.68.84.68,1.35Zm5.55-9.12v2.32h4.37c.56,0,1.03.21,1.41.63s.57.93.57,1.54-.19,1.12-.57,1.52c-.38.41-.85.61-1.41.61h-4.37v8.02c0,1.6-.42,2.75-1.25,3.46-.76.61-1.88.91-3.34.91-1.32,0-2.28-.2-2.89-.61-.61-.41-.91-1.05-.91-1.94,0-.61.14-1.11.42-1.5.28-.39.62-.59,1.03-.59.15,0,.38.03.68.08.2.03.35.04.46.04.79,0,1.18-.51,1.18-1.52v-6.35h-4.98c-.56,0-1.03-.21-1.43-.63-.39-.42-.59-.93-.59-1.54s.19-1.11.57-1.52c.38-.4.86-.61,1.44-.61h4.98v-2.32h-5.47c-.53,0-.99-.21-1.39-.63-.39-.42-.59-.93-.59-1.54s.18-1.11.55-1.52c.37-.41.84-.61,1.42-.61h2.24l-.11-.23c-.28-.74-.44-1.17-.49-1.29-.3-.68-.46-1.19-.46-1.52,0-.38.27-.76.8-1.14h-1.22c-.56,0-1.03-.21-1.42-.63-.39-.42-.59-.93-.59-1.54s.19-1.15.57-1.56c.38-.4.86-.61,1.44-.61h3.91c-.18-.53-.27-.91-.27-1.14,0-.58.25-1.06.76-1.44.51-.38,1.15-.57,1.94-.57.71,0,1.25.2,1.62.61s.77,1.25,1.2,2.55h4.33c.56,0,1.03.21,1.41.63.38.42.57.94.57,1.58s-.19,1.11-.57,1.52c-.38.41-.85.61-1.41.61h-.72c.38.33.57.68.57,1.06,0,.58-.32,1.62-.95,3.12h1.82c.53,0,.99.21,1.37.63s.57.93.57,1.54-.19,1.12-.57,1.52-.84.61-1.37.61h-4.86Zm-1.6-4.29c.46-1.01.79-1.84.99-2.47.25-.84.51-1.41.76-1.71h-5.47c.43.48.79,1.08,1.08,1.8.29.72.44,1.38.44,1.96,0,.13-.03.27-.08.42h2.28Zm13.6-.27h9.73c.43,0,.82.23,1.18.7s.53,1.01.53,1.61-.17,1.1-.51,1.56c-.34.46-.74.68-1.2.68h-1.94v17.82c0,.48-.23.91-.68,1.27s-.98.55-1.56.55-1.08-.18-1.5-.53c-.42-.36-.63-.79-.63-1.29v-17.82h-3.42c0,4.38-.22,8.04-.65,10.98-.23,1.62-.6,3.15-1.1,4.6-.51,1.44-1.03,2.43-1.56,2.96-.51.53-1.1.8-1.79.8s-1.31-.21-1.86-.63c-.56-.42-.84-.87-.84-1.35,0-.38.18-.91.53-1.6.33-.58.61-1.2.84-1.86-.48.43-1.04.65-1.67.65-.48,0-.82-.11-1.01-.32-.19-.21-.65-.94-1.39-2.19-.63-1.14-1.01-1.83-1.12-2.07-.11-.24-.17-.53-.17-.86,0-.48.23-.91.68-1.27.46-.37.98-.55,1.56-.55.46,0,.88.2,1.27.59.39.39.89,1.11,1.5,2.15.48.86.8,1.55.95,2.05.43-1.67.73-3.44.91-5.3.18-1.86.27-4.41.27-7.66v-9.77c0-1.39.43-2.34,1.29-2.85.38-.23.8-.39,1.25-.47s1.2-.17,2.24-.25c2.91-.2,5.38-.57,7.41-1.1.51-.13.92-.19,1.25-.19.51,0,.95.25,1.33.76.38.51.57,1.12.57,1.82s-.24,1.22-.72,1.6c-.53.38-1.46.7-2.79.97-1.33.27-3.44.54-6.33.82-.58.05-.87.34-.87.87v4.1Z"/>
      <path class="cls-2" d="m460.71,30.55v.3c0,.48-.25.9-.74,1.25-.49.36-1.08.53-1.77.53s-1.22-.17-1.67-.51c-.46-.34-.68-.77-.68-1.27v-.3h-6.27c-.56,0-1.03-.23-1.41-.68s-.57-1-.57-1.63.19-1.18.57-1.63.85-.68,1.41-.68h6.27v-1.06c0-.53.23-.97.68-1.31.46-.34,1.01-.51,1.67-.51s1.27.18,1.77.53c.49.36.74.79.74,1.29v1.06h8.85v-1.06c0-.51.23-.93.68-1.27.46-.34,1.01-.51,1.67-.51s1.27.18,1.77.53c.49.36.74.77.74,1.25v1.06h6.31c.53,0,.98.22,1.35.67.37.44.55.98.55,1.61s-.18,1.22-.55,1.67c-.37.46-.82.68-1.35.68h-6.31v.3c0,.48-.25.9-.74,1.25-.49.36-1.08.53-1.77.53s-1.22-.17-1.67-.51c-.46-.34-.68-.77-.68-1.27v-.3h-8.85Zm-10.45,7.49c.61,0,1.89.62,3.84,1.86,1.04.63,1.74,1.14,2.11,1.52.37.38.55.76.55,1.14,0,.71-.25,1.39-.76,2.05-.43.56-.87.84-1.33.84-.41,0-1.03-.3-1.86-.91-1.14-.78-2.12-1.41-2.93-1.86-1.27-.66-1.9-1.29-1.9-1.9,0-.68.32-1.38.95-2.09.38-.43.82-.65,1.33-.65Zm7.6,10.26c0,.35-.25,1.17-.74,2.43-.49,1.27-1.02,2.46-1.58,3.57-.79,1.52-1.45,2.6-2,3.23-.54.63-1.08.95-1.62.95-.71,0-1.41-.29-2.09-.87-.56-.48-.84-.96-.84-1.44s.44-1.36,1.33-2.7c.91-1.37,1.84-3.33,2.77-5.89.43-1.22,1.03-1.82,1.79-1.82.86,0,1.58.28,2.17.84.53.48.8,1.05.8,1.71Zm-5.28-16.23c.3,0,.7.11,1.18.34.48.23,1.29.71,2.43,1.44,1.19.76,1.96,1.32,2.32,1.67.35.36.53.77.53,1.25,0,.68-.24,1.33-.72,1.94-.43.51-.87.76-1.33.76-.35,0-.95-.28-1.79-.84-.3-.23-1.14-.77-2.51-1.63-.99-.63-1.62-1.08-1.9-1.35-.28-.27-.42-.56-.42-.89,0-.66.27-1.29.8-1.9.48-.53.95-.8,1.41-.8Zm17.82,6.35h-4.83c-.53,0-.8.3-.8.91v11.97c0,.81.11,1.3.34,1.48.43.3,1.77.46,4.03.46h.38c.96-.02,2.22-.04,3.76-.04,1.8,0,2.86-.14,3.19-.42.18-.15.3-.35.36-.59.06-.24.12-.82.17-1.73.03-.23.04-.43.04-.61.08-.84.29-1.4.63-1.69s.94-.44,1.81-.44c.94,0,1.62.18,2.05.53.43.35.65.92.65,1.71,0,.99-.09,2.01-.29,3.08-.19,1.06-.44,1.86-.74,2.39-.43.81-1.29,1.39-2.58,1.75s-3.24.53-5.85.53c-3.85,0-6.36-.03-7.52-.09-1.17-.06-2.04-.21-2.62-.44-1.01-.38-1.72-.92-2.13-1.63-.41-.71-.61-1.77-.61-3.19v-14.4c0-2.79,1.32-4.18,3.95-4.18h11.86c2.51,0,3.76,1.43,3.76,4.29v2.96c0,2.84-.37,4.84-1.1,6-.38.61-.94,1.03-1.67,1.27-.74.24-1.85.36-3.34.36-2.2,0-3.71-.19-4.5-.57-.8-.38-1.2-1.09-1.2-2.13,0-.71.14-1.26.42-1.65.28-.39.66-.59,1.14-.59.15,0,.79.09,1.9.27.48.08,1.03.11,1.63.11.53,0,.88-.04,1.04-.11.17-.08.29-.25.36-.53.13-.38.2-1.61.23-3.69l.04-.61c0-.51-.22-.76-.65-.76h-3.31Z"/>
      <path class="cls-2" d="m515.35,29.72c-.35-.23-.79-.58-1.29-1.06-.41-.4-.67-.67-.8-.8-1.04-.94-1.56-1.65-1.56-2.13,0-.51.27-.99.8-1.46s1.08-.7,1.63-.7c.51,0,1.35.51,2.55,1.52,1.17,1.01,1.75,1.84,1.75,2.47,0,.41-.15.8-.44,1.2-.29.39-.68.72-1.16.97h1.9c.46,0,.86.25,1.22.74.35.49.53,1.06.53,1.69s-.18,1.23-.53,1.71c-.36.48-.76.72-1.22.72h-8.36c.35,5.8.91,9.93,1.67,12.39.56,1.72,1.17,3.08,1.82,4.07.56.84,1.06,1.25,1.52,1.25.23,0,.37-.06.44-.17.06-.11.15-.45.25-1.01.2-1.32.33-2.27.38-2.85.08-1.34.68-2.01,1.82-2.01.78,0,1.41.19,1.88.57.47.38.7.87.7,1.48s-.08,1.51-.25,2.7c-.17,1.19-.35,2.2-.55,3.04-.71,2.86-1.98,4.29-3.8,4.29-.91,0-1.89-.29-2.94-.87-1.05-.58-1.98-1.36-2.79-2.32-2.43-2.86-3.99-7.83-4.67-14.9-.13-1.29-.28-3.18-.46-5.66h-17.67c-.53,0-.99-.24-1.37-.72-.38-.48-.57-1.05-.57-1.71s.19-1.23.57-1.71c.38-.48.84-.72,1.37-.72h17.4c-.08-1.88-.11-3.27-.11-4.18,0-.84.18-1.41.53-1.71.48-.38,1.13-.57,1.94-.57.89,0,1.57.24,2.05.72.35.36.53,1.39.53,3.12v.08c0,.94.01,1.79.04,2.55h5.24Zm-16.76,13.19v7.75c1.7-.38,3.01-.71,3.95-.99.73-.23,1.33-.34,1.79-.34.51,0,.94.25,1.31.74s.55,1.08.55,1.77c0,.96-.37,1.62-1.1,1.98-.89.43-1.93.79-3.13,1.08-1.2.29-3.79.8-7.77,1.54-2.38.43-4.23.65-5.55.65-1.67,0-2.51-.87-2.51-2.62,0-.84.24-1.42.72-1.75.28-.2.58-.34.89-.4.32-.06,1.04-.16,2.18-.29.51-.02,1.75-.2,3.72-.53v-8.59h-4.37c-.56,0-1.04-.22-1.44-.67-.41-.44-.61-.98-.61-1.61s.18-1.16.55-1.58c.37-.42.83-.63,1.39-.63h13.64c.48,0,.9.22,1.25.67.35.44.53.97.53,1.58s-.17,1.1-.51,1.56-.74.68-1.2.68h-4.29Z"/>
    </g>
  </g>
</svg>