<?xml version="1.0" encoding="UTF-8"?>
<svg id="_图层_2" data-name="图层 2" xmlns="http://www.w3.org/2000/svg" xmlns:xlink="http://www.w3.org/1999/xlink" viewBox="0 0 550.24 83.25">
  <defs>
    <style>
      .cls-1 {
        fill: #009ea7;
      }

      .cls-1, .cls-2 {
        stroke-width: 0px;
      }

      .cls-2 {
        fill: #fff;
      }

      .cls-3 {
        fill: url(#_未命名的渐变_4);
        opacity: .29;
        stroke: url(#_未命名的渐变_820);
        stroke-miterlimit: 10;
        stroke-width: .6px;
      }
    </style>
    <linearGradient id="_未命名的渐变_4" data-name="未命名的渐变 4" x1="5.27" y1="41.52" x2="546.23" y2="41.52" gradientUnits="userSpaceOnUse">
      <stop offset="0" stop-color="#79cfd8"/>
      <stop offset="0" stop-color="#79cfd8" stop-opacity=".92"/>
      <stop offset=".03" stop-color="#79cfd8" stop-opacity=".73"/>
      <stop offset=".06" stop-color="#7acfd8" stop-opacity=".55"/>
      <stop offset=".09" stop-color="#7acfd8" stop-opacity=".4"/>
      <stop offset=".12" stop-color="#7bcfd8" stop-opacity=".28"/>
      <stop offset=".16" stop-color="#7bcfd8" stop-opacity=".17"/>
      <stop offset=".2" stop-color="#7bcfd8" stop-opacity=".09"/>
      <stop offset=".25" stop-color="#7bcfd8" stop-opacity=".04"/>
      <stop offset=".33" stop-color="#7bcfd8" stop-opacity="0"/>
      <stop offset=".53" stop-color="#7cd0d9" stop-opacity="0"/>
      <stop offset=".72" stop-color="#7bcfd8" stop-opacity="0"/>
      <stop offset=".78" stop-color="#79cfd8" stop-opacity=".04"/>
      <stop offset=".83" stop-color="#75cdd7" stop-opacity=".1"/>
      <stop offset=".87" stop-color="#70ccd5" stop-opacity=".19"/>
      <stop offset=".9" stop-color="#6ac9d3" stop-opacity=".3"/>
      <stop offset=".93" stop-color="#62c6d1" stop-opacity=".43"/>
      <stop offset=".95" stop-color="#58c3ce" stop-opacity=".6"/>
      <stop offset=".98" stop-color="#4ebfcb" stop-opacity=".78"/>
      <stop offset="1" stop-color="#42bbc8" stop-opacity=".98"/>
      <stop offset="1" stop-color="#41bbc8"/>
    </linearGradient>
    <linearGradient id="_未命名的渐变_820" data-name="未命名的渐变 820" x1="4.97" y1="41.52" x2="546.53" y2="41.52" gradientUnits="userSpaceOnUse">
      <stop offset="0" stop-color="#fff"/>
      <stop offset="1" stop-color="#41bbc8"/>
    </linearGradient>
  </defs>
  <g id="_图层_1-2" data-name="图层 1">
    <g>
      <g>
        <g>
          <polygon class="cls-1" points="516.74 1.89 515.15 .3 545.65 .3 547.24 1.89 516.74 1.89"/>
          <path class="cls-1" d="m547.96,2.19h-31.34l-2.19-2.19h31.34l2.19,2.19Zm-31.09-.6h29.65l-.99-.99h-29.65l.99.99Z"/>
        </g>
        <path class="cls-1" d="m545.77,83.25H4.47l-4.47-4.47v-6.37h0V10.84h0v-6.37L4.47,0h508.27l3.39,3.39h33.04l1.08,1.08v6.37h0v61.57h0v6.37l-4.47,4.47Zm-541.06-.6h540.81l4.11-4.11v-5.52h0V10.24h0v-5.52l-.72-.72h-33.04l-3.39-3.39H4.71L.6,4.71v5.52h0v62.77h0v5.52l4.11,4.11Z"/>
      </g>
      <polygon class="cls-3" points="541.82 79.99 9.4 79.99 5.27 75.75 5.27 7.16 9.47 3.05 511.34 3.05 514.33 6.01 546.23 6.01 546.23 75.31 541.82 79.99"/>
    </g>
    <g>
      <path class="cls-2" d="m21.35,43.21l1.67-13.45h13.22v5.21h-8.32l-.46,3.95c5.95.71,8.93,3.33,8.93,7.87,0,2.28-.8,4.14-2.39,5.59-1.62,1.47-3.85,2.2-6.69,2.2s-5.69-.63-8.17-1.9l1.9-4.94c2.18,1.09,4.13,1.63,5.85,1.63,1.95,0,2.93-.87,2.93-2.62,0-2.36-2.82-3.53-8.47-3.53Z"/>
      <path class="cls-2" d="m40.01,51.83c0-.94.3-1.68.91-2.24.56-.51,1.28-.76,2.17-.76,1.01,0,1.81.26,2.38.78.57.52.85,1.25.85,2.19s-.28,1.68-.84,2.22c-.56.54-1.32.82-2.28.82s-1.77-.27-2.34-.8c-.57-.53-.85-1.27-.85-2.2Z"/>
      <path class="cls-2" d="m52.25,37.66l-3.5-4.22c1.37-1.37,2.9-2.42,4.6-3.15,1.54-.68,3.1-1.03,4.67-1.03,2.71,0,4.76.74,6.16,2.2,1.14,1.24,1.71,2.88,1.71,4.9,0,1.32-.26,2.55-.78,3.71-.52,1.15-1.37,2.4-2.56,3.74l-4.71,5.28h8.82v5.13h-17.71v-3.84l7.87-8.89c.99-1.14,1.63-1.98,1.92-2.53s.44-1.17.44-1.88c0-.63-.19-1.14-.57-1.52s-.9-.57-1.56-.57c-1.32,0-2.91.89-4.79,2.66Z"/>
      <path class="cls-2" d="m90.78,27.4c.1-.35.18-.62.23-.8.3-1.11.6-1.84.87-2.17.51-.63,1.29-.95,2.36-.95.86,0,1.56.2,2.09.59.53.39.8.92.8,1.58,0,.41-.09.99-.27,1.75h8.4c.91,0,1.59.08,2.03.23.44.15.87.46,1.27.91.38.43.63.86.74,1.27s.17,1.08.17,2v20.52c0,1.19-.06,2-.19,2.43-.38,1.14-1.12,1.89-2.2,2.24-.35.13-.96.19-1.82.19h-20.44c-.91,0-1.59-.08-2.03-.23-.44-.15-.87-.46-1.27-.91-.38-.43-.63-.86-.74-1.27s-.17-1.08-.17-2v-20.98c0-.96.08-1.69.25-2.19.17-.49.48-.94.93-1.35.38-.35.77-.59,1.16-.7.39-.11,1.02-.17,1.88-.17h5.97Zm-5.13,8.44h18.77v-2.24c0-1.04-.51-1.56-1.52-1.56h-15.73c-.53,0-.92.12-1.16.36-.24.24-.36.64-.36,1.2v2.24Zm0,8.25h18.77v-3.8h-18.77v3.8Zm0,4.45v2.47c0,.56.12.96.36,1.2.24.24.63.36,1.16.36h15.73c.61,0,1.01-.14,1.22-.42.2-.28.3-.84.3-1.67v-1.94h-18.77Z"/>
      <path class="cls-2" d="m119.47,49.7v-8.59c0-.43-.04-.71-.11-.85-.08-.14-.24-.21-.49-.21h-1.86c-.66,0-1.17-.2-1.52-.61-.36-.4-.53-.97-.53-1.71s.18-1.26.53-1.65c.35-.39.86-.59,1.52-.59h3.91c1.17,0,2.02.27,2.56.82.54.54.82,1.4.82,2.57v10.91c.18.1.44.33.8.68.81.94,1.56,1.54,2.24,1.82,1.42.58,3.66.87,6.73.87h14.71c.71,0,1.27.2,1.67.59.4.39.61.94.61,1.65s-.2,1.26-.59,1.65c-.39.39-.94.59-1.65.59h-14.02c-3.9,0-6.78-.3-8.63-.91-.71-.23-1.52-.75-2.43-1.56-.76-.66-1.24-.99-1.44-.99-.46,0-1.01.51-1.67,1.52-1.04,1.6-2,2.39-2.89,2.39-.63,0-1.22-.25-1.75-.74s-.8-1.02-.8-1.58c0-.61.44-1.51,1.33-2.7.84-1.14,1.58-1.96,2.24-2.47.25-.18.49-.48.72-.91Zm5.51-18.58c0,.53-.3,1.04-.89,1.54-.6.49-1.22.74-1.88.74-.25,0-.45-.04-.59-.11-.14-.08-.34-.27-.59-.57-.33-.38-1.25-1.63-2.77-3.76-.63-.89-1.03-1.48-1.2-1.79-.17-.3-.25-.63-.25-.99,0-.51.29-1,.85-1.48.57-.48,1.16-.72,1.77-.72.73,0,1.7.75,2.89,2.24,1.77,2.2,2.66,3.84,2.66,4.9Zm15.05,7.3h4.18c.89,0,1.56.08,2.01.23s.87.43,1.25.84c.33.38.54.75.65,1.1.1.35.15.92.15,1.71v5.13c0,.84-.07,1.46-.21,1.86-.14.41-.41.8-.82,1.18-.41.33-.8.55-1.2.67-.39.11-1.01.17-1.84.17h-13.19c-.89,0-1.56-.08-2.01-.23-.46-.15-.87-.43-1.25-.84-.33-.38-.54-.75-.65-1.1-.1-.35-.15-.92-.15-1.71v-5.13c0-.84.07-1.46.21-1.86.14-.41.42-.8.85-1.18.38-.33.77-.55,1.16-.67.39-.11,1.01-.17,1.84-.17h4.07v-2.32h-8.63c-.43,0-.8-.21-1.12-.63s-.47-.91-.47-1.46.16-1.09.47-1.52c.32-.43.69-.65,1.12-.65h8.63v-2.47l-4.86.15h-.72c-1.04,0-1.77-.16-2.18-.47s-.63-.86-.63-1.62c0-.48.09-.92.28-1.33s.42-.68.7-.84c.2-.1.44-.16.72-.17.28-.01,1.18-.03,2.7-.06,2.86-.08,5.19-.2,6.97-.36,1.79-.16,3.73-.45,5.83-.86,1.24-.25,2.08-.38,2.51-.38.63,0,1.14.25,1.52.74.38.49.57,1.15.57,1.96,0,.53-.15.94-.44,1.24-.29.29-.82.53-1.58.7-1.85.51-4,.85-6.46,1.03v2.74h8.78c.51,0,.93.21,1.27.63s.51.93.51,1.54c0,.56-.18,1.04-.53,1.46-.35.42-.77.63-1.25.63h-8.78v2.32Zm-8.25,5.4v2.13c0,.74.3,1.1.91,1.1h9.84c.61,0,.91-.37.91-1.1v-2.13c0-.76-.3-1.14-.91-1.14h-9.84c-.61,0-.91.38-.91,1.14Z"/>
      <path class="cls-2" d="m170.2,26.6v-.08s-.01-.04-.04-.04c-.2-.73-.3-1.25-.3-1.56,0-.56.27-1.01.82-1.37.54-.35,1.24-.53,2.07-.53.76,0,1.35.26,1.77.78.42.52.79,1.45,1.12,2.79h10.72c.53,0,1.01.25,1.43.76.42.51.63,1.09.63,1.75s-.2,1.18-.61,1.65-.89.7-1.44.7h-23.71c-.58,0-.97.09-1.16.29-.19.19-.28.56-.28,1.12v6.84c0,6.41-.67,11.34-2.01,14.78-.51,1.34-1.02,2.31-1.54,2.91-.52.59-1.11.89-1.77.89-.79,0-1.47-.25-2.05-.76-.53-.41-.8-.87-.8-1.41,0-.66.25-1.51.76-2.55.91-1.9,1.53-3.86,1.86-5.89.33-2.03.49-4.89.49-8.59v-7.07c0-1.6.2-2.76.61-3.5.73-1.29,2.08-1.94,4.03-1.94h9.42Zm6.42,25.57c-.05-.23-.08-.44-.08-.65,0-.51.08-.98.25-1.42.16-.44.74-1.77,1.73-3.97.38-.86.91-2.26,1.58-4.2.67-1.94,1.15-3.48,1.43-4.62.35-1.32.71-2.22,1.08-2.72.37-.49.88-.74,1.54-.74s1.3.19,1.86.57.84.81.84,1.29c0,1.17-1.13,4.97-3.38,11.4-.61,1.75-1.33,3.43-2.17,5.05h5.09c.63,0,1.17.24,1.61.72.44.48.67,1.06.67,1.75s-.22,1.25-.65,1.71c-.43.46-.98.68-1.63.68h-23.71c-.56,0-1.04-.23-1.44-.7-.41-.47-.61-1.03-.61-1.69s.2-1.24.61-1.73c.4-.49.89-.74,1.44-.74h13.95Zm-5.97-3.46c-.03.61-.31,1.11-.86,1.5s-1.2.59-1.96.59c-.58,0-1.05-.3-1.41-.89-.36-.59-.72-1.68-1.1-3.25-.18-.76-1.09-3.43-2.74-8.02-.18-.48-.27-.9-.27-1.25,0-.48.27-.91.8-1.27.53-.37,1.14-.55,1.82-.55.53,0,.92.15,1.18.46.33.38.73,1.17,1.2,2.36s1.41,3.86,2.83,8.02l.49,2.32Zm6.92-3c-.05.61-.34,1.1-.86,1.46s-1.16.55-1.92.55c-.43,0-.76-.09-.99-.29-.23-.19-.43-.54-.61-1.04-.18-.46-.75-2.52-1.71-6.19-.13-.51-.54-1.89-1.25-4.14-.13-.43-.19-.82-.19-1.18,0-.48.25-.9.76-1.25.51-.35,1.1-.53,1.79-.53s1.13.22,1.41.65c.3.43.59,1.05.86,1.84.27.8,1.03,3.41,2.3,7.85l.42,2.28Z"/>
      <path class="cls-2" d="m211.28,40.81c-.53.61-1.1.91-1.71.91-.51,0-1.08-.2-1.71-.61l-.19,4.48c-.15,5.27-.67,8.7-1.56,10.3-.51.86-1.2,1.44-2.09,1.75-.61.23-1.38.34-2.32.34-2.69,0-4.03-.92-4.03-2.77,0-.63.15-1.18.44-1.65.29-.47.65-.7,1.08-.7.1,0,.47.06,1.1.19.28.05.53.08.76.08.4,0,.72-.18.93-.53.21-.35.4-.99.55-1.9.1-.61.22-1.91.36-3.89.14-1.99.21-3.45.21-4.39,0-.84-.28-1.25-.84-1.25h-2.89c-.35,4.41-1.05,8.26-2.09,11.55-1.19,3.75-2.47,5.62-3.84,5.62-.76,0-1.44-.25-2.05-.76-.53-.43-.8-.89-.8-1.37,0-.51.25-1.22.76-2.13,2.33-4.31,3.5-11.13,3.5-20.48v-.34h-1.75c-.53,0-.99-.23-1.39-.7-.39-.47-.59-1.03-.59-1.69s.2-1.18.59-1.65c.39-.47.85-.7,1.39-.7h4.64c-.03-.08-.1-.34-.23-.8-.1-.28-.24-.66-.42-1.14-.25-.56-.38-1.01-.38-1.37,0-.53.3-.98.89-1.35.59-.37,1.31-.55,2.15-.55,1.22,0,2.15,1.01,2.81,3.04.43,1.22.68,1.94.76,2.17h3.99c.56,0,1.02.22,1.39.67s.55,1.01.55,1.69-.19,1.22-.57,1.69-.84.7-1.37.7h-7.68v1.56c0,.68-.01,1.22-.04,1.6h4.67c.71,0,1.34.13,1.88.38.54.25.93.6,1.16,1.03.05-.13.13-.28.23-.46,1.06-1.95,1.89-3.74,2.47-5.38.58-1.63,1.06-3.55,1.44-5.76.23-1.14.52-1.93.87-2.38s.89-.67,1.6-.67c.78,0,1.45.21,1.99.63.54.42.82.94.82,1.58,0,.79-.23,2.03-.68,3.72h8.74c.53,0,.99.24,1.39.72.39.48.59,1.05.59,1.71s-.2,1.23-.59,1.71c-.39.48-.86.72-1.39.72h-.84c-.3,3.17-.73,5.81-1.29,7.92-.56,2.12-1.34,4.17-2.36,6.17,1.34,1.67,3.05,3.37,5.13,5.09.99.84,1.48,1.58,1.48,2.24,0,.76-.29,1.44-.87,2.05-.53.51-1.09.76-1.67.76-1.09,0-2.61-1.1-4.56-3.31l-2.28-2.58c-1.44,1.75-3.01,3.24-4.71,4.48-1.47,1.06-2.58,1.6-3.34,1.6-.63,0-1.24-.34-1.82-1.03-.48-.58-.72-1.18-.72-1.79,0-.46.16-.87.49-1.24.33-.37,1.01-.89,2.05-1.58,2.03-1.32,3.71-2.86,5.05-4.64-1.22-2.13-2.31-4.57-3.27-7.33Zm3-6.23c.68,3.12,1.68,5.99,3,8.63.48-1.22.87-2.49,1.16-3.82.29-1.33.56-3.13.82-5.42h-4.79l-.19.61Z"/>
      <path class="cls-2" d="m237.5,47.08h-6.61c-.61,0-1.09-.18-1.44-.55-.36-.37-.53-.87-.53-1.5s.18-1.13.53-1.48c.35-.35.84-.53,1.44-.53h.53v-12.84c0-1.19.38-2.14,1.14-2.85.66-.58,1.51-.87,2.55-.87h.72c.2-.56.34-.99.42-1.29.23-.78.52-1.32.87-1.6.35-.28.91-.42,1.67-.42s1.38.15,1.86.44c.48.29.72.67.72,1.12,0,.33-.1.91-.3,1.75h1.56c2.84,0,4.26,1.28,4.26,3.84v1.18c.13-.53.35-.96.68-1.29.33-.33.7-.49,1.1-.49h7.98v-4.41c0-.61.21-1.12.65-1.54s.98-.63,1.63-.63,1.19.22,1.67.65c.48.43.72.94.72,1.52v4.41h1.71c.48,0,.91.24,1.27.72.37.48.55,1.05.55,1.71s-.18,1.23-.55,1.71c-.37.48-.79.72-1.27.72h-1.71v18.7c0,1.9-.47,3.22-1.41,3.95-.84.66-2.19.99-4.07.99-2.81,0-4.56-.41-5.24-1.22-.43-.48-.65-1.08-.65-1.79,0-.84.24-1.52.72-2.05.18-.2.51-.3.99-.3.63,0,1.46.06,2.47.19.81.1,1.3.15,1.48.15.68,0,1.03-.43,1.03-1.29v-17.33h-7.98c-.41,0-.77-.17-1.1-.49-.33-.33-.56-.75-.68-1.25v21.13c0,1.75-.46,2.98-1.37,3.69-.79.63-2.03.95-3.72.95-2.94,0-4.41-.92-4.41-2.77,0-.61.14-1.11.42-1.5s.65-.59,1.1-.59c.2,0,.43.03.68.08.48.1.84.15,1.06.15.91,0,1.37-.68,1.37-2.05v-3.31c-2.23,2.18-4.51,4.03-6.84,5.55-2,1.32-3.42,1.98-4.26,1.98-.53,0-1.02-.27-1.46-.8-.44-.53-.67-1.12-.67-1.75,0-.46.21-.89.65-1.29.43-.41,1.18-.87,2.24-1.41.84-.41,1.84-.98,3-1.73,1.17-.75,2.1-1.42,2.81-2.03Zm4.52-14.59v-1.25c0-.18-.09-.35-.27-.51-.18-.16-.38-.25-.61-.25h-3.95c-.25,0-.47.11-.65.34-.18.23-.27.48-.27.76v.91h5.74Zm0,5.24v-1.9h-5.74v1.9h5.74Zm0,5.28v-1.94h-5.7v1.94h5.7Zm8.59-6.12c.53,0,.99.2,1.37.61.38.41.86,1.23,1.44,2.47,1.11,2.33,1.81,3.87,2.09,4.62s.42,1.4.42,1.96c0,.46-.25.87-.76,1.25s-1.06.57-1.67.57-1.09-.29-1.52-.87c-.43-.58-1.04-1.77-1.82-3.57-.53-1.24-.86-2-.99-2.28-.66-1.34-.99-2.38-.99-3.12,0-.4.25-.78.76-1.12.51-.34,1.06-.51,1.67-.51Z"/>
      <path class="cls-2" d="m279.94,41c.58-1.32,1.08-2.69,1.48-4.1.41-1.42.61-2.47.61-3.15,0-.35-.22-.53-.65-.53h-4.45c-.56,1.29-1.17,2.5-1.82,3.61-2.38,4.13-4.22,6.19-5.51,6.19-.71,0-1.36-.3-1.94-.91-.53-.51-.8-1.03-.8-1.56,0-.46.3-1.1.91-1.94,1.09-1.42,1.88-2.53,2.38-3.33.49-.8,1.03-1.8,1.62-3.02,1.06-2.18,1.8-4,2.2-5.47.38-1.39.75-2.35,1.12-2.87.37-.52.84-.78,1.43-.78.84,0,1.57.23,2.2.68.56.41.84.85.84,1.33,0,.76-.23,1.75-.68,2.96-.03.03-.05.08-.08.15-.03.1-.05.2-.08.3h3.99c1.57,0,2.69.3,3.34.91.58.53.87,1.34.87,2.43,0,1.9-.3,4.06-.91,6.48-.61,2.42-1.41,4.64-2.39,6.67-2.03,4.18-4.61,7.64-7.75,10.37-1.27,1.14-2.27,1.92-3.02,2.36-.75.43-1.45.65-2.11.65s-1.22-.27-1.75-.8-.8-1.13-.8-1.79c0-.48.24-1,.72-1.56.15-.18,1.06-.91,2.74-2.2,2.08-1.6,4.03-3.8,5.85-6.61l-1.48-.95c-1.85-1.16-2.77-2.27-2.77-3.31,0-.66.21-1.25.63-1.79s.88-.8,1.39-.8c.91,0,2.47.79,4.67,2.36Zm14.44-6.84c1.14.86,2.42,1.88,3.84,3.04,1.95,1.62,3.23,2.79,3.84,3.52.61.72.91,1.41.91,2.07,0,.76-.32,1.48-.95,2.17-.53.56-1.09.84-1.67.84-.43,0-.89-.18-1.37-.53-.48-.35-1.19-1.04-2.13-2.05-.79-.84-1.61-1.63-2.47-2.39v15.58c0,.61-.26,1.14-.78,1.6-.52.46-1.13.68-1.84.68s-1.29-.23-1.81-.68c-.52-.46-.78-.99-.78-1.6v-30.78c0-.66.25-1.22.76-1.67.51-.46,1.11-.68,1.82-.68s1.32.23,1.84.7c.52.47.78,1.02.78,1.65v8.55Z"/>
      <path class="cls-2" d="m311.29,32.95v-3.38c-1.24.1-2.17.15-2.77.15-1.65,0-2.47-.8-2.47-2.39,0-.76.23-1.3.68-1.61.46-.32,1.28-.51,2.47-.59,3.06-.2,5.67-.58,7.83-1.14.63-.18,1.17-.27,1.6-.27.53,0,.98.23,1.33.7.35.47.53,1.04.53,1.73,0,.86-.49,1.52-1.48,1.98-.46.23-1.47.48-3.04.76v4.07h3c.56,0,1.03.22,1.42.65.39.43.59.96.59,1.6s-.2,1.18-.59,1.63c-.39.46-.87.68-1.42.68h-3v.91c.23-.1.42-.15.57-.15.41,0,.87.27,1.39.82s1.3,1.58,2.34,3.1c1.14,1.65,1.71,2.79,1.71,3.42,0,.36-.16.73-.48,1.12-.32.39-.69.7-1.12.93-.13.08-.42.19-.87.34h-.23c-.66,0-1.29-.58-1.9-1.75-.41-.76-.87-1.54-1.41-2.36v12.73c0,.61-.23,1.12-.7,1.52-.47.41-1.04.61-1.73.61s-1.2-.2-1.62-.59-.63-.91-.63-1.54v-10.49c-.91,1.98-1.65,3.35-2.22,4.12-.57.77-1.13,1.16-1.69,1.16-.66,0-1.26-.24-1.8-.72-.54-.48-.82-1.01-.82-1.6,0-.53.54-1.58,1.63-3.15,1.34-1.95,2.71-4.76,4.1-8.44h-2.96c-.56,0-1.03-.23-1.42-.68-.39-.46-.59-1-.59-1.63s.2-1.17.59-1.6c.39-.43.87-.65,1.42-.65h3.76Zm25.57,10.83l1.98-.34c.1-.03.19-.04.27-.04.58,0,1.07.24,1.46.72.39.48.59,1.06.59,1.75,0,.51-.12.97-.36,1.39s-.54.65-.89.7l-3.04.57v8.09c0,.61-.24,1.12-.72,1.52-.48.41-1.09.61-1.82.61-.68,0-1.25-.2-1.71-.61s-.68-.91-.68-1.52v-7.14l-8.28,1.56c-.1.03-.22.04-.34.04-.58,0-1.06-.25-1.42-.74-.37-.49-.55-1.11-.55-1.84,0-1.24.51-1.95,1.52-2.13l9.08-1.67v-19.42c0-.58.23-1.06.7-1.42s1.06-.55,1.77-.55,1.33.18,1.79.55.68.84.68,1.42v18.51Zm-12.92-9.42c.76,0,1.76.66,3,1.98,2.15,2.28,3.23,3.84,3.23,4.67,0,.58-.3,1.17-.91,1.75-.53.51-1.05.76-1.56.76s-.95-.18-1.41-.53c-.46-.35-1.14-1.06-2.05-2.13-1.14-1.39-1.8-2.2-1.98-2.43-.48-.76-.72-1.37-.72-1.82,0-.53.26-1.04.78-1.52.52-.48,1.06-.72,1.62-.72Zm7.26-2.66c0,.61-.35,1.2-1.06,1.79-.58.48-1.17.72-1.75.72s-1.41-.65-2.47-1.94c-.43-.53-.96-1.09-1.6-1.67-.94-.89-1.57-1.54-1.9-1.98-.33-.43-.49-.81-.49-1.14,0-.63.3-1.24.91-1.82.53-.48,1.06-.72,1.6-.72.43,0,.86.13,1.29.4.43.27,1.01.74,1.75,1.43,2.48,2.33,3.72,3.98,3.72,4.94Z"/>
      <path class="cls-2" d="m351.23,31.27h20.41c.76,0,1.34.07,1.75.21.4.14.76.39,1.06.74.3.3.5.61.59.93.09.32.13.79.13,1.42v5.47c0,.68-.06,1.2-.19,1.56-.13.36-.37.68-.72.99-.33.3-.67.51-1.03.61-.36.1-.87.15-1.56.15h-13.19c-.2.33-.57.82-1.1,1.48h13.15c2.43,0,3.65.77,3.65,2.32,0,1.77-1.74,3.64-5.21,5.59.51.13,1.49.35,2.94.67,1.46.32,2.26.48,2.41.48,1.42.18,2.38.42,2.89.74.51.32.76.83.76,1.54s-.18,1.32-.53,1.77c-.35.44-.81.67-1.37.67-1.04,0-2.93-.3-5.66-.91-2.74-.61-5.36-1.3-7.87-2.09-1.7.56-3.97,1.15-6.8,1.79-1.14.23-2.84.51-5.11.84-2.27.33-3.7.49-4.31.49s-1.09-.22-1.44-.67c-.35-.44-.53-1.03-.53-1.77,0-.68.21-1.18.63-1.48.42-.3,1.16-.48,2.22-.53.81-.03,2.21-.19,4.2-.49,1.99-.3,3.59-.59,4.81-.87-1.57-.81-3.1-1.73-4.6-2.77-2.48,1.7-4.26,2.55-5.32,2.55-.56,0-1.04-.23-1.46-.7s-.63-1.02-.63-1.65c0-.58.18-1.04.53-1.39.35-.34,1.24-.91,2.66-1.69.96-.53,1.74-1.03,2.34-1.5.59-.47,1.46-1.26,2.6-2.38h-.72c-.76,0-1.34-.07-1.75-.21-.41-.14-.77-.39-1.1-.74-.28-.3-.46-.61-.55-.93-.09-.32-.13-.79-.13-1.42v-4.86c-1.01.99-1.88,1.48-2.58,1.48-.53,0-1.07-.28-1.62-.84s-.82-1.12-.82-1.67c0-.51.56-1.37,1.67-2.58,1.62-1.72,3.09-3.82,4.41-6.31.84-1.52,1.67-2.28,2.51-2.28.78,0,1.47.25,2.05.76.51.43.76.9.76,1.41,0,.2-.05.43-.15.68h21.62c.58,0,1.08.19,1.48.57.41.38.61.85.61,1.41s-.2.99-.61,1.37-.9.57-1.48.57h-23.71c-.3.48-.63.99-.99,1.52Zm1.67,4.71h17.44v-.65c0-.63-.28-.95-.84-.95h-15.77c-.56,0-.84.32-.84.95v.65Zm17.44,2.66h-17.44v.68c0,.61.28.91.84.91h15.77c.56,0,.84-.3.84-.91v-.68Zm-7.14,12.16c1.17-.48,2.13-.95,2.91-1.41.77-.46,1.16-.77,1.16-.95,0-.13-.04-.19-.11-.19h-9.42c1.39.76,3.22,1.61,5.47,2.55Z"/>
      <path class="cls-2" d="m388.97,36.67c-2.84,1.39-4.78,2.09-5.81,2.09-.58,0-1.12-.32-1.6-.95-.48-.63-.72-1.33-.72-2.09,0-.81.77-1.51,2.32-2.09,3.57-1.32,6.69-3.05,9.35-5.21,1.47-1.22,2.81-2.48,4.03-3.8.94-1.04,1.72-1.56,2.36-1.56.81,0,1.54.3,2.2.91.58.51.87,1.05.87,1.63,0,.08-.01.17-.04.27.3.25.56.47.76.65,1.7,1.5,3.56,2.84,5.59,4.05,2.03,1.2,3.94,2.1,5.74,2.68,1.14.38,1.92.74,2.34,1.08.42.34.63.82.63,1.42,0,.81-.24,1.52-.72,2.13-.41.51-.87.76-1.41.76-1.11,0-3.13-.81-6.04-2.43v.34c0,.58-.19,1.08-.57,1.5-.38.42-.84.63-1.37.63h-16.04c-.51,0-.94-.19-1.29-.57-.35-.38-.54-.86-.57-1.44Zm.72,3.95h18.58c.94,0,1.65.08,2.15.25.49.17.94.48,1.35.93.35.41.59.8.7,1.2.11.39.17,1.02.17,1.88v8.32c0,.91-.08,1.6-.23,2.05s-.46.89-.91,1.29c-.43.35-.85.59-1.27.72-.42.13-1.07.19-1.96.19h-18.58c-.94,0-1.65-.08-2.15-.25-.49-.17-.94-.48-1.35-.93-.36-.41-.59-.8-.7-1.2-.11-.39-.17-1.02-.17-1.88v-8.32c0-.91.08-1.6.23-2.05.15-.46.46-.89.91-1.29.43-.35.86-.59,1.27-.72.42-.13,1.07-.19,1.96-.19Zm.57,5.74v5.36c0,.74.41,1.1,1.22,1.1h15.01c.81,0,1.22-.37,1.22-1.1v-5.36c0-.73-.41-1.1-1.22-1.1h-15.01c-.81,0-1.22.37-1.22,1.1Zm2.58-12.05h12.65c-1.62-.99-3.74-2.57-6.35-4.75-.96,1.01-3.07,2.6-6.31,4.75Z"/>
      <path class="cls-2" d="m438.67,29.87c.73,1.88,1.23,3.28,1.48,4.22h10.49c.56,0,1.04.23,1.44.7s.61,1.02.61,1.65-.2,1.17-.61,1.62-.89.67-1.44.67h-9.46c0,.08.01.18.04.3.15.96.3,2.09.46,3.38h10.98c.53,0,.99.23,1.37.68.38.46.57,1,.57,1.63s-.19,1.18-.57,1.63c-.38.46-.84.68-1.37.68h-10.79c0,3.52-.51,6.18-1.52,7.98-.58,1.01-1.38,1.74-2.39,2.19-1.01.44-2.38.67-4.1.67-2.74,0-4.69-.3-5.85-.91-1.04-.53-1.56-1.34-1.56-2.43,0-.68.2-1.25.59-1.69.39-.44.88-.67,1.46-.67.25,0,.9.1,1.94.3,1.09.23,2.13.34,3.12.34,1.82,0,2.74-1.92,2.74-5.78h-15.12c-.51,0-.94-.23-1.31-.68s-.55-1.01-.55-1.67c0-.61.18-1.14.55-1.6s.8-.68,1.31-.68h14.9c-.08-1.14-.24-2.37-.49-3.69h-11.93c-.63,0-1.17-.22-1.62-.67s-.67-.99-.67-1.65.22-1.21.67-1.65.98-.67,1.62-.67h10.91c-.33-1.17-.77-2.48-1.33-3.95l-3.84.15c-.96.03-1.94.04-2.93.04-2,0-3.24-.19-3.72-.57-.58-.48-.87-1.1-.87-1.86,0-1.54.94-2.32,2.81-2.32h2.24c3.65,0,7.54-.15,11.67-.44,4.13-.29,7.06-.63,8.78-1.01.79-.18,1.41-.27,1.86-.27.56,0,1.02.22,1.39.67.37.44.55,1.01.55,1.69,0,1.14-.48,1.89-1.44,2.24-.56.2-2.02.46-4.39.76-2.37.3-4.58.52-6.63.65Z"/>
      <path class="cls-2" d="m477.54,41.92v14.82c0,.48-.27.91-.82,1.29-.54.38-1.18.57-1.92.57s-1.32-.18-1.82-.55c-.51-.37-.76-.8-.76-1.31v-14.93c-2,3.12-4.4,6-7.18,8.66-2.38,2.28-4.07,3.42-5.05,3.42-.74,0-1.42-.35-2.05-1.06-.56-.63-.84-1.29-.84-1.98,0-.81.75-1.74,2.24-2.77,2.1-1.47,4.19-3.31,6.25-5.53s3.76-4.41,5.07-6.59h-10.56c-.56,0-1.03-.24-1.43-.72-.39-.48-.59-1.05-.59-1.71s.2-1.18.59-1.63.87-.68,1.43-.68h12.12v-6.08c0-.56.24-1.02.72-1.39.48-.37,1.09-.55,1.82-.55s1.38.2,1.94.59c.56.39.84.84.84,1.35v6.08h7.79c-.41-.13-1.04-.53-1.9-1.22-1.19-.99-1.98-1.73-2.38-2.22-.39-.49-.59-.99-.59-1.5,0-.56.23-1.06.68-1.52s.95-.68,1.48-.68c.4,0,.84.12,1.29.36.46.24,1.11.72,1.98,1.42,1.62,1.29,2.43,2.34,2.43,3.15,0,.53-.13,1-.4,1.41-.27.41-.61.67-1.04.8h3.04c.53,0,.99.23,1.39.7.39.47.59,1.03.59,1.69,0,1.32-.66,2.1-1.98,2.36h-10.91c1.77,2.76,3.62,5.13,5.55,7.11,1.92,1.98,4.14,3.75,6.65,5.32,1.01.66,1.52,1.36,1.52,2.09,0,.84-.33,1.61-.99,2.32-.56.61-1.14.91-1.75.91-1.52,0-3.85-1.58-6.99-4.75-1.77-1.77-3.6-4.12-5.47-7.03Z"/>
      <path class="cls-2" d="m522.27,42.68h-.34c-.15,0-.95.06-2.39.19-1.88.15-3.64.25-5.28.3h-.11c-.1.03-.19.04-.27.04,1.09.38,1.63,1.03,1.63,1.94v.99h10.53c.51,0,.94.21,1.31.65.37.43.55.93.55,1.48s-.18,1.03-.53,1.41c-.36.38-.8.57-1.33.57h-10.53v2.7h12.88c.46,0,.87.23,1.23.68s.55.98.55,1.56-.17,1.08-.51,1.5-.77.63-1.27.63h-30.82c-.53,0-.99-.22-1.37-.65s-.57-.94-.57-1.52.19-1.13.57-1.56c.38-.43.84-.65,1.37-.65h12.73v-2.7h-10.18c-.56,0-1.03-.2-1.42-.61-.39-.41-.59-.89-.59-1.44s.2-1.04.59-1.44c.39-.4.87-.61,1.42-.61h10.18v-.99c0-.81.46-1.43,1.37-1.86-.73.05-2.66.12-5.78.21-3.12.09-4.86.13-5.24.13-1.34,0-2.01-.82-2.01-2.47,0-.58.12-1.01.36-1.29.24-.28.75-.58,1.54-.91,1.29-.51,2.89-1.46,4.79-2.85h-3.57c-.53,0-.99-.19-1.37-.57-.38-.38-.58-.85-.61-1.41-.38.18-.76.27-1.14.27-.66,0-1.2-.18-1.63-.53-.43-.35-.65-.81-.65-1.37v-2.81c0-2.48,1.29-3.72,3.88-3.72h9.99l-.11-.34c-.1-.3-.15-.53-.15-.68,0-.51.29-.93.87-1.27.58-.34,1.28-.51,2.09-.51s1.39.21,1.82.63c.43.42.8,1.15,1.1,2.18h10.79c1.14,0,2.01.28,2.62.84.53.46.8,1.09.8,1.9,0,.76-.1,1.65-.3,2.66-.2,1.01-.42,1.77-.65,2.28-.33.66-.95.99-1.86.99-.41,0-.8-.08-1.18-.23-.08.51-.28.92-.61,1.24s-.72.47-1.18.47h-3.12c4.28,2.91,6.42,4.97,6.42,6.16,0,.51-.27,1.04-.82,1.61-.55.57-1.06.86-1.54.86s-1.14-.43-2.05-1.29c-.33-.28-.6-.51-.8-.68l-.04-.04s-.05-.04-.08-.04Zm2.51-10.56c.02-.13.06-.28.11-.46l.08-.19c.13-.35.19-.66.19-.91,0-.35-.18-.53-.53-.53h-22.72c-.36,0-.6.07-.74.21s-.21.37-.21.7v1.29c.28-.13.54-.19.8-.19h22.53c.15,0,.32.03.49.08Zm-6.69,7.18l-.04-.04-.04-.04c-.71-.56-1.06-1.05-1.06-1.48,0-.56.23-1.1.68-1.63h-5.21c-1.37,1.17-3.17,2.38-5.4,3.65,4.28-.08,7.97-.23,11.06-.46Z"/>
    </g>
  </g>
</svg>