<?xml version="1.0" encoding="UTF-8"?>
<svg id="_图层_2" data-name="图层 2" xmlns="http://www.w3.org/2000/svg" xmlns:xlink="http://www.w3.org/1999/xlink" viewBox="0 0 550.24 83.25">
  <defs>
    <style>
      .cls-1 {
        fill: #009ea7;
      }

      .cls-1, .cls-2 {
        stroke-width: 0px;
      }

      .cls-2 {
        fill: #fff;
      }

      .cls-3 {
        fill: url(#_未命名的渐变_4);
        opacity: .29;
        stroke: url(#_未命名的渐变_820);
        stroke-miterlimit: 10;
        stroke-width: .6px;
      }
    </style>
    <linearGradient id="_未命名的渐变_4" data-name="未命名的渐变 4" x1="5.27" y1="41.52" x2="546.23" y2="41.52" gradientUnits="userSpaceOnUse">
      <stop offset="0" stop-color="#79cfd8"/>
      <stop offset="0" stop-color="#79cfd8" stop-opacity=".92"/>
      <stop offset=".03" stop-color="#79cfd8" stop-opacity=".73"/>
      <stop offset=".06" stop-color="#7acfd8" stop-opacity=".55"/>
      <stop offset=".09" stop-color="#7acfd8" stop-opacity=".4"/>
      <stop offset=".12" stop-color="#7bcfd8" stop-opacity=".28"/>
      <stop offset=".16" stop-color="#7bcfd8" stop-opacity=".17"/>
      <stop offset=".2" stop-color="#7bcfd8" stop-opacity=".09"/>
      <stop offset=".25" stop-color="#7bcfd8" stop-opacity=".04"/>
      <stop offset=".33" stop-color="#7bcfd8" stop-opacity="0"/>
      <stop offset=".53" stop-color="#7cd0d9" stop-opacity="0"/>
      <stop offset=".72" stop-color="#7bcfd8" stop-opacity="0"/>
      <stop offset=".78" stop-color="#79cfd8" stop-opacity=".04"/>
      <stop offset=".83" stop-color="#75cdd7" stop-opacity=".1"/>
      <stop offset=".87" stop-color="#70ccd5" stop-opacity=".19"/>
      <stop offset=".9" stop-color="#6ac9d3" stop-opacity=".3"/>
      <stop offset=".93" stop-color="#62c6d1" stop-opacity=".43"/>
      <stop offset=".95" stop-color="#58c3ce" stop-opacity=".6"/>
      <stop offset=".98" stop-color="#4ebfcb" stop-opacity=".78"/>
      <stop offset="1" stop-color="#42bbc8" stop-opacity=".98"/>
      <stop offset="1" stop-color="#41bbc8"/>
    </linearGradient>
    <linearGradient id="_未命名的渐变_820" data-name="未命名的渐变 820" x1="4.97" y1="41.52" x2="546.53" y2="41.52" gradientUnits="userSpaceOnUse">
      <stop offset="0" stop-color="#fff"/>
      <stop offset="1" stop-color="#41bbc8"/>
    </linearGradient>
  </defs>
  <g id="_图层_1-2" data-name="图层 1">
    <g>
      <g>
        <g>
          <polygon class="cls-1" points="516.74 1.89 515.15 .3 545.65 .3 547.24 1.89 516.74 1.89"/>
          <path class="cls-1" d="m547.96,2.19h-31.34l-2.19-2.19h31.34l2.19,2.19Zm-31.09-.6h29.65l-.99-.99h-29.65l.99.99Z"/>
        </g>
        <path class="cls-1" d="m545.77,83.25H4.47l-4.47-4.47v-6.37h0V10.84h0v-6.37L4.47,0h508.27l3.39,3.39h33.04l1.08,1.08v6.37h0v61.57h0v6.37l-4.47,4.47Zm-541.06-.6h540.81l4.11-4.11v-5.52h0V10.24h0v-5.52l-.72-.72h-33.04l-3.39-3.39H4.71L.6,4.71v5.52h0v62.77h0v5.52l4.11,4.11Z"/>
      </g>
      <polygon class="cls-3" points="541.82 79.99 9.4 79.99 5.27 75.75 5.27 7.16 9.47 3.05 511.34 3.05 514.33 6.01 546.23 6.01 546.23 75.31 541.82 79.99"/>
    </g>
    <g>
      <path class="cls-2" d="m21.35,43.21l1.67-13.45h13.22v5.21h-8.32l-.46,3.95c5.95.71,8.93,3.33,8.93,7.87,0,2.28-.8,4.14-2.39,5.59-1.62,1.47-3.85,2.21-6.69,2.21s-5.69-.63-8.17-1.9l1.9-4.94c2.18,1.09,4.13,1.63,5.85,1.63,1.95,0,2.93-.87,2.93-2.62,0-2.36-2.82-3.53-8.47-3.53Z"/>
      <path class="cls-2" d="m40.01,51.83c0-.94.3-1.68.91-2.24.56-.51,1.28-.76,2.17-.76,1.01,0,1.81.26,2.38.78s.85,1.25.85,2.19-.28,1.68-.84,2.22c-.56.54-1.32.82-2.28.82s-1.77-.27-2.34-.8c-.57-.53-.85-1.27-.85-2.2Z"/>
      <path class="cls-2" d="m51.87,37.01l-3.04-4.1c1.06-.96,2.32-1.77,3.76-2.43,1.85-.81,3.79-1.22,5.81-1.22,2.36,0,4.18.65,5.47,1.94,1.06,1.06,1.6,2.41,1.6,4.03,0,2.23-.99,4.03-2.96,5.4,1.04.86,1.85,1.84,2.43,2.94.58,1.1.87,2.24.87,3.4,0,2.33-.8,4.18-2.39,5.55-1.57,1.37-3.74,2.05-6.5,2.05-1.37,0-2.8-.18-4.29-.55-1.5-.37-2.77-.84-3.84-1.43l1.71-5.02c.86.46,1.89.85,3.1,1.18,1.2.33,2.2.49,2.98.49,1.87,0,2.81-.66,2.81-1.98,0-.94-.51-2.04-1.52-3.3-1.19.4-2.56.75-4.1,1.03l-1.48-4.6c2.36-.48,4.01-.97,4.98-1.48,1.17-.61,1.75-1.37,1.75-2.28,0-1.27-.67-1.9-2.01-1.9s-3.08.76-5.13,2.28Z"/>
      <path class="cls-2" d="m94.58,38.31c-.33.63-.77.95-1.33.95h-3.69v3.12h3.27c.43,0,.82.25,1.16.74.34.49.51,1.07.51,1.73s-.17,1.22-.49,1.69-.72.7-1.18.7h-3.27v5.05c1.77.51,5.02.76,9.73.76.53,0,3.05-.03,7.56-.08l3.53-.04.19-.04c.68,0,1.22.2,1.6.59.38.39.57.94.57,1.65s-.22,1.32-.67,1.75c-.44.43-1.06.66-1.84.68-.89.05-5,.08-12.35.08-3.39,0-6.05-.17-7.98-.51-1.93-.34-3.52-.92-4.79-1.73-.63-.43-1.57-1.28-2.81-2.55-.51,1.88-1.04,3.36-1.6,4.45-.33.61-.9.91-1.71.91-.66,0-1.22-.17-1.69-.49-.47-.33-.7-.72-.7-1.18,0-.38.06-.8.19-1.25.13-.46.48-1.6,1.06-3.42.23-.76.47-1.78.72-3.06.25-1.28.4-2.27.46-2.98.13-1.52.24-2.74.34-3.65.05-.73.21-1.22.49-1.46.28-.24.8-.36,1.56-.36.86,0,1.45.16,1.77.48.32.32.47.9.47,1.77,0,.2-.05.85-.15,1.94-.03.53-.08,1.26-.15,2.17v.12c.71,1.06,1.32,1.88,1.82,2.43v-9.99h-6.23c-.43,0-.82-.25-1.16-.74-.34-.49-.51-1.06-.51-1.69s.16-1.18.49-1.63c.33-.46.72-.68,1.18-.68h4.86v-2.62h-3.57c-.51,0-.95-.24-1.33-.72-.38-.48-.57-1.05-.57-1.71s.18-1.21.55-1.65c.37-.44.82-.66,1.35-.66h3.57v-2.28c0-.51.23-.94.68-1.29s1-.53,1.63-.53,1.18.18,1.63.53c.46.36.68.79.68,1.29v2.28h3.65c.51,0,.95.24,1.33.72.38.48.57,1.04.57,1.67s-.18,1.22-.55,1.67c-.37.46-.82.69-1.35.69h-3.65v2.62h4.79c.58,0,1.04.38,1.37,1.14.13-.15.53-.51,1.22-1.06,1.14-.91,1.92-2.01,2.36-3.31.15-.51.32-1.38.49-2.62h-2.32c-.51,0-.93-.2-1.27-.59-.34-.39-.51-.89-.51-1.5s.17-1.15.51-1.56c.34-.4.77-.61,1.27-.61h11.13c2.74,0,4.1,1.2,4.1,3.61,0,1.27-.08,2.78-.25,4.54-.17,1.76-.32,2.93-.48,3.52-.33,1.14-.89,1.96-1.69,2.45s-1.96.74-3.48.74c-2.74,0-4.1-.84-4.1-2.51,0-.51.13-.96.4-1.37.27-.41.56-.61.89-.61.23,0,.7.06,1.41.19.2.03.41.04.61.04.79,0,1.33-.28,1.63-.84.1-.2.17-.5.21-.89s.12-1.65.25-3.78c-.03-.3-.13-.52-.3-.65-.18-.13-.49-.19-.95-.19h-2.7c-.2,2.61-.66,4.65-1.37,6.12-.73,1.52-1.61,2.71-2.62,3.57-.89.73-1.76,1.1-2.62,1.1s-1.46-.38-1.86-1.14Zm12.84,13.95h-8.36c-1.34,0-2.31-.28-2.91-.84-.6-.56-.89-1.48-.89-2.77v-5.43c0-1.29.3-2.22.89-2.78.59-.56,1.56-.84,2.91-.84h8.36c1.34,0,2.31.29,2.91.86.59.57.89,1.49.89,2.76v5.43c0,1.29-.29,2.22-.87,2.77s-1.56.84-2.93.84Zm-.57-5.24v-2.24c0-.35-.08-.65-.25-.87-.17-.23-.37-.34-.63-.34h-5.47c-.25,0-.46.12-.63.36-.17.24-.25.55-.25.93v2.17c0,.38.08.69.25.93.16.24.37.36.63.36h5.47c.25,0,.46-.12.63-.36.16-.24.25-.55.25-.93Z"/>
      <path class="cls-2" d="m135.58,36.06c.05.08.13.25.23.53,1.39,3.34,3.08,6.27,5.05,8.78,2.23,2.81,4.33,4.86,6.31,6.15,2.23,1.5,3.34,2.66,3.34,3.5s-.34,1.65-1.03,2.43c-.56.68-1.13,1.03-1.71,1.03-.68,0-1.75-.58-3.19-1.73-1.44-1.15-3.1-2.76-4.98-4.81-2.46-2.68-4.55-5.72-6.27-9.12-1.67,4.1-4.26,7.71-7.75,10.83-1.47,1.29-2.96,2.4-4.46,3.32-1.51.93-2.59,1.39-3.25,1.39s-1.34-.44-1.98-1.33c-.56-.76-.84-1.52-.84-2.28,0-.46.16-.86.49-1.21.33-.36.89-.75,1.67-1.18,7.12-3.85,11.25-9.28,12.39-16.3h-11.78c-.63,0-1.15-.23-1.56-.7-.41-.47-.61-1.06-.61-1.77s.21-1.27.63-1.75c.42-.48.93-.72,1.54-.72h12.27v-5.28c0-.73.24-1.34.72-1.8.48-.47,1.11-.7,1.9-.7s1.39.21,1.88.65c.49.43.74.97.74,1.63v5.51h12.69c.56,0,1.03.23,1.41.7.38.47.57,1.06.57,1.77s-.18,1.33-.55,1.79c-.37.46-.84.68-1.42.68h-12.46Z"/>
      <path class="cls-2" d="m167.65,42.79c.66,2.1.99,4.27.99,6.5,0,3.19-.76,5.44-2.28,6.73-1.44,1.27-3.31,1.9-5.59,1.9-1.8,0-3.29-.27-4.48-.8-1.32-.58-1.98-1.42-1.98-2.51,0-.68.2-1.26.59-1.73.39-.47.85-.7,1.39-.7.48,0,1.23.17,2.24.49.96.3,1.75.46,2.36.46,1.65,0,2.47-1.37,2.47-4.11,0-1.65-.27-3.34-.8-5.09-1.12.23-2.43.46-3.95.68-1.52.23-2.52.34-3,.34-.71,0-1.27-.24-1.67-.72-.41-.48-.61-1.17-.61-2.05,0-.84.21-1.41.65-1.71.25-.15.56-.27.91-.36.35-.09,1.17-.22,2.43-.4.99-.15,1.9-.3,2.74-.46-.05-.08-.11-.15-.19-.23l-.04-.04c-.81-1.09-1.22-1.93-1.22-2.51,0-.51.18-1.03.53-1.56s.99-1.25,1.9-2.17c1.72-1.65,2.58-2.54,2.58-2.7,0-.1-.08-.15-.23-.15h-6.99c-.63,0-1.17-.23-1.62-.7-.44-.47-.67-1.04-.67-1.73s.21-1.29.65-1.75c.43-.46.98-.68,1.63-.68h11.13c2.1,0,3.15.91,3.15,2.73,0,.56-.1,1.05-.3,1.48-.2.43-.58.95-1.14,1.56-1.42,1.6-2.69,2.94-3.8,4.03-.79.76-1.18,1.22-1.18,1.37s.2.47.61.95c.18.23.38.53.61.91,2.91-.81,4.57-1.22,4.98-1.22.51,0,.95.29,1.33.86s.57,1.23.57,2c0,.58-.18,1.06-.53,1.42-.36.37-.96.69-1.82.97-.89.28-1.67.51-2.36.68Zm4.94,8.29v-25.69c0-.58.25-1.08.74-1.5s1.11-.63,1.84-.63,1.36.21,1.86.63c.51.42.76.92.76,1.5v25.46c0,.56.22.99.67,1.31.44.32,1.07.48,1.88.48,1.39,0,2.25-.24,2.58-.72.23-.3.37-.77.44-1.41.06-.63.12-1.86.17-3.69.05-2.15.85-3.23,2.39-3.23.76,0,1.37.24,1.82.72.46.48.68,1.13.68,1.94,0,2.3-.2,4.6-.61,6.88-.3,1.75-1.1,2.99-2.39,3.72-.96.56-2.67.84-5.13.84-1.8,0-3.17-.12-4.12-.36-.95-.24-1.72-.65-2.3-1.23-.51-.53-.85-1.15-1.03-1.84-.18-.7-.27-1.75-.27-3.17Z"/>
      <path class="cls-2" d="m199.65,39.86v16.83c0,.53-.23.99-.7,1.37-.47.38-1.03.57-1.69.57s-1.17-.19-1.62-.57c-.44-.38-.67-.84-.67-1.37v-11.7c-.68.53-1.29.8-1.82.8-.61,0-1.17-.29-1.67-.88-.51-.58-.76-1.22-.76-1.9,0-.38.09-.69.27-.93.18-.24.63-.72,1.37-1.43,2.1-2,3.86-4.17,5.28-6.5.63-1.04,1.25-1.56,1.86-1.56.73,0,1.42.25,2.05.76.56.46.84.93.84,1.41,0,.96-.91,2.66-2.74,5.09Zm2.2-14.29c0,.53-.58,1.61-1.73,3.23-1.15,1.62-2.32,3.01-3.52,4.18-1.17,1.12-2.17,1.67-3,1.67-.56,0-1.09-.29-1.6-.88-.51-.58-.76-1.19-.76-1.82,0-.3.08-.57.25-.8.16-.23.55-.62,1.16-1.18,1.32-1.22,2.74-2.94,4.26-5.17.68-1.01,1.35-1.52,2.01-1.52.81,0,1.52.25,2.13.76.53.46.8.96.8,1.52Zm14.02,21.58v5.51h8.85c.53,0,.98.23,1.35.68.37.46.55,1,.55,1.63s-.18,1.18-.55,1.65c-.37.47-.82.7-1.35.7h-22.38c-.48,0-.9-.23-1.25-.7-.35-.47-.53-1.02-.53-1.65s.18-1.18.53-1.63c.35-.46.77-.68,1.25-.68h8.59v-5.51h-6.92c-.48,0-.9-.23-1.25-.7s-.53-1.02-.53-1.65.18-1.18.53-1.63c.35-.46.77-.68,1.25-.68h18.81c.53,0,.98.23,1.35.68.37.46.55,1,.55,1.63s-.18,1.18-.55,1.65-.82.7-1.35.7h-6.95Zm2.77-12.81c.28.08,1.77.61,4.48,1.6,2.18.81,3.27,1.67,3.27,2.58,0,.69-.27,1.34-.8,1.98-.43.53-.87.8-1.33.8-.48,0-1.06-.14-1.75-.42-2.96-1.27-5.89-2.34-8.78-3.23-1.85.99-3.86,1.88-6.02,2.68-2.17.8-3.68,1.2-4.54,1.2-.56,0-1.04-.29-1.44-.87-.41-.58-.61-1.27-.61-2.05,0-.56.23-1,.68-1.33.46-.33,1.32-.67,2.58-1.03,2.36-.63,4.89-1.77,7.6-3.42,2.28-1.39,3.42-2.39,3.42-3,0-.25-.11-.38-.34-.38h-10.87c-.51,0-.93-.21-1.27-.64-.34-.43-.51-.96-.51-1.6s.18-1.22.53-1.69c.35-.47.79-.7,1.29-.7h15.16c1.19,0,2.11.33,2.77.99.56.56.84,1.29.84,2.2,0,1.93-1.46,4.04-4.37,6.35Z"/>
      <path class="cls-2" d="m232.98,34.5h-1.94c-.51,0-.94-.23-1.31-.68-.37-.46-.55-.99-.55-1.6s.18-1.16.53-1.58c.35-.42.8-.63,1.33-.63h2.32v-4.6c0-.61.21-1.12.63-1.52s.94-.61,1.58-.61,1.18.21,1.65.63.7.92.7,1.5v4.6h2.01c.53,0,.98.21,1.33.63.35.42.53.95.53,1.58s-.18,1.14-.55,1.6c-.37.46-.8.68-1.31.68h-2.01v1.06c.1-.03.18-.04.23-.04.46,0,.87.27,1.25.8.43.61.95,1.69,1.56,3.23.61,1.54.91,2.57.91,3.08,0,.43-.22.83-.67,1.2-.44.37-.92.55-1.43.55-.68,0-1.2-.49-1.56-1.48-.13-.38-.23-.7-.3-.95v14.67c0,.56-.23,1.03-.7,1.43s-1.03.59-1.69.59-1.15-.19-1.56-.55c-.41-.37-.61-.86-.61-1.46v-11.21c-.48,1.27-.93,2.15-1.33,2.64-.41.49-.87.74-1.41.74s-1.06-.22-1.52-.67c-.46-.44-.68-.93-.68-1.46,0-.48.35-1.42,1.06-2.81.56-1.09,1.18-2.56,1.86-4.41.68-1.85,1.23-3.5,1.63-4.94Zm16.72,9.84h-4.07c-.74,0-1.29-.06-1.65-.19-.37-.13-.72-.37-1.05-.72-.28-.33-.47-.66-.57-.99-.1-.33-.15-.81-.15-1.44v-5.51c0-.68.06-1.21.19-1.58.13-.37.37-.72.72-1.05.33-.3.66-.5.99-.59.33-.09.84-.13,1.52-.13h13.26c.76,0,1.34.06,1.73.19.39.13.75.37,1.08.72.3.33.51.66.61.99.1.33.15.81.15,1.44v5.47c0,.71-.07,1.25-.21,1.61-.14.37-.39.72-.74,1.05-.33.28-.67.47-1.03.57-.36.1-.87.15-1.56.15h-4.6c.05.23.08.48.08.76,0,.33-.04.71-.11,1.14h8.25c.56,0,1.02.19,1.39.57.37.38.55.85.55,1.41,0,1.19-.65,1.86-1.94,2.01h-6.99c1.85,1.67,4.09,2.85,6.73,3.53.96.25,1.61.53,1.96.84.34.3.51.75.51,1.33,0,.71-.2,1.31-.59,1.8-.39.49-.86.74-1.39.74-.81,0-2.01-.31-3.59-.93s-2.89-1.29-3.93-1.99c-1.17-.81-2.27-1.81-3.31-3-.51.73-1.05,1.38-1.63,1.94-1.09,1.04-2.58,2-4.48,2.89-1.65.76-2.94,1.14-3.88,1.14-.58,0-1.1-.27-1.54-.82-.44-.54-.67-1.17-.67-1.88,0-.61.18-1.06.53-1.37.2-.15.4-.27.61-.34.2-.08.8-.28,1.79-.61,2.3-.73,3.99-1.82,5.05-3.27h-5.93c-.48,0-.89-.2-1.24-.59-.34-.39-.51-.85-.51-1.39s.17-1.03.51-1.42c.34-.39.75-.59,1.24-.59h7.56c.02-.15.08-.54.15-1.18.02-.23.09-.47.19-.72Zm-4.41-18.58v-.99c0-.51.2-.91.61-1.21.4-.3.94-.46,1.6-.46.71,0,1.28.15,1.71.46.43.3.65.71.65,1.21v.99h4.33v-.99c0-.46.22-.84.67-1.16s.99-.47,1.65-.47,1.2.15,1.62.46c.42.3.63.7.63,1.18v.99h3.99c.48,0,.88.18,1.2.55.32.37.48.84.48,1.43s-.17,1.12-.49,1.52c-.33.41-.72.61-1.18.61h-3.99v.46c0,.43-.23.82-.7,1.16-.47.34-1.01.51-1.62.51s-1.1-.16-1.56-.49c-.46-.33-.68-.72-.68-1.18v-.46h-4.33v.61c0,.4-.23.76-.68,1.06-.46.3-1,.46-1.63.46s-1.17-.15-1.6-.46c-.43-.3-.65-.66-.65-1.06v-.61h-2.85c-.51,0-.93-.2-1.27-.59s-.51-.88-.51-1.46.17-1.07.51-1.46.77-.59,1.27-.59h2.85Zm1.48,11.13h10.98v-.15c0-.91-.43-1.37-1.29-1.37h-8.74c-.63,0-.95.28-.95.84v.68Zm10.98,2.66h-10.98v.72c0,.56.32.84.95.84h8.85c.78,0,1.18-.48,1.18-1.44v-.11Z"/>
      <path class="cls-2" d="m275.54,29.72h1.67c.46,0,.85.23,1.2.7.34.47.51,1.02.51,1.65s-.17,1.14-.51,1.6c-.34.46-.74.68-1.2.68h-1.67v5.36c.13-.05.25-.1.38-.15.58-.25,1.03-.38,1.33-.38.43,0,.82.27,1.16.82.34.55.51,1.16.51,1.84,0,.61-.25,1.15-.76,1.62-.51.47-1.38.94-2.62,1.43v9.04c0,1.85-.61,3.12-1.82,3.8-.63.35-1.57.53-2.81.53-1.37,0-2.36-.2-2.96-.61-.61-.41-.91-1.06-.91-1.98,0-1.57.63-2.36,1.9-2.36.13,0,.42.05.87.15h.19c.25,0,.46-.07.63-.21.16-.14.25-.31.25-.51v-6.57l-.76.15c-.51.08-.91.11-1.22.11-.61,0-1.1-.23-1.48-.7-.38-.47-.57-1.1-.57-1.88,0-.89.24-1.49.72-1.82.23-.15.98-.34,2.24-.57.25-.05.61-.14,1.06-.27v-6.84h-2.13c-.48,0-.91-.25-1.27-.74s-.55-1.04-.55-1.65.18-1.17.53-1.6c.35-.43.78-.64,1.29-.64h2.13v-4.29c0-1.47.77-2.2,2.32-2.2s2.36.73,2.36,2.2v4.29Zm8.82,14.4c.96-.46,1.6-.78,1.92-.99.32-.2.94-.63,1.88-1.29.46-.33.94-.49,1.44-.49.58,0,1.09.22,1.52.67.43.44.65.98.65,1.62,0,.56-.27,1.13-.8,1.73s-1.42,1.3-2.66,2.11c-1.37.89-2.8,1.67-4.29,2.36-1.5.68-2.55,1.03-3.15,1.03-.48,0-.94-.27-1.37-.82-.43-.54-.65-1.1-.65-1.65,0-.25.19-.72.57-1.41.2-.41.3-1.09.3-2.05v-18.01c0-.99.1-1.65.3-1.98.4-.71,1.06-1.06,1.98-1.06.71,0,1.28.22,1.71.67.43.44.65,1.02.65,1.73v17.86Zm12.73,3.61c2.13,2.48,3.55,4.27,4.27,5.36.72,1.09,1.08,2.01,1.08,2.77,0,.63-.28,1.2-.84,1.71-.56.51-1.18.76-1.86.76s-1.39-.56-2.13-1.67c-1.04-1.65-2.19-3.27-3.46-4.86-1.55,1.72-3.6,3.29-6.16,4.71-2.18,1.22-3.9,1.82-5.17,1.82-.61,0-1.15-.29-1.62-.86s-.7-1.23-.7-1.99c0-.68.21-1.22.63-1.62s1.18-.78,2.3-1.16c1.77-.61,3.46-1.52,5.05-2.74,1.6-1.22,2.86-2.55,3.8-3.99,1.14-1.72,1.95-3.92,2.43-6.59.48-2.67.72-6.35.72-11.04v-2.96c0-.56.21-1.03.65-1.43s.96-.59,1.6-.59,1.22.2,1.69.59.7.86.7,1.39v4.1c0,4.66-.22,8.34-.67,11.02-.44,2.69-1.22,5.1-2.34,7.26Zm-9.77-21.13c.61,0,1.13.24,1.56.72,1.27,1.34,2.39,2.89,3.38,4.64.84,1.52,1.25,2.66,1.25,3.42,0,.46-.2.87-.61,1.23-.41.37-.85.55-1.33.55s-.97-.16-1.54-.47c-.57-.32-1.01-.69-1.31-1.12-.08-.13-.35-.61-.84-1.44-.1-.18-.47-.76-1.1-1.75l-.76-1.25-.04-.08c-.05-.08-.1-.17-.15-.27-.63-.96-.95-1.67-.95-2.13,0-.51.26-.97.78-1.41.52-.43,1.07-.65,1.65-.65Z"/>
      <path class="cls-2" d="m320.83,51.57v-12.54h-9.8c-.56,0-1.03-.23-1.42-.68-.39-.46-.59-1.01-.59-1.67,0-.38.09-.73.27-1.06-.25.03-.47.04-.65.04-.71,0-1.3-.2-1.77-.59-.47-.39-.7-.88-.7-1.46v-2.74c0-2.84,1.43-4.26,4.29-4.26h9.54c-.03-.15-.05-.29-.08-.42-.18-.56-.27-.97-.27-1.25,0-.48.3-.89.89-1.23.59-.34,1.32-.51,2.19-.51s1.57.27,2.05.8c.48.53.84,1.41,1.06,2.62h10.3c1.49,0,2.49.42,3,1.25.38.63.57,1.33.57,2.09,0,.91-.15,1.97-.46,3.17-.3,1.2-.62,1.95-.95,2.22-.35.3-.87.46-1.56.46.13.3.19.6.19.87,0,.68-.2,1.25-.61,1.69s-.92.66-1.56.66h-8.74v3.88h8.7c.58,0,1.08.21,1.48.65.41.43.61.96.61,1.6s-.2,1.17-.59,1.6c-.39.43-.89.65-1.5.65h-8.7v5.32c1.09.07,2.46.11,4.1.11,1.95,0,4.47-.06,7.56-.19h.27c.71,0,1.27.2,1.69.59s.63.93.63,1.62c0,.53-.19,1.03-.57,1.5-.38.47-.85.78-1.41.93-.51.15-4.09.23-10.75.23-2.38,0-4.32-.18-5.81-.53-1.5-.36-2.93-.96-4.29-1.82-1.22-.79-2.43-1.93-3.65-3.42-.25.66-.58,1.39-.99,2.2-1.47,2.96-2.88,4.45-4.22,4.45-.79,0-1.52-.28-2.2-.84-.56-.48-.84-.97-.84-1.48,0-.38.1-.75.29-1.1.19-.35.73-1.15,1.62-2.39.71-.96,1.37-2.33,1.98-4.11.61-1.77,1.05-3.53,1.33-5.28.13-.96.35-1.62.68-1.98.33-.35.85-.53,1.56-.53.81,0,1.49.19,2.03.57.54.38.82.86.82,1.44,0,.66-.2,1.94-.61,3.84v.15c1.75,2.33,3.61,3.96,5.59,4.9Zm13.3-17.18c-.05-.13-.08-.23-.08-.3,0-.25.05-.56.15-.91.2-.71.3-1.18.3-1.41,0-.38-.28-.57-.84-.57l-21.2.04c-.41,0-.73.09-.99.27-.25.18-.38.41-.38.68v1.41c0,.25-.05.52-.15.8h23.18Z"/>
      <path class="cls-2" d="m352.11,32.41v24.02c0,.61-.26,1.13-.78,1.58-.52.44-1.13.66-1.84.66s-1.32-.22-1.82-.66c-.51-.44-.76-.97-.76-1.58v-16.15c-.66.56-1.27.84-1.82.84-.68,0-1.3-.25-1.84-.76-.54-.51-.82-1.09-.82-1.75,0-.61.56-1.61,1.67-3,.84-1.01,1.74-2.41,2.72-4.18.98-1.77,1.69-3.28,2.15-4.52.48-1.39.94-2.36,1.37-2.89.43-.53.98-.8,1.63-.8.76,0,1.44.27,2.05.8.51.48.76.99.76,1.52,0,.89-.38,2.1-1.14,3.65-.15.28-.41.81-.76,1.6-.2.46-.46,1-.76,1.63Zm13.26,19.99l.95-2.58c.46-1.22,1.03-3.05,1.71-5.51s1.08-4.08,1.18-4.87c.3-1.85.67-3.12,1.08-3.82s1.03-1.04,1.84-1.04,1.54.25,2.13.76c.48.43.72.94.72,1.52,0,1.12-.45,3.37-1.35,6.77s-1.82,6.32-2.75,8.78h5.81c.3,0,.61.08.91.25.3.17.53.36.68.59.1.2.28.73.53,1.6,0,.15-.1.46-.28.93-.19.47-.35.78-.48.93-.3.38-.76.57-1.37.57h-21.74c-.53,0-1-.25-1.41-.74s-.61-1.06-.61-1.69.2-1.23.59-1.71c.39-.48.87-.72,1.42-.72h10.41Zm-2.66-23.83c-.03-.08-.06-.2-.11-.38-.03-.05-.09-.23-.19-.53l-.38-1.06c-.18-.51-.27-1.01-.27-1.52,0-.61.27-1.09.8-1.44.53-.36,1.27-.53,2.2-.53.51,0,.94.2,1.31.61.37.4.73,1.09,1.08,2.05.2.53.47,1.47.8,2.81h7.18c.63,0,1.18.25,1.63.74.46.49.68,1.08.68,1.77s-.22,1.22-.67,1.67c-.44.46-.99.68-1.65.68h-18.77c-.63,0-1.18-.24-1.63-.72-.46-.48-.68-1.04-.68-1.67,0-.69.23-1.27.68-1.75.46-.48,1-.72,1.63-.72h6.35Zm1.41,19.99c-.03.66-.28,1.18-.76,1.58-.48.39-1.1.59-1.86.59-.94,0-1.6-.47-1.98-1.41-.33-.76-1.03-3.28-2.09-7.56-.43-1.57-.7-2.63-.8-3.19-.1-.56-.15-1.13-.15-1.71,0-.73.22-1.3.65-1.71.43-.4,1.04-.61,1.82-.61.68,0,1.2.2,1.56.61.35.4.73,1.25,1.14,2.54.61,1.88,1.33,4.75,2.17,8.63l.3,2.24Z"/>
      <path class="cls-2" d="m383.3,44.8c-.18.08-.34.11-.49.11-.61,0-1.17-.25-1.67-.74s-.76-1.02-.76-1.58c0-.48.34-1.29,1.03-2.43.96-1.62,1.7-3.14,2.2-4.56.51-1.42,1.03-3.44,1.56-6.08h-2.01c-.58,0-1.04-.21-1.39-.63-.34-.42-.51-.97-.51-1.65s.17-1.27.51-1.67c.34-.4.8-.61,1.39-.61h8.97c.58,0,1.05.21,1.41.63.35.42.53.97.53,1.65,0,.28-.05.57-.15.87.23-.12.47-.19.72-.19h3.57c-.1-.2-.19-.38-.27-.53-.68-1.19-1.03-2.06-1.03-2.62,0-.46.32-.89.95-1.29s1.3-.61,2.01-.61c.43,0,.79.13,1.06.38.28.25.59.75.95,1.48.73,1.42,1.22,2.48,1.44,3.19h3v-.04c.05-.1.1-.2.15-.3.4-.86.71-1.53.91-2.01.35-.94.68-1.57.99-1.9.3-.33.71-.49,1.22-.49.79,0,1.48.2,2.09.61.53.33.8.69.8,1.06,0,.53-.38,1.56-1.14,3.08h3.42c.51,0,.93.23,1.27.68.34.46.51,1,.51,1.63s-.17,1.17-.51,1.6c-.34.43-.77.65-1.27.65h-4.26c.41.33.61.65.61.95,0,.56-.35,1.63-1.04,3.23-.7,1.6-1.53,3.21-2.49,4.83.58-.08,1.01-.13,1.29-.15.35-.05.75-.11,1.18-.19.43-1.06.79-2.03,1.06-2.89.25-.71.51-1.21.76-1.5.25-.29.57-.44.95-.44.63,0,1.21.2,1.73.59s.78.83.78,1.31c0,.53-.38,1.75-1.14,3.67-.76,1.91-1.61,3.78-2.55,5.61.4-.2.84-.3,1.29-.3.71,0,1.26.29,1.65.88s.77,1.66,1.12,3.23c.08.3.28,1.15.61,2.54.28,1.12.42,2.05.42,2.81,0,1.12-.72,1.67-2.17,1.67-.53,0-.93-.12-1.2-.36-.27-.24-.45-.68-.55-1.31-.08-.33-.13-.58-.15-.76l-1.18.23-.53.11-.34.08c-.79.15-1.24.24-1.37.27-1.34.3-2.5.46-3.46.46-.28,0-.53-.11-.76-.34v.19c0,.46-.19.83-.57,1.12-.38.29-.9.44-1.56.44-.58,0-1-.14-1.25-.44-.25-.29-.43-.83-.53-1.62v-.19l-1.33.3c-.68.15-1.13.27-1.33.34-1.77.46-3.18.68-4.22.68-.81,0-1.43-.73-1.86-2.2-.33.3-.66.51-.99.61-.33.1-.86.15-1.6.15h-3.42c-2.05,0-3.08-1.29-3.08-3.88v-7.41Zm3.61-3.84v9.31c0,.84.3,1.25.91,1.25h.99c.61,0,.91-.42.91-1.25v-9.31c0-.89-.3-1.33-.91-1.33h-.99c-.61,0-.91.44-.91,1.33Zm1.29-5.89h1.71c.73,0,1.27.06,1.62.19.34.13.68.37,1.01.72.33.38.54.77.65,1.16.1.39.15.99.15,1.8v2.17c.05-.07.21-.35.49-.84.94-1.47,1.99-3.88,3.15-7.22.08-.23.15-.42.23-.57h-2.58c-.51,0-.93-.21-1.27-.65-.34-.43-.51-.96-.51-1.6,0-.28.05-.58.15-.91-.25.13-.54.19-.87.19h-2.62l-.3,1.63c-.25,1.22-.58,2.52-.99,3.91Zm5.13,17.1l.23-.27c.63-.68,1.13-1.32,1.48-1.92.35-.59,1.28-2.35,2.77-5.26-1.34.2-2.25.3-2.74.3-.76,0-1.34-.51-1.75-1.52v8.66Zm6.42-2.66c-.28.51-.57,1-.87,1.48l-.42.61-.8,1.48,1.52-.34c.08-.03.48-.13,1.22-.3l-.11-.46-.08-.46c-.08-.35-.2-.9-.38-1.63v-.12c-.03-.08-.05-.16-.08-.27Zm7.9-17.02h-6.42c.02.1.04.18.04.23,0,.61-.33,1.68-.99,3.21-.66,1.53-1.51,3.21-2.55,5.04l.87-.12c.28-.03.47-.05.57-.08.18,0,.33-.01.46-.04h.04l.3-.8c.33-.79.58-1.39.76-1.82.43-1.16.94-1.75,1.52-1.75.63,0,1.22.22,1.75.65.53.43.8.89.8,1.37,0,.2-.05.46-.15.76.53-1.06,1.14-2.52,1.82-4.37.4-1.09.8-1.85,1.18-2.28Zm-4.67,10.68l-.53,1.18c-.68,1.45-1.31,2.69-1.86,3.72.41-.18.82-.27,1.25-.27.71,0,1.22.29,1.52.87.25.51.56,1.62.91,3.34.02-.02.08-.09.15-.19.08-.1.14-.19.19-.27,1.06-1.47,2.28-3.61,3.65-6.42-1.39.28-2.51.42-3.34.42-.46,0-.87-.22-1.23-.67-.37-.44-.6-1.02-.7-1.73Zm7.83,5.85c-.13.25-.37.68-.72,1.29l-.49.53-.95,1.71,1.63-.34c.43-.08.85-.17,1.25-.27-.46-1.44-.7-2.42-.72-2.93Z"/>
      <path class="cls-2" d="m427.42,41.65v-6.61h-4.75c-.51,0-.95-.23-1.33-.68-.38-.46-.57-1-.57-1.63s.19-1.2.57-1.69.82-.74,1.33-.74h4.75v-5.05c0-.56.25-1.03.76-1.41s1.11-.57,1.82-.57,1.32.19,1.84.57.78.85.78,1.41v5.05h8.17v-5.05c0-.56.25-1.03.76-1.41s1.13-.57,1.86-.57,1.35.19,1.84.57c.49.38.74.85.74,1.41v5.05h5.05c.53,0,1.01.25,1.43.74s.63,1.06.63,1.69-.2,1.18-.61,1.63c-.41.46-.89.68-1.44.68h-5.05v6.61h6.57c.56,0,1.03.23,1.42.7.39.47.59,1.04.59,1.73,0,.63-.2,1.18-.59,1.63-.39.46-.87.68-1.42.68h-31.43c-.56,0-1.02-.22-1.39-.67-.37-.44-.55-.99-.55-1.65s.19-1.26.57-1.73.84-.7,1.37-.7h6.27Zm-4.98,16.79c-.71,0-1.31-.25-1.79-.74-.48-.49-.72-1.11-.72-1.84,0-.48.06-.84.17-1.06.11-.23.37-.52.78-.88.56-.48,2.32-1.75,5.28-3.8.84-.58,1.58-1.14,2.24-1.67,1.27-1.09,2.22-1.63,2.85-1.63.79,0,1.49.32,2.13.95.53.53.8,1.12.8,1.75,0,.53-.2,1.03-.61,1.5-.41.47-1.36,1.3-2.85,2.49-1.06.86-2.6,1.95-4.6,3.27-1.04.69-1.8,1.13-2.28,1.35s-.95.32-1.41.32Zm10.18-23.41v6.61h8.17v-6.61h-8.17Zm9.42,11.89c.53,0,1.27.27,2.22.8.95.53,2.81,1.73,5.57,3.61,2.33,1.54,3.5,2.84,3.5,3.88,0,.76-.33,1.48-.99,2.17-.58.61-1.15.91-1.71.91-.51,0-1.41-.47-2.7-1.41-1.67-1.24-3.66-2.6-5.97-4.07-1.75-1.12-2.62-2.08-2.62-2.89,0-.71.35-1.47,1.06-2.28.4-.48.95-.72,1.63-.72Z"/>
      <path class="cls-2" d="m465.54,29.72h1.98c.43,0,.81.23,1.14.7.33.47.49,1.02.49,1.65s-.17,1.14-.49,1.6c-.33.46-.71.68-1.14.68h-1.98v5.02c.58-.25,1.06-.38,1.44-.38.56,0,1.04.24,1.46.72.42.48.63,1.04.63,1.67,0,.46-.13.85-.38,1.18-.25.33-.72.68-1.41,1.06-.61.35-1.19.66-1.75.91v9.31c0,1.62-.41,2.79-1.22,3.5-.71.61-1.77.91-3.19.91-2.69,0-4.03-.93-4.03-2.77,0-.66.16-1.19.48-1.6.32-.41.74-.61,1.27-.61.23,0,.47.03.72.08.15.05.28.08.38.08.38,0,.65-.17.8-.51.15-.34.23-.98.23-1.92v-4.9h-.08l-.04.04c-.96.23-1.69.34-2.17.34-.56,0-1.02-.25-1.39-.74s-.55-1.12-.55-1.88.17-1.29.51-1.6,1.08-.57,2.22-.8c.3-.05.8-.19,1.48-.42v-6.69h-2.51c-.43,0-.82-.24-1.18-.72-.36-.48-.53-1.03-.53-1.63s.17-1.14.51-1.6c.34-.46.74-.68,1.2-.68h2.51v-4.26c0-.66.22-1.19.65-1.6.43-.4,1-.61,1.71-.61s1.22.2,1.62.59c.39.39.59.93.59,1.62v4.26Zm19.72,11.78c.23,1.06.57,2.34,1.03,3.84.66-.51,1.41-1.12,2.24-1.82.56-.48,1.04-.72,1.44-.72.56,0,1.05.24,1.48.72.43.48.65,1.03.65,1.63,0,.51-.28,1.04-.84,1.62-.56.57-1.65,1.39-3.27,2.45l.42.68c.48.76.89,1.37,1.23,1.82.34.46,1.07,1.33,2.19,2.62.58.68.87,1.28.87,1.79,0,.56-.24,1.06-.72,1.52-.48.46-1.04.68-1.67.68-1.37,0-3.21-1.94-5.51-5.81-.91-1.54-1.66-3.15-2.24-4.81-.58-1.66-1.1-3.73-1.56-6.21h-1.41v11.17c.68-.23,1.18-.4,1.48-.53.84-.36,1.35-.53,1.56-.53.43,0,.84.27,1.22.82.38.54.57,1.12.57,1.73,0,.4-.16.77-.47,1.1-.32.33-.88.68-1.69,1.06-1.09.53-2.24,1.01-3.46,1.44s-2.04.65-2.47.65c-.41,0-.79-.26-1.14-.78-.35-.52-.53-1.1-.53-1.73,0-.25.14-.67.42-1.25.18-.36.27-.81.27-1.37v-11.78h-1.6c-.18,4.48-.68,8.26-1.52,11.32-.23.94-.56,1.89-.99,2.85-.43.96-.82,1.66-1.18,2.09-.28.33-.67.49-1.18.49-.66,0-1.26-.2-1.8-.59-.55-.39-.82-.8-.82-1.24,0-.56.32-1.47.95-2.74.76-1.57,1.35-4,1.79-7.29.23-1.67.36-2.89.4-3.67.04-.77.06-2.4.06-4.88v-8.47c0-1.75.39-2.99,1.18-3.72.71-.63,1.79-.95,3.23-.95h16.07c.58,0,1.06.2,1.44.61.38.4.57.92.57,1.56s-.18,1.18-.55,1.56c-.37.38-.85.57-1.46.57h-15.2c-.61,0-.91.3-.91.91v7.52h16.72c.53,0,.97.2,1.33.59.35.39.53.87.53,1.42,0,.58-.18,1.07-.53,1.46-.36.39-.8.59-1.33.59h-5.28Zm-9.04-10.22h12.5c.53,0,.98.19,1.33.55.35.37.53.83.53,1.39s-.18,1.03-.53,1.4c-.35.38-.8.57-1.33.57h-12.5c-.51,0-.93-.18-1.27-.55s-.51-.84-.51-1.42.17-1.02.51-1.39c.34-.37.77-.55,1.27-.55Z"/>
    </g>
  </g>
</svg>