<svg width="539" height="188" viewBox="0 0 539 188" fill="none" xmlns="http://www.w3.org/2000/svg">
<g clip-path="url(#clip0_2_317)">
<path d="M87.2639 175.343C135.458 175.343 174.528 136.091 174.528 87.6717C174.528 39.252 135.458 0 87.2639 0C39.0694 0 0 39.252 0 87.6717C0 136.091 39.0694 175.343 87.2639 175.343Z" fill="white"/>
<path d="M464.075 19.9673H161.844C177.951 37.8831 187.758 61.607 187.758 87.6427C187.758 113.678 177.951 137.431 161.844 155.318H464.075C501.12 155.318 531.436 124.861 531.436 87.6427C531.436 50.4241 501.12 19.9673 464.075 19.9673Z" fill="#C1C1C1"/>
<path d="M471.639 19.9673H169.408C185.515 37.8831 195.323 61.607 195.323 87.6427C195.323 113.678 185.515 137.431 169.408 155.318H471.639C508.685 155.318 539 124.861 539 87.6427C539 50.4241 508.685 19.9673 471.639 19.9673Z" fill="white"/>
<path d="M96.324 136.218V107.35H78.2614V136.304C77.6862 136.333 77.2548 136.391 76.7946 136.391C68.281 136.391 59.7387 136.391 51.1964 136.391C48.2626 136.391 46.3068 134.513 46.2781 131.363C46.2205 119.487 46.2493 107.61 46.2781 95.7337C46.2781 95.098 46.7383 94.3178 47.2272 93.8844C54.9354 87.0359 62.7012 80.2163 70.4382 73.4257C75.5866 68.889 80.735 64.3522 85.9121 59.8155C86.3148 59.4687 86.7175 59.122 87.2352 58.6885C90.3127 61.3759 93.3615 64.0633 96.439 66.7506C106.534 75.6218 116.601 84.5219 126.725 93.3353C127.818 94.2889 128.279 95.2425 128.279 96.774C128.221 108.044 128.221 119.313 128.279 130.583C128.279 132.634 127.818 134.426 126.121 135.553C125.517 135.958 124.741 136.333 124.022 136.333C114.962 136.391 105.93 136.333 96.8704 136.333C96.7266 136.333 96.6116 136.275 96.3527 136.189L96.324 136.218ZM109.928 56.2901C109.928 51.5222 109.928 47.13 109.928 42.7377C109.928 39.9348 110.561 39.2701 113.178 39.2701C117.263 39.2701 121.347 39.2701 125.402 39.2701C127.502 39.2701 128.221 40.0792 128.25 42.4487C128.25 51.8401 128.279 61.2603 128.25 70.6805C128.25 72.1253 128.624 73.05 129.688 73.9747C134.146 77.8179 138.547 81.7479 142.947 85.6778C145.104 87.6138 145.162 88.5385 143.35 90.8213C142.257 92.2084 141.164 93.6243 140.071 95.0113C138.719 96.7162 137.569 96.8318 135.958 95.387C120.311 81.4589 104.665 67.5308 89.0184 53.6028C88.4719 53.1115 87.9255 52.6492 87.2927 52.1001C83.7837 55.221 80.2748 58.3129 76.7946 61.4337C64.1105 72.7322 51.3977 84.0596 38.7137 95.3581C36.9879 96.8896 35.9237 96.8029 34.4856 94.9824C33.2776 93.4798 32.0984 91.9772 30.9192 90.4457C29.5386 88.683 29.5961 87.5271 31.2643 86.0534C38.3398 79.7251 45.444 73.4257 52.5482 67.1263C62.0109 58.7174 71.4736 50.3086 80.9363 41.8708C85.2218 38.0565 89.3923 38.0565 93.7066 41.8997C98.7975 46.4364 103.888 50.9732 108.979 55.5099C109.209 55.7122 109.468 55.9145 109.986 56.3479L109.928 56.2901Z" fill="#EC6602"/>
<path d="M270.869 75.9827H252.225C252.048 83.7117 250.75 93.5647 245.44 100.173C244.437 99.2287 242.077 97.6357 240.779 97.0457C246.266 90.2607 246.856 80.6437 246.856 73.4457V60.6427C256.827 60.1707 268.391 59.1087 274.999 57.2797L279.601 61.6457C272.108 63.7107 261.724 64.7727 252.284 65.2447V71.0857H273.111L274.055 70.9087L277.477 72.0887C275.825 78.9917 272.993 84.6557 269.276 89.1987C272.698 92.0897 275.884 94.9217 278.067 97.1047L273.878 100.999C271.872 98.8157 268.922 96.0427 265.618 93.0337C261.96 96.5737 257.535 99.2287 252.874 101.058C252.225 99.7007 250.868 97.6947 249.806 96.6327C254.113 95.0987 258.184 92.6797 261.724 89.4937C258.715 86.8977 255.588 84.3017 252.874 82.0007L256.709 78.8737C259.305 80.9387 262.314 83.3577 265.264 85.7767C267.565 82.9447 269.453 79.6407 270.869 75.9827ZM241.192 67.4277L236.59 70.7317C234.82 68.2537 231.162 64.1237 228.448 61.1737L232.814 58.3417C235.587 61.1147 239.363 65.0677 241.192 67.4277ZM239.776 77.9887V99.4647C240.838 99.9957 242.018 100.822 243.611 101.707C247.623 103.772 252.933 104.126 259.482 104.126C266.031 104.126 275.117 103.654 281.017 102.887C280.368 104.362 279.542 107.076 279.365 108.669C275.176 108.964 265.205 109.318 259.305 109.318C252.107 109.318 246.915 108.669 242.667 106.486C239.894 105.07 237.947 103.3 236.531 103.3C234.761 103.3 232.283 106.84 229.923 110.144L226.206 104.893C229.038 101.943 231.87 99.7597 234.289 98.8747V83.1217H227.268V77.9887H239.776ZM318.777 89.3167V77.2807H306.21V89.3167H318.777ZM301.018 72.4427H324.264V94.0957H301.018V72.4427ZM293.879 102.356H331.58V64.3597H293.879V102.356ZM288.215 58.7547H337.48V110.675H331.58V107.489H293.879V110.675H288.215V58.7547ZM385.919 83.8887V78.9917H357.422V83.8887H385.919ZM357.422 102.828H385.919V97.5177H357.422V102.828ZM385.919 93.2107V88.1957H357.422V93.2107H385.919ZM398.132 69.6107H375.24C374.591 71.2037 373.942 72.7967 373.293 74.2127H391.642V110.675H385.919V107.607H357.422V110.675H351.935V74.2127H367.393C367.806 72.7377 368.278 71.0857 368.573 69.6107H345.622V64.5367H360.018C358.838 62.6487 357.009 60.1707 355.416 58.4007L360.254 56.2767C362.378 58.2827 364.679 61.1737 365.859 63.1797L363.263 64.5367H377.895C379.665 62.1767 381.671 58.8137 382.851 56.4537L389.046 57.8697C387.453 60.2297 385.683 62.5897 384.09 64.5367H398.132V69.6107ZM411.112 70.9677H424.682C425.508 69.0207 426.334 66.7197 426.865 64.5957H405.802V59.5217H456.306V64.5957H433.119C432.175 66.8377 431.113 69.0207 430.169 70.9677H451.291V97.9897H445.45V76.0417H416.717V98.1667H411.112V70.9677ZM433.827 79.1687V89.7297C433.827 97.9307 429.992 106.014 407.69 110.793C407.041 109.495 405.566 107.43 404.327 106.309C425.331 102.238 428.163 95.6297 428.163 89.6707V79.1687H433.827ZM433.178 99.7597L436.364 96.0427C442.972 98.7567 451.999 103.359 456.542 106.486L453.12 110.852C448.872 107.607 439.963 102.828 433.178 99.7597Z" fill="#EC6602"/>
</g>
<defs>
<clipPath id="clip0_2_317">
<rect width="539" height="188" fill="white"/>
</clipPath>
</defs>
</svg>
