<?xml version="1.0" encoding="UTF-8"?>
<svg id="_图层_2" data-name="图层 2" xmlns="http://www.w3.org/2000/svg" xmlns:xlink="http://www.w3.org/1999/xlink" viewBox="0 0 550.24 83.25">
  <defs>
    <style>
      .cls-1 {
        fill: #009ea7;
      }

      .cls-1, .cls-2 {
        stroke-width: 0px;
      }

      .cls-2 {
        fill: #fff;
      }

      .cls-3 {
        fill: url(#_未命名的渐变_4);
        opacity: .29;
        stroke: url(#_未命名的渐变_820);
        stroke-miterlimit: 10;
        stroke-width: .6px;
      }
    </style>
    <linearGradient id="_未命名的渐变_4" data-name="未命名的渐变 4" x1="5.27" y1="41.52" x2="546.23" y2="41.52" gradientUnits="userSpaceOnUse">
      <stop offset="0" stop-color="#79cfd8"/>
      <stop offset="0" stop-color="#79cfd8" stop-opacity=".92"/>
      <stop offset=".03" stop-color="#79cfd8" stop-opacity=".73"/>
      <stop offset=".06" stop-color="#7acfd8" stop-opacity=".55"/>
      <stop offset=".09" stop-color="#7acfd8" stop-opacity=".4"/>
      <stop offset=".12" stop-color="#7bcfd8" stop-opacity=".28"/>
      <stop offset=".16" stop-color="#7bcfd8" stop-opacity=".17"/>
      <stop offset=".2" stop-color="#7bcfd8" stop-opacity=".09"/>
      <stop offset=".25" stop-color="#7bcfd8" stop-opacity=".04"/>
      <stop offset=".33" stop-color="#7bcfd8" stop-opacity="0"/>
      <stop offset=".53" stop-color="#7cd0d9" stop-opacity="0"/>
      <stop offset=".72" stop-color="#7bcfd8" stop-opacity="0"/>
      <stop offset=".78" stop-color="#79cfd8" stop-opacity=".04"/>
      <stop offset=".83" stop-color="#75cdd7" stop-opacity=".1"/>
      <stop offset=".87" stop-color="#70ccd5" stop-opacity=".19"/>
      <stop offset=".9" stop-color="#6ac9d3" stop-opacity=".3"/>
      <stop offset=".93" stop-color="#62c6d1" stop-opacity=".43"/>
      <stop offset=".95" stop-color="#58c3ce" stop-opacity=".6"/>
      <stop offset=".98" stop-color="#4ebfcb" stop-opacity=".78"/>
      <stop offset="1" stop-color="#42bbc8" stop-opacity=".98"/>
      <stop offset="1" stop-color="#41bbc8"/>
    </linearGradient>
    <linearGradient id="_未命名的渐变_820" data-name="未命名的渐变 820" x1="4.97" y1="41.52" x2="546.53" y2="41.52" gradientUnits="userSpaceOnUse">
      <stop offset="0" stop-color="#fff"/>
      <stop offset="1" stop-color="#41bbc8"/>
    </linearGradient>
  </defs>
  <g id="_图层_1-2" data-name="图层 1">
    <g>
      <g>
        <g>
          <polygon class="cls-1" points="516.74 1.89 515.15 .3 545.65 .3 547.24 1.89 516.74 1.89"/>
          <path class="cls-1" d="m547.96,2.19h-31.34l-2.19-2.19h31.34l2.19,2.19Zm-31.09-.6h29.65l-.99-.99h-29.65l.99.99Z"/>
        </g>
        <path class="cls-1" d="m545.77,83.25H4.47l-4.47-4.47v-6.37h0V10.84h0v-6.37L4.47,0h508.27l3.39,3.39h33.04l1.08,1.08v6.37h0v61.57h0v6.37l-4.47,4.47Zm-541.06-.6h540.81l4.11-4.11v-5.52h0V10.24h0v-5.52l-.72-.72h-33.04l-3.39-3.39H4.71L.6,4.71v5.52h0v62.77h0v5.52l4.11,4.11Z"/>
      </g>
      <polygon class="cls-3" points="541.82 79.99 9.4 79.99 5.27 75.75 5.27 7.16 9.47 3.05 511.34 3.05 514.33 6.01 546.23 6.01 546.23 75.31 541.82 79.99"/>
    </g>
    <g>
      <path class="cls-2" d="m145.94,37.85h3.61v6.08h3.15v5.02h-3.15v5.28h-6.38v-5.36h-9.35v-4.1l7.33-15.77,5.05,2.51-5.89,12.43h3.38l2.24-6.08Z"/>
      <path class="cls-2" d="m155.21,51.83c0-.94.3-1.68.91-2.24.56-.51,1.28-.76,2.17-.76,1.01,0,1.81.26,2.38.78.57.52.85,1.25.85,2.19s-.28,1.68-.84,2.22c-.56.54-1.32.82-2.28.82s-1.77-.27-2.34-.8c-.57-.53-.85-1.27-.85-2.2Z"/>
      <path class="cls-2" d="m166.61,49.44h4.14v-12.73l-3.99,2.01-2.36-4.18,7.83-4.79h5.28l-.38,4.67v15.01h3.95v4.79h-14.48v-4.79Z"/>
      <path class="cls-2" d="m196.89,28.88v23.52c0,.71-.2,1.27-.59,1.67-.39.41-.92.61-1.58.61s-1.14-.2-1.52-.61c-.38-.4-.57-.96-.57-1.67v-23.52c0-.68.18-1.22.55-1.62s.88-.59,1.54-.59,1.22.2,1.6.59c.38.39.57.93.57,1.62Zm6.73-3.84v31.43c0,.51-.24.94-.72,1.31-.48.37-1.04.55-1.67.55s-1.17-.18-1.6-.53c-.43-.36-.65-.8-.65-1.33v-31.43c0-.46.23-.86.68-1.22.46-.35.99-.53,1.6-.53s1.18.18,1.65.53c.47.36.7.76.7,1.22Zm9.54,1.82h11.51c.56,0,1.02.22,1.39.65.37.43.55.98.55,1.63s-.19,1.17-.57,1.62c-.38.44-.84.67-1.37.67h-13.11c-1.85,3.95-3.45,5.93-4.79,5.93-.68,0-1.33-.29-1.94-.87-.51-.48-.76-.97-.76-1.48,0-.46.29-1.09.87-1.9.76-1.04,1.41-2.13,1.94-3.27.53-1.14,1.18-2.85,1.94-5.13.2-.56.42-.94.65-1.14.23-.2.57-.3,1.03-.3.91,0,1.66.2,2.24.61.51.36.76.79.76,1.29,0,.33-.11.9-.34,1.71Zm4.9,12.35c-.63-.18-1.46-.82-2.47-1.94-.51-.53-.93-.95-1.25-1.25-.63-.56-1.04-.97-1.22-1.23-.18-.27-.27-.58-.27-.93,0-.58.25-1.13.74-1.63s1.03-.76,1.61-.76,1.27.3,1.98.91c1.54,1.32,2.62,2.32,3.21,3.02.59.7.89,1.3.89,1.8,0,.43-.12.84-.36,1.22-.24.38-.55.65-.93.8h1.25c1.54,0,2.65.33,3.31.99.58.56.87,1.42.87,2.58v10.87c0,1.24-.34,2.15-1.01,2.72-.67.57-1.73.85-3.17.85h-11.29c-1.55,0-2.65-.33-3.31-.99-.58-.56-.87-1.42-.87-2.58v-10.87c0-1.24.34-2.15,1.01-2.72.67-.57,1.73-.85,3.17-.85h8.09Zm-4.33,13.41v-8.85h-2.55c-.61,0-.91.3-.91.91v7.03c0,.61.3.91.91.91h2.55Zm3.61,0h2.7c.61,0,.91-.3.91-.91v-7.03c0-.61-.3-.91-.91-.91h-2.7v8.85Z"/>
      <path class="cls-2" d="m235.73,52.59c-1.19,3.83-2.57,5.74-4.14,5.74-.71,0-1.33-.22-1.86-.66-.53-.44-.8-.96-.8-1.54s.27-1.39.8-2.51c.99-2.03,1.65-4.02,2-5.98.34-1.96.51-4.81.51-8.53v-7.14c0-1.52.19-2.62.57-3.31.71-1.27,2.04-1.9,3.99-1.9h9.12v-.08s-.04-.05-.04-.08c-.2-.73-.3-1.27-.3-1.6,0-.56.27-1.02.8-1.39.53-.37,1.22-.55,2.05-.55.91,0,1.57.24,1.98.72.41.48.79,1.47,1.14,2.96h10.79c.53,0,1.01.24,1.43.72.42.48.63,1.04.63,1.67s-.2,1.13-.61,1.58-.89.67-1.44.67h-24.21c-.41,0-.67.06-.78.17-.11.11-.17.37-.17.78v7.41c0,4.46-.36,8.25-1.06,11.36.28-.3.8-.73,1.56-1.29,3.29-2.43,6.12-5.46,8.47-9.08h-6.38c-.53,0-1-.22-1.39-.67-.39-.44-.59-.98-.59-1.61s.2-1.18.59-1.65c.39-.47.85-.7,1.39-.7h7.9v-2.2c0-.66.24-1.18.72-1.58.48-.39,1.11-.59,1.9-.59,1.72,0,2.58.77,2.58,2.32v2.05h8.78c.61,0,1.12.23,1.54.68s.63,1.01.63,1.67-.21,1.17-.63,1.61c-.42.44-.93.67-1.54.67h-7.75c1.14,1.67,2.53,3.31,4.16,4.92,1.63,1.61,3.27,2.95,4.92,4.01,1.32.84,1.98,1.61,1.98,2.32,0,.76-.3,1.5-.91,2.2-.53.61-1.06.91-1.6.91-.89,0-2.27-.81-4.16-2.43-1.89-1.62-3.69-3.55-5.42-5.78v9.01c0,.86-.23,1.54-.68,2.03s-1.09.74-1.9.74-1.42-.24-1.9-.72c-.48-.48-.72-1.11-.72-1.9v-9.42c-1.67,2.43-3.51,4.54-5.51,6.31-1.72,1.52-3.01,2.28-3.88,2.28-.56,0-1.09-.27-1.6-.8-.51-.53-.82-1.14-.95-1.82Z"/>
      <path class="cls-2" d="m284.26,26.6v-.08s-.01-.04-.04-.04c-.2-.73-.3-1.25-.3-1.56,0-.56.27-1.01.82-1.37.54-.35,1.24-.53,2.07-.53.76,0,1.35.26,1.77.78.42.52.79,1.45,1.12,2.79h10.72c.53,0,1.01.25,1.43.76.42.51.63,1.09.63,1.75s-.2,1.18-.61,1.65c-.41.47-.89.7-1.44.7h-23.71c-.58,0-.97.09-1.16.29s-.28.56-.28,1.12v6.84c0,6.41-.67,11.34-2.01,14.78-.51,1.34-1.02,2.31-1.54,2.91-.52.59-1.11.89-1.77.89-.79,0-1.47-.25-2.05-.76-.53-.41-.8-.87-.8-1.41,0-.66.25-1.51.76-2.55.91-1.9,1.53-3.86,1.86-5.89.33-2.03.49-4.89.49-8.59v-7.07c0-1.6.2-2.76.61-3.5.73-1.29,2.08-1.94,4.03-1.94h9.42Zm6.42,25.57c-.05-.23-.08-.44-.08-.65,0-.51.08-.98.25-1.42.16-.44.74-1.77,1.73-3.97.38-.86.91-2.26,1.58-4.2.67-1.94,1.15-3.48,1.43-4.62.35-1.32.72-2.22,1.08-2.72.37-.49.88-.74,1.54-.74s1.3.19,1.86.57c.56.38.84.81.84,1.29,0,1.17-1.13,4.97-3.38,11.4-.61,1.75-1.33,3.43-2.17,5.05h5.09c.63,0,1.17.24,1.62.72.44.48.67,1.06.67,1.75s-.22,1.25-.65,1.71c-.43.46-.98.68-1.63.68h-23.71c-.56,0-1.04-.23-1.44-.7-.41-.47-.61-1.03-.61-1.69s.2-1.24.61-1.73c.4-.49.89-.74,1.44-.74h13.95Zm-5.97-3.46c-.03.61-.31,1.11-.85,1.5s-1.2.59-1.96.59c-.58,0-1.05-.3-1.41-.89-.35-.59-.72-1.68-1.1-3.25-.18-.76-1.09-3.43-2.74-8.02-.18-.48-.27-.9-.27-1.25,0-.48.27-.91.8-1.27.53-.37,1.14-.55,1.82-.55.53,0,.92.15,1.18.46.33.38.73,1.17,1.2,2.36.47,1.19,1.41,3.86,2.83,8.02l.49,2.32Zm6.92-3c-.05.61-.34,1.1-.85,1.46-.52.37-1.16.55-1.92.55-.43,0-.76-.09-.99-.29-.23-.19-.43-.54-.61-1.04-.18-.46-.75-2.52-1.71-6.19-.13-.51-.55-1.89-1.25-4.14-.13-.43-.19-.82-.19-1.18,0-.48.25-.9.76-1.25s1.1-.53,1.79-.53,1.13.22,1.41.65c.3.43.59,1.05.85,1.84s1.03,3.41,2.3,7.85l.42,2.28Z"/>
      <path class="cls-2" d="m325.49,47.46v7.6c0,.61-.24,1.12-.72,1.54-.48.42-1.06.63-1.75.63s-1.3-.21-1.77-.63c-.47-.42-.7-.93-.7-1.54v-7.6h-7.56c-.23,2.18-.62,4.24-1.18,6.19-.51,1.7-1.04,2.92-1.6,3.67s-1.22,1.12-1.98,1.12-1.44-.25-2.05-.76c-.53-.43-.8-.9-.8-1.41,0-.58.25-1.42.76-2.51.79-1.65,1.34-3.48,1.65-5.49.32-2.01.47-4.72.47-8.11v-10.45c0-1.82.42-3.13,1.25-3.91.73-.68,1.85-1.03,3.34-1.03h20.75c1.57,0,2.74.46,3.5,1.37.68.81,1.03,1.93,1.03,3.34v24.24c0,1.82-.58,3.07-1.75,3.72-.96.51-2.42.76-4.37.76-1.7,0-2.9-.27-3.61-.8-.61-.48-.91-1.22-.91-2.2,0-.81.2-1.41.61-1.79.3-.28.52-.42.65-.42l3.38.34c.08,0,.21-.06.4-.17.19-.11.32-.23.4-.36.18-.3.27-.87.27-1.71v-3.65h-7.71Zm-4.94-13.68v-4.26h-6.54c-.53,0-.8.25-.8.76v3.5h7.33Zm0,4.64h-7.33v4.41h7.33v-4.41Zm4.94-4.64h7.71v-2.2c0-1.37-.46-2.05-1.37-2.05h-6.35v4.26Zm0,4.64v4.41h7.71v-4.41h-7.71Z"/>
      <path class="cls-2" d="m345.66,32.83c.35,0,.67.06.93.17.27.11,1.04.53,2.34,1.23,2.71,1.47,4.07,2.75,4.07,3.84,0,.74-.3,1.43-.91,2.09-.53.58-1.08.87-1.63.87-.43,0-1.22-.39-2.36-1.18-.84-.58-2-1.32-3.5-2.2-1.04-.58-1.56-1.24-1.56-1.98,0-.79.3-1.48.91-2.09.53-.51,1.1-.76,1.71-.76Zm7.56,12.01c0,.61-.21,1.68-.63,3.23-.42,1.55-.91,3.07-1.46,4.56-.76,2.03-1.43,3.44-2.01,4.26-.3.38-.6.64-.87.78-.28.14-.65.21-1.1.21-.79,0-1.47-.25-2.05-.76-.51-.43-.76-.91-.76-1.44s.23-1.19.68-2.05c1.39-2.71,2.44-5.59,3.15-8.63.18-.86.45-1.46.82-1.8s.89-.51,1.58-.51c.79,0,1.42.21,1.92.63s.74.93.74,1.54Zm-6.27-20.82c.84,0,2.36.67,4.56,2.01,1.17.74,1.94,1.32,2.34,1.77.39.44.59.96.59,1.54,0,.73-.28,1.41-.84,2.01-.48.51-1,.76-1.56.76-.41,0-1.09-.3-2.05-.91-1.34-.86-2.64-1.63-3.88-2.32-1.17-.63-1.75-1.29-1.75-1.98,0-.81.29-1.52.87-2.13.51-.51,1.08-.76,1.71-.76Zm30.13,33.33h-17.59c-.96,0-1.69-.08-2.17-.25-.48-.17-.93-.48-1.33-.93-.38-.43-.63-.86-.76-1.27s-.19-1.08-.19-2v-23.71c0-.96.08-1.68.25-2.17.16-.48.47-.94.93-1.37.43-.38.85-.63,1.27-.74.42-.11,1.08-.17,2-.17h16.83c.48,0,.89.23,1.23.7s.51,1.03.51,1.69-.17,1.17-.51,1.62-.75.66-1.23.66h-15.01c-.84,0-1.25.41-1.25,1.22v20.82c0,.81.42,1.22,1.25,1.22h15.77c.48,0,.9.23,1.25.7.35.47.53,1.03.53,1.69,0,.61-.18,1.14-.53,1.6-.36.46-.77.68-1.25.68Z"/>
      <path class="cls-2" d="m389.67,47.2c0,.43-.07.86-.21,1.27s-.61,1.65-1.43,3.71c-.48,1.22-.82,2.01-1.01,2.38-.19.37-.46.79-.82,1.27-.56.73-1.14,1.1-1.75,1.1-.71,0-1.36-.24-1.94-.72-.51-.41-.76-.84-.76-1.29,0-.76.39-1.82,1.18-3.19.58-.99,1.29-2.6,2.13-4.83.48-1.27,1.09-1.9,1.82-1.9.81,0,1.57.3,2.28.91.33.28.49.71.49,1.29Zm7.71-3.72h-8.25c-.91,0-1.6-.08-2.05-.23-.46-.15-.89-.46-1.29-.91-.35-.41-.59-.8-.7-1.18-.11-.38-.17-1-.17-1.86v-6.57c0-.91.08-1.59.23-2.03.15-.44.46-.87.91-1.27.38-.35.77-.59,1.18-.7.41-.11,1.04-.17,1.9-.17h1.6l-.49-1.18c-.38-.89-.57-1.54-.57-1.98,0-.71.39-1.27,1.18-1.67.68-.33,1.27-.49,1.75-.49s.87.14,1.16.42c.29.28.67.85,1.12,1.71.71,1.42,1.06,2.48,1.06,3.19h5.7c.23-.48.66-1.42,1.29-2.81.56-1.19.99-1.94,1.29-2.24.3-.3.79-.46,1.44-.46.86,0,1.58.25,2.17.76.51.46.76.99.76,1.6,0,.46-.41,1.51-1.22,3.15h1.37c.91,0,1.6.08,2.07.23s.89.46,1.27.91c.35.41.59.8.7,1.2s.17,1.01.17,1.84v6.57c0,.91-.08,1.59-.23,2.03-.15.44-.44.87-.87,1.27-.41.36-.81.59-1.22.7s-1.04.17-1.9.17h-7.68c.48.74.95,1.67,1.41,2.79.46,1.13.68,1.92.68,2.38,0,.51-.26.97-.78,1.39-.52.42-1.12.63-1.81.63-.81,0-1.43-.49-1.86-1.48-.89-1.98-1.41-3.17-1.58-3.57-.17-.41-.25-.76-.25-1.06,0-.35.16-.71.49-1.06Zm9.73-10.3h-16.34c-.61,0-.91.3-.91.91v3.84c0,.61.3.91.91.91h16.34c.61,0,.91-.3.91-.91v-3.84c0-.61-.3-.91-.91-.91Zm-16.34,19.8v-5.74c0-1.65.77-2.47,2.32-2.47.71,0,1.28.22,1.71.65.43.43.65.99.65,1.67v4.79c0,.53.08.89.23,1.06.15.18.47.3.95.38.89.15,2.03.23,3.42.23,1.7,0,2.81-.14,3.32-.42.52-.28.8-.89.86-1.82.08-1.17.26-1.93.55-2.3.29-.37.85-.55,1.69-.55.91,0,1.56.18,1.94.53.38.36.57.96.57,1.82,0,1.9-.29,3.43-.87,4.6-.51.99-1.41,1.63-2.7,1.94-1.17.28-3.07.42-5.7.42-2.08,0-3.62-.06-4.62-.19-1-.13-1.82-.35-2.45-.68-1.24-.63-1.86-1.94-1.86-3.91Zm25.69,1.6c-.08.61-.38,1.12-.91,1.54-.53.42-1.14.63-1.82.63-.48,0-.87-.18-1.18-.53s-.7-1.09-1.18-2.2c-.96-2.18-1.79-3.85-2.47-5.02-.56-.91-.84-1.65-.84-2.2,0-.46.27-.87.82-1.23.54-.37,1.15-.55,1.81-.55s1.32.41,1.9,1.22c.51.71,1.39,2.29,2.66,4.75l1.22,3.61Z"/>
    </g>
  </g>
</svg>