<?xml version="1.0" encoding="UTF-8"?>
<svg id="_图层_2" data-name="图层 2" xmlns="http://www.w3.org/2000/svg" xmlns:xlink="http://www.w3.org/1999/xlink" viewBox="0 0 550.24 83.25">
  <defs>
    <style>
      .cls-1 {
        fill: #009ea7;
      }

      .cls-1, .cls-2 {
        stroke-width: 0px;
      }

      .cls-2 {
        fill: #fff;
      }

      .cls-3 {
        fill: url(#_未命名的渐变_4);
        opacity: .29;
        stroke: url(#_未命名的渐变_820);
        stroke-miterlimit: 10;
        stroke-width: .6px;
      }
    </style>
    <linearGradient id="_未命名的渐变_4" data-name="未命名的渐变 4" x1="5.27" y1="41.52" x2="546.23" y2="41.52" gradientUnits="userSpaceOnUse">
      <stop offset="0" stop-color="#79cfd8"/>
      <stop offset="0" stop-color="#79cfd8" stop-opacity=".92"/>
      <stop offset=".03" stop-color="#79cfd8" stop-opacity=".73"/>
      <stop offset=".06" stop-color="#7acfd8" stop-opacity=".55"/>
      <stop offset=".09" stop-color="#7acfd8" stop-opacity=".4"/>
      <stop offset=".12" stop-color="#7bcfd8" stop-opacity=".28"/>
      <stop offset=".16" stop-color="#7bcfd8" stop-opacity=".17"/>
      <stop offset=".2" stop-color="#7bcfd8" stop-opacity=".09"/>
      <stop offset=".25" stop-color="#7bcfd8" stop-opacity=".04"/>
      <stop offset=".33" stop-color="#7bcfd8" stop-opacity="0"/>
      <stop offset=".53" stop-color="#7cd0d9" stop-opacity="0"/>
      <stop offset=".72" stop-color="#7bcfd8" stop-opacity="0"/>
      <stop offset=".78" stop-color="#79cfd8" stop-opacity=".04"/>
      <stop offset=".83" stop-color="#75cdd7" stop-opacity=".1"/>
      <stop offset=".87" stop-color="#70ccd5" stop-opacity=".19"/>
      <stop offset=".9" stop-color="#6ac9d3" stop-opacity=".3"/>
      <stop offset=".93" stop-color="#62c6d1" stop-opacity=".43"/>
      <stop offset=".95" stop-color="#58c3ce" stop-opacity=".6"/>
      <stop offset=".98" stop-color="#4ebfcb" stop-opacity=".78"/>
      <stop offset="1" stop-color="#42bbc8" stop-opacity=".98"/>
      <stop offset="1" stop-color="#41bbc8"/>
    </linearGradient>
    <linearGradient id="_未命名的渐变_820" data-name="未命名的渐变 820" x1="4.97" y1="41.52" x2="546.53" y2="41.52" gradientUnits="userSpaceOnUse">
      <stop offset="0" stop-color="#fff"/>
      <stop offset="1" stop-color="#41bbc8"/>
    </linearGradient>
  </defs>
  <g id="_图层_1-2" data-name="图层 1">
    <g>
      <g>
        <g>
          <polygon class="cls-1" points="516.74 1.89 515.15 .3 545.65 .3 547.24 1.89 516.74 1.89"/>
          <path class="cls-1" d="m547.96,2.19h-31.34l-2.19-2.19h31.34l2.19,2.19Zm-31.09-.6h29.65l-.99-.99h-29.65l.99.99Z"/>
        </g>
        <path class="cls-1" d="m545.77,83.25H4.47l-4.47-4.47v-6.37h0V10.84h0v-6.37L4.47,0h508.27l3.39,3.39h33.04l1.08,1.08v6.37h0v61.57h0v6.37l-4.47,4.47Zm-541.06-.6h540.81l4.11-4.11v-5.52h0V10.24h0v-5.52l-.72-.72h-33.04l-3.39-3.39H4.71L.6,4.71v5.52h0v62.77h0v5.52l4.11,4.11Z"/>
      </g>
      <polygon class="cls-3" points="541.82 79.99 9.4 79.99 5.27 75.75 5.27 7.16 9.47 3.05 511.34 3.05 514.33 6.01 546.23 6.01 546.23 75.31 541.82 79.99"/>
    </g>
    <g>
      <path class="cls-2" d="m110.34,37.85h3.61v6.08h3.15v5.02h-3.15v5.28h-6.38v-5.36h-9.35v-4.1l7.33-15.77,5.05,2.51-5.89,12.43h3.38l2.24-6.08Z"/>
      <path class="cls-2" d="m119.61,51.83c0-.94.3-1.68.91-2.24.56-.51,1.28-.76,2.17-.76,1.01,0,1.81.26,2.38.78.57.52.86,1.25.86,2.19s-.28,1.68-.84,2.22c-.56.54-1.32.82-2.28.82s-1.77-.27-2.34-.8c-.57-.53-.85-1.27-.85-2.2Z"/>
      <path class="cls-2" d="m131.85,37.66l-3.5-4.22c1.37-1.37,2.9-2.42,4.6-3.15,1.54-.68,3.1-1.03,4.67-1.03,2.71,0,4.76.74,6.16,2.2,1.14,1.24,1.71,2.88,1.71,4.9,0,1.32-.26,2.55-.78,3.71-.52,1.15-1.37,2.4-2.56,3.74l-4.71,5.28h8.82v5.13h-17.71v-3.84l7.87-8.89c.99-1.14,1.63-1.98,1.92-2.53.29-.54.44-1.17.44-1.88,0-.63-.19-1.14-.57-1.52s-.9-.57-1.56-.57c-1.32,0-2.91.89-4.79,2.66Z"/>
      <path class="cls-2" d="m158.02,54.23v-27.26h17.83v6.15h-10.78v4.14h9.27v6.15h-9.27v4.67h11.07v6.15h-18.12Z"/>
      <path class="cls-2" d="m179.83,25.73h6.93v7.5h5.12v5.37h-5.12v8.28c0,1.89.82,2.83,2.46,2.83.66,0,1.39-.22,2.21-.66l1.48,4.3c-.71.47-1.6.83-2.67,1.11-1.07.27-2.12.41-3.16.41-3.28,0-5.43-.96-6.44-2.87-.55-1.07-.82-2.83-.82-5.29v-20.99Z"/>
      <path class="cls-2" d="m202.14,54.23h-6.85v-28.5h6.85v8.65c1.31-1.17,2.87-1.76,4.67-1.76,4.43,0,6.64,2.46,6.64,7.38v14.23h-6.85v-13.33c0-1.07-.14-1.84-.43-2.32-.29-.48-.77-.72-1.46-.72-.79,0-1.42.27-1.89.8s-.7,1.24-.7,2.11v13.45Z"/>
      <path class="cls-2" d="m216.73,43.89c0-4.15,1.24-7.22,3.73-9.18,1.75-1.39,3.85-2.09,6.31-2.09,2.68,0,4.82.67,6.44,2.01,2.1,1.78,3.16,4.65,3.16,8.61s-1.11,7-3.32,9.1c-1.8,1.7-4.09,2.54-6.85,2.54-3.23,0-5.64-1.03-7.26-3.08-1.48-1.86-2.21-4.5-2.21-7.91Zm9.76,5.99c1.04,0,1.78-.57,2.21-1.72.38-.96.57-2.39.57-4.3,0-2.3-.23-3.94-.7-4.92-.44-.93-1.13-1.39-2.09-1.39-1.86,0-2.79,1.86-2.79,5.58,0,2.27.19,3.92.57,4.96.44,1.2,1.17,1.8,2.21,1.8Z"/>
      <path class="cls-2" d="m237.93,52.59l1.76-4.84c.93.6,1.98,1.11,3.16,1.52,1.17.41,2.16.62,2.95.62,1.31,0,1.97-.52,1.97-1.56,0-.49-.18-.88-.55-1.17-.37-.29-1.07-.59-2.11-.92-2.24-.71-3.8-1.46-4.67-2.25-1.2-1.09-1.8-2.57-1.8-4.43,0-2.32.89-4.11,2.67-5.37,1.48-1.04,3.32-1.56,5.53-1.56,3.25,0,6,1.03,8.24,3.08l-3.12,3.94c-1.83-1.42-3.42-2.13-4.76-2.13-1.26,0-1.89.49-1.89,1.48,0,.49.21.91.62,1.25.41.34,1.15.68,2.21,1,2.16.71,3.69,1.46,4.59,2.25,1.23,1.09,1.85,2.56,1.85,4.39,0,2.41-.86,4.22-2.58,5.45-1.45,1.04-3.38,1.56-5.78,1.56-1.48,0-2.99-.21-4.53-.64-1.54-.42-2.79-.98-3.75-1.66Z"/>
      <path class="cls-2" d="m267.38,32.76c.38,0,.91.19,1.6.57.68.38,1.82,1.13,3.42,2.24,1.34.94,2.01,1.81,2.01,2.62,0,.74-.3,1.44-.91,2.13-.53.56-1.08.84-1.63.84-.48,0-1.27-.42-2.36-1.25-1.27-.96-2.37-1.75-3.31-2.36-.96-.66-1.44-1.33-1.44-2.01,0-.73.3-1.41.91-2.01.53-.51,1.1-.76,1.71-.76Zm6.99,12.39c0,.61-.29,1.88-.87,3.8-.58,1.93-1.2,3.69-1.86,5.28-.58,1.42-1.14,2.41-1.67,2.98-.53.57-1.15.85-1.86.85s-1.39-.25-1.98-.76c-.48-.43-.72-.9-.72-1.41s.23-1.19.68-2.05c1.34-2.53,2.42-5.41,3.23-8.63.23-.86.51-1.46.84-1.79.33-.33.81-.49,1.44-.49.84,0,1.51.2,2.01.61s.76.94.76,1.6Zm-5.74-21.36c.76,0,2.17.68,4.22,2.05,1.22.81,2.02,1.44,2.41,1.9.39.46.59.99.59,1.6,0,.73-.29,1.41-.87,2.01-.48.51-.99.76-1.52.76-.28,0-.61-.11-.99-.32-.38-.21-1.09-.7-2.13-1.46-.84-.63-1.67-1.2-2.51-1.71-1.12-.66-1.67-1.33-1.67-2.01,0-.73.29-1.41.87-2.01.51-.53,1.04-.8,1.6-.8Zm26.11,13.98c-.89.1-2.13.23-3.72.38-2.33.23-3.9.37-4.71.42-1.29.1-3.1.25-5.43.46-1.67.13-2.91.19-3.72.19-.66,0-1.13-.21-1.41-.65-.48-.76-.72-1.65-.72-2.66,0-.61.08-1.03.23-1.25.15-.23.67-.71,1.56-1.44,1.82-1.5,3.96-4.23,6.42-8.21.43-.66.81-1.12,1.14-1.37s.71-.38,1.14-.38c.84,0,1.57.25,2.2.76.53.43.8.91.8,1.44,0,.63-.58,1.72-1.75,3.27-1.77,2.43-3.31,4.37-4.6,5.81,4.33-.28,7.64-.57,9.92-.87-.48-.71-.84-1.23-1.06-1.56-.84-1.14-1.25-1.95-1.25-2.43,0-.58.29-1.12.87-1.62.58-.49,1.22-.74,1.9-.74.51,0,.99.23,1.44.7s1.28,1.56,2.47,3.29c2.48,3.6,3.72,5.9,3.72,6.92,0,.56-.3,1.07-.89,1.54-.6.47-1.23.7-1.92.7-.46,0-.84-.13-1.14-.4-.3-.27-.65-.77-1.03-1.5-.15-.28-.3-.54-.46-.8Zm-1.33,19.65h-12.46c-.91,0-1.62-.08-2.11-.25-.49-.17-.94-.46-1.35-.89-.33-.41-.55-.79-.67-1.16s-.17-.97-.17-1.8v-8.32c0-.89.08-1.54.23-1.98s.44-.84.87-1.22c.4-.38.82-.63,1.25-.74.43-.11,1.08-.17,1.94-.17h12.46c.91,0,1.62.08,2.11.25s.94.46,1.35.89c.33.41.55.79.67,1.16.11.37.17.97.17,1.8v8.32c0,.89-.08,1.54-.23,1.98-.15.43-.44.84-.87,1.22-.41.38-.82.63-1.25.74-.43.11-1.08.17-1.94.17Zm-.65-6.5v-4.1c0-.79-.46-1.18-1.37-1.18h-8.44c-.53,0-.89.12-1.08.36-.19.24-.29.7-.29,1.39v4.1c0,.79.46,1.18,1.37,1.18h8.44c.53,0,.89-.12,1.08-.36.19-.24.29-.7.29-1.39Z"/>
      <path class="cls-2" d="m320.73,26.22c-.2-.58-.3-1.06-.3-1.44,0-.46.29-.85.85-1.18.57-.33,1.26-.49,2.07-.49s1.48.21,1.92.63c.44.42.91,1.25,1.39,2.49h9.54c.53,0,.99.25,1.39.74.39.49.59,1.07.59,1.73s-.19,1.17-.57,1.62-.85.67-1.41.67h-21.81c-.63,0-.95.24-.95.72v7.37c0,5.6-.63,10.17-1.9,13.72-.71,1.98-1.51,3.47-2.39,4.48-.76.89-1.51,1.33-2.24,1.33-.79,0-1.46-.28-2.01-.84-.48-.46-.72-.98-.72-1.56s.44-1.53,1.33-2.93c1.29-2.03,2.17-4.5,2.62-7.41-1.88,1.5-3.13,2.24-3.76,2.24-.51,0-.99-.31-1.44-.93s-.68-1.26-.68-1.92c0-.81,1.19-1.91,3.57-3.31.46-.28,1.43-.95,2.93-2.01.02-.61.04-1.38.04-2.32v-6.12c0-1.98.4-3.37,1.22-4.18.71-.73,1.79-1.1,3.23-1.1h7.52Zm-16.04,2.93c.76,0,1.34.39,1.75,1.18.56,1.12,1.02,2.24,1.39,3.36.37,1.13.55,1.97.55,2.53s-.24,1.03-.72,1.42-1.05.59-1.71.59c-.38,0-.7-.13-.95-.38-.25-.25-.48-.68-.68-1.29-.46-1.22-.94-2.48-1.44-3.8-.3-.73-.46-1.34-.46-1.82,0-.46.23-.87.7-1.24.47-.37.99-.55,1.58-.55Zm22.99,14.33c1.29,1.62,2.23,3.08,2.81,4.39.58,1.31.87,2.62.87,3.93,0,1.92-.65,3.44-1.94,4.56-1.47,1.27-3.32,1.9-5.55,1.9-1.22,0-2.44-.12-3.67-.36-1.23-.24-2.22-.55-2.98-.93-.79-.41-1.18-1.06-1.18-1.98,0-.61.19-1.13.57-1.56.38-.43.85-.65,1.41-.65.48,0,1.17.11,2.05.34,1.16.3,2.28.46,3.34.46,1.77,0,2.66-.77,2.66-2.32,0-1.39-.73-3.07-2.2-5.02-.71-.94-1.17-1.61-1.39-2.01s-.32-.81-.32-1.22c0-.43.15-.8.44-1.1.29-.3.79-.62,1.5-.95,1.17-.56,3-1.61,5.51-3.15h-13.19c-.51,0-.94-.21-1.29-.65-.36-.43-.53-.96-.53-1.6s.18-1.17.53-1.6c.35-.43.78-.65,1.29-.65h17.86c.86,0,1.56.23,2.09.68.53.46.8,1.04.8,1.75,0,2.08-3.17,4.65-9.5,7.71Z"/>
      <path class="cls-2" d="m370.28,34.2c-.03-.08-.04-.15-.04-.23,0-.23.1-.73.3-1.52.02-.05.04-.14.04-.27,0-.25-.08-.48-.23-.68-.15-.2-.33-.3-.53-.3h-21.93c-.25,0-.51.13-.76.38-.18.18-.27.47-.27.87v1.29c0,.48-.21.88-.65,1.2-.43.32-.99.48-1.67.48s-1.26-.17-1.73-.49-.7-.72-.7-1.18v-3.12c0-2.61,1.42-3.91,4.26-3.91h9.58c-.25-.76-.38-1.38-.38-1.86,0-.51.29-.92.87-1.24.58-.32,1.33-.47,2.24-.47s1.56.23,1.96.68c.39.46.79,1.42,1.2,2.89h10.41c1.22,0,2.13.28,2.74.84.56.48.84,1.14.84,1.98,0,.79-.1,1.71-.3,2.77-.2,1.06-.42,1.82-.65,2.28-.35.68-1.04,1.03-2.05,1.03-.81,0-1.48-.21-2.01-.65.15.3.24.55.27.74.03.19.04.6.04,1.24v2.62c0,.79-.07,1.37-.21,1.77-.14.39-.4.75-.78,1.08-.35.33-.72.55-1.08.65-.37.1-.93.15-1.69.15h-17.37c-.79,0-1.39-.07-1.82-.21-.43-.14-.82-.4-1.18-.78-.3-.35-.51-.7-.61-1.04-.1-.34-.15-.88-.15-1.62v-2.62c0-.79.07-1.37.21-1.77.14-.39.4-.75.78-1.08.38-.33.75-.54,1.1-.65.35-.1.91-.15,1.67-.15h17.37c.79,0,1.37.06,1.77.19.39.13.78.37,1.16.72Zm-1.41,23.29h-20.56c-.94,0-1.65-.08-2.13-.25-.48-.17-.92-.48-1.33-.93-.38-.41-.63-.8-.74-1.2-.11-.39-.17-1.02-.17-1.88v-3.88c0-.91.08-1.6.23-2.05s.46-.89.91-1.29c.4-.35.82-.59,1.25-.72.43-.13,1.09-.19,1.98-.19h20.56c.94,0,1.65.08,2.15.25.49.17.94.47,1.35.93.35.41.59.8.7,1.2.11.39.17,1.02.17,1.88v3.88c0,.91-.08,1.6-.23,2.05-.15.46-.46.89-.91,1.29-.43.38-.85.63-1.27.74-.42.11-1.07.17-1.96.17Zm-.57-5.13v-2.24c0-.63-.3-.95-.91-.95h-17.59c-.61,0-.91.32-.91.95v2.24c0,.63.3.95.91.95h17.59c.61,0,.91-.32.91-.95Zm-2.13-13.64v-.95c0-.63-.3-.95-.91-.95h-13.19c-.61,0-.91.32-.91.95v.95c0,.63.3.95.91.95h13.19c.61,0,.91-.32.91-.95Z"/>
      <path class="cls-2" d="m391.64,34.31c1.72.89,2.92,1.62,3.59,2.19.67.57,1.01,1.13,1.01,1.69,0,.66-.24,1.26-.72,1.8-.48.55-1.01.82-1.6.82-.46,0-1.14-.28-2.05-.84-1.34-.84-2.72-1.63-4.14-2.39-3.27,2.23-5.61,3.34-7.03,3.34-.56,0-1.04-.27-1.44-.8-.41-.53-.61-1.15-.61-1.86,0-.53.15-.96.44-1.27.29-.32.88-.68,1.77-1.08,2.05-.99,3.95-2.15,5.7-3.5,1.49-1.14,2.24-1.95,2.24-2.43,0-.28-.15-.42-.46-.42h-7.18c-.48,0-.89-.22-1.22-.67-.33-.44-.49-.97-.49-1.58s.17-1.19.51-1.67c.34-.48.75-.72,1.24-.72h10.6c1.06,0,1.9.29,2.51.87.51.51.76,1.17.76,1.98,0,1.95-1.14,4.13-3.42,6.54Zm-1.52,11.89v4.56l.3-.08c2.38-.46,3.66-.68,3.84-.68.51,0,.94.25,1.29.74.35.49.53,1.1.53,1.8,0,.91-.46,1.6-1.37,2.05-.84.41-2.37.82-4.6,1.25-1.57.3-3.32.59-5.26.86-1.94.27-3.27.4-4.01.4-1.42,0-2.13-.81-2.13-2.43,0-.91.25-1.55.74-1.92.49-.37,1.45-.63,2.87-.78.68-.08,1.51-.19,2.47-.34.1,0,.23-.01.38-.04v-5.4h-4.1c-.48,0-.89-.23-1.23-.7s-.51-1.02-.51-1.65.17-1.18.51-1.63.75-.68,1.23-.68h12.54c.51,0,.94.22,1.31.67.37.44.55.98.55,1.62s-.18,1.19-.55,1.67c-.37.48-.79.72-1.27.72h-3.53Zm12.46-4.86v-2.09c0-.56.22-1.03.65-1.41.43-.38.97-.57,1.63-.57,1.39,0,2.09.82,2.09,2.47v1.94c0,3.27-.24,5.77-.72,7.5-.48,1.74-1.38,3.35-2.7,4.84-1.12,1.27-2.41,2.36-3.88,3.27-1.24.79-2.22,1.18-2.93,1.18-.53,0-1.03-.27-1.48-.82-.46-.55-.68-1.15-.68-1.81s.47-1.25,1.41-1.86c1.92-1.24,3.32-2.34,4.18-3.31.91-1.04,1.54-2.23,1.9-3.57.35-1.34.53-3.27.53-5.78Zm3.69-9.96h2.85c1.32,0,2.28.3,2.89.91.61.61.91,1.54.91,2.81v13.49c0,.48-.2.89-.61,1.22-.41.33-.91.49-1.52.49s-1.13-.16-1.58-.49c-.44-.33-.67-.73-.67-1.22v-11.89c0-.68-.37-1.03-1.1-1.03h-5.51c-.74,0-1.1.34-1.1,1.03v11.89c0,.48-.22.89-.67,1.22-.44.33-.97.49-1.58.49s-1.11-.16-1.52-.49c-.41-.33-.61-.73-.61-1.22v-13.49c0-1.27.3-2.2.91-2.81.61-.61,1.57-.91,2.89-.91h1.1l.8-2.24h-5.28c-.41,0-.75-.22-1.04-.67-.29-.44-.44-.96-.44-1.54s.15-1.06.44-1.5c.29-.44.64-.67,1.04-.67h15.92c.43,0,.81.22,1.14.65.33.43.49.94.49,1.52s-.17,1.1-.49,1.54c-.33.44-.71.67-1.14.67h-5.78l-.76,2.24Zm1.18,18.66c.71,0,1.9.67,3.57,2.01,2.3,1.88,3.46,3.24,3.46,4.1,0,.63-.26,1.2-.78,1.69-.52.49-1.1.74-1.73.74-.68,0-1.44-.39-2.28-1.18-.48-.46-1.33-1.2-2.55-2.24-1.32-1.11-1.98-1.96-1.98-2.55,0-.63.24-1.22.72-1.77.48-.54,1-.82,1.56-.82Z"/>
      <path class="cls-2" d="m420.86,46.55c-.96.81-1.74,1.22-2.32,1.22-.48,0-.95-.3-1.41-.91-.46-.61-.68-1.24-.68-1.9,0-.46.21-.89.63-1.29.42-.4,1.32-1.08,2.72-2.01.48-.33,1.08-.75,1.79-1.25.03-.28.05-1.2.08-2.77-.53.71-1.23,1.06-2.09,1.06-.41,0-.73-.13-.97-.38-.24-.25-.45-.68-.63-1.29-.46-1.47-.89-2.74-1.29-3.8-.25-.71-.38-1.3-.38-1.79s.23-.9.68-1.25.99-.53,1.6-.53c.53,0,.96.22,1.29.65.33.43.72,1.29,1.18,2.58.25.74.46,1.38.61,1.94v-4.33c0-1.75.39-3,1.18-3.76.71-.66,1.76-.99,3.15-.99h8.44c-.13-.28-.19-.54-.19-.8,0-.53.19-.9.57-1.1.78-.46,1.7-.68,2.74-.68.53,0,.99.2,1.37.59.38.39.76,1.06,1.14,2h10.41c.43,0,.82.21,1.16.63.34.42.51.88.51,1.39s-.17.94-.49,1.31c-.33.37-.72.55-1.18.55h-23.37c-.63,0-.95.24-.95.72v8.13c0,5.9-.65,10.64-1.94,14.21-1.37,3.75-2.88,5.62-4.52,5.62-.68,0-1.28-.22-1.79-.65-.51-.43-.76-.94-.76-1.52,0-.51.43-1.46,1.29-2.85,1.06-1.72,1.87-3.96,2.43-6.73Zm9.5-6.65h4.45c.73,0,1.3.07,1.69.21.39.14.75.39,1.08.74.3.33.5.65.59.95.09.3.13.79.13,1.44v1.56c0,.68-.06,1.21-.19,1.58-.13.37-.37.7-.72,1.01-.33.3-.67.51-1.03.61-.35.1-.87.15-1.56.15h-4.45c-.74,0-1.3-.07-1.71-.21-.41-.14-.76-.39-1.06-.74-.3-.33-.5-.65-.59-.95-.09-.3-.13-.78-.13-1.44v-1.56c0-.68.06-1.21.19-1.58.13-.37.37-.7.72-1.01.33-.3.67-.51,1.03-.61.35-.1.87-.15,1.56-.15Zm6.27,13.72v-3.61c0-.71.21-1.27.63-1.67s.99-.61,1.73-.61,1.35.2,1.77.61.63.96.63,1.67v3.61h3.99c.61,0,.91-.24.91-.72v-2.05c0-1.34.8-2.01,2.39-2.01s2.36.67,2.36,2.01v3.12c0,1.29-.3,2.2-.89,2.74-.6.53-1.63.8-3.1.8h-16c-1.5,0-2.53-.25-3.12-.76-.58-.51-.87-1.43-.87-2.77v-3.12c0-.58.23-1.06.68-1.42s1.03-.55,1.71-.55,1.25.18,1.69.55c.44.37.67.84.67,1.42v1.98c0,.3.06.51.19.63.13.11.37.17.72.17h3.91Zm9.04-14.86h-13.53c-1.12,0-1.93-.27-2.45-.8-.52-.53-.78-1.38-.78-2.55v-1.22c0-1.17.26-2.01.78-2.55.52-.53,1.35-.8,2.49-.8h13.45c1.14,0,1.97.27,2.49.8.52.53.78,1.38.78,2.55v1.22c0,1.17-.26,2.01-.78,2.55-.52.53-1.34.8-2.45.8Zm-14.82,4.75v.91c0,.33.06.54.17.65.11.1.36.15.74.15h1.63c.38,0,.63-.05.74-.15.11-.1.17-.32.17-.65v-.91c0-.46-.25-.68-.76-.68h-1.94c-.51,0-.76.23-.76.68Zm13.38-8.47v-.38c0-.51-.3-.76-.91-.76h-8.82c-.61,0-.91.25-.91.76v.38c0,.46.29.68.87.68h8.89c.58,0,.87-.23.87-.68Zm3.57,13.11h-4.86c-.74,0-1.29-.06-1.67-.19s-.74-.38-1.06-.76c-.3-.3-.5-.61-.59-.93-.09-.32-.13-.8-.13-1.46v-1.56c0-.68.06-1.21.19-1.58.13-.37.37-.72.72-1.04.33-.28.66-.47.99-.57.33-.1.85-.15,1.56-.15h4.86c.76,0,1.33.06,1.71.19.38.13.72.38,1.03.76.3.3.5.61.59.93.09.32.13.8.13,1.46v1.56c0,.68-.06,1.21-.19,1.58-.13.37-.37.72-.72,1.04-.33.28-.67.47-1.01.57-.34.1-.85.15-1.54.15Zm-.53-3.61v-1.03c0-.46-.29-.68-.87-.68h-2.05c-.58,0-.87.23-.87.68v1.03c0,.46.29.68.87.68h2.13c.53,0,.8-.23.8-.68Z"/>
    </g>
  </g>
</svg>