<svg width="1522" height="1297" viewBox="0 0 1522 1297" fill="none" xmlns="http://www.w3.org/2000/svg">
<g clip-path="url(#clip0_107_85)">
<path d="M1429.37 722.237L1424.96 717.825H1509.3L1513.71 722.237H1429.37Z" fill="#009EA7"/>
<path d="M1515.72 723.061H1429.01L1422.95 717H1509.66L1515.72 723.061ZM1429.7 721.39H1511.71L1508.97 718.649H1426.96L1429.7 721.39Z" fill="#009EA7"/>
<path d="M1509.66 947.333H12.3423L0 934.988V917.36V746.995V729.368L12.3423 717H1418.25L1427.63 726.382H1519.01L1522 729.368V746.995V917.36V934.988L1509.66 947.333ZM13.0329 945.684H1508.97L1520.35 934.297V919.009V745.324V730.036L1518.35 728.031H1426.96L1417.58 718.649H13.0329L1.64861 730.036V745.324V919.009V934.297L13.0329 945.684Z" fill="#009EA7"/>
<path opacity="0.29" d="M1498.72 938.33H26.0215L14.5703 926.586V736.811L26.1997 725.423H1414.42L1422.68 733.624H1510.93V925.36L1498.72 938.33Z" fill="url(#paint0_linear_107_85)" stroke="url(#paint1_linear_107_85)" stroke-width="0.75" stroke-miterlimit="10"/>
<path d="M409.033 845.85H398.986V867.02H387.446V845.85H353.426V837.604L384.772 788.289H398.986V836.312H409.033V845.827V845.85ZM387.423 836.334V815.699C387.423 811.42 387.847 804.779 388.069 800.501H387.646C385.73 804.467 383.591 808.523 381.341 812.579L365.835 836.334H387.446H387.423Z" fill="white"/>
<path d="M419.928 859.867C419.928 854.83 423.559 851.086 428.171 851.086C432.782 851.086 436.414 854.83 436.414 859.867C436.414 864.903 432.782 868.424 428.171 868.424C423.559 868.424 419.928 864.903 419.928 859.867Z" fill="white"/>
<path d="M453.301 856.88H470.522V802.105H456.397V794.305C463.772 792.923 469.007 791.096 473.507 788.311H482.82V856.88H498.214V867.042H453.301V856.88Z" fill="white"/>
<path d="M537.781 789.692H547.093V862.429H537.781V789.692ZM555.514 778.572H565.362V874.53H555.514V778.572ZM630.593 789.269V798.896H587.818C584.187 807.141 579.798 814.295 574.986 819.754C573.07 818.261 568.792 815.476 566.208 814.183C574.986 805.403 581.491 791.408 585.033 776.745L594.769 778.662C593.923 782.183 592.853 785.837 591.561 789.247H630.593V789.269ZM574.785 826.507H628.142V874.975H618.095V870.051H584.41V875.51H574.785V826.507ZM584.41 836.022V860.847H596.819V836.022H584.41ZM609.317 823.721C605.463 819.554 597.554 812.378 591.249 807.253L597.777 801.481C604.193 806.183 611.99 812.601 616.067 816.568L609.339 823.743L609.317 823.721ZM618.095 836.022H605.908V860.847H618.095V836.022Z" fill="white"/>
<path d="M658.508 817.615C658.508 834.083 657.015 859.019 647.926 875.265C646.01 873.549 641.732 870.674 639.371 869.605C647.814 854.518 648.572 832.701 648.572 817.503V790.428H690.7C689.208 786.907 687.069 782.628 685.131 779.308L695.401 776.522C698.074 780.801 701.06 786.461 702.575 790.428H737.329V799.943H658.508V817.592V817.615ZM707.387 827.13C715.184 839.855 727.705 852.267 739.579 858.797C737.329 860.824 734.01 864.457 732.406 866.93C722.135 860.29 711.553 849.281 703.644 837.181V875.488H693.708V836.869C686 849.816 675.306 861.159 664.412 868.111C662.696 865.749 659.6 862.117 657.238 860.312C669.536 853.582 681.833 840.635 689.208 827.152H662.897V817.748H693.708V802.996H703.644V817.748H736.148V827.152H707.387V827.13Z" fill="white"/>
<path d="M765.868 799.765V819.13C765.868 835.599 764.487 860.201 755.709 876.357C753.882 874.53 749.404 871.655 747.043 870.697C755.063 855.722 755.821 834.217 755.821 819.13V790.361H797.326C795.944 786.617 794.229 782.338 792.513 778.818L802.36 776.366C804.722 780.868 807.173 786.305 808.554 790.383H843.732V799.787H765.868V799.765ZM845.002 861.382V870.786H765.957V861.382H806.928C817.198 845.225 825.107 823.721 829.161 805.648L839.632 809.28C834.597 826.618 826.8 845.337 817.287 861.382H844.979H845.002ZM782.666 851.309C780.639 841.37 775.493 826.284 771.215 814.718L779.881 811.398C784.582 822.852 789.617 837.493 791.956 847.343L782.644 851.309H782.666ZM802.026 845.003C800.645 835.153 796.791 820.066 793.36 808.523L802.45 806.161C806.081 817.704 810.047 832.367 811.651 842.217L802.026 845.003Z" fill="white"/>
<path d="M944.987 862.986C944.987 868.758 943.606 871.767 939.752 873.26C935.786 874.864 929.593 875.087 919.746 874.975C919.322 872.301 917.718 867.911 916.426 865.349C923.266 865.661 930.328 865.571 932.355 865.571C934.271 865.571 935.029 864.925 935.029 862.897V843.755H909.141V874.352H899.205V843.755H874.609C872.894 855.521 869.04 867.51 861.242 876.157C859.75 874.24 855.673 870.808 853.445 869.627C865.096 856.68 866.166 837.738 866.166 822.674V784.589H944.987V863.009V862.986ZM899.227 834.306V818.484H876.013V822.763C876.013 826.395 875.902 830.362 875.59 834.306H899.227ZM876.013 794.083V809.169H899.227V794.083H876.013ZM935.051 794.083H909.163V809.169H935.051V794.083ZM935.051 834.306V818.484H909.163V834.306H935.051Z" fill="white"/>
<path d="M967.021 808.523C973.325 811.732 981.68 816.657 985.846 820.289L979.742 828.089C975.776 824.233 967.555 818.885 961.139 815.364L967.021 808.523ZM982.304 834.195L989.789 840.724C984.554 851.643 977.915 863.722 971.922 873.571L963.367 866.931C968.714 859.02 976.422 846.072 982.304 834.195ZM972.568 779.753C978.761 783.274 986.893 788.623 990.859 792.478L984.442 799.966C980.477 795.91 972.679 790.227 966.375 786.283L972.568 779.753ZM1056.65 793.124H1003.91V860.624H1058.79V870.474H993.666V783.386H1056.65V793.124Z" fill="white"/>
<path d="M1068.39 865.549C1072.55 860.089 1075.98 850.685 1077.79 842.328L1087.19 844.044C1085.59 852.914 1082.16 863.187 1077.57 869.828L1068.37 865.549H1068.39ZM1083.16 833.459V798.272H1100.58C1098.55 793.347 1094.59 786.617 1090.64 781.581L1099.09 777.614C1103.68 782.962 1108.4 790.249 1110.2 795.263L1104.01 798.25H1124.86C1128.72 791.943 1133 783.698 1135.56 777.28L1145.83 781.447C1142.62 787.018 1139.1 793.102 1135.78 798.25H1151.93V833.437H1083.16V833.459ZM1132.66 865.437C1137.7 865.437 1138.54 863.944 1139.08 855.164C1141.44 856.657 1145.6 858.15 1148.48 858.685C1147.19 871.298 1143.98 874.418 1133.28 874.418H1110.94C1096.93 874.418 1093.52 871.633 1093.52 861.694V840.724H1103.99V861.582C1103.99 864.903 1105.17 865.437 1111.79 865.437H1132.64H1132.66ZM1093.85 824.144H1140.79V807.564H1093.85V824.144ZM1126.58 856.033C1122.72 850.997 1114.93 843.621 1108.18 839.03L1115.24 833.459C1122.19 837.961 1129.99 844.913 1133.84 849.615L1126.58 856.033ZM1151.71 839.654C1157.9 846.83 1164.32 856.345 1166.57 862.964L1158.44 868C1156.19 861.359 1150.11 851.42 1144 844.044L1151.71 839.654Z" fill="white"/>
<path d="M1429.37 1071.88L1424.96 1067.47H1509.3L1513.71 1071.88H1429.37Z" fill="#009EA7"/>
<path d="M1515.72 1072.71H1429.01L1422.95 1066.64H1509.66L1515.72 1072.71ZM1429.7 1071.06H1511.71L1508.97 1068.32H1426.96L1429.7 1071.06Z" fill="#009EA7"/>
<path d="M1509.66 1297H12.3423L0 1284.65V1267.03V1096.66V1079.03L12.3423 1066.69H1418.25L1427.63 1076.07H1519.01L1522 1079.06V1096.68V1267.05V1284.68L1509.66 1297.02V1297ZM13.0329 1295.33H1508.97L1520.35 1283.94V1268.65V1094.97V1079.68L1518.35 1077.68H1426.96L1417.58 1068.29H13.0329L1.64861 1079.68V1094.97V1268.65V1283.94L13.0329 1295.33Z" fill="#009EA7"/>
<path opacity="0.29" d="M1498.72 1287.97H26.0215L14.5703 1276.23V1086.46L26.1997 1075.09H1414.42L1422.68 1083.27H1510.93V1275.03L1498.72 1287.97Z" fill="url(#paint2_linear_107_85)" stroke="url(#paint3_linear_107_85)" stroke-width="0.75" stroke-miterlimit="10"/>
<path d="M409.033 1195.52H398.986V1216.69H387.446V1195.52H353.426V1187.27L384.772 1137.96H398.986V1185.98H409.033V1195.49V1195.52ZM387.423 1185.98V1165.34C387.423 1161.06 387.847 1154.42 388.069 1150.15H387.646C385.73 1154.11 383.591 1158.17 381.341 1162.22L365.835 1185.98H387.446H387.423Z" fill="white"/>
<path d="M419.928 1209.53C419.928 1204.5 423.559 1200.75 428.171 1200.75C432.782 1200.75 436.414 1204.5 436.414 1209.53C436.414 1214.57 432.782 1218.09 428.171 1218.09C423.559 1218.09 419.928 1214.57 419.928 1209.53Z" fill="white"/>
<path d="M448.8 1209.53C472.015 1188.99 483.978 1173.7 483.978 1160.75C483.978 1152.2 479.389 1146.31 470.611 1146.31C464.418 1146.31 459.271 1150.28 455.105 1155.09L448.154 1148.25C454.882 1140.99 461.833 1136.48 472.104 1136.48C486.54 1136.48 495.853 1145.89 495.853 1160.13C495.853 1175.33 483.778 1191.04 467.091 1206.99C471.146 1206.57 476.069 1206.24 479.923 1206.24H499.595V1216.71H448.8V1209.53Z" fill="white"/>
<path d="M627.385 1138.38V1161.6H617.114V1148.12H547.917V1161.6H538.07V1138.38H577.637C576.345 1135.28 574.741 1131.85 573.248 1129.06L583.407 1126.08C585.546 1129.93 587.996 1134.52 589.511 1138.38H627.363H627.385ZM545.89 1190.79H620.211V1224.91H610.275V1221.39H555.403V1225.02H545.89V1190.79ZM613.06 1156.36V1182.68H552.306V1156.36H613.06ZM555.425 1199.46V1212.72H610.297V1199.46H555.425ZM603.435 1164.38H561.507V1174.66H603.435V1164.38Z" fill="white"/>
<path d="M681.187 1172.61C677.667 1169.29 671.14 1164.7 665.036 1160.95C659.154 1166.3 652.738 1170.69 646.322 1174.21C644.829 1172.07 641.821 1168.64 639.794 1166.95C651.134 1161.6 662.674 1151.97 669.625 1141.28H643.96V1132.3H675.083L676.91 1131.87L683.549 1135.3C680.564 1142.48 676.375 1148.79 671.363 1154.56C677.356 1157.99 683.972 1162.36 687.626 1165.37L681.21 1172.63L681.187 1172.61ZM686.311 1211.34C671.652 1215.08 655.834 1218.83 644.272 1221.5L641.91 1212.19C646.834 1211.23 653.027 1210.05 659.978 1208.55V1187.27H644.161V1178.49H684.262V1187.27H669.603V1206.53C674.838 1205.46 680.185 1204.27 685.42 1203.09L686.267 1211.34H686.311ZM717.123 1185.67C717.123 1199.04 712.845 1215.31 688.673 1225.58C687.492 1223.44 684.618 1220.34 682.569 1218.51C705.783 1210.16 707.699 1196.16 707.699 1185.56V1164.9H717.1V1185.64L717.123 1185.67ZM704.067 1150.26C705.137 1147.27 706.206 1143.84 707.164 1140.63H686.423V1131.54H738.176V1140.63H717.858C716.365 1143.95 714.962 1147.36 713.692 1150.26H734.968V1199.88H725.343V1159.13H699.255V1200.2H690.054V1150.23H704.067V1150.26ZM719.885 1201.18C726.613 1206.3 735.28 1213.59 739.357 1218.4L732.94 1225.36C729.086 1220.43 720.643 1212.63 714.004 1207.28L719.885 1201.18Z" fill="white"/>
<path d="M845.447 1136.89V1145.33H771.772V1170.78C771.772 1187.36 769.633 1210.69 756.378 1225.33C754.996 1223.51 751.343 1219.98 749.538 1218.69C757.024 1210.25 760.343 1199.44 761.724 1188.85C757.558 1191.42 753.481 1193.78 749.538 1196.12L746.441 1187.14C750.607 1185.22 756.378 1182.21 762.482 1179C762.705 1176.22 762.705 1173.34 762.705 1170.76V1136.84H801.313C800.021 1134.17 798.417 1131.18 796.724 1128.82L805.591 1126.03C808.041 1129.13 810.514 1133.41 812.007 1136.84H845.492L845.447 1136.89ZM753.882 1170.27C753.236 1164.7 750.674 1155.83 747.689 1149.19L754.952 1146.2C758.16 1152.84 760.945 1161.4 761.68 1166.75L753.882 1170.27ZM775.715 1173.9H805.658V1194.87H775.715V1173.9ZM831.857 1199.8H841.17V1224.93H831.857V1221.41H776.361V1199.8H785.674V1213.39H803.853V1196.5H813.477V1213.39H831.879V1199.8H831.857ZM783.201 1188.23H797.86V1180.52H783.201V1188.23ZM832.169 1169.51H786.075V1149.5H832.169V1169.51ZM823.414 1156.14H794.318V1162.87H823.414V1156.14ZM811.651 1173.9H842.996V1194.87H811.651V1173.9ZM819.248 1188.23H835.177V1180.52H819.248V1188.23Z" fill="white"/>
<path d="M945.098 1155.72C942.202 1172.72 937.836 1186.54 930.974 1197.66C936.744 1206.1 944.118 1212.52 953.431 1216.6C951.18 1218.63 947.972 1222.48 946.591 1225.27C937.502 1220.77 930.439 1214.26 924.669 1206.32C917.941 1214.12 909.386 1220.34 898.581 1225.27C897.623 1222.9 894.838 1218.43 892.922 1216.4C904.262 1211.81 912.705 1205.7 919.233 1197.57C914.844 1189.32 911.436 1180.03 908.762 1169.76C906.846 1173.28 904.797 1176.49 902.569 1179.27C901.499 1178.2 899.784 1176.82 897.979 1175.3V1213.7H868.238V1220.54H859.037V1174.44H873.584V1156.36H854.559V1147.16H873.584V1127.06H883.521V1147.16H901.7V1156.36H883.521V1174.44H896.776C895.818 1173.68 894.95 1173.05 894.214 1172.61C903.415 1162.22 909.408 1145 912.505 1126.92L922.553 1128.53C921.483 1134.64 919.991 1140.61 918.275 1146.29H952.606V1155.69H945.121L945.098 1155.72ZM888.422 1183.75H868.215V1204.39H888.422V1183.75ZM915.045 1155.92C917.184 1167.68 920.614 1178.71 925.315 1188.01C930.016 1179.14 933.024 1168.44 935.162 1155.69H915.156L915.045 1155.92Z" fill="white"/>
<path d="M1058.87 1195.18H1047.76V1213.9H1037.71V1209.31H1014.94V1214.88C1014.94 1220.34 1013.56 1222.59 1009.91 1223.97C1006.28 1225.27 1000.71 1225.36 991.728 1225.36C991.193 1223.1 989.7 1219.47 988.297 1217.33C994.178 1217.56 1000.59 1217.56 1002.31 1217.44C1004.23 1217.33 1004.87 1216.8 1004.87 1214.99V1209.33H971.499V1201.85H1004.87V1195.2H962.097V1187.4H1004.87V1181.3H972.479V1174.23H1004.87V1167.93H975.241V1148.25H1004.87V1142.79H964.347V1134.77H1004.87V1126.97H1014.92V1134.77H1056.62V1142.79H1014.92V1148.25H1046.04V1167.93H1014.92V1174.23H1047.76V1187.38H1058.87V1195.18ZM1004.87 1161.27V1154.85H984.777V1161.27H1004.87ZM1014.92 1154.87V1161.29H1035.99V1154.87H1014.92ZM1014.92 1187.38H1037.69V1181.28H1014.92V1187.38ZM1037.71 1195.18H1014.94V1201.82H1037.71V1195.18Z" fill="white"/>
<path d="M1105.39 1181.5C1105.17 1184.06 1105.08 1187.92 1105.28 1189.95C1079.08 1195.18 1075.23 1196.25 1072.67 1197.54C1072.24 1195.72 1070.75 1191.24 1069.68 1188.76C1072.13 1188.12 1074.6 1185.78 1077.81 1181.7C1079.73 1179.87 1083.38 1175.17 1087.55 1169.18C1076.21 1170.56 1073.65 1171.09 1072.04 1171.96C1071.51 1170.04 1070.01 1165.32 1068.83 1162.76C1070.86 1162.11 1072.69 1159.86 1075.03 1156.34C1077.39 1153.02 1084.87 1139.65 1088.93 1127.24L1098.24 1131.74C1093.74 1142.01 1087.86 1152.82 1081.67 1161.38L1093.21 1160.42C1095.57 1156.79 1097.71 1152.82 1099.73 1148.96L1107.87 1154C1101.67 1164.92 1093.96 1175.82 1086.26 1184.91L1105.39 1181.48V1181.5ZM1106.89 1208.02C1094.59 1212.07 1081.75 1216.15 1071.8 1219.25L1069.77 1209.85C1078.64 1207.59 1092.11 1203.65 1105.39 1199.79L1106.89 1208.04V1208.02ZM1165.28 1183.1C1160.15 1191.35 1153.4 1198.5 1145.49 1204.72C1148.39 1211.56 1151.69 1215.42 1155.43 1215.42C1157.99 1215.42 1159.06 1212.85 1159.48 1203.76C1161.4 1206.12 1164.52 1208.15 1166.66 1209.22C1165.05 1221.63 1162.16 1225.04 1154.36 1225.04C1147.19 1225.04 1141.64 1219.58 1137.36 1210.49C1129.23 1215.84 1120.03 1220.12 1110.52 1223.44C1109.14 1220.99 1106.66 1217.56 1104.41 1215.3C1114.99 1212.1 1125.15 1207.51 1134.04 1201.82C1132.02 1195.4 1130.41 1188.03 1129.23 1180.12L1109.45 1183.75L1107.95 1174.88L1127.96 1171.14C1127.54 1167.08 1127.11 1162.89 1126.78 1158.72L1111.81 1160.98L1110.09 1151.99L1126.13 1149.63C1125.71 1142.14 1125.49 1134.43 1125.49 1126.75H1135.42C1135.31 1134.12 1135.42 1141.19 1135.85 1148.14L1160.02 1144.51L1161.73 1153.29L1136.38 1157.25C1136.69 1161.42 1137.14 1165.5 1137.56 1169.44L1163 1164.74L1164.5 1173.41L1138.72 1178.22C1139.68 1184.75 1140.97 1190.64 1142.35 1195.65C1148.23 1190.84 1153.27 1185.38 1157.01 1179.38L1165.25 1183.13L1165.28 1183.1ZM1153.31 1143.73C1150.11 1140.74 1143.8 1136.55 1138.88 1133.88L1144.65 1128.64C1149.46 1130.89 1155.99 1134.84 1159.2 1137.62L1153.31 1143.73Z" fill="white"/>
</g>
<g clip-path="url(#clip1_107_85)">
<path d="M356.115 382.201V368.933C356.115 366.312 357.357 364.036 359.843 362.104C362.328 360.173 365.227 359.207 368.564 359.207C371.901 359.207 374.708 360.15 377.079 362.012C379.426 363.875 380.6 366.197 380.6 368.956V382.224H403.612C408.582 382.224 412.356 382.638 414.91 383.466C417.465 384.293 419.789 385.949 421.86 388.432C423.793 390.502 425.082 392.617 425.703 394.756C426.324 396.894 426.647 400.251 426.647 404.804V478.592H434.747C438.061 478.592 440.684 479.672 442.64 481.811C444.573 483.949 445.539 486.823 445.539 490.411C445.539 493.998 444.527 496.987 442.525 499.332C440.523 501.678 437.922 502.85 434.747 502.85H258.636C256.15 502.85 254.01 501.701 252.215 499.424C250.42 497.148 249.523 494.342 249.523 491.031C249.523 487.72 250.466 484.8 252.33 482.317C254.194 479.833 256.311 478.592 258.659 478.592H268.209V404.804C268.209 399.975 268.623 396.342 269.451 393.928C270.28 391.514 271.868 389.191 274.215 386.984C276.424 385.052 278.633 383.765 280.842 383.144C283.051 382.523 286.503 382.201 291.221 382.201H312.576V369.347C312.576 366.726 313.819 364.45 316.304 362.518C318.789 360.587 321.689 359.621 325.025 359.621C328.362 359.621 331.17 360.587 333.54 362.518C335.887 364.45 337.061 366.726 337.061 369.347V382.201H356.138H356.115ZM264.021 552.793C260.983 552.379 258.429 550.655 256.358 547.619C254.286 544.584 253.251 540.997 253.251 536.835C253.251 533.8 254.494 531.248 256.979 529.155C259.464 527.086 263.951 524.809 270.464 522.326C281.257 518.325 290.784 513.956 299.091 509.266C306.133 505.265 311.678 503.264 315.683 503.264C318.306 503.264 320.86 504.966 323.346 508.346C325.831 511.726 327.074 515.221 327.074 518.808C327.074 522.395 323.277 526.465 315.66 531.041C308.733 535.042 296.652 540.79 279.37 548.24L264.021 552.793ZM312.553 406.46H298.447C295.133 406.46 293.476 408.115 293.476 411.426V430.488H312.553V406.437V406.46ZM312.553 478.592V452.884H293.476V478.592H312.553ZM356.115 430.511V406.46H337.038V430.511H356.115ZM356.115 452.884H337.038V478.592H356.115V452.884ZM377.263 503.678C379.61 503.678 383.315 504.713 388.355 506.782C393.394 508.852 405.061 514.186 423.31 522.74C432.998 527.293 437.83 532.007 437.83 536.835C437.83 540.56 436.657 543.871 434.31 546.792C431.962 549.689 429.339 551.138 426.416 551.138C423.494 551.138 418.385 549.413 411.482 545.964C406.373 543.343 398.273 539.549 387.204 534.559C378.068 530.558 372.338 527.73 369.991 526.051C366.401 523.706 364.606 520.809 364.606 517.336C364.606 513.611 365.918 510.162 368.541 506.966C370.336 504.759 373.236 503.655 377.263 503.655V503.678ZM380.6 430.511H401.333V411.656C401.333 410.139 400.735 408.897 399.561 407.931C398.388 406.965 396.823 406.483 394.89 406.483H380.576V430.534L380.6 430.511ZM380.6 452.884V478.592H401.333V452.884H380.6Z" fill="#EC6602"/>
<path d="M550.474 433.615V465.117C550.474 466.221 550.267 467.394 549.853 468.635C551.372 468.221 552.891 468.014 554.409 468.014C558.137 468.014 561.382 469.164 564.166 471.44C566.928 473.717 568.309 476.522 568.309 479.833V484.386H624.527C627.288 484.386 629.705 485.559 631.776 487.904C633.847 490.25 634.882 493.078 634.882 496.412C634.882 499.746 633.87 502.275 631.868 504.506C629.866 506.713 627.403 507.817 624.504 507.817H568.286V523.154H640.681C643.443 523.154 645.859 524.373 647.93 526.787C650.001 529.201 651.037 532.007 651.037 535.18C651.037 538.353 650.024 541.043 648.022 543.274C646.02 545.481 643.558 546.585 640.658 546.585H469.127C466.089 546.585 463.489 545.435 461.349 543.159C459.209 540.882 458.127 538.146 458.127 534.973C458.127 531.8 459.185 528.856 461.349 526.58C463.489 524.304 466.089 523.154 469.127 523.154H540.901V507.817H481.99C478.953 507.817 476.329 506.667 474.097 504.391C471.888 502.114 470.784 499.378 470.784 496.205C470.784 493.032 471.888 490.089 474.097 487.812C476.306 485.536 478.93 484.386 481.99 484.386H540.901V479.833C540.901 477.902 541.454 476.039 542.558 474.246C540.901 474.66 539.244 474.867 537.588 474.867C533.721 474.867 530.661 473.993 528.452 472.268C526.243 470.544 525.138 468.152 525.138 465.117V433.615H506.682C504.749 445.503 500.814 456.081 494.854 465.324C489.607 473.211 484.683 477.143 480.126 477.143C476.122 477.143 472.371 475.556 468.92 472.383C465.882 469.762 464.363 467.072 464.363 464.312C464.363 462.105 466.02 459.07 469.334 455.184C474.995 448.561 478.677 441.364 480.334 433.638H471.819C468.367 433.638 465.56 432.535 463.42 430.327C461.28 428.12 460.198 425.292 460.198 421.82C460.198 418.347 461.303 415.427 463.512 413.013C465.721 410.598 468.482 409.38 471.819 409.38H483.233C483.371 407.586 483.44 405.655 483.44 403.585V392.18H476.813C473.361 392.18 470.553 391.077 468.413 388.869C466.273 386.662 465.192 383.834 465.192 380.361C465.192 376.889 466.296 373.969 468.505 371.555C470.715 369.14 473.476 367.922 476.813 367.922H556.664C559.978 367.922 562.717 369.094 564.857 371.44C566.997 373.785 568.078 376.751 568.078 380.361C568.078 383.971 567.043 386.639 564.972 388.869C562.901 391.077 560.139 392.18 556.664 392.18H550.451V409.38H562.279C565.179 409.38 567.595 410.598 569.528 413.013C571.461 415.427 572.428 418.439 572.428 422.026C572.428 425.614 571.484 428.281 569.62 430.419C567.756 432.558 565.294 433.638 562.256 433.638H550.428L550.474 433.615ZM525.161 392.157H508.776V409.357H525.161V392.157ZM601.078 383.052V430.925C601.078 439.226 596.936 443.365 588.628 443.365C583.658 443.365 580.045 441.571 577.836 437.984C577.007 436.467 576.593 433.914 576.593 430.327V383.052C576.593 379.189 577.744 376.108 580.022 373.831C582.3 371.555 585.314 370.405 589.042 370.405C592.77 370.405 595.716 371.509 597.856 373.716C599.996 375.924 601.078 379.028 601.078 383.052ZM615.805 443.986V371.233C615.805 368.336 617.048 365.875 619.533 363.875C622.019 361.874 624.987 360.863 628.462 360.863C631.937 360.863 635.066 361.874 637.483 363.875C639.899 365.875 641.119 368.336 641.119 371.233V449.366C641.119 459.875 638.426 467.187 633.018 471.326C628.462 475.051 621.052 476.913 610.835 476.913C605.312 476.913 599.973 476.269 594.864 474.936C589.756 473.625 586.281 471.992 584.486 470.061C582.691 467.991 581.794 465.439 581.794 462.404C581.794 458.679 582.737 455.667 584.601 453.39C586.465 451.114 588.927 449.964 591.965 449.964C594.036 449.964 596.314 450.171 598.799 450.585C603.77 451.413 607.429 451.827 609.799 451.827C612.17 451.827 613.734 451.298 614.563 450.263C615.391 449.228 615.805 447.113 615.805 443.94V443.986Z" fill="#EC6602"/>
<path d="M761.84 375.579V375.372L761.633 374.958C760.528 372.474 759.976 370.474 759.976 368.956C759.976 366.197 761.012 364.265 763.083 363.162C767.501 360.678 772.426 359.437 777.81 359.437C780.848 359.437 783.471 360.655 785.704 363.07C787.913 365.484 790.122 369.669 792.331 375.602H848.135C850.897 375.602 853.29 376.774 855.292 379.12C857.294 381.465 858.307 384.155 858.307 387.213C858.307 390.272 857.294 392.87 855.292 395.077C853.29 397.285 850.897 398.389 848.135 398.389H725.964C722.513 398.389 720.787 399.699 720.787 402.32V443.158C720.787 475.349 717.266 501.194 710.201 520.67C702.745 540.974 694.507 551.137 685.509 551.137C681.781 551.137 678.513 549.965 675.752 547.619C672.991 545.274 671.61 542.515 671.61 539.318C671.61 536.559 673.957 531.363 678.652 523.775C684.865 513.68 689.444 500.85 692.344 485.214L687.166 489.146C681.505 493.423 677.064 495.561 673.888 495.561C671.265 495.561 668.71 493.905 666.202 490.594C663.717 487.283 662.474 483.765 662.474 480.017C662.474 475.602 668.963 469.647 681.965 462.197C684.727 460.541 689.352 457.368 695.865 452.654C696.141 446.446 696.279 440.559 696.279 435.041V401.677C696.279 391.996 698.419 385.098 702.699 380.959C706.427 377.372 712.18 375.579 719.912 375.579H761.817H761.84ZM675.752 395.468C679.756 395.468 682.725 397.538 684.681 401.677C687.58 407.471 689.973 413.496 691.837 419.704C693.701 425.935 694.645 430.626 694.645 433.799C694.645 436.972 693.356 439.433 690.802 441.571C688.248 443.71 685.164 444.79 681.574 444.79C677.708 444.79 674.809 441.755 672.853 435.662C670.505 428.488 668.089 421.566 665.604 414.944C664.223 411.081 663.533 407.839 663.533 405.195C663.533 402.711 664.775 400.458 667.261 398.458C669.746 396.457 672.576 395.445 675.775 395.445L675.752 395.468ZM788.994 486.662C784.576 496.757 779.582 504.759 774.059 510.714C769.227 515.957 764.855 518.578 760.989 518.578C757.813 518.578 754.89 517.336 752.267 514.853V540.56C752.267 548.424 748.194 552.379 740.025 552.379C731.855 552.379 727.782 548.447 727.782 540.56V462.634C727.782 456.425 729.646 451.505 733.374 447.917C736.412 445.02 741.682 443.572 749.137 443.572H775.072V431.339H732.132C729.646 431.339 727.506 430.235 725.711 428.028C723.916 425.82 723.019 423.199 723.019 420.164C723.019 417.129 723.916 414.254 725.711 411.978C727.506 409.702 729.646 408.552 732.132 408.552H844.752C847.514 408.552 849.861 409.656 851.794 411.863C853.727 414.07 854.694 416.761 854.694 419.957C854.694 423.153 853.75 426.004 851.886 428.143C850.022 430.281 847.629 431.362 844.729 431.362H796.404V443.595H827.102C834.834 443.595 840.403 445.227 843.809 448.469C847.192 451.712 848.895 457.069 848.895 464.542V527.339C848.895 536.881 846.685 543.365 842.267 546.814C838.263 549.85 831.544 551.367 822.155 551.367C812.052 551.367 804.873 550.126 800.592 547.642C797.002 545.435 795.208 542.055 795.208 537.479C795.208 534.306 795.967 531.684 797.486 529.615C799.005 527.546 800.938 526.511 803.285 526.511C804.942 526.511 807.703 526.994 811.592 527.959C814.077 528.511 816.425 528.787 818.634 528.787C822.5 528.787 824.433 526.166 824.433 520.9V505.149C824.295 508.323 823.006 510.99 820.59 513.128C818.174 515.267 815.297 516.348 811.983 516.348C809.636 516.348 807.772 515.704 806.391 514.37C805.011 513.059 803.354 510.392 801.421 506.391C800.73 505.011 796.588 498.435 788.971 486.708L788.994 486.662ZM752.29 499.93C752.842 499.378 754.292 497.929 756.639 495.584C765.913 486.869 771.643 477.143 773.852 466.359H756.846C753.809 466.359 752.29 468.014 752.29 471.325V499.93ZM798.544 466.359C815.688 486.524 824.341 499.309 824.479 504.69V471.946C824.479 468.221 822.891 466.359 819.715 466.359H798.567H798.544Z" fill="#EC6602"/>
<path d="M914.064 472.774V540.974C914.064 544.561 912.914 547.458 910.635 549.689C908.357 551.896 905.274 553 901.408 553C893.538 553 889.579 548.999 889.579 540.974V455.989C887.094 457.92 884.678 458.886 882.331 458.886C878.879 458.886 875.772 457.736 872.988 455.46C870.226 453.183 868.846 450.585 868.846 447.688C868.846 444.101 870.917 438.697 875.059 431.523C885.852 412.461 893.446 393.79 897.887 375.556C899.406 369.209 901.132 364.841 903.065 362.495C904.998 360.15 907.897 358.977 911.786 358.977C915.675 358.977 919.035 359.874 921.543 361.667C924.029 363.461 925.271 365.806 925.271 368.703C925.271 375.326 922.579 386.11 917.171 401.033L915.721 405.586C915.169 407.103 914.617 408.552 914.064 409.932V466.313C914.755 464.105 916.619 460.242 919.656 454.701C929.206 437.846 936.179 417.405 940.597 393.353H933.118C930.633 393.353 928.493 392.111 926.698 389.628C924.903 387.145 924.005 384.316 924.005 381.12C924.005 377.924 924.857 375.05 926.606 372.819C928.332 370.612 930.518 369.508 933.141 369.508H991.017C993.64 369.508 995.895 370.658 997.759 372.934C999.623 375.211 1000.57 377.947 1000.57 381.12C1000.57 384.293 999.6 387.306 997.667 389.72C995.734 392.134 993.525 393.353 991.04 393.353H964.484C964.069 395.974 963.034 401.378 961.377 409.518H977.762C990.487 409.518 996.839 415.933 996.839 428.787C996.839 442.468 994.353 457.598 989.36 474.177C985.079 488.686 979.81 501.195 973.596 511.703C966.256 524.005 958.593 533.938 950.584 541.549C943.658 548.033 937.997 551.298 933.578 551.298C930.265 551.298 927.181 549.781 924.351 546.746C921.52 543.71 920.093 540.399 920.093 536.789C920.093 533.179 923.614 528.557 930.679 522.487C935.65 518.348 940.574 513.129 945.407 506.828C950.239 500.551 954.266 494.365 957.442 488.272C955.509 486.892 954.059 485.858 953.093 485.168C949.227 482.685 946.626 480.546 945.315 478.753C944.003 476.959 943.336 474.752 943.336 472.13C943.336 468.543 944.394 465.255 946.557 462.289C948.697 459.323 951.091 457.828 953.714 457.828C957.304 457.828 961.86 460.173 967.406 464.864C968.787 460.311 970.076 454.977 971.249 448.906C972.423 442.836 973.021 438.329 973.021 435.432C973.021 433.087 971.779 431.914 969.293 431.914H955.808C953.185 442.008 948.26 453.758 941.08 467.141C938.319 472.383 935.857 475.993 933.717 477.925C931.576 479.856 928.976 480.822 925.939 480.822C920.278 480.822 916.319 478.132 914.11 472.728L914.064 472.774ZM1059.27 371.854V525.844C1059.27 532.328 1058.6 537.18 1057.29 540.353C1055.98 543.527 1053.59 546.079 1050.13 548.01C1045.99 550.356 1040.24 551.528 1032.92 551.528C1020.61 551.528 1011.84 550.08 1006.57 547.183C1001.88 544.561 999.531 540.698 999.531 535.571C999.531 532.397 1000.36 529.661 1002.02 527.385C1003.67 525.108 1005.61 523.959 1007.82 523.959C1008.92 523.959 1011.34 524.373 1015.06 525.2C1020.17 526.442 1025.1 527.063 1029.79 527.063C1033.11 527.063 1034.76 524.786 1034.76 520.234V371.854C1034.76 368.267 1035.82 365.438 1037.98 363.346C1040.12 361.276 1043.14 360.242 1047 360.242C1050.87 360.242 1053.7 361.276 1055.93 363.346C1058.14 365.415 1059.25 368.244 1059.25 371.854H1059.27ZM1024.43 390.502V496.205C1024.43 499.792 1023.46 502.666 1021.53 504.805C1019.6 506.943 1016.97 508.024 1013.66 508.024C1006.73 508.024 1003.28 504.092 1003.28 496.205V390.502C1003.28 387.053 1004.29 384.224 1006.3 381.994C1008.3 379.787 1010.9 378.683 1014.07 378.683C1017.25 378.683 1019.78 379.764 1021.65 381.902C1023.51 384.04 1024.45 386.915 1024.45 390.502H1024.43Z" fill="#EC6602"/>
<path d="M1174.61 400.665H1127.52C1125.31 400.665 1123.89 400.987 1123.27 401.608C1122.65 402.229 1122.32 403.654 1122.32 405.862V452.493C1122.32 486.754 1118.66 513.289 1111.32 532.075C1108.42 539.387 1105.55 544.722 1102.72 548.033C1099.89 551.344 1096.66 553 1093.08 553C1089.49 553 1086.24 551.85 1083.32 549.574C1080.42 547.297 1078.97 544.768 1078.97 542.009C1078.97 538.698 1080.35 534.145 1083.11 528.327C1087.94 518.095 1091.3 507.265 1093.17 495.791C1095.03 484.317 1095.97 468.704 1095.97 448.952V398.182C1095.97 389.881 1097.56 384.017 1100.74 380.568C1103.91 377.119 1109.46 375.395 1117.33 375.395H1170.83C1170.83 375.119 1170.76 374.912 1170.63 374.774C1170.07 372.014 1169.8 369.945 1169.8 368.565C1169.8 366.22 1171.57 364.105 1175.09 362.242C1178.61 360.38 1182.59 359.437 1187.01 359.437C1190.74 359.437 1193.64 360.609 1195.73 362.955C1197.8 365.3 1199.53 369.462 1200.91 375.395H1261.68C1264.31 375.395 1266.7 376.728 1268.84 379.442C1270.98 382.132 1272.06 385.144 1272.06 388.455C1272.06 391.766 1271.03 394.641 1268.96 397.055C1266.89 399.469 1264.47 400.688 1261.71 400.688H1190.76C1194.49 403.171 1196.35 405.931 1196.35 408.989C1196.35 410.506 1195.73 412.576 1194.49 415.197H1258.58C1261.2 415.197 1263.46 416.37 1265.32 418.715C1267.18 421.061 1268.13 423.958 1268.13 427.43C1268.13 430.902 1267.23 433.937 1265.44 436.145C1263.64 438.352 1261.36 439.456 1258.6 439.456H1181.03C1180.75 439.87 1180.2 440.766 1179.37 442.146C1175.5 448.216 1171.75 453.62 1168.16 458.311C1167.47 459.277 1167.13 459.966 1167.13 460.38C1167.13 461.07 1167.61 461.415 1168.58 461.415H1189.52V451.459C1189.52 448.699 1190.76 446.354 1193.25 444.422C1195.73 442.491 1198.77 441.525 1202.38 441.525C1206 441.525 1208.8 442.491 1211.31 444.422C1213.8 446.354 1215.04 448.699 1215.04 451.459V461.415H1253.42C1255.91 461.415 1258.09 462.588 1259.96 464.933C1261.82 467.278 1262.77 470.038 1262.77 473.234C1262.77 476.43 1261.87 479.143 1260.07 481.42C1258.28 483.696 1256.07 484.846 1253.45 484.846H1215.06V499.769H1262.35C1265.25 499.769 1267.67 500.919 1269.6 503.195C1271.53 505.471 1272.5 508.346 1272.5 511.795C1272.5 515.244 1271.53 518.325 1269.6 520.601C1267.67 522.878 1265.25 524.027 1262.35 524.027H1215.06V543.296C1215.06 546.056 1213.82 548.378 1211.33 550.241C1208.85 552.103 1205.88 553.046 1202.41 553.046C1198.93 553.046 1195.94 552.08 1193.38 550.149C1190.83 548.217 1189.54 545.941 1189.54 543.319V524.05H1132.91C1130.42 524.05 1128.21 522.809 1126.28 520.325C1124.35 517.842 1123.38 515.014 1123.38 511.818C1123.38 508.622 1124.33 505.678 1126.19 503.31C1128.05 500.965 1130.31 499.792 1132.93 499.792H1189.56V484.869H1148.49C1142.69 484.869 1139.01 483.351 1137.49 480.316C1135 475.625 1133.76 471.394 1133.76 467.669C1133.76 466.566 1134.08 465.462 1134.7 464.358C1135.33 463.254 1137.17 460.633 1140.2 456.494C1142.83 453.183 1146.69 447.504 1151.82 439.502H1136.06C1133.71 439.502 1131.64 438.26 1129.85 435.777C1128.05 433.293 1127.16 430.396 1127.16 427.062C1127.16 423.728 1128.01 421.13 1129.76 418.761C1131.48 416.416 1133.6 415.243 1136.08 415.243H1166.16L1170.72 406.528C1172.1 404.045 1173.41 402.114 1174.65 400.734L1174.61 400.665Z" fill="#EC6602"/>
</g>
<defs>
<linearGradient id="paint0_linear_107_85" x1="14.5703" y1="831.877" x2="1510.93" y2="831.877" gradientUnits="userSpaceOnUse">
<stop stop-color="#79CFD8" stop-opacity="0.92"/>
<stop offset="0.03" stop-color="#79CFD8" stop-opacity="0.73"/>
<stop offset="0.06" stop-color="#7ACFD8" stop-opacity="0.55"/>
<stop offset="0.09" stop-color="#7ACFD8" stop-opacity="0.4"/>
<stop offset="0.12" stop-color="#7BCFD8" stop-opacity="0.28"/>
<stop offset="0.16" stop-color="#7BCFD8" stop-opacity="0.17"/>
<stop offset="0.2" stop-color="#7BCFD8" stop-opacity="0.09"/>
<stop offset="0.25" stop-color="#7BCFD8" stop-opacity="0.04"/>
<stop offset="0.33" stop-color="#7BCFD8" stop-opacity="0"/>
<stop offset="0.53" stop-color="#7CD0D9" stop-opacity="0"/>
<stop offset="0.72" stop-color="#7BCFD8" stop-opacity="0"/>
<stop offset="0.78" stop-color="#79CFD8" stop-opacity="0.04"/>
<stop offset="0.83" stop-color="#75CDD7" stop-opacity="0.1"/>
<stop offset="0.87" stop-color="#70CCD5" stop-opacity="0.19"/>
<stop offset="0.9" stop-color="#6AC9D3" stop-opacity="0.3"/>
<stop offset="0.93" stop-color="#62C6D1" stop-opacity="0.43"/>
<stop offset="0.95" stop-color="#58C3CE" stop-opacity="0.6"/>
<stop offset="0.98" stop-color="#4EBFCB" stop-opacity="0.78"/>
<stop offset="1" stop-color="#41BBC8"/>
</linearGradient>
<linearGradient id="paint1_linear_107_85" x1="13.746" y1="831.877" x2="1511.75" y2="831.877" gradientUnits="userSpaceOnUse">
<stop stop-color="white"/>
<stop offset="1" stop-color="#41BBC8"/>
</linearGradient>
<linearGradient id="paint2_linear_107_85" x1="0.000174824" y1="1181.52" x2="2.22802" y2="1181.52" gradientUnits="userSpaceOnUse">
<stop stop-color="#79CFD8" stop-opacity="0.92"/>
<stop offset="0.03" stop-color="#79CFD8" stop-opacity="0.73"/>
<stop offset="0.06" stop-color="#7ACFD8" stop-opacity="0.55"/>
<stop offset="0.09" stop-color="#7ACFD8" stop-opacity="0.4"/>
<stop offset="0.12" stop-color="#7BCFD8" stop-opacity="0.28"/>
<stop offset="0.16" stop-color="#7BCFD8" stop-opacity="0.17"/>
<stop offset="0.2" stop-color="#7BCFD8" stop-opacity="0.09"/>
<stop offset="0.25" stop-color="#7BCFD8" stop-opacity="0.04"/>
<stop offset="0.33" stop-color="#7BCFD8" stop-opacity="0"/>
<stop offset="0.53" stop-color="#7CD0D9" stop-opacity="0"/>
<stop offset="0.72" stop-color="#7BCFD8" stop-opacity="0"/>
<stop offset="0.78" stop-color="#79CFD8" stop-opacity="0.04"/>
<stop offset="0.83" stop-color="#75CDD7" stop-opacity="0.1"/>
<stop offset="0.87" stop-color="#70CCD5" stop-opacity="0.19"/>
<stop offset="0.9" stop-color="#6AC9D3" stop-opacity="0.3"/>
<stop offset="0.93" stop-color="#62C6D1" stop-opacity="0.43"/>
<stop offset="0.95" stop-color="#58C3CE" stop-opacity="0.6"/>
<stop offset="0.98" stop-color="#4EBFCB" stop-opacity="0.78"/>
<stop offset="1" stop-color="#41BBC8"/>
</linearGradient>
<linearGradient id="paint3_linear_107_85" x1="0.000174824" y1="1181.52" x2="2.22802" y2="1181.52" gradientUnits="userSpaceOnUse">
<stop stop-color="white"/>
<stop offset="1" stop-color="#41BBC8"/>
</linearGradient>
<clipPath id="clip0_107_85">
<rect width="1522" height="580" fill="white" transform="translate(0 717)"/>
</clipPath>
<clipPath id="clip1_107_85">
<rect width="1023" height="194" fill="white" transform="translate(249.5 359)"/>
</clipPath>
</defs>
</svg>
