<?xml version="1.0" encoding="UTF-8"?>
<svg id="_图层_2" data-name="图层 2" xmlns="http://www.w3.org/2000/svg" xmlns:xlink="http://www.w3.org/1999/xlink" viewBox="0 0 111 112">
  <defs>
    <style>
      .cls-1, .cls-2 {
        fill: #fff;
      }

      .cls-1, .cls-3 {
        stroke-width: 0px;
      }

      .cls-2 {
        filter: url(#outer-glow-1);
        stroke: #ec6602;
        stroke-miterlimit: 10;
      }

      .cls-3 {
        fill: #ec6602;
      }
    </style>
    <filter id="outer-glow-1" filterUnits="userSpaceOnUse">
      <feOffset dx="0" dy="0"/>
      <feGaussianBlur result="blur" stdDeviation="5"/>
      <feFlood flood-color="#e87400" flood-opacity=".75"/>
      <feComposite in2="blur" operator="in"/>
      <feComposite in="SourceGraphic"/>
    </filter>
  </defs>
  <g id="_图层_1-2" data-name="图层 1">
    <g>
      <circle class="cls-2" cx="55.47" cy="55.96" r="39.69"/>
      <circle class="cls-1" cx="55.47" cy="55.96" r="39.69"/>
      <path class="cls-3" d="m59.6,77.94v-13.07h-8.21v13.1c-.26.01-.46.03-.67.03-3.88,0-7.76,0-11.64,0-1.33,0-2.23-.85-2.24-2.27-.03-5.38-.02-10.76,0-16.13,0-.28.22-.65.43-.84,3.51-3.1,7.04-6.18,10.56-9.27,2.34-2.05,4.69-4.11,7.03-6.16.18-.16.37-.31.6-.51,1.4,1.22,2.79,2.44,4.18,3.66,4.59,4.02,9.17,8.04,13.77,12.04.49.43.71.86.7,1.56-.03,5.1-.02,10.21-.01,15.31,0,.93-.22,1.73-.99,2.25-.28.19-.63.35-.95.35-4.12.02-8.23.01-12.35,0-.06,0-.12-.03-.23-.06h0Zm6.18-36.18c0-2.16,0-4.15,0-6.14,0-1.27.29-1.57,1.48-1.58,1.85,0,3.71,0,5.56,0,.96,0,1.29.36,1.29,1.44,0,4.26.01,8.52-.01,12.78,0,.66.17,1.08.66,1.5,2.03,1.74,4.03,3.52,6.03,5.3.98.87,1.01,1.29.18,2.33-.5.63-.99,1.27-1.5,1.89-.62.78-1.13.82-1.88.16-7.11-6.3-14.23-12.61-21.34-18.92-.25-.22-.5-.43-.79-.68-1.6,1.42-3.19,2.82-4.77,4.22-5.77,5.12-11.55,10.24-17.32,15.35-.78.69-1.27.65-1.93-.16-.54-.68-1.09-1.36-1.62-2.05-.63-.8-.6-1.32.16-1.99,3.22-2.86,6.45-5.72,9.68-8.57,4.3-3.81,8.61-7.61,12.91-11.43,1.95-1.73,3.85-1.73,5.81.01,2.31,2.06,4.63,4.11,6.95,6.16.11.1.23.19.46.38h0Z"/>
    </g>
  </g>
</svg>