<svg width="135" height="135" viewBox="0 0 135 135" fill="none" xmlns="http://www.w3.org/2000/svg">
<path opacity="0.3" d="M0 67.5C0 30.2814 30.0807 0 67.0527 0C104.025 0 134.105 30.2814 134.105 67.5C134.105 104.719 104.025 135 67.0527 135C30.0807 135 0 104.719 0 67.5Z" fill="#009EA7"/>
<path d="M79.4789 114.056C77.7506 114.056 76.0224 113.396 74.7097 112.074L38.7223 75.8467C34.4344 71.5303 34.4344 64.527 38.7223 60.2105L74.7097 23.9829C77.3569 21.3182 81.6228 21.3182 84.2481 23.9829C86.8952 26.6477 86.8952 30.9422 84.2481 33.5849L50.0326 68.0286L84.2481 102.472C86.8952 105.137 86.8952 109.432 84.2481 112.074C82.9355 113.396 81.2072 114.056 79.4789 114.056Z" fill="#EC6602"/>
</svg>
