<svg width="525" height="122" viewBox="0 0 525 122" fill="none" xmlns="http://www.w3.org/2000/svg">
<g clip-path="url(#clip0_2_559)">
<path d="M27.1054 89.9012H11.4054V69.1943H0V120.786H11.4054V99.2858H27.1054V120.786H38.5108V69.1943H27.1054V89.9012Z" fill="white"/>
<path d="M145.008 113.363C142.262 113.363 141.464 111.799 141.464 107.503V69.1943H130.458V109.067C130.458 115.721 131.232 121.977 142.239 121.977C145.782 121.977 149.702 120.81 152.072 119.246L149.725 112.219C148.153 112.989 146.58 113.386 145.008 113.386V113.363Z" fill="white"/>
<path d="M207.879 80.1431C204.335 80.1431 200.815 81.7072 198.045 84.4385V69.1943H187.438V120.786H198.045V95.3872C198.045 91.8622 200.791 88.7339 204.734 88.7339C209.052 88.7339 209.85 91.8622 209.85 95.7607V120.786H220.856V94.1966C220.856 84.812 216.139 80.1197 207.879 80.1197V80.1431Z" fill="white"/>
<path d="M235.782 63.708C234.209 63.708 232.637 64.1049 231.464 65.2721C230.29 66.4393 229.891 67.6066 229.891 69.1707C229.891 70.7348 230.29 72.2989 231.464 73.0693C232.637 74.2365 233.81 74.6334 235.782 74.6334C237.354 74.6334 238.926 74.2365 240.1 73.0693C241.273 72.2989 241.672 70.7348 241.672 69.1707C241.672 67.6066 241.273 66.4393 240.1 65.2721C238.926 64.1049 237.354 63.708 235.782 63.708Z" fill="white"/>
<path d="M271.946 80.1426C266.454 80.1426 262.512 82.4771 260.165 86.0021L259.39 81.3098H250.355L250.754 88.7335V120.786H261.761V95.3867C261.761 91.8617 264.506 88.7335 268.449 88.7335C272.767 88.7335 273.565 91.8617 273.565 96.1571V120.786H284.173V93.8226C284.173 84.8349 279.456 80.1426 271.993 80.1426H271.946Z" fill="white"/>
<path d="M378.819 87.1693L378.044 81.3097H369.009L369.783 88.3365V120.786H380.79V96.157C380.79 92.2584 383.137 89.5038 387.478 89.5038C389.45 89.5038 391.022 90.2741 392.97 91.0679L394.941 81.6832C392.97 80.516 390.623 80.1191 388.253 80.1191C384.709 80.1191 380.79 82.4536 378.819 87.1459V87.1693Z" fill="white"/>
<path d="M427.561 107.9C427.162 100.079 420.498 98.1181 414.584 96.554C411.04 95.7836 408.693 94.9899 408.294 91.8617C408.294 89.1303 410.266 88.3366 413.011 87.9631C415.358 87.9631 418.503 89.1303 421.648 91.0913L424.792 83.6676C421.249 81.3332 416.93 80.1426 411.814 80.1426C403.554 80.5394 397.264 85.6053 398.062 93.8226C398.461 102.04 404.352 103.978 410.242 105.168C413.786 105.939 416.532 106.732 416.93 109.464C416.93 112.592 414.959 113.759 411.814 114.156C408.271 114.156 403.953 112.592 401.207 111.028L397.663 118.451C400.01 120.016 405.924 122.35 412.988 121.976C422.023 121.58 427.913 116.887 427.538 107.9H427.561Z" fill="white"/>
<path d="M172.113 113.363C168.969 113.363 168.194 111.799 168.194 107.503V89.9012H178.403V81.3103H168.194V69.1943H157.188V81.3103H151.297V89.9012H157.188V109.044C157.188 115.697 157.962 121.954 168.969 121.954C172.512 121.954 176.831 120.786 179.177 119.222L176.831 112.195C174.859 112.966 173.287 113.363 172.113 113.363Z" fill="white"/>
<path d="M310.832 113.759C304.942 113.759 302.571 109.86 301.797 105.939C303.768 105.939 305.716 105.939 307.288 105.542C315.549 104.374 323.411 101.246 323.411 91.4647C323.411 84.4379 318.295 80.1191 310.433 80.1191C309.26 80.1191 308.462 80.516 307.288 80.516C296.681 82.0801 290.791 91.4647 290.791 102.017C290.791 113.736 296.282 121.953 309.659 121.953C317.52 121.953 323.012 118.428 323.81 117.658L320.665 110.234C318.694 111.798 315.174 113.759 310.832 113.759ZM307.312 88.3365C308.086 87.9397 308.884 87.9397 310.058 87.9397C312.404 87.9397 313.977 89.5038 313.977 91.8382C313.977 94.9664 310.832 96.9274 307.288 97.6978C305.317 98.0946 303.369 98.4682 301.398 98.4682C301.797 93.7759 303.745 89.4804 307.288 88.3132L307.312 88.3365Z" fill="white"/>
<path d="M66.8131 113.759C60.9226 113.759 58.1769 109.86 57.7779 105.939C59.7492 105.939 61.3216 105.939 63.2694 105.542C71.1311 104.374 79.3918 101.246 79.3918 91.4647C79.3918 84.4379 74.2758 80.1191 66.4141 80.1191C65.2407 80.1191 64.0673 80.516 63.2694 80.516C52.263 82.0801 46.7715 91.4647 46.7715 102.017C46.7715 113.736 52.263 121.953 65.2407 121.953C73.1024 121.953 78.5939 118.428 79.7908 117.658L76.6461 110.234C74.2993 111.798 71.1546 113.759 66.8131 113.759ZM63.2694 88.3365C64.0438 87.9397 64.8418 87.9397 65.6162 87.9397C67.963 87.9397 69.5353 89.5038 69.5353 91.8382C69.5353 94.9664 66.7896 96.9274 63.2459 97.6978C61.2746 98.0946 59.3268 98.4682 57.3555 98.4682C57.3555 93.7759 59.3268 89.4804 63.2459 88.3132L63.2694 88.3365Z" fill="white"/>
<path d="M348.967 113.759C343.077 113.759 340.331 109.86 339.932 105.939C341.904 105.939 343.476 105.939 345.424 105.542C353.285 104.374 361.546 101.246 361.546 91.4647C361.546 84.4379 356.43 80.1191 348.568 80.1191C347.395 80.1191 346.222 80.516 345.424 80.516C334.417 82.0801 328.926 91.4647 328.926 102.017C328.926 113.736 334.417 121.953 347.395 121.953C355.257 121.953 360.748 118.428 361.945 117.658L358.8 110.234C356.454 111.798 353.309 113.759 348.967 113.759ZM345.424 88.3365C346.198 87.9397 346.996 87.9397 347.77 87.9397C350.117 87.9397 351.69 89.5038 351.69 91.8382C351.69 94.9664 348.944 96.9274 345.4 97.6978C343.429 98.0946 341.481 98.4682 339.51 98.4682C339.51 93.7759 341.481 89.4804 345.4 88.3132L345.424 88.3365Z" fill="white"/>
<path d="M120.648 83.2708C114.758 80.9363 108.868 80.1426 106.098 80.1426C105.324 80.1426 104.127 80.5394 103.353 80.5394C91.5717 81.7067 85.2823 90.3209 85.2823 102.81C85.2823 113.362 89.2014 121.976 100.607 121.976C101.381 121.976 102.578 121.58 103.353 121.58C106.497 121.183 109.243 119.619 111.214 116.887H111.613L112.012 120.786H121.446L120.672 112.965V83.2474L120.648 83.2708ZM109.642 108.273C109.642 111.004 107.295 114.133 103.353 114.133C97.4621 114.133 96.2887 108.67 96.2887 102.414C96.2887 95.3867 98.26 89.5038 103.353 88.3366H104.925C106.896 88.3366 108.844 88.7335 109.642 89.107V108.273Z" fill="white"/>
<path d="M230.29 81.3096V101.246V120.786H235.782H241.273V101.246V81.3096H235.782H230.29Z" fill="white"/>
<path d="M522.254 56.2845C519.907 54.3235 517.537 53.1562 514.791 53.1562C512.046 53.1562 509.3 54.3235 507.329 56.2845C505.357 58.2454 504.583 60.9768 504.583 63.7081C504.583 66.0426 505.357 68.7973 507.329 70.7349C509.3 72.6959 512.046 73.8631 514.791 73.8631C517.537 73.8631 519.907 72.6959 522.254 70.7349C524.226 68.7739 525 66.0426 525 63.7081C525 60.9768 524.226 58.2454 522.254 56.2845Z" fill="white"/>
<path d="M495.524 74.6572C493.553 74.6572 491.605 75.4276 490.033 76.9917C488.46 78.5558 487.686 80.5168 487.686 82.4544C487.686 84.392 488.46 86.353 490.033 87.9171C491.605 89.4812 493.576 90.2516 495.524 90.2516C497.472 90.2516 499.842 89.4812 501.415 87.9171C502.987 86.353 503.762 84.392 503.762 82.4544C503.762 80.5168 502.987 78.5558 501.415 76.9917C499.842 75.4276 497.496 74.6572 495.524 74.6572Z" fill="white"/>
<path d="M495.524 36.7451C493.553 36.7451 491.605 37.5155 490.033 39.0796C488.46 40.6437 487.686 42.6047 487.686 44.5423C487.686 46.8768 488.46 48.8377 490.033 50.4018C491.605 51.9659 493.576 52.7363 495.524 52.7363C497.472 52.7363 499.842 51.9659 501.415 50.4018C502.987 48.8377 503.762 46.8768 503.762 44.5423C503.762 42.5813 502.987 40.6437 501.415 39.0796C499.842 37.5155 497.496 36.7451 495.524 36.7451Z" fill="white"/>
<path d="M476.68 95.3877C475.107 95.3877 473.535 95.7846 472.361 96.9518C471.188 98.5159 470.39 100.08 470.39 101.247C470.39 103.208 471.165 104.772 472.361 105.543C473.535 107.107 475.107 107.504 476.68 107.504C478.252 107.504 479.824 107.107 480.998 105.543C482.171 104.772 482.57 103.208 482.57 101.247C482.57 100.08 482.171 98.5159 480.998 96.9518C479.824 95.7846 478.252 95.3877 476.68 95.3877Z" fill="white"/>
<path d="M476.68 57.4756C475.107 57.4756 473.535 58.246 472.361 59.4365C471.188 60.6038 470.39 62.1679 470.39 63.732C470.39 65.2961 471.165 66.8602 472.361 68.0274C473.535 69.1947 475.107 69.5915 476.68 69.5915C478.252 69.5915 479.824 69.1947 480.998 68.0274C482.171 66.8602 482.57 65.2961 482.57 63.732C482.57 62.1679 482.171 60.6038 480.998 59.4365C479.824 58.2693 478.252 57.4756 476.68 57.4756Z" fill="white"/>
<path d="M476.68 19.54C475.107 19.54 473.535 20.3104 472.361 21.501C471.188 22.6682 470.39 24.2323 470.39 25.7965C470.39 27.3606 471.165 28.9247 472.361 30.0919C473.535 31.2591 475.107 32.0529 476.68 32.0529C478.252 32.0529 479.824 31.2825 480.998 30.0919C482.171 28.9247 482.57 27.3606 482.57 25.7965C482.57 24.2323 482.171 22.6682 480.998 21.501C479.824 20.3338 478.252 19.54 476.68 19.54Z" fill="white"/>
<path d="M457.413 77.7852C456.239 77.7852 455.066 78.182 454.268 79.3493C453.094 80.1196 452.695 81.3102 452.695 82.4775C452.695 83.6447 453.094 84.8119 454.268 86.0025C455.042 86.7729 456.239 87.1698 457.413 87.1698C458.586 87.1698 459.759 86.7729 460.956 86.0025C461.731 84.8353 462.13 83.6681 462.13 82.4775C462.13 81.2869 461.731 80.143 460.956 79.3493C459.783 78.182 458.609 77.7852 457.413 77.7852Z" fill="white"/>
<path d="M457.413 39.873C456.239 39.873 455.066 40.6434 454.268 41.4371C453.094 42.2075 452.695 43.3981 452.695 44.5654C452.695 45.7326 453.094 47.2967 454.268 48.0904C455.042 48.8608 456.239 49.2577 457.413 49.2577C458.586 49.2577 459.759 48.8608 460.956 48.0904C461.731 47.32 462.13 45.7559 462.13 44.5654C462.13 43.3748 461.731 42.2309 460.956 41.4371C459.783 40.6668 458.609 39.873 457.413 39.873Z" fill="white"/>
<path d="M438.544 60.207C437.371 60.207 436.573 60.6039 435.799 60.9774C435.024 61.7478 434.625 62.5415 434.625 63.7088C434.625 64.4791 435.024 65.6697 435.799 66.0432C436.573 66.8136 437.371 67.2105 438.544 67.2105C439.319 67.2105 440.117 66.8136 440.891 66.0432C441.665 65.6464 442.064 64.4791 442.064 63.7088C442.064 62.5415 441.665 61.7478 440.891 60.9774C440.117 60.5805 439.319 60.207 438.544 60.207Z" fill="white"/>
<path d="M150.124 17.602C146.205 16.0379 143.835 14.8706 143.06 14.4738C141.887 13.7034 141.488 12.9097 141.488 11.7424C141.488 9.0111 144.234 7.447 148.951 7.447C152.87 7.447 156.812 8.61424 160.732 10.1783V1.5641C155.24 0.396862 150.898 0 147.754 0C142.262 0 137.921 1.16724 134.776 3.52507C131.232 5.85955 129.66 8.98775 129.66 13.6801C129.66 16.8083 130.833 19.9365 133.204 22.271C134.776 23.8351 138.695 25.796 144.609 28.1305C148.153 29.6946 150.101 30.8618 150.898 31.6556C151.673 32.0524 152.072 33.2197 152.072 33.99C152.072 37.1183 149.326 38.2855 143.811 38.2855C139.892 38.2855 135.55 37.5151 130.458 35.951V44.9388C135.175 46.106 139.892 46.5029 144.609 46.5029C150.101 46.5029 154.442 45.3356 157.962 43.3747C162.28 41.0402 164.252 37.1183 164.252 32.4259C164.252 28.9009 163.477 26.1695 161.107 23.8351C159.136 22.271 155.616 19.9365 150.101 17.5786L150.124 17.602Z" fill="white"/>
<path d="M207.878 26.5899H225.573V18.7694H207.878V8.59102H228.319V0.770508H195.699V45.7326H228.718V37.1417H207.878V26.5899Z" fill="white"/>
<path d="M264.859 29.3212L253.453 0.770508H236.955V45.7326H245.99V13.6802L258.968 46.1295H266.83L280.183 13.6802V45.7326H292.363V0.770508H276.639L264.859 29.3212Z" fill="white"/>
<path d="M315.948 26.5899H334.018V18.7694H315.948V8.59102H336.389V0.770508H303.768V45.7326H337.163V37.1417H315.948V26.5899Z" fill="white"/>
<path d="M375.674 30.8853L359.95 0.770508H345.424V45.7326H354.06V15.2443L370.182 45.7326H384.333V0.770508H375.674V30.8853Z" fill="white"/>
<path d="M424.417 23.8351C422.445 22.271 418.526 19.9365 413.011 17.5786C409.468 16.0145 406.722 14.8473 405.947 14.4504C405.173 13.6801 404.375 12.8863 404.375 11.7191C404.375 8.98775 407.121 7.42365 412.237 7.42365C415.78 7.42365 419.7 8.59089 424.018 10.155V1.5641L422.844 1.16724C417.728 0.396862 413.809 0 411.063 0C405.572 0 401.23 1.16724 397.71 3.52507C394.166 5.85955 392.594 8.98775 392.594 13.6801C392.594 16.8083 393.768 19.9365 396.138 22.271C398.109 23.8351 402.028 25.796 407.919 28.1305C411.063 29.6946 413.41 30.8618 414.208 31.6556C414.982 32.0524 415.381 33.2197 415.381 33.99C415.381 37.1183 412.636 38.2855 407.121 38.2855C403.202 38.2855 398.485 37.5151 393.369 35.951V44.9388C398.086 46.106 402.803 46.5029 407.52 46.5029C413.011 46.5029 417.728 45.3356 421.272 43.3747C425.191 41.0402 427.561 37.1183 427.561 32.4259C427.561 28.9009 426.388 26.1695 424.417 23.8351Z" fill="white"/>
<path d="M171.738 0.770508V23.0648V45.7326H178.004H184.293V23.0648V0.770508H178.004H171.738Z" fill="white"/>
</g>
<defs>
<clipPath id="clip0_2_559">
<rect width="525" height="122" fill="white"/>
</clipPath>
</defs>
</svg>
