<?xml version="1.0" encoding="UTF-8"?>
<svg id="_图层_2" data-name="图层 2" xmlns="http://www.w3.org/2000/svg" viewBox="0 0 109.55 109.55">
  <defs>
    <style>
      .cls-1 {
        fill: #fff;
      }

      .cls-1, .cls-2 {
        stroke-width: 0px;
      }

      .cls-2 {
        fill: #aaa;
        opacity: .5;
      }
    </style>
  </defs>
  <g id="_图层_1-2" data-name="图层 1">
    <g>
      <path class="cls-2" d="m54.77,109.55c-7.39,0-14.57-1.45-21.32-4.31-6.52-2.76-12.38-6.71-17.41-11.74-5.03-5.03-8.98-10.89-11.74-17.41-2.86-6.75-4.31-13.93-4.31-21.32s1.45-14.57,4.31-21.32c2.76-6.52,6.71-12.38,11.74-17.41,5.03-5.03,10.89-8.98,17.41-11.74C40.21,1.45,47.38,0,54.77,0s14.57,1.45,21.32,4.31c6.52,2.76,12.38,6.71,17.41,11.74,5.03,5.03,8.98,10.89,11.74,17.41,2.86,6.75,4.31,13.93,4.31,21.32s-1.45,14.57-4.31,21.32c-2.76,6.52-6.71,12.38-11.74,17.41-5.03,5.03-10.89,8.98-17.41,11.74-6.75,2.86-13.93,4.31-21.32,4.31Z"/>
      <path class="cls-1" d="m78.27,59.54l-33.53,24.17c-3.88,2.8-9.31.02-9.31-4.76V30.6c0-4.79,5.42-7.56,9.31-4.76l33.53,24.17c3.25,2.34,3.25,7.18,0,9.53Z"/>
    </g>
  </g>
</svg>