<svg width="135" height="135" viewBox="0 0 135 135" fill="none" xmlns="http://www.w3.org/2000/svg">
<path opacity="0.3" d="M134.105 67.5C134.105 104.719 104.025 135 67.0527 135C30.0808 135 0 104.719 0 67.5C0 30.2814 30.0808 0 67.0527 0C104.025 0 134.105 30.2814 134.105 67.5Z" fill="#009EA7"/>
<path d="M54.6485 20.9216C56.3768 20.9216 58.1051 21.5823 59.4177 22.9037L95.4052 59.1313C99.6931 63.4477 99.6931 70.451 95.4052 74.7675L59.4177 110.995C56.7706 113.66 52.5046 113.66 49.8794 110.995C47.2541 108.33 47.2323 104.036 49.8794 101.393L84.0947 66.9494L49.8794 32.5056C47.2323 29.8409 47.2323 25.5464 49.8794 22.9037C51.192 21.5823 52.9202 20.9216 54.6485 20.9216Z" fill="#EC6602"/>
</svg>
